M48
;Layer_Color=9474304
;FILE_FORMAT=4:4
METRIC,TZ
;TYPE=PLATED
T1F00S00C0.3200
T2F00S00C0.5000
T3F00S00C0.8128
T4F00S00C0.9000
%
T01
X104585Y10160
X91860Y78960
X80860
Y89960
X91860
X80010Y123190
X143510Y201420
X138670Y231380
X133510Y254000
X105410Y257575
X110490Y283210
X67310Y355600
X92710Y175260
X67310Y142240
T02
X53785Y69850
X52285Y117895
X128510Y64770
X99610Y302900
X52285Y273470
T03
X54610Y20320
Y41910
X80000
X80010Y20320
T04
X16510Y20320
Y45720
Y71120
Y96520
Y121920
X168910
Y96520
Y71120
Y45720
Y20320
Y147320
Y172720
Y198120
Y223520
Y248920
Y274320
Y299720
Y325120
Y350520
Y375920
X16510
Y350520
Y325120
Y299720
Y274320
Y248920
Y223520
Y198120
Y172720
Y147320
M30
