G04*
G04 #@! TF.GenerationSoftware,Altium Limited,Altium Designer,19.0.10 (269)*
G04*
G04 Layer_Color=32896*
%FSLAX44Y44*%
%MOMM*%
G71*
G01*
G75*
G36*
X102461Y292953D02*
X102837Y292812D01*
X103072Y292718D01*
X103119Y292671D01*
X103166D01*
X103448Y292389D01*
X103637Y292107D01*
X103825Y291778D01*
X103919Y291495D01*
X103966Y291213D01*
X104013Y290978D01*
Y290790D01*
X103966Y290461D01*
X103919Y290132D01*
X103684Y289568D01*
X103542Y289333D01*
X103448Y289192D01*
X103401Y289098D01*
X103355Y289051D01*
X103166Y288863D01*
X102931Y288722D01*
X102508Y288533D01*
X102320D01*
X102132Y288486D01*
X102038D01*
X101991D01*
X77214D01*
X102179Y273160D01*
X102790Y272689D01*
X103213Y272219D01*
X103542Y271749D01*
X103731Y271279D01*
X103872Y270903D01*
X103919Y270574D01*
X103966Y270386D01*
Y270292D01*
X103919Y269821D01*
X103825Y269398D01*
X103637Y269069D01*
X103401Y268787D01*
X102837Y268317D01*
X102179Y267988D01*
X101568Y267800D01*
X101004Y267706D01*
X100769Y267659D01*
X100581D01*
X100486D01*
X100440D01*
X74440D01*
X74017Y267706D01*
X73688Y267800D01*
X73500Y267941D01*
X73406Y267988D01*
X73077Y268270D01*
X72842Y268552D01*
X72700Y268881D01*
X72559Y269210D01*
X72512Y269492D01*
X72465Y269727D01*
Y269915D01*
X72512Y270292D01*
X72606Y270621D01*
X72842Y271185D01*
X73029Y271373D01*
X73124Y271561D01*
X73218Y271655D01*
X73265Y271702D01*
X73406Y271843D01*
X73594Y271984D01*
X73970Y272125D01*
X74158D01*
X74299Y272172D01*
X74393D01*
X74440D01*
X96725D01*
X74111Y286136D01*
X73547Y286559D01*
X73124Y287076D01*
X72794Y287593D01*
X72606Y288063D01*
X72465Y288486D01*
X72418Y288863D01*
X72371Y289098D01*
Y289192D01*
X72418Y289897D01*
X72512Y290414D01*
X72606Y290649D01*
X72653Y290790D01*
X72700Y290884D01*
Y290931D01*
X72888Y291307D01*
X73124Y291590D01*
X73641Y292107D01*
X74205Y292483D01*
X74769Y292718D01*
X75333Y292906D01*
X75756Y292953D01*
X75944Y293000D01*
X76086D01*
X76133D01*
X76180D01*
X101991D01*
X102461Y292953D01*
D02*
G37*
G36*
X93904Y261829D02*
X94751Y261782D01*
X96255Y261500D01*
X96960Y261265D01*
X97572Y261077D01*
X98183Y260841D01*
X98700Y260606D01*
X99217Y260371D01*
X99640Y260136D01*
X100016Y259901D01*
X100299Y259713D01*
X100534Y259572D01*
X100722Y259431D01*
X100816Y259384D01*
X100863Y259337D01*
X101474Y258773D01*
X102038Y258209D01*
X102508Y257550D01*
X102931Y256939D01*
X103260Y256281D01*
X103542Y255623D01*
X103778Y255012D01*
X103966Y254400D01*
X104154Y253836D01*
X104248Y253272D01*
X104342Y252802D01*
X104389Y252379D01*
Y252050D01*
X104436Y251814D01*
Y251579D01*
X104389Y251015D01*
X104342Y250545D01*
X104248Y250169D01*
X104107Y249840D01*
X104013Y249558D01*
X103919Y249370D01*
X103872Y249276D01*
X103825Y249229D01*
X103542Y248523D01*
X103260Y247912D01*
X102931Y247395D01*
X102602Y246878D01*
X102226Y246455D01*
X101897Y246079D01*
X101521Y245749D01*
X101145Y245467D01*
X100534Y244997D01*
X99969Y244715D01*
X99781Y244621D01*
X99640Y244574D01*
X99546Y244527D01*
X99499D01*
X102273Y244433D01*
X102837Y244292D01*
X103260Y244057D01*
X103590Y243775D01*
X103778Y243399D01*
X103919Y243070D01*
X103966Y242787D01*
X104013Y242600D01*
Y242505D01*
X103919Y241847D01*
X103731Y241377D01*
X103401Y241001D01*
X103025Y240766D01*
X102696Y240625D01*
X102367Y240578D01*
X102179Y240531D01*
X102085D01*
X83843D01*
X83514Y240578D01*
X83232Y240625D01*
X83044Y240672D01*
X82950Y240719D01*
X82574Y240954D01*
X82292Y241283D01*
X82104Y241612D01*
X81962Y241894D01*
X81868Y242223D01*
X81821Y242458D01*
Y242694D01*
X81868Y243070D01*
X81916Y243399D01*
X82057Y243728D01*
X82150Y243963D01*
X82292Y244151D01*
X82433Y244292D01*
X82480Y244386D01*
X82527Y244433D01*
X82950Y244715D01*
X83373Y244856D01*
X83561D01*
X83702Y244903D01*
X83796D01*
X83843D01*
X85395D01*
X84783Y245373D01*
X84219Y245844D01*
X83749Y246408D01*
X83373Y246925D01*
X82997Y247489D01*
X82715Y248053D01*
X82480Y248617D01*
X82292Y249135D01*
X82057Y250122D01*
X81962Y250545D01*
X81916Y250921D01*
X81868Y251203D01*
Y251626D01*
X81916Y252567D01*
X82057Y253507D01*
X82245Y254353D01*
X82527Y255153D01*
X82856Y255858D01*
X83232Y256563D01*
X83608Y257174D01*
X84031Y257691D01*
X84454Y258209D01*
X84830Y258632D01*
X85206Y259008D01*
X85536Y259290D01*
X85771Y259525D01*
X86006Y259713D01*
X86147Y259807D01*
X86194Y259854D01*
X86758Y260230D01*
X87322Y260512D01*
X88498Y261029D01*
X89673Y261359D01*
X90754Y261641D01*
X91224Y261688D01*
X91648Y261782D01*
X92071Y261829D01*
X92400D01*
X92682Y261876D01*
X92870D01*
X93011D01*
X93058D01*
X93904Y261829D01*
D02*
G37*
G36*
X102461Y233619D02*
X102790Y233479D01*
X103025Y233384D01*
X103119Y233337D01*
X103401Y233055D01*
X103637Y232773D01*
X103778Y232444D01*
X103919Y232115D01*
X103966Y231833D01*
X104013Y231598D01*
Y231410D01*
X103966Y230987D01*
X103919Y230658D01*
X103778Y230375D01*
X103637Y230093D01*
X103542Y229905D01*
X103401Y229764D01*
X103355Y229717D01*
X103308Y229670D01*
X103119Y229482D01*
X102884Y229388D01*
X102461Y229200D01*
X102273D01*
X102132Y229153D01*
X102038D01*
X101991D01*
X92212D01*
X91460Y229059D01*
X90754Y228871D01*
X90049Y228589D01*
X89485Y228213D01*
X88968Y227884D01*
X88592Y227602D01*
X88357Y227414D01*
X88263Y227320D01*
X87839Y226896D01*
X87510Y226473D01*
X87181Y226050D01*
X86946Y225627D01*
X86523Y224875D01*
X86241Y224169D01*
X86100Y223558D01*
X86006Y223135D01*
X85959Y222947D01*
Y222712D01*
X86006Y222054D01*
X86194Y221537D01*
X86429Y221019D01*
X86758Y220596D01*
X87134Y220267D01*
X87557Y219985D01*
X88027Y219750D01*
X88498Y219562D01*
X89438Y219280D01*
X89908Y219186D01*
X90284Y219139D01*
X90613Y219092D01*
X90848D01*
X91036D01*
X91083D01*
X101991D01*
X102461Y219045D01*
X102837Y218904D01*
X103072Y218763D01*
X103166Y218716D01*
X103448Y218433D01*
X103637Y218151D01*
X103825Y217822D01*
X103919Y217540D01*
X103966Y217258D01*
X104013Y217023D01*
Y216835D01*
X103966Y216365D01*
X103872Y215942D01*
X103684Y215613D01*
X103496Y215331D01*
X103308Y215096D01*
X103119Y214954D01*
X103025Y214860D01*
X102978Y214813D01*
X102602Y214625D01*
X102320Y214578D01*
X102085Y214531D01*
X101991D01*
X90613D01*
X89438Y214578D01*
X88357Y214719D01*
X87463Y214954D01*
X86664Y215189D01*
X86006Y215472D01*
X85536Y215660D01*
X85395Y215754D01*
X85254Y215848D01*
X85206Y215895D01*
X85160D01*
X84595Y216318D01*
X84078Y216741D01*
X83655Y217258D01*
X83232Y217775D01*
X82950Y218293D01*
X82668Y218810D01*
X82433Y219327D01*
X82292Y219844D01*
X82057Y220784D01*
X81962Y221208D01*
X81916Y221537D01*
X81868Y221819D01*
Y222242D01*
X81916Y223182D01*
X82057Y224075D01*
X82292Y224875D01*
X82480Y225580D01*
X82715Y226144D01*
X82950Y226614D01*
X83091Y226896D01*
X83138Y226943D01*
Y226990D01*
X83608Y227696D01*
X84125Y228307D01*
X84642Y228777D01*
X85112Y229153D01*
X85583Y229435D01*
X85912Y229623D01*
X86147Y229717D01*
X86241Y229764D01*
X84078Y229858D01*
X83467Y229999D01*
X82997Y230234D01*
X82668Y230564D01*
X82480Y230893D01*
X82339Y231269D01*
X82292Y231551D01*
X82245Y231739D01*
Y231833D01*
X82339Y232444D01*
X82527Y232914D01*
X82856Y233196D01*
X83185Y233431D01*
X83514Y233573D01*
X83843Y233619D01*
X84031Y233666D01*
X84125D01*
X101991D01*
X102461Y233619D01*
D02*
G37*
G36*
X93951Y209265D02*
X94704Y209219D01*
X96208Y208936D01*
X96866Y208701D01*
X97478Y208513D01*
X98042Y208278D01*
X98559Y208043D01*
X99029Y207808D01*
X99452Y207573D01*
X99828Y207338D01*
X100110Y207150D01*
X100345Y207009D01*
X100534Y206868D01*
X100628Y206821D01*
X100675Y206774D01*
X101333Y206162D01*
X101897Y205504D01*
X102414Y204846D01*
X102837Y204141D01*
X103213Y203436D01*
X103496Y202777D01*
X103778Y202072D01*
X103966Y201414D01*
X104107Y200803D01*
X104248Y200239D01*
X104342Y199721D01*
X104389Y199251D01*
Y198922D01*
X104436Y198640D01*
Y198405D01*
X104389Y197371D01*
X104248Y196430D01*
X104060Y195537D01*
X103872Y194785D01*
X103684Y194174D01*
X103496Y193703D01*
X103401Y193562D01*
X103355Y193421D01*
X103308Y193374D01*
Y193327D01*
X102696Y192246D01*
X101991Y191306D01*
X101239Y190506D01*
X100486Y189895D01*
X99875Y189378D01*
X99311Y189049D01*
X99123Y188908D01*
X98982Y188814D01*
X98888Y188767D01*
X98841D01*
X97807Y188344D01*
X96772Y188015D01*
X95785Y187780D01*
X94939Y187591D01*
X94186Y187497D01*
X93857D01*
X93622Y187450D01*
X93387D01*
X93246D01*
X93152D01*
X93105D01*
X92212Y187497D01*
X91366Y187591D01*
X90519Y187733D01*
X89767Y187921D01*
X89062Y188156D01*
X88404Y188438D01*
X87745Y188720D01*
X87181Y189002D01*
X86711Y189284D01*
X86241Y189566D01*
X85865Y189848D01*
X85536Y190083D01*
X85301Y190271D01*
X85112Y190412D01*
X85019Y190506D01*
X84972Y190553D01*
X84407Y191165D01*
X83937Y191776D01*
X83514Y192387D01*
X83185Y193045D01*
X82856Y193703D01*
X82621Y194362D01*
X82245Y195584D01*
X82104Y196148D01*
X82009Y196712D01*
X81962Y197183D01*
X81916Y197559D01*
X81868Y197888D01*
Y198922D01*
X81916Y199439D01*
X81962Y199862D01*
X82057Y200192D01*
X82104Y200474D01*
X82198Y200662D01*
X82245Y200803D01*
Y200850D01*
X82480Y201696D01*
X82762Y202495D01*
X83138Y203248D01*
X83514Y203906D01*
X83984Y204517D01*
X84407Y205081D01*
X84877Y205598D01*
X85348Y206068D01*
X85771Y206445D01*
X86194Y206821D01*
X86570Y207103D01*
X86899Y207338D01*
X87181Y207526D01*
X87416Y207667D01*
X87557Y207714D01*
X87604Y207761D01*
X88451Y208278D01*
X89344Y208654D01*
X90237Y208936D01*
X91131Y209125D01*
X91930Y209219D01*
X92259Y209265D01*
X92541D01*
X92776Y209313D01*
X92964D01*
X93058D01*
X93105D01*
X93951Y209265D01*
D02*
G37*
G36*
X89814Y183172D02*
X91319Y182984D01*
X92682Y182702D01*
X93951Y182373D01*
X95127Y181950D01*
X96208Y181479D01*
X97196Y180962D01*
X98089Y180445D01*
X98888Y179928D01*
X99546Y179411D01*
X100110Y178941D01*
X100581Y178517D01*
X100957Y178188D01*
X101192Y177906D01*
X101380Y177718D01*
X101427Y177671D01*
X101944Y176966D01*
X102414Y176214D01*
X102837Y175462D01*
X103166Y174709D01*
X103448Y173957D01*
X103684Y173252D01*
X104060Y171841D01*
X104201Y171230D01*
X104295Y170666D01*
X104342Y170149D01*
X104389Y169679D01*
X104436Y169349D01*
Y168832D01*
X104389Y167798D01*
X104201Y166764D01*
X103919Y165823D01*
X103637Y164977D01*
X103355Y164272D01*
X103213Y163990D01*
X103072Y163755D01*
X102978Y163567D01*
X102884Y163426D01*
X102837Y163332D01*
Y163284D01*
X102555Y162720D01*
X102273Y162250D01*
X101568Y161357D01*
X100863Y160652D01*
X100110Y160087D01*
X99452Y159664D01*
X98888Y159382D01*
X98653Y159288D01*
X98512Y159241D01*
X98418Y159194D01*
X102132D01*
X102461Y159147D01*
X102743Y159100D01*
X103213Y158865D01*
X103542Y158536D01*
X103778Y158113D01*
X103919Y157737D01*
X103966Y157408D01*
X104013Y157172D01*
Y157079D01*
X103966Y156608D01*
X103872Y156232D01*
X103684Y155903D01*
X103496Y155621D01*
X103308Y155433D01*
X103119Y155245D01*
X103025Y155198D01*
X102978Y155151D01*
X102696Y155057D01*
X102414Y154963D01*
X102226D01*
X102132D01*
X91460D01*
X90942Y155010D01*
X90519Y155104D01*
X90143Y155245D01*
X89814Y155386D01*
X89532Y155621D01*
X89297Y155856D01*
X88968Y156373D01*
X88733Y156937D01*
X88639Y157360D01*
X88592Y157549D01*
Y166388D01*
X88639Y166764D01*
X88686Y167046D01*
X88780Y167234D01*
X88827Y167328D01*
X89062Y167657D01*
X89344Y167939D01*
X89626Y168127D01*
X89908Y168221D01*
X90190Y168315D01*
X90425Y168362D01*
X90566D01*
X90613D01*
X90942Y168315D01*
X91224Y168268D01*
X91695Y168080D01*
X91977Y167939D01*
X92024Y167845D01*
X92071D01*
X92259Y167610D01*
X92400Y167328D01*
X92588Y166858D01*
X92635Y166670D01*
X92682Y166528D01*
Y159476D01*
X93575Y159805D01*
X94375Y160229D01*
X95127Y160652D01*
X95785Y161075D01*
X96302Y161451D01*
X96725Y161733D01*
X96960Y161921D01*
X97054Y162015D01*
X97619Y162532D01*
X98089Y163096D01*
X98512Y163661D01*
X98888Y164225D01*
X99217Y164789D01*
X99452Y165353D01*
X99828Y166388D01*
X99969Y166858D01*
X100063Y167328D01*
X100157Y167704D01*
X100204Y168033D01*
X100252Y168315D01*
Y168691D01*
X100204Y169585D01*
X100063Y170384D01*
X99875Y171136D01*
X99640Y171841D01*
X99405Y172358D01*
X99217Y172782D01*
X99076Y173064D01*
X99029Y173111D01*
Y173158D01*
X98559Y173910D01*
X97995Y174568D01*
X97430Y175179D01*
X96866Y175697D01*
X96349Y176120D01*
X95926Y176449D01*
X95644Y176637D01*
X95597Y176731D01*
X95550D01*
X94422Y177295D01*
X93199Y177718D01*
X91977Y178047D01*
X90848Y178235D01*
X90331Y178329D01*
X89814Y178376D01*
X89391Y178423D01*
X89015D01*
X88733Y178470D01*
X88498D01*
X88357D01*
X88310D01*
X87416Y178423D01*
X86523Y178376D01*
X85724Y178235D01*
X84924Y178094D01*
X84172Y177859D01*
X83514Y177671D01*
X82856Y177436D01*
X82292Y177201D01*
X81774Y176966D01*
X81304Y176731D01*
X80928Y176496D01*
X80599Y176308D01*
X80317Y176167D01*
X80129Y176026D01*
X80035Y175979D01*
X79988Y175932D01*
X79330Y175367D01*
X78765Y174803D01*
X78248Y174192D01*
X77825Y173581D01*
X77449Y172970D01*
X77120Y172358D01*
X76885Y171794D01*
X76697Y171183D01*
X76556Y170666D01*
X76415Y170196D01*
X76321Y169726D01*
X76274Y169349D01*
X76227Y169020D01*
Y168597D01*
X76274Y167704D01*
X76368Y166905D01*
X76509Y166105D01*
X76744Y165400D01*
X76979Y164695D01*
X77261Y164084D01*
X77543Y163520D01*
X77872Y163002D01*
X78154Y162579D01*
X78483Y162156D01*
X78765Y161827D01*
X79001Y161545D01*
X79236Y161357D01*
X79377Y161216D01*
X79471Y161122D01*
X79518Y161075D01*
X79800Y160887D01*
X79988Y160746D01*
X80176Y160652D01*
X80270Y160558D01*
X80411Y160464D01*
X80458D01*
X80646Y160229D01*
X80787Y159993D01*
X80975Y159523D01*
X81022Y159288D01*
X81069Y159147D01*
Y159006D01*
X81022Y158677D01*
X80975Y158348D01*
X80740Y157831D01*
X80599Y157643D01*
X80505Y157502D01*
X80458Y157408D01*
X80411Y157360D01*
X80129Y157126D01*
X79847Y156937D01*
X79612Y156843D01*
X79377Y156749D01*
X79142Y156702D01*
X79001Y156655D01*
X78906D01*
X78860D01*
X78577Y156702D01*
X78248Y156749D01*
X77684Y156984D01*
X77449Y157126D01*
X77261Y157219D01*
X77167Y157267D01*
X77120Y157313D01*
X76603Y157737D01*
X76133Y158207D01*
X75662Y158677D01*
X75286Y159147D01*
X74957Y159570D01*
X74675Y159899D01*
X74534Y160135D01*
X74487Y160229D01*
X74064Y160934D01*
X73688Y161686D01*
X73359Y162438D01*
X73077Y163143D01*
X72653Y164601D01*
X72324Y165917D01*
X72230Y166528D01*
X72183Y167046D01*
X72136Y167516D01*
X72089Y167939D01*
X72042Y168268D01*
Y168738D01*
X72089Y169820D01*
X72230Y170854D01*
X72418Y171841D01*
X72606Y172688D01*
X72842Y173393D01*
X72936Y173675D01*
X73029Y173910D01*
X73124Y174098D01*
X73171Y174239D01*
X73218Y174333D01*
Y174380D01*
X73547Y175085D01*
X73923Y175744D01*
X74769Y176966D01*
X75662Y178047D01*
X76556Y178941D01*
X76979Y179317D01*
X77355Y179646D01*
X77731Y179928D01*
X78013Y180163D01*
X78248Y180351D01*
X78483Y180492D01*
X78577Y180539D01*
X78624Y180586D01*
X79424Y181056D01*
X80223Y181432D01*
X81069Y181809D01*
X81868Y182091D01*
X83514Y182561D01*
X84266Y182749D01*
X84972Y182890D01*
X85677Y182984D01*
X86288Y183078D01*
X86852Y183125D01*
X87322Y183172D01*
X87745Y183219D01*
X88027D01*
X88216D01*
X88263D01*
X89814Y183172D01*
D02*
G37*
G36*
X93951Y150355D02*
X94751Y150261D01*
X95503Y150167D01*
X96208Y149979D01*
X96725Y149838D01*
X97148Y149744D01*
X97430Y149650D01*
X97478Y149603D01*
X97525D01*
X98089Y149368D01*
X98653Y149039D01*
X99640Y148334D01*
X100534Y147581D01*
X101239Y146782D01*
X101803Y146077D01*
X102038Y145748D01*
X102273Y145466D01*
X102414Y145231D01*
X102508Y145042D01*
X102555Y144949D01*
X102602Y144902D01*
X103213Y144055D01*
X103684Y143115D01*
X103966Y142128D01*
X104201Y141187D01*
X104342Y140341D01*
X104389Y139965D01*
Y139636D01*
X104436Y139401D01*
Y139024D01*
X104389Y138084D01*
X104342Y137144D01*
X104201Y136298D01*
X104060Y135498D01*
X103872Y134746D01*
X103637Y134041D01*
X103401Y133430D01*
X103166Y132865D01*
X102978Y132348D01*
X102743Y131925D01*
X102508Y131549D01*
X102320Y131220D01*
X102179Y130985D01*
X102038Y130797D01*
X101991Y130703D01*
X101944Y130656D01*
X101521Y130139D01*
X101098Y129762D01*
X100675Y129527D01*
X100345Y129339D01*
X100063Y129245D01*
X99828Y129151D01*
X99687D01*
X99640D01*
X99311Y129198D01*
X99029Y129245D01*
X98559Y129480D01*
X98371Y129621D01*
X98230Y129715D01*
X98183Y129762D01*
X98136Y129810D01*
X97901Y130045D01*
X97760Y130327D01*
X97572Y130844D01*
X97525Y131032D01*
X97478Y131220D01*
Y131361D01*
X97525Y131690D01*
X97572Y131972D01*
X97807Y132489D01*
X97948Y132725D01*
X98089Y132865D01*
X98136Y132960D01*
X98183Y133007D01*
X98559Y133477D01*
X98888Y133994D01*
X99452Y135028D01*
X99828Y136016D01*
X100063Y136956D01*
X100252Y137755D01*
X100299Y138084D01*
Y138413D01*
X100345Y138648D01*
Y138977D01*
X100299Y139636D01*
X100204Y140247D01*
X100110Y140858D01*
X99922Y141375D01*
X99452Y142363D01*
X98935Y143162D01*
X98465Y143773D01*
X97995Y144196D01*
X97807Y144384D01*
X97713Y144478D01*
X97619Y144525D01*
X97572Y144572D01*
X96960Y144949D01*
X96396Y145184D01*
X95832Y145419D01*
X95315Y145560D01*
X94845Y145607D01*
X94516Y145654D01*
X94327Y145701D01*
X94234D01*
Y131314D01*
X94186Y130844D01*
X94092Y130421D01*
X93951Y130092D01*
X93763Y129810D01*
X93293Y129339D01*
X92729Y129010D01*
X92212Y128822D01*
X91742Y128728D01*
X91554Y128681D01*
X91413D01*
X91319D01*
X91271D01*
X90566Y128728D01*
X89908Y128822D01*
X89250Y128963D01*
X88639Y129151D01*
X87557Y129621D01*
X86570Y130186D01*
X86194Y130468D01*
X85818Y130750D01*
X85489Y130985D01*
X85206Y131220D01*
X85019Y131408D01*
X84877Y131549D01*
X84783Y131643D01*
X84736Y131690D01*
X84219Y132301D01*
X83796Y132913D01*
X83420Y133524D01*
X83091Y134182D01*
X82809Y134793D01*
X82574Y135404D01*
X82245Y136580D01*
X82104Y137144D01*
X82009Y137614D01*
X81962Y138037D01*
X81916Y138413D01*
X81868Y138742D01*
Y139166D01*
X81916Y140153D01*
X82009Y141093D01*
X82198Y141939D01*
X82433Y142786D01*
X82762Y143538D01*
X83044Y144243D01*
X83420Y144902D01*
X83749Y145466D01*
X84078Y145983D01*
X84454Y146453D01*
X84736Y146829D01*
X85019Y147158D01*
X85301Y147440D01*
X85489Y147628D01*
X85583Y147722D01*
X85630Y147769D01*
X86241Y148240D01*
X86852Y148616D01*
X87463Y148992D01*
X88075Y149274D01*
X89344Y149744D01*
X90519Y150073D01*
X91036Y150167D01*
X91507Y150261D01*
X91977Y150308D01*
X92353Y150355D01*
X92635Y150402D01*
X92870D01*
X93011D01*
X93058D01*
X93951Y150355D01*
D02*
G37*
G36*
X102461Y122945D02*
X102790Y122804D01*
X103025Y122710D01*
X103119Y122663D01*
X103401Y122381D01*
X103637Y122099D01*
X103778Y121770D01*
X103919Y121441D01*
X103966Y121159D01*
X104013Y120924D01*
Y120736D01*
X103966Y120312D01*
X103919Y119983D01*
X103778Y119701D01*
X103637Y119419D01*
X103542Y119231D01*
X103401Y119090D01*
X103355Y119043D01*
X103308Y118996D01*
X103119Y118808D01*
X102884Y118714D01*
X102461Y118526D01*
X102273D01*
X102132Y118479D01*
X102038D01*
X101991D01*
X92212D01*
X91460Y118385D01*
X90754Y118197D01*
X90049Y117915D01*
X89485Y117538D01*
X88968Y117209D01*
X88592Y116927D01*
X88357Y116739D01*
X88263Y116645D01*
X87839Y116222D01*
X87510Y115799D01*
X87181Y115376D01*
X86946Y114953D01*
X86523Y114200D01*
X86241Y113495D01*
X86100Y112884D01*
X86006Y112461D01*
X85959Y112273D01*
Y112038D01*
X86006Y111379D01*
X86194Y110862D01*
X86429Y110345D01*
X86758Y109922D01*
X87134Y109593D01*
X87557Y109311D01*
X88027Y109076D01*
X88498Y108888D01*
X89438Y108606D01*
X89908Y108511D01*
X90284Y108464D01*
X90613Y108418D01*
X90848D01*
X91036D01*
X91083D01*
X101991D01*
X102461Y108371D01*
X102837Y108230D01*
X103072Y108088D01*
X103166Y108041D01*
X103448Y107759D01*
X103637Y107477D01*
X103825Y107148D01*
X103919Y106866D01*
X103966Y106584D01*
X104013Y106349D01*
Y106161D01*
X103966Y105691D01*
X103872Y105267D01*
X103684Y104938D01*
X103496Y104656D01*
X103308Y104421D01*
X103119Y104280D01*
X103025Y104186D01*
X102978Y104139D01*
X102602Y103951D01*
X102320Y103904D01*
X102085Y103857D01*
X101991D01*
X90613D01*
X89438Y103904D01*
X88357Y104045D01*
X87463Y104280D01*
X86664Y104515D01*
X86006Y104797D01*
X85536Y104985D01*
X85395Y105079D01*
X85254Y105173D01*
X85206Y105220D01*
X85160D01*
X84595Y105644D01*
X84078Y106067D01*
X83655Y106584D01*
X83232Y107101D01*
X82950Y107618D01*
X82668Y108135D01*
X82433Y108653D01*
X82292Y109170D01*
X82057Y110110D01*
X81962Y110533D01*
X81916Y110862D01*
X81868Y111144D01*
Y111567D01*
X81916Y112508D01*
X82057Y113401D01*
X82292Y114200D01*
X82480Y114906D01*
X82715Y115470D01*
X82950Y115940D01*
X83091Y116222D01*
X83138Y116269D01*
Y116316D01*
X83608Y117021D01*
X84125Y117633D01*
X84642Y118103D01*
X85112Y118479D01*
X85583Y118761D01*
X85912Y118949D01*
X86147Y119043D01*
X86241Y119090D01*
X84078Y119184D01*
X83467Y119325D01*
X82997Y119560D01*
X82668Y119889D01*
X82480Y120218D01*
X82339Y120595D01*
X82292Y120877D01*
X82245Y121065D01*
Y121159D01*
X82339Y121770D01*
X82527Y122240D01*
X82856Y122522D01*
X83185Y122757D01*
X83514Y122898D01*
X83843Y122945D01*
X84031Y122992D01*
X84125D01*
X101991D01*
X102461Y122945D01*
D02*
G37*
%LPC*%
G36*
X93387Y257315D02*
X93246D01*
X93152D01*
X93105D01*
X91977Y257221D01*
X90942Y257033D01*
X90049Y256798D01*
X89297Y256469D01*
X88733Y256140D01*
X88310Y255905D01*
X88027Y255717D01*
X87933Y255623D01*
X87275Y254965D01*
X86805Y254212D01*
X86429Y253507D01*
X86194Y252802D01*
X86053Y252238D01*
X86006Y251721D01*
X85959Y251532D01*
Y251297D01*
X86006Y250592D01*
X86100Y249934D01*
X86194Y249699D01*
X86241Y249511D01*
X86288Y249370D01*
Y249323D01*
X86570Y248570D01*
X86946Y247865D01*
X87416Y247301D01*
X87839Y246784D01*
X88216Y246408D01*
X88545Y246126D01*
X88780Y245938D01*
X88874Y245891D01*
X89438Y245561D01*
X89955Y245326D01*
X90472Y245138D01*
X90989Y245044D01*
X91366Y244950D01*
X91695Y244903D01*
X91883D01*
X91977D01*
X93434D01*
X94327Y244997D01*
X95174Y245185D01*
X95926Y245467D01*
X96631Y245797D01*
X97196Y246173D01*
X97619Y246455D01*
X97901Y246643D01*
X97948Y246737D01*
X97995D01*
X98418Y247113D01*
X98747Y247489D01*
X99076Y247912D01*
X99358Y248288D01*
X99781Y249041D01*
X100063Y249746D01*
X100204Y250357D01*
X100299Y250874D01*
X100345Y251062D01*
Y251297D01*
X100299Y251814D01*
X100252Y252332D01*
X99969Y253225D01*
X99593Y253977D01*
X99123Y254635D01*
X98700Y255153D01*
X98324Y255529D01*
X98042Y255764D01*
X97995Y255858D01*
X97948D01*
X97148Y256328D01*
X96349Y256704D01*
X95550Y256939D01*
X94798Y257127D01*
X94092Y257221D01*
X93575Y257268D01*
X93387Y257315D01*
D02*
G37*
G36*
X93481Y204705D02*
X93199D01*
X93152D01*
X93105D01*
X92494Y204658D01*
X91883Y204611D01*
X90754Y204376D01*
X89767Y204047D01*
X88874Y203671D01*
X88216Y203295D01*
X87886Y203106D01*
X87651Y202966D01*
X87463Y202824D01*
X87322Y202730D01*
X87275Y202636D01*
X87228D01*
X86805Y201978D01*
X86476Y201273D01*
X86288Y200568D01*
X86100Y199909D01*
X86006Y199298D01*
X85959Y198828D01*
Y198405D01*
X86053Y197465D01*
X86241Y196618D01*
X86523Y195866D01*
X86852Y195208D01*
X87181Y194738D01*
X87463Y194362D01*
X87651Y194127D01*
X87745Y194033D01*
X88545Y193374D01*
X89438Y192904D01*
X90331Y192528D01*
X91178Y192293D01*
X91930Y192152D01*
X92259Y192105D01*
X92541D01*
X92776Y192058D01*
X92964D01*
X93058D01*
X93105D01*
X94234Y192152D01*
X95221Y192340D01*
X96114Y192622D01*
X96913Y192951D01*
X97525Y193280D01*
X97995Y193562D01*
X98136Y193656D01*
X98277Y193750D01*
X98324Y193845D01*
X98371D01*
X99029Y194503D01*
X99499Y195255D01*
X99875Y196007D01*
X100110Y196712D01*
X100252Y197371D01*
X100299Y197888D01*
X100345Y198076D01*
Y198358D01*
X100299Y199016D01*
X100204Y199627D01*
X100063Y200192D01*
X99828Y200709D01*
X99358Y201649D01*
X98747Y202401D01*
X98183Y202966D01*
X97666Y203389D01*
X97478Y203530D01*
X97337Y203624D01*
X97242Y203718D01*
X97196D01*
X96490Y204047D01*
X95785Y204282D01*
X95127Y204470D01*
X94469Y204564D01*
X93904Y204658D01*
X93481Y204705D01*
D02*
G37*
G36*
X90519Y145560D02*
X90002Y145419D01*
X89485Y145184D01*
X89062Y144949D01*
X88639Y144713D01*
X88310Y144478D01*
X88075Y144243D01*
X87886Y144102D01*
X87839Y144055D01*
X87181Y143303D01*
X86711Y142504D01*
X86382Y141704D01*
X86147Y140905D01*
X86006Y140247D01*
X85959Y139683D01*
X85912Y139495D01*
Y138601D01*
X86006Y137990D01*
X86241Y136956D01*
X86570Y136110D01*
X86946Y135404D01*
X87369Y134840D01*
X87698Y134464D01*
X87933Y134276D01*
X87980Y134182D01*
X88027D01*
X88592Y133947D01*
X89109Y133759D01*
X89485Y133665D01*
X89814Y133571D01*
X90049Y133524D01*
X90237Y133477D01*
X90331D01*
X90378D01*
X90472Y133524D01*
X90519Y133571D01*
Y145560D01*
D02*
G37*
%LPD*%
M02*
