G04*
G04 #@! TF.GenerationSoftware,Altium Limited,Altium Designer,19.0.10 (269)*
G04*
G04 Layer_Color=255*
%FSLAX44Y44*%
%MOMM*%
G71*
G01*
G75*
%ADD22R,0.9650X0.8000*%
%ADD23R,1.7000X2.0000*%
%ADD48C,1.5000*%
%ADD49R,1.5000X1.5000*%
%ADD50O,1.5240X1.7780*%
%ADD51R,1.5240X1.7780*%
%ADD53R,0.7620X0.7620*%
D22*
X141180Y233150D02*
D03*
X141434Y219180D02*
D03*
X144910Y97790D02*
D03*
X145164Y83820D02*
D03*
X133860Y29210D02*
D03*
X133606Y43180D02*
D03*
X42846Y93980D02*
D03*
X43100Y80010D02*
D03*
D23*
X118110Y159550D02*
D03*
Y132080D02*
D03*
X118364Y332270D02*
D03*
Y304800D02*
D03*
D48*
X170180Y25400D02*
D03*
Y50800D02*
D03*
Y76200D02*
D03*
Y101600D02*
D03*
Y127000D02*
D03*
Y152400D02*
D03*
Y177800D02*
D03*
Y203200D02*
D03*
Y228600D02*
D03*
Y254000D02*
D03*
Y279400D02*
D03*
Y304800D02*
D03*
Y330200D02*
D03*
Y355600D02*
D03*
X17780Y25400D02*
D03*
Y50800D02*
D03*
Y76200D02*
D03*
Y101600D02*
D03*
Y127000D02*
D03*
Y152400D02*
D03*
Y177800D02*
D03*
Y203200D02*
D03*
Y228600D02*
D03*
Y254000D02*
D03*
Y279400D02*
D03*
Y304800D02*
D03*
Y330200D02*
D03*
Y355600D02*
D03*
D49*
X170180Y381000D02*
D03*
X17780D02*
D03*
D50*
X81280D02*
D03*
D51*
X55880D02*
D03*
D53*
X145124Y152346D02*
D03*
X144870Y166316D02*
D03*
M02*
