G04*
G04 #@! TF.GenerationSoftware,Altium Limited,Altium Designer,19.0.10 (269)*
G04*
G04 Layer_Color=128*
%FSLAX44Y44*%
%MOMM*%
G71*
G01*
G75*
%ADD47C,0.0508*%
D47*
X50546Y41910D02*
X58674D01*
X54610Y37846D02*
Y45974D01*
X75936Y41910D02*
X84064D01*
X80000Y37846D02*
Y45974D01*
X50546Y20320D02*
X58674D01*
X54610Y16256D02*
Y24384D01*
X75946Y20320D02*
X84074D01*
X80010Y16256D02*
Y24384D01*
X12010Y20320D02*
X21010D01*
X16510Y15820D02*
Y24820D01*
X12010Y45720D02*
X21010D01*
X16510Y41220D02*
Y50220D01*
X12010Y71120D02*
X21010D01*
X16510Y66620D02*
Y75620D01*
X12010Y96520D02*
X21010D01*
X16510Y92020D02*
Y101020D01*
X12010Y121920D02*
X21010D01*
X16510Y117420D02*
Y126420D01*
X12010Y147320D02*
X21010D01*
X16510Y142820D02*
Y151820D01*
X12010Y172720D02*
X21010D01*
X16510Y168220D02*
Y177220D01*
X12010Y198120D02*
X21010D01*
X16510Y193620D02*
Y202620D01*
X12010Y223520D02*
X21010D01*
X16510Y219020D02*
Y228020D01*
X12010Y248920D02*
X21010D01*
X16510Y244420D02*
Y253420D01*
X12010Y274320D02*
X21010D01*
X16510Y269820D02*
Y278820D01*
X12010Y299720D02*
X21010D01*
X16510Y295220D02*
Y304220D01*
X12010Y325120D02*
X21010D01*
X16510Y320620D02*
Y329620D01*
X12010Y350520D02*
X21010D01*
X16510Y346020D02*
Y355020D01*
X12010Y375920D02*
X21010D01*
X16510Y371420D02*
Y380420D01*
X164410Y20320D02*
X173410D01*
X168910Y15820D02*
Y24820D01*
X164410Y45720D02*
X173410D01*
X168910Y41220D02*
Y50220D01*
X164410Y71120D02*
X173410D01*
X168910Y66620D02*
Y75620D01*
X164410Y96520D02*
X173410D01*
X168910Y92020D02*
Y101020D01*
X164410Y121920D02*
X173410D01*
X168910Y117420D02*
Y126420D01*
X164410Y147320D02*
X173410D01*
X168910Y142820D02*
Y151820D01*
X164410Y172720D02*
X173410D01*
X168910Y168220D02*
Y177220D01*
X164410Y198120D02*
X173410D01*
X168910Y193620D02*
Y202620D01*
X164410Y223520D02*
X173410D01*
X168910Y219020D02*
Y228020D01*
X164410Y248920D02*
X173410D01*
X168910Y244420D02*
Y253420D01*
X164410Y274320D02*
X173410D01*
X168910Y269820D02*
Y278820D01*
X164410Y299720D02*
X173410D01*
X168910Y295220D02*
Y304220D01*
X164410Y325120D02*
X173410D01*
X168910Y320620D02*
Y329620D01*
X164410Y350520D02*
X173410D01*
X168910Y346020D02*
Y355020D01*
X164410Y375920D02*
X173410D01*
X168910Y371420D02*
Y380420D01*
X49785Y117895D02*
X54785D01*
X52285Y115395D02*
Y120395D01*
X51285Y69850D02*
X56285D01*
X53785Y67350D02*
Y72350D01*
X65710Y355600D02*
X68910D01*
X67310Y354000D02*
Y357200D01*
X126010Y64770D02*
X131010D01*
X128510Y62270D02*
Y67270D01*
X102985Y10160D02*
X106185D01*
X104585Y8560D02*
Y11760D01*
X49785Y273470D02*
X54785D01*
X52285Y270970D02*
Y275970D01*
X137070Y231380D02*
X140270D01*
X138670Y229780D02*
Y232980D01*
X108890Y283210D02*
X112090D01*
X110490Y281610D02*
Y284810D01*
X141910Y201420D02*
X145110D01*
X143510Y199820D02*
Y203020D01*
X78410Y123190D02*
X81610D01*
X80010Y121590D02*
Y124790D01*
X97110Y302900D02*
X102110D01*
X99610Y300400D02*
Y305400D01*
X103810Y257575D02*
X107010D01*
X105410Y255975D02*
Y259175D01*
X131910Y254000D02*
X135110D01*
X133510Y252400D02*
Y255600D01*
X91110Y175260D02*
X94310D01*
X92710Y173660D02*
Y176860D01*
X65710Y142240D02*
X68910D01*
X67310Y140640D02*
Y143840D01*
X90260Y89960D02*
X93460D01*
X91860Y88360D02*
Y91560D01*
X90260Y78960D02*
X93460D01*
X91860Y77360D02*
Y80560D01*
X79260Y89960D02*
X82460D01*
X80860Y88360D02*
Y91560D01*
X79260Y78960D02*
X82460D01*
X80860Y77360D02*
Y80560D01*
M02*
