G04*
G04 #@! TF.GenerationSoftware,Altium Limited,Altium Designer,19.0.10 (269)*
G04*
G04 Layer_Color=32896*
%FSLAX44Y44*%
%MOMM*%
G71*
G01*
G75*
%ADD10C,0.2000*%
G36*
X95251Y294593D02*
X95627Y294452D01*
X95862Y294358D01*
X95909Y294311D01*
X95956D01*
X96238Y294029D01*
X96427Y293747D01*
X96615Y293418D01*
X96709Y293136D01*
X96756Y292853D01*
X96803Y292618D01*
Y292430D01*
X96756Y292101D01*
X96709Y291772D01*
X96474Y291208D01*
X96333Y290973D01*
X96238Y290832D01*
X96192Y290738D01*
X96145Y290691D01*
X95956Y290503D01*
X95721Y290362D01*
X95298Y290173D01*
X95110D01*
X94922Y290126D01*
X94828D01*
X94781D01*
X70004D01*
X94969Y274799D01*
X95580Y274329D01*
X96003Y273859D01*
X96333Y273389D01*
X96521Y272919D01*
X96662Y272543D01*
X96709Y272214D01*
X96756Y272026D01*
Y271932D01*
X96709Y271461D01*
X96615Y271038D01*
X96427Y270709D01*
X96192Y270427D01*
X95627Y269957D01*
X94969Y269628D01*
X94358Y269440D01*
X93794Y269346D01*
X93559Y269299D01*
X93371D01*
X93277D01*
X93230D01*
X67230D01*
X66807Y269346D01*
X66478Y269440D01*
X66290Y269581D01*
X66196Y269628D01*
X65866Y269910D01*
X65631Y270192D01*
X65490Y270521D01*
X65349Y270850D01*
X65302Y271132D01*
X65255Y271367D01*
Y271555D01*
X65302Y271932D01*
X65396Y272261D01*
X65631Y272825D01*
X65820Y273013D01*
X65914Y273201D01*
X66008Y273295D01*
X66055Y273342D01*
X66196Y273483D01*
X66384Y273624D01*
X66760Y273765D01*
X66948D01*
X67089Y273812D01*
X67183D01*
X67230D01*
X89515D01*
X66901Y287776D01*
X66337Y288199D01*
X65914Y288716D01*
X65585Y289233D01*
X65396Y289703D01*
X65255Y290126D01*
X65208Y290503D01*
X65161Y290738D01*
Y290832D01*
X65208Y291537D01*
X65302Y292054D01*
X65396Y292289D01*
X65443Y292430D01*
X65490Y292524D01*
Y292571D01*
X65679Y292947D01*
X65914Y293230D01*
X66431Y293747D01*
X66995Y294123D01*
X67559Y294358D01*
X68123Y294546D01*
X68546Y294593D01*
X68734Y294640D01*
X68875D01*
X68923D01*
X68970D01*
X94781D01*
X95251Y294593D01*
D02*
G37*
G36*
X86694Y263469D02*
X87541Y263422D01*
X89045Y263140D01*
X89750Y262905D01*
X90362Y262717D01*
X90973Y262481D01*
X91490Y262246D01*
X92007Y262011D01*
X92430Y261776D01*
X92806Y261541D01*
X93089Y261353D01*
X93323Y261212D01*
X93512Y261071D01*
X93606Y261024D01*
X93653Y260977D01*
X94264Y260413D01*
X94828Y259849D01*
X95298Y259190D01*
X95721Y258579D01*
X96050Y257921D01*
X96333Y257263D01*
X96568Y256652D01*
X96756Y256040D01*
X96944Y255476D01*
X97038Y254912D01*
X97132Y254442D01*
X97179Y254019D01*
Y253690D01*
X97226Y253454D01*
Y253219D01*
X97179Y252655D01*
X97132Y252185D01*
X97038Y251809D01*
X96897Y251480D01*
X96803Y251198D01*
X96709Y251010D01*
X96662Y250916D01*
X96615Y250869D01*
X96333Y250163D01*
X96050Y249552D01*
X95721Y249035D01*
X95392Y248518D01*
X95016Y248095D01*
X94687Y247719D01*
X94311Y247390D01*
X93935Y247107D01*
X93323Y246637D01*
X92759Y246355D01*
X92571Y246261D01*
X92430Y246214D01*
X92336Y246167D01*
X92289D01*
X95063Y246073D01*
X95627Y245932D01*
X96050Y245697D01*
X96379Y245415D01*
X96568Y245039D01*
X96709Y244710D01*
X96756Y244428D01*
X96803Y244240D01*
Y244146D01*
X96709Y243487D01*
X96521Y243017D01*
X96192Y242641D01*
X95815Y242406D01*
X95486Y242265D01*
X95157Y242218D01*
X94969Y242171D01*
X94875D01*
X76633D01*
X76304Y242218D01*
X76022Y242265D01*
X75834Y242312D01*
X75740Y242359D01*
X75364Y242594D01*
X75082Y242923D01*
X74893Y243252D01*
X74752Y243534D01*
X74658Y243863D01*
X74611Y244098D01*
Y244333D01*
X74658Y244710D01*
X74705Y245039D01*
X74847Y245368D01*
X74941Y245603D01*
X75082Y245791D01*
X75223Y245932D01*
X75270Y246026D01*
X75317Y246073D01*
X75740Y246355D01*
X76163Y246496D01*
X76351D01*
X76492Y246543D01*
X76586D01*
X76633D01*
X78185D01*
X77573Y247013D01*
X77009Y247484D01*
X76539Y248048D01*
X76163Y248565D01*
X75787Y249129D01*
X75505Y249693D01*
X75270Y250257D01*
X75082Y250775D01*
X74847Y251762D01*
X74752Y252185D01*
X74705Y252561D01*
X74658Y252843D01*
Y253266D01*
X74705Y254207D01*
X74847Y255147D01*
X75034Y255993D01*
X75317Y256793D01*
X75646Y257498D01*
X76022Y258203D01*
X76398Y258814D01*
X76821Y259331D01*
X77244Y259849D01*
X77620Y260272D01*
X77997Y260648D01*
X78326Y260930D01*
X78561Y261165D01*
X78796Y261353D01*
X78937Y261447D01*
X78984Y261494D01*
X79548Y261870D01*
X80112Y262152D01*
X81288Y262670D01*
X82463Y262999D01*
X83544Y263281D01*
X84015Y263328D01*
X84438Y263422D01*
X84861Y263469D01*
X85190D01*
X85472Y263516D01*
X85660D01*
X85801D01*
X85848D01*
X86694Y263469D01*
D02*
G37*
G36*
X95251Y235259D02*
X95580Y235119D01*
X95815Y235025D01*
X95909Y234977D01*
X96192Y234695D01*
X96427Y234413D01*
X96568Y234084D01*
X96709Y233755D01*
X96756Y233473D01*
X96803Y233238D01*
Y233050D01*
X96756Y232627D01*
X96709Y232298D01*
X96568Y232015D01*
X96427Y231733D01*
X96333Y231545D01*
X96192Y231404D01*
X96145Y231357D01*
X96097Y231310D01*
X95909Y231122D01*
X95674Y231028D01*
X95251Y230840D01*
X95063D01*
X94922Y230793D01*
X94828D01*
X94781D01*
X85002D01*
X84250Y230699D01*
X83544Y230511D01*
X82839Y230229D01*
X82275Y229853D01*
X81758Y229524D01*
X81382Y229242D01*
X81146Y229053D01*
X81053Y228960D01*
X80629Y228536D01*
X80300Y228113D01*
X79971Y227690D01*
X79736Y227267D01*
X79313Y226515D01*
X79031Y225809D01*
X78890Y225198D01*
X78796Y224775D01*
X78749Y224587D01*
Y224352D01*
X78796Y223694D01*
X78984Y223177D01*
X79219Y222659D01*
X79548Y222236D01*
X79924Y221907D01*
X80347Y221625D01*
X80817Y221390D01*
X81288Y221202D01*
X82228Y220920D01*
X82698Y220826D01*
X83074Y220779D01*
X83403Y220732D01*
X83638D01*
X83826D01*
X83873D01*
X94781D01*
X95251Y220685D01*
X95627Y220544D01*
X95862Y220403D01*
X95956Y220356D01*
X96238Y220074D01*
X96427Y219792D01*
X96615Y219462D01*
X96709Y219180D01*
X96756Y218898D01*
X96803Y218663D01*
Y218475D01*
X96756Y218005D01*
X96662Y217582D01*
X96474Y217253D01*
X96285Y216971D01*
X96097Y216735D01*
X95909Y216594D01*
X95815Y216500D01*
X95768Y216453D01*
X95392Y216265D01*
X95110Y216218D01*
X94875Y216171D01*
X94781D01*
X83403D01*
X82228Y216218D01*
X81146Y216359D01*
X80253Y216594D01*
X79454Y216829D01*
X78796Y217112D01*
X78326Y217300D01*
X78185Y217394D01*
X78043Y217488D01*
X77997Y217535D01*
X77950D01*
X77385Y217958D01*
X76868Y218381D01*
X76445Y218898D01*
X76022Y219415D01*
X75740Y219932D01*
X75458Y220450D01*
X75223Y220967D01*
X75082Y221484D01*
X74847Y222424D01*
X74752Y222847D01*
X74705Y223177D01*
X74658Y223459D01*
Y223882D01*
X74705Y224822D01*
X74847Y225715D01*
X75082Y226515D01*
X75270Y227220D01*
X75505Y227784D01*
X75740Y228254D01*
X75881Y228536D01*
X75928Y228583D01*
Y228630D01*
X76398Y229336D01*
X76915Y229947D01*
X77432Y230417D01*
X77902Y230793D01*
X78373Y231075D01*
X78702Y231263D01*
X78937Y231357D01*
X79031Y231404D01*
X76868Y231498D01*
X76257Y231639D01*
X75787Y231874D01*
X75458Y232204D01*
X75270Y232533D01*
X75129Y232909D01*
X75082Y233191D01*
X75034Y233379D01*
Y233473D01*
X75129Y234084D01*
X75317Y234554D01*
X75646Y234836D01*
X75975Y235072D01*
X76304Y235212D01*
X76633Y235259D01*
X76821Y235307D01*
X76915D01*
X94781D01*
X95251Y235259D01*
D02*
G37*
G36*
X86741Y210906D02*
X87494Y210859D01*
X88998Y210576D01*
X89656Y210341D01*
X90267Y210153D01*
X90832Y209918D01*
X91349Y209683D01*
X91819Y209448D01*
X92242Y209213D01*
X92618Y208978D01*
X92900Y208790D01*
X93135Y208649D01*
X93323Y208508D01*
X93418Y208461D01*
X93465Y208414D01*
X94123Y207803D01*
X94687Y207144D01*
X95204Y206486D01*
X95627Y205781D01*
X96003Y205076D01*
X96285Y204417D01*
X96568Y203712D01*
X96756Y203054D01*
X96897Y202443D01*
X97038Y201879D01*
X97132Y201361D01*
X97179Y200891D01*
Y200562D01*
X97226Y200280D01*
Y200045D01*
X97179Y199011D01*
X97038Y198070D01*
X96850Y197177D01*
X96662Y196425D01*
X96474Y195814D01*
X96285Y195343D01*
X96192Y195202D01*
X96145Y195061D01*
X96097Y195014D01*
Y194967D01*
X95486Y193886D01*
X94781Y192946D01*
X94029Y192146D01*
X93277Y191535D01*
X92665Y191018D01*
X92101Y190689D01*
X91913Y190548D01*
X91772Y190454D01*
X91678Y190407D01*
X91631D01*
X90597Y189984D01*
X89562Y189655D01*
X88575Y189419D01*
X87729Y189231D01*
X86976Y189137D01*
X86647D01*
X86412Y189090D01*
X86177D01*
X86036D01*
X85942D01*
X85895D01*
X85002Y189137D01*
X84156Y189231D01*
X83309Y189373D01*
X82557Y189561D01*
X81852Y189796D01*
X81194Y190078D01*
X80535Y190360D01*
X79971Y190642D01*
X79501Y190924D01*
X79031Y191206D01*
X78655Y191488D01*
X78326Y191723D01*
X78091Y191911D01*
X77902Y192052D01*
X77808Y192146D01*
X77761Y192193D01*
X77197Y192805D01*
X76727Y193416D01*
X76304Y194027D01*
X75975Y194685D01*
X75646Y195343D01*
X75411Y196002D01*
X75034Y197224D01*
X74893Y197788D01*
X74799Y198353D01*
X74752Y198823D01*
X74705Y199199D01*
X74658Y199528D01*
Y200562D01*
X74705Y201079D01*
X74752Y201502D01*
X74847Y201832D01*
X74893Y202114D01*
X74988Y202302D01*
X75034Y202443D01*
Y202490D01*
X75270Y203336D01*
X75552Y204135D01*
X75928Y204888D01*
X76304Y205546D01*
X76774Y206157D01*
X77197Y206721D01*
X77667Y207238D01*
X78138Y207708D01*
X78561Y208085D01*
X78984Y208461D01*
X79360Y208743D01*
X79689Y208978D01*
X79971Y209166D01*
X80206Y209307D01*
X80347Y209354D01*
X80394Y209401D01*
X81241Y209918D01*
X82134Y210294D01*
X83027Y210576D01*
X83920Y210765D01*
X84720Y210859D01*
X85049Y210906D01*
X85331D01*
X85566Y210953D01*
X85754D01*
X85848D01*
X85895D01*
X86741Y210906D01*
D02*
G37*
G36*
X82604Y184812D02*
X84108Y184624D01*
X85472Y184342D01*
X86741Y184013D01*
X87917Y183590D01*
X88998Y183120D01*
X89985Y182602D01*
X90879Y182085D01*
X91678Y181568D01*
X92336Y181051D01*
X92900Y180581D01*
X93371Y180158D01*
X93747Y179828D01*
X93982Y179546D01*
X94170Y179358D01*
X94217Y179311D01*
X94734Y178606D01*
X95204Y177854D01*
X95627Y177101D01*
X95956Y176349D01*
X96238Y175597D01*
X96474Y174892D01*
X96850Y173481D01*
X96991Y172870D01*
X97085Y172306D01*
X97132Y171789D01*
X97179Y171319D01*
X97226Y170989D01*
Y170472D01*
X97179Y169438D01*
X96991Y168404D01*
X96709Y167463D01*
X96427Y166617D01*
X96145Y165912D01*
X96003Y165630D01*
X95862Y165395D01*
X95768Y165207D01*
X95674Y165066D01*
X95627Y164972D01*
Y164925D01*
X95345Y164360D01*
X95063Y163890D01*
X94358Y162997D01*
X93653Y162292D01*
X92900Y161728D01*
X92242Y161304D01*
X91678Y161022D01*
X91443Y160928D01*
X91302Y160881D01*
X91208Y160834D01*
X94922D01*
X95251Y160787D01*
X95533Y160740D01*
X96003Y160505D01*
X96333Y160176D01*
X96568Y159753D01*
X96709Y159377D01*
X96756Y159048D01*
X96803Y158813D01*
Y158719D01*
X96756Y158248D01*
X96662Y157872D01*
X96474Y157543D01*
X96285Y157261D01*
X96097Y157073D01*
X95909Y156885D01*
X95815Y156838D01*
X95768Y156791D01*
X95486Y156697D01*
X95204Y156603D01*
X95016D01*
X94922D01*
X84250D01*
X83732Y156650D01*
X83309Y156744D01*
X82933Y156885D01*
X82604Y157026D01*
X82322Y157261D01*
X82087Y157496D01*
X81758Y158013D01*
X81523Y158577D01*
X81429Y159001D01*
X81382Y159189D01*
Y168027D01*
X81429Y168404D01*
X81476Y168686D01*
X81570Y168874D01*
X81617Y168968D01*
X81852Y169297D01*
X82134Y169579D01*
X82416Y169767D01*
X82698Y169861D01*
X82980Y169955D01*
X83215Y170002D01*
X83356D01*
X83403D01*
X83732Y169955D01*
X84015Y169908D01*
X84485Y169720D01*
X84767Y169579D01*
X84814Y169485D01*
X84861D01*
X85049Y169250D01*
X85190Y168968D01*
X85378Y168498D01*
X85425Y168310D01*
X85472Y168169D01*
Y161116D01*
X86365Y161445D01*
X87164Y161868D01*
X87917Y162292D01*
X88575Y162715D01*
X89092Y163091D01*
X89515Y163373D01*
X89750Y163561D01*
X89844Y163655D01*
X90409Y164172D01*
X90879Y164736D01*
X91302Y165301D01*
X91678Y165865D01*
X92007Y166429D01*
X92242Y166993D01*
X92618Y168027D01*
X92759Y168498D01*
X92853Y168968D01*
X92947Y169344D01*
X92994Y169673D01*
X93041Y169955D01*
Y170331D01*
X92994Y171225D01*
X92853Y172024D01*
X92665Y172776D01*
X92430Y173481D01*
X92195Y173999D01*
X92007Y174422D01*
X91866Y174704D01*
X91819Y174751D01*
Y174798D01*
X91349Y175550D01*
X90785Y176208D01*
X90220Y176819D01*
X89656Y177337D01*
X89139Y177760D01*
X88716Y178089D01*
X88434Y178277D01*
X88387Y178371D01*
X88340D01*
X87212Y178935D01*
X85989Y179358D01*
X84767Y179687D01*
X83638Y179875D01*
X83121Y179969D01*
X82604Y180016D01*
X82181Y180063D01*
X81805D01*
X81523Y180110D01*
X81288D01*
X81146D01*
X81100D01*
X80206Y180063D01*
X79313Y180016D01*
X78514Y179875D01*
X77714Y179734D01*
X76962Y179499D01*
X76304Y179311D01*
X75646Y179076D01*
X75082Y178841D01*
X74564Y178606D01*
X74094Y178371D01*
X73718Y178136D01*
X73389Y177948D01*
X73107Y177807D01*
X72919Y177666D01*
X72825Y177619D01*
X72778Y177572D01*
X72120Y177008D01*
X71555Y176443D01*
X71038Y175832D01*
X70615Y175221D01*
X70239Y174610D01*
X69910Y173999D01*
X69675Y173434D01*
X69487Y172823D01*
X69346Y172306D01*
X69205Y171836D01*
X69111Y171366D01*
X69064Y170989D01*
X69017Y170660D01*
Y170237D01*
X69064Y169344D01*
X69158Y168545D01*
X69299Y167745D01*
X69534Y167040D01*
X69769Y166335D01*
X70051Y165724D01*
X70333Y165160D01*
X70662Y164642D01*
X70944Y164219D01*
X71273Y163796D01*
X71555Y163467D01*
X71790Y163185D01*
X72026Y162997D01*
X72167Y162856D01*
X72261Y162762D01*
X72308Y162715D01*
X72590Y162527D01*
X72778Y162386D01*
X72966Y162292D01*
X73060Y162198D01*
X73201Y162104D01*
X73248D01*
X73436Y161868D01*
X73577Y161633D01*
X73765Y161163D01*
X73812Y160928D01*
X73859Y160787D01*
Y160646D01*
X73812Y160317D01*
X73765Y159988D01*
X73530Y159471D01*
X73389Y159283D01*
X73295Y159142D01*
X73248Y159048D01*
X73201Y159001D01*
X72919Y158765D01*
X72637Y158577D01*
X72402Y158483D01*
X72167Y158389D01*
X71932Y158342D01*
X71790Y158295D01*
X71697D01*
X71649D01*
X71367Y158342D01*
X71038Y158389D01*
X70474Y158624D01*
X70239Y158765D01*
X70051Y158860D01*
X69957Y158906D01*
X69910Y158954D01*
X69393Y159377D01*
X68923Y159847D01*
X68452Y160317D01*
X68076Y160787D01*
X67747Y161210D01*
X67465Y161539D01*
X67324Y161775D01*
X67277Y161868D01*
X66854Y162574D01*
X66478Y163326D01*
X66149Y164078D01*
X65866Y164783D01*
X65443Y166241D01*
X65114Y167557D01*
X65020Y168169D01*
X64973Y168686D01*
X64926Y169156D01*
X64879Y169579D01*
X64832Y169908D01*
Y170378D01*
X64879Y171460D01*
X65020Y172494D01*
X65208Y173481D01*
X65396Y174328D01*
X65631Y175033D01*
X65725Y175315D01*
X65820Y175550D01*
X65914Y175738D01*
X65961Y175879D01*
X66008Y175973D01*
Y176020D01*
X66337Y176725D01*
X66713Y177384D01*
X67559Y178606D01*
X68452Y179687D01*
X69346Y180581D01*
X69769Y180957D01*
X70145Y181286D01*
X70521Y181568D01*
X70803Y181803D01*
X71038Y181991D01*
X71273Y182132D01*
X71367Y182179D01*
X71414Y182226D01*
X72214Y182696D01*
X73013Y183072D01*
X73859Y183449D01*
X74658Y183731D01*
X76304Y184201D01*
X77056Y184389D01*
X77761Y184530D01*
X78467Y184624D01*
X79078Y184718D01*
X79642Y184765D01*
X80112Y184812D01*
X80535Y184859D01*
X80817D01*
X81005D01*
X81053D01*
X82604Y184812D01*
D02*
G37*
G36*
X86741Y151995D02*
X87541Y151901D01*
X88293Y151807D01*
X88998Y151619D01*
X89515Y151478D01*
X89938Y151384D01*
X90220Y151290D01*
X90267Y151243D01*
X90315D01*
X90879Y151008D01*
X91443Y150679D01*
X92430Y149974D01*
X93323Y149221D01*
X94029Y148422D01*
X94593Y147717D01*
X94828Y147388D01*
X95063Y147106D01*
X95204Y146871D01*
X95298Y146683D01*
X95345Y146588D01*
X95392Y146542D01*
X96003Y145695D01*
X96474Y144755D01*
X96756Y143768D01*
X96991Y142827D01*
X97132Y141981D01*
X97179Y141605D01*
Y141276D01*
X97226Y141041D01*
Y140665D01*
X97179Y139724D01*
X97132Y138784D01*
X96991Y137938D01*
X96850Y137138D01*
X96662Y136386D01*
X96427Y135681D01*
X96192Y135070D01*
X95956Y134506D01*
X95768Y133988D01*
X95533Y133565D01*
X95298Y133189D01*
X95110Y132860D01*
X94969Y132625D01*
X94828Y132437D01*
X94781Y132343D01*
X94734Y132296D01*
X94311Y131779D01*
X93888Y131403D01*
X93465Y131167D01*
X93135Y130979D01*
X92853Y130885D01*
X92618Y130791D01*
X92477D01*
X92430D01*
X92101Y130838D01*
X91819Y130885D01*
X91349Y131120D01*
X91161Y131262D01*
X91020Y131355D01*
X90973Y131403D01*
X90926Y131449D01*
X90691Y131685D01*
X90550Y131967D01*
X90362Y132484D01*
X90315Y132672D01*
X90267Y132860D01*
Y133001D01*
X90315Y133330D01*
X90362Y133612D01*
X90597Y134129D01*
X90738Y134365D01*
X90879Y134506D01*
X90926Y134600D01*
X90973Y134647D01*
X91349Y135117D01*
X91678Y135634D01*
X92242Y136668D01*
X92618Y137656D01*
X92853Y138596D01*
X93041Y139395D01*
X93089Y139724D01*
Y140053D01*
X93135Y140288D01*
Y140618D01*
X93089Y141276D01*
X92994Y141887D01*
X92900Y142498D01*
X92712Y143015D01*
X92242Y144003D01*
X91725Y144802D01*
X91255Y145413D01*
X90785Y145836D01*
X90597Y146024D01*
X90503Y146118D01*
X90409Y146165D01*
X90362Y146212D01*
X89750Y146588D01*
X89186Y146824D01*
X88622Y147059D01*
X88105Y147200D01*
X87635Y147247D01*
X87306Y147294D01*
X87118Y147341D01*
X87023D01*
Y132954D01*
X86976Y132484D01*
X86882Y132061D01*
X86741Y131732D01*
X86553Y131449D01*
X86083Y130979D01*
X85519Y130650D01*
X85002Y130462D01*
X84532Y130368D01*
X84344Y130321D01*
X84202D01*
X84108D01*
X84061D01*
X83356Y130368D01*
X82698Y130462D01*
X82040Y130603D01*
X81429Y130791D01*
X80347Y131262D01*
X79360Y131826D01*
X78984Y132108D01*
X78608Y132390D01*
X78279Y132625D01*
X77997Y132860D01*
X77808Y133048D01*
X77667Y133189D01*
X77573Y133283D01*
X77526Y133330D01*
X77009Y133941D01*
X76586Y134553D01*
X76210Y135164D01*
X75881Y135822D01*
X75599Y136433D01*
X75364Y137044D01*
X75034Y138220D01*
X74893Y138784D01*
X74799Y139254D01*
X74752Y139677D01*
X74705Y140053D01*
X74658Y140382D01*
Y140806D01*
X74705Y141793D01*
X74799Y142733D01*
X74988Y143580D01*
X75223Y144426D01*
X75552Y145178D01*
X75834Y145883D01*
X76210Y146542D01*
X76539Y147106D01*
X76868Y147623D01*
X77244Y148093D01*
X77526Y148469D01*
X77808Y148798D01*
X78091Y149080D01*
X78279Y149268D01*
X78373Y149362D01*
X78420Y149409D01*
X79031Y149880D01*
X79642Y150256D01*
X80253Y150632D01*
X80864Y150914D01*
X82134Y151384D01*
X83309Y151713D01*
X83826Y151807D01*
X84297Y151901D01*
X84767Y151948D01*
X85143Y151995D01*
X85425Y152042D01*
X85660D01*
X85801D01*
X85848D01*
X86741Y151995D01*
D02*
G37*
G36*
X95251Y124585D02*
X95580Y124444D01*
X95815Y124350D01*
X95909Y124303D01*
X96192Y124021D01*
X96427Y123739D01*
X96568Y123410D01*
X96709Y123081D01*
X96756Y122799D01*
X96803Y122564D01*
Y122376D01*
X96756Y121952D01*
X96709Y121623D01*
X96568Y121341D01*
X96427Y121059D01*
X96333Y120871D01*
X96192Y120730D01*
X96145Y120683D01*
X96097Y120636D01*
X95909Y120448D01*
X95674Y120354D01*
X95251Y120166D01*
X95063D01*
X94922Y120119D01*
X94828D01*
X94781D01*
X85002D01*
X84250Y120025D01*
X83544Y119837D01*
X82839Y119555D01*
X82275Y119178D01*
X81758Y118849D01*
X81382Y118567D01*
X81146Y118379D01*
X81053Y118285D01*
X80629Y117862D01*
X80300Y117439D01*
X79971Y117016D01*
X79736Y116593D01*
X79313Y115840D01*
X79031Y115135D01*
X78890Y114524D01*
X78796Y114101D01*
X78749Y113913D01*
Y113678D01*
X78796Y113020D01*
X78984Y112502D01*
X79219Y111985D01*
X79548Y111562D01*
X79924Y111233D01*
X80347Y110951D01*
X80817Y110716D01*
X81288Y110528D01*
X82228Y110246D01*
X82698Y110152D01*
X83074Y110105D01*
X83403Y110057D01*
X83638D01*
X83826D01*
X83873D01*
X94781D01*
X95251Y110010D01*
X95627Y109869D01*
X95862Y109728D01*
X95956Y109681D01*
X96238Y109399D01*
X96427Y109117D01*
X96615Y108788D01*
X96709Y108506D01*
X96756Y108224D01*
X96803Y107989D01*
Y107801D01*
X96756Y107331D01*
X96662Y106908D01*
X96474Y106578D01*
X96285Y106296D01*
X96097Y106061D01*
X95909Y105920D01*
X95815Y105826D01*
X95768Y105779D01*
X95392Y105591D01*
X95110Y105544D01*
X94875Y105497D01*
X94781D01*
X83403D01*
X82228Y105544D01*
X81146Y105685D01*
X80253Y105920D01*
X79454Y106155D01*
X78796Y106437D01*
X78326Y106625D01*
X78185Y106719D01*
X78043Y106813D01*
X77997Y106861D01*
X77950D01*
X77385Y107284D01*
X76868Y107707D01*
X76445Y108224D01*
X76022Y108741D01*
X75740Y109258D01*
X75458Y109775D01*
X75223Y110293D01*
X75082Y110810D01*
X74847Y111750D01*
X74752Y112173D01*
X74705Y112502D01*
X74658Y112784D01*
Y113208D01*
X74705Y114148D01*
X74847Y115041D01*
X75082Y115840D01*
X75270Y116546D01*
X75505Y117110D01*
X75740Y117580D01*
X75881Y117862D01*
X75928Y117909D01*
Y117956D01*
X76398Y118661D01*
X76915Y119273D01*
X77432Y119743D01*
X77902Y120119D01*
X78373Y120401D01*
X78702Y120589D01*
X78937Y120683D01*
X79031Y120730D01*
X76868Y120824D01*
X76257Y120965D01*
X75787Y121200D01*
X75458Y121529D01*
X75270Y121858D01*
X75129Y122234D01*
X75082Y122517D01*
X75034Y122705D01*
Y122799D01*
X75129Y123410D01*
X75317Y123880D01*
X75646Y124162D01*
X75975Y124397D01*
X76304Y124538D01*
X76633Y124585D01*
X76821Y124632D01*
X76915D01*
X94781D01*
X95251Y124585D01*
D02*
G37*
G36*
X118588Y112501D02*
X121227D01*
Y111352D01*
X118588D01*
Y108750D01*
X117440D01*
Y111352D01*
X114801D01*
Y112501D01*
X117440D01*
Y115115D01*
X118588D01*
Y112501D01*
D02*
G37*
G36*
X118842Y284421D02*
X121481D01*
Y283272D01*
X118842D01*
Y280670D01*
X117694D01*
Y283272D01*
X115055D01*
Y284421D01*
X117694D01*
Y287035D01*
X118842D01*
Y284421D01*
D02*
G37*
G36*
X111932Y185806D02*
X112091Y185796D01*
X112397Y185732D01*
X112661Y185648D01*
X112767Y185606D01*
X112873Y185553D01*
X112968Y185500D01*
X113052Y185458D01*
X113126Y185415D01*
X113190Y185373D01*
X113232Y185341D01*
X113264Y185310D01*
X113285Y185299D01*
X113295Y185289D01*
X113401Y185193D01*
X113496Y185077D01*
X113581Y184972D01*
X113644Y184855D01*
X113771Y184633D01*
X113845Y184422D01*
X113908Y184232D01*
X113929Y184147D01*
X113940Y184073D01*
X113951Y184021D01*
X113961Y183978D01*
Y183947D01*
Y183936D01*
X113285Y183852D01*
X113243Y184073D01*
X113179Y184274D01*
X113105Y184443D01*
X113021Y184591D01*
X112936Y184707D01*
X112873Y184792D01*
X112830Y184834D01*
X112809Y184855D01*
X112651Y184982D01*
X112482Y185077D01*
X112302Y185141D01*
X112144Y185193D01*
X111996Y185215D01*
X111880Y185225D01*
X111837Y185236D01*
X111774D01*
X111531Y185215D01*
X111309Y185172D01*
X111119Y185119D01*
X110971Y185046D01*
X110844Y184972D01*
X110759Y184919D01*
X110707Y184876D01*
X110686Y184855D01*
X110559Y184697D01*
X110464Y184528D01*
X110390Y184348D01*
X110347Y184179D01*
X110316Y184021D01*
X110305Y183904D01*
X110295Y183852D01*
Y183820D01*
Y183799D01*
Y183788D01*
X110316Y183566D01*
X110358Y183344D01*
X110411Y183154D01*
X110485Y182974D01*
X110559Y182837D01*
X110611Y182721D01*
X110643Y182679D01*
X110654Y182647D01*
X110675Y182636D01*
Y182626D01*
X110749Y182520D01*
X110833Y182414D01*
X111034Y182182D01*
X111245Y181960D01*
X111467Y181749D01*
X111658Y181569D01*
X111742Y181485D01*
X111827Y181421D01*
X111890Y181358D01*
X111932Y181316D01*
X111964Y181294D01*
X111975Y181284D01*
X112292Y180999D01*
X112577Y180734D01*
X112693Y180608D01*
X112809Y180491D01*
X112915Y180386D01*
X112999Y180280D01*
X113084Y180196D01*
X113158Y180111D01*
X113211Y180048D01*
X113264Y179984D01*
X113295Y179942D01*
X113327Y179910D01*
X113338Y179889D01*
X113348Y179879D01*
X113507Y179657D01*
X113655Y179435D01*
X113781Y179223D01*
X113876Y179044D01*
X113951Y178885D01*
X113982Y178811D01*
X114014Y178759D01*
X114035Y178716D01*
X114046Y178685D01*
X114056Y178663D01*
Y178653D01*
Y178177D01*
X109481D01*
Y178780D01*
X113274D01*
X113190Y178949D01*
X113095Y179118D01*
X112968Y179297D01*
X112830Y179488D01*
X112535Y179847D01*
X112228Y180185D01*
X112080Y180343D01*
X111932Y180481D01*
X111805Y180608D01*
X111689Y180724D01*
X111594Y180808D01*
X111520Y180882D01*
X111478Y180925D01*
X111457Y180935D01*
X111309Y181073D01*
X111172Y181189D01*
X111045Y181316D01*
X110928Y181421D01*
X110728Y181622D01*
X110569Y181780D01*
X110442Y181907D01*
X110358Y182002D01*
X110305Y182055D01*
X110295Y182076D01*
X110168Y182235D01*
X110062Y182383D01*
X109978Y182531D01*
X109904Y182658D01*
X109851Y182763D01*
X109809Y182848D01*
X109787Y182901D01*
X109777Y182922D01*
X109713Y183080D01*
X109671Y183239D01*
X109639Y183397D01*
X109618Y183535D01*
X109608Y183651D01*
X109597Y183746D01*
Y183809D01*
Y183830D01*
X109608Y183999D01*
X109618Y184158D01*
X109692Y184454D01*
X109777Y184697D01*
X109830Y184813D01*
X109882Y184908D01*
X109946Y184993D01*
X109999Y185077D01*
X110041Y185141D01*
X110083Y185193D01*
X110126Y185236D01*
X110157Y185267D01*
X110168Y185278D01*
X110178Y185289D01*
X110295Y185384D01*
X110411Y185468D01*
X110538Y185532D01*
X110664Y185595D01*
X110928Y185690D01*
X111182Y185753D01*
X111298Y185775D01*
X111415Y185785D01*
X111510Y185806D01*
X111594D01*
X111668Y185817D01*
X111763D01*
X111932Y185806D01*
D02*
G37*
G36*
X117881D02*
X118135Y185775D01*
X118378Y185722D01*
X118610Y185658D01*
X118811Y185584D01*
X119012Y185500D01*
X119181Y185405D01*
X119339Y185310D01*
X119487Y185215D01*
X119604Y185119D01*
X119709Y185035D01*
X119794Y184961D01*
X119868Y184898D01*
X119910Y184845D01*
X119942Y184813D01*
X119952Y184802D01*
X120100Y184602D01*
X120227Y184390D01*
X120343Y184168D01*
X120438Y183936D01*
X120512Y183693D01*
X120586Y183461D01*
X120639Y183228D01*
X120681Y183006D01*
X120713Y182795D01*
X120745Y182605D01*
X120766Y182425D01*
X120776Y182267D01*
Y182150D01*
X120787Y182055D01*
Y181992D01*
Y181981D01*
Y181971D01*
X120776Y181633D01*
X120755Y181326D01*
X120713Y181030D01*
X120660Y180756D01*
X120597Y180491D01*
X120523Y180259D01*
X120449Y180048D01*
X120375Y179847D01*
X120301Y179678D01*
X120227Y179519D01*
X120153Y179393D01*
X120090Y179287D01*
X120037Y179202D01*
X119994Y179149D01*
X119973Y179107D01*
X119963Y179097D01*
X119804Y178917D01*
X119625Y178759D01*
X119445Y178621D01*
X119255Y178494D01*
X119065Y178399D01*
X118874Y178315D01*
X118695Y178241D01*
X118515Y178188D01*
X118346Y178146D01*
X118188Y178114D01*
X118040Y178093D01*
X117923Y178082D01*
X117818Y178072D01*
X117744Y178061D01*
X117680D01*
X117321Y178082D01*
X116994Y178135D01*
X116687Y178220D01*
X116412Y178336D01*
X116169Y178463D01*
X115937Y178611D01*
X115747Y178769D01*
X115567Y178938D01*
X115419Y179097D01*
X115282Y179255D01*
X115176Y179403D01*
X115092Y179530D01*
X115028Y179646D01*
X114975Y179731D01*
X114954Y179783D01*
X114944Y179805D01*
X115578Y180100D01*
X115683Y179868D01*
X115800Y179657D01*
X115937Y179477D01*
X116053Y179319D01*
X116169Y179202D01*
X116264Y179118D01*
X116328Y179065D01*
X116339Y179044D01*
X116349D01*
X116550Y178917D01*
X116761Y178822D01*
X116983Y178759D01*
X117184Y178716D01*
X117374Y178685D01*
X117448Y178674D01*
X117511D01*
X117575Y178663D01*
X117649D01*
X117850Y178674D01*
X118050Y178706D01*
X118230Y178748D01*
X118399Y178801D01*
X118557Y178864D01*
X118705Y178938D01*
X118843Y179023D01*
X118959Y179107D01*
X119065Y179181D01*
X119160Y179266D01*
X119244Y179340D01*
X119308Y179403D01*
X119361Y179456D01*
X119392Y179498D01*
X119413Y179530D01*
X119424Y179540D01*
X119540Y179709D01*
X119635Y179900D01*
X119720Y180090D01*
X119794Y180291D01*
X119846Y180491D01*
X119899Y180692D01*
X119973Y181083D01*
X120005Y181263D01*
X120026Y181432D01*
X120037Y181580D01*
X120047Y181707D01*
X120058Y181812D01*
Y181897D01*
Y181939D01*
Y181960D01*
X120047Y182235D01*
X120026Y182499D01*
X119994Y182742D01*
X119963Y182974D01*
X119910Y183186D01*
X119857Y183387D01*
X119804Y183556D01*
X119741Y183725D01*
X119677Y183862D01*
X119625Y183989D01*
X119572Y184095D01*
X119519Y184179D01*
X119487Y184253D01*
X119456Y184295D01*
X119434Y184327D01*
X119424Y184338D01*
X119297Y184485D01*
X119160Y184623D01*
X119012Y184739D01*
X118864Y184834D01*
X118716Y184919D01*
X118568Y184993D01*
X118420Y185046D01*
X118272Y185098D01*
X118135Y185130D01*
X118008Y185162D01*
X117902Y185183D01*
X117797Y185193D01*
X117723D01*
X117659Y185204D01*
X117606D01*
X117353Y185193D01*
X117120Y185162D01*
X116909Y185109D01*
X116740Y185056D01*
X116592Y184993D01*
X116486Y184950D01*
X116455Y184929D01*
X116423Y184908D01*
X116412Y184898D01*
X116402D01*
X116222Y184771D01*
X116074Y184623D01*
X115937Y184464D01*
X115831Y184306D01*
X115747Y184158D01*
X115683Y184031D01*
X115662Y183989D01*
X115641Y183957D01*
X115631Y183936D01*
Y183925D01*
X114975Y184200D01*
X115049Y184359D01*
X115123Y184496D01*
X115197Y184623D01*
X115282Y184750D01*
X115451Y184961D01*
X115620Y185130D01*
X115768Y185257D01*
X115884Y185352D01*
X115926Y185384D01*
X115958Y185405D01*
X115979Y185426D01*
X115990D01*
X116243Y185553D01*
X116518Y185648D01*
X116793Y185722D01*
X117046Y185764D01*
X117163Y185785D01*
X117268Y185796D01*
X117363Y185806D01*
X117448D01*
X117511Y185817D01*
X117606D01*
X117881Y185806D01*
D02*
G37*
G36*
X127000Y185088D02*
X124654D01*
Y178177D01*
X123946D01*
Y185088D01*
X121548D01*
Y185701D01*
X127000D01*
Y185088D01*
D02*
G37*
G36*
X113877Y357195D02*
Y356582D01*
X112155Y357723D01*
Y351468D01*
X114078D01*
Y350897D01*
X109841D01*
Y351468D01*
X111489D01*
Y358421D01*
X112091D01*
X113877Y357195D01*
D02*
G37*
G36*
X118135Y358526D02*
X118389Y358495D01*
X118632Y358442D01*
X118864Y358378D01*
X119065Y358304D01*
X119266Y358220D01*
X119435Y358125D01*
X119593Y358030D01*
X119741Y357935D01*
X119858Y357840D01*
X119963Y357755D01*
X120048Y357681D01*
X120122Y357618D01*
X120164Y357565D01*
X120196Y357533D01*
X120206Y357523D01*
X120354Y357322D01*
X120481Y357110D01*
X120597Y356889D01*
X120692Y356656D01*
X120766Y356413D01*
X120840Y356180D01*
X120893Y355948D01*
X120935Y355726D01*
X120967Y355515D01*
X120999Y355325D01*
X121020Y355145D01*
X121030Y354986D01*
Y354870D01*
X121041Y354775D01*
Y354712D01*
Y354701D01*
Y354691D01*
X121030Y354353D01*
X121009Y354046D01*
X120967Y353750D01*
X120914Y353475D01*
X120851Y353211D01*
X120777Y352979D01*
X120703Y352768D01*
X120629Y352567D01*
X120555Y352398D01*
X120481Y352239D01*
X120407Y352113D01*
X120344Y352007D01*
X120291Y351922D01*
X120248Y351870D01*
X120227Y351827D01*
X120217Y351817D01*
X120058Y351637D01*
X119879Y351479D01*
X119699Y351341D01*
X119509Y351214D01*
X119319Y351119D01*
X119128Y351035D01*
X118949Y350961D01*
X118769Y350908D01*
X118600Y350866D01*
X118442Y350834D01*
X118294Y350813D01*
X118177Y350802D01*
X118072Y350792D01*
X117998Y350781D01*
X117934D01*
X117575Y350802D01*
X117248Y350855D01*
X116941Y350940D01*
X116666Y351056D01*
X116423Y351183D01*
X116191Y351331D01*
X116001Y351489D01*
X115821Y351658D01*
X115673Y351817D01*
X115536Y351975D01*
X115430Y352123D01*
X115346Y352250D01*
X115282Y352366D01*
X115229Y352451D01*
X115208Y352503D01*
X115198Y352525D01*
X115832Y352820D01*
X115937Y352588D01*
X116054Y352377D01*
X116191Y352197D01*
X116307Y352038D01*
X116423Y351922D01*
X116518Y351838D01*
X116582Y351785D01*
X116593Y351764D01*
X116603D01*
X116804Y351637D01*
X117015Y351542D01*
X117237Y351479D01*
X117438Y351436D01*
X117628Y351404D01*
X117702Y351394D01*
X117765D01*
X117829Y351383D01*
X117903D01*
X118104Y351394D01*
X118304Y351426D01*
X118484Y351468D01*
X118653Y351521D01*
X118811Y351584D01*
X118959Y351658D01*
X119097Y351743D01*
X119213Y351827D01*
X119319Y351901D01*
X119414Y351986D01*
X119498Y352060D01*
X119562Y352123D01*
X119614Y352176D01*
X119646Y352218D01*
X119667Y352250D01*
X119678Y352260D01*
X119794Y352430D01*
X119889Y352620D01*
X119974Y352810D01*
X120048Y353011D01*
X120100Y353211D01*
X120153Y353412D01*
X120227Y353803D01*
X120259Y353983D01*
X120280Y354152D01*
X120291Y354300D01*
X120301Y354426D01*
X120312Y354532D01*
Y354617D01*
Y354659D01*
Y354680D01*
X120301Y354955D01*
X120280Y355219D01*
X120248Y355462D01*
X120217Y355695D01*
X120164Y355906D01*
X120111Y356107D01*
X120058Y356276D01*
X119995Y356445D01*
X119931Y356582D01*
X119879Y356709D01*
X119826Y356814D01*
X119773Y356899D01*
X119741Y356973D01*
X119710Y357015D01*
X119689Y357047D01*
X119678Y357058D01*
X119551Y357206D01*
X119414Y357343D01*
X119266Y357459D01*
X119118Y357554D01*
X118970Y357639D01*
X118822Y357713D01*
X118674Y357766D01*
X118526Y357818D01*
X118389Y357850D01*
X118262Y357882D01*
X118156Y357903D01*
X118051Y357913D01*
X117977D01*
X117913Y357924D01*
X117860D01*
X117607Y357913D01*
X117374Y357882D01*
X117163Y357829D01*
X116994Y357776D01*
X116846Y357713D01*
X116740Y357670D01*
X116709Y357649D01*
X116677Y357628D01*
X116666Y357618D01*
X116656D01*
X116476Y357491D01*
X116328Y357343D01*
X116191Y357184D01*
X116085Y357026D01*
X116001Y356878D01*
X115937Y356751D01*
X115916Y356709D01*
X115895Y356677D01*
X115885Y356656D01*
Y356646D01*
X115229Y356920D01*
X115303Y357079D01*
X115377Y357216D01*
X115451Y357343D01*
X115536Y357470D01*
X115705Y357681D01*
X115874Y357850D01*
X116022Y357977D01*
X116138Y358072D01*
X116180Y358104D01*
X116212Y358125D01*
X116233Y358146D01*
X116244D01*
X116497Y358273D01*
X116772Y358368D01*
X117047Y358442D01*
X117301Y358484D01*
X117417Y358505D01*
X117522Y358516D01*
X117617Y358526D01*
X117702D01*
X117765Y358537D01*
X117860D01*
X118135Y358526D01*
D02*
G37*
G36*
X127254Y357808D02*
X124908D01*
Y350897D01*
X124200D01*
Y357808D01*
X121802D01*
Y358421D01*
X127254D01*
Y357808D01*
D02*
G37*
G36*
X144642Y182405D02*
Y181792D01*
X142920Y182933D01*
Y176678D01*
X144843D01*
Y176107D01*
X140606D01*
Y176678D01*
X142254D01*
Y183631D01*
X142856D01*
X144642Y182405D01*
D02*
G37*
G36*
X149714Y176107D02*
X145868D01*
Y176710D01*
X148996D01*
Y183631D01*
X149714D01*
Y176107D01*
D02*
G37*
G36*
X146994Y115156D02*
X147248Y115125D01*
X147491Y115072D01*
X147723Y115008D01*
X147924Y114934D01*
X148125Y114850D01*
X148294Y114755D01*
X148452Y114660D01*
X148600Y114565D01*
X148716Y114469D01*
X148822Y114385D01*
X148907Y114311D01*
X148981Y114248D01*
X149023Y114195D01*
X149055Y114163D01*
X149065Y114152D01*
X149213Y113952D01*
X149340Y113740D01*
X149456Y113518D01*
X149551Y113286D01*
X149625Y113043D01*
X149699Y112810D01*
X149752Y112578D01*
X149794Y112356D01*
X149826Y112145D01*
X149858Y111955D01*
X149879Y111775D01*
X149889Y111616D01*
Y111500D01*
X149900Y111405D01*
Y111342D01*
Y111331D01*
Y111321D01*
X149889Y110983D01*
X149868Y110676D01*
X149826Y110380D01*
X149773Y110105D01*
X149710Y109841D01*
X149636Y109609D01*
X149562Y109398D01*
X149488Y109197D01*
X149414Y109028D01*
X149340Y108869D01*
X149266Y108743D01*
X149203Y108637D01*
X149150Y108552D01*
X149108Y108499D01*
X149086Y108457D01*
X149076Y108447D01*
X148917Y108267D01*
X148738Y108109D01*
X148558Y107971D01*
X148368Y107844D01*
X148178Y107749D01*
X147987Y107665D01*
X147808Y107591D01*
X147628Y107538D01*
X147459Y107496D01*
X147301Y107464D01*
X147153Y107443D01*
X147037Y107432D01*
X146931Y107422D01*
X146857Y107411D01*
X146793D01*
X146434Y107432D01*
X146107Y107485D01*
X145800Y107570D01*
X145526Y107686D01*
X145282Y107813D01*
X145050Y107961D01*
X144860Y108119D01*
X144680Y108288D01*
X144532Y108447D01*
X144395Y108605D01*
X144289Y108753D01*
X144205Y108880D01*
X144141Y108996D01*
X144088Y109081D01*
X144067Y109133D01*
X144057Y109155D01*
X144691Y109450D01*
X144796Y109218D01*
X144913Y109007D01*
X145050Y108827D01*
X145166Y108668D01*
X145282Y108552D01*
X145378Y108468D01*
X145441Y108415D01*
X145451Y108394D01*
X145462D01*
X145663Y108267D01*
X145874Y108172D01*
X146096Y108109D01*
X146297Y108066D01*
X146487Y108034D01*
X146561Y108024D01*
X146624D01*
X146688Y108013D01*
X146762D01*
X146962Y108024D01*
X147163Y108056D01*
X147343Y108098D01*
X147512Y108151D01*
X147670Y108214D01*
X147818Y108288D01*
X147956Y108373D01*
X148072Y108457D01*
X148178Y108531D01*
X148273Y108616D01*
X148357Y108690D01*
X148421Y108753D01*
X148474Y108806D01*
X148505Y108848D01*
X148526Y108880D01*
X148537Y108890D01*
X148653Y109059D01*
X148748Y109250D01*
X148833Y109440D01*
X148907Y109641D01*
X148960Y109841D01*
X149012Y110042D01*
X149086Y110433D01*
X149118Y110613D01*
X149139Y110782D01*
X149150Y110930D01*
X149160Y111056D01*
X149171Y111162D01*
Y111247D01*
Y111289D01*
Y111310D01*
X149160Y111585D01*
X149139Y111849D01*
X149108Y112092D01*
X149076Y112324D01*
X149023Y112536D01*
X148970Y112737D01*
X148917Y112906D01*
X148854Y113075D01*
X148791Y113212D01*
X148738Y113339D01*
X148685Y113444D01*
X148632Y113529D01*
X148600Y113603D01*
X148569Y113645D01*
X148547Y113677D01*
X148537Y113688D01*
X148410Y113835D01*
X148273Y113973D01*
X148125Y114089D01*
X147977Y114184D01*
X147829Y114269D01*
X147681Y114343D01*
X147533Y114396D01*
X147385Y114448D01*
X147248Y114480D01*
X147121Y114512D01*
X147015Y114533D01*
X146910Y114543D01*
X146836D01*
X146772Y114554D01*
X146720D01*
X146466Y114543D01*
X146233Y114512D01*
X146022Y114459D01*
X145853Y114406D01*
X145705Y114343D01*
X145599Y114300D01*
X145568Y114279D01*
X145536Y114258D01*
X145526Y114248D01*
X145515D01*
X145335Y114121D01*
X145187Y113973D01*
X145050Y113814D01*
X144944Y113656D01*
X144860Y113508D01*
X144796Y113381D01*
X144775Y113339D01*
X144754Y113307D01*
X144744Y113286D01*
Y113275D01*
X144088Y113550D01*
X144162Y113709D01*
X144236Y113846D01*
X144310Y113973D01*
X144395Y114100D01*
X144564Y114311D01*
X144733Y114480D01*
X144881Y114607D01*
X144997Y114702D01*
X145039Y114734D01*
X145071Y114755D01*
X145092Y114776D01*
X145103D01*
X145356Y114903D01*
X145631Y114998D01*
X145906Y115072D01*
X146159Y115114D01*
X146276Y115135D01*
X146381Y115146D01*
X146476Y115156D01*
X146561D01*
X146624Y115167D01*
X146720D01*
X146994Y115156D01*
D02*
G37*
G36*
X141077D02*
X141246Y115146D01*
X141552Y115082D01*
X141700Y115040D01*
X141827Y114998D01*
X141944Y114956D01*
X142049Y114903D01*
X142144Y114850D01*
X142229Y114808D01*
X142292Y114765D01*
X142356Y114723D01*
X142398Y114691D01*
X142430Y114660D01*
X142451Y114649D01*
X142461Y114639D01*
X142567Y114533D01*
X142651Y114427D01*
X142725Y114311D01*
X142799Y114205D01*
X142905Y113973D01*
X142968Y113751D01*
X143011Y113561D01*
X143021Y113476D01*
X143032Y113402D01*
X143042Y113349D01*
Y113307D01*
Y113275D01*
Y113265D01*
X143032Y113022D01*
X142990Y112800D01*
X142937Y112610D01*
X142873Y112441D01*
X142810Y112303D01*
X142757Y112198D01*
X142715Y112134D01*
X142704Y112124D01*
Y112113D01*
X142567Y111944D01*
X142419Y111807D01*
X142261Y111701D01*
X142113Y111616D01*
X141975Y111553D01*
X141869Y111511D01*
X141827Y111500D01*
X141796Y111490D01*
X141785Y111479D01*
X141774D01*
Y111447D01*
X142007Y111384D01*
X142208Y111299D01*
X142387Y111194D01*
X142535Y111088D01*
X142662Y110983D01*
X142746Y110898D01*
X142799Y110835D01*
X142821Y110824D01*
Y110814D01*
X142947Y110623D01*
X143042Y110412D01*
X143116Y110211D01*
X143159Y110010D01*
X143190Y109841D01*
X143201Y109767D01*
Y109715D01*
X143211Y109662D01*
Y109620D01*
Y109598D01*
Y109588D01*
X143201Y109398D01*
X143190Y109228D01*
X143159Y109059D01*
X143116Y108901D01*
X143074Y108764D01*
X143021Y108626D01*
X142968Y108510D01*
X142905Y108404D01*
X142852Y108309D01*
X142799Y108225D01*
X142746Y108151D01*
X142704Y108087D01*
X142662Y108045D01*
X142630Y108013D01*
X142620Y107992D01*
X142609Y107982D01*
X142493Y107887D01*
X142356Y107792D01*
X142218Y107718D01*
X142081Y107654D01*
X141796Y107549D01*
X141510Y107485D01*
X141383Y107464D01*
X141267Y107443D01*
X141151Y107432D01*
X141056Y107422D01*
X140982Y107411D01*
X140876D01*
X140675Y107422D01*
X140485Y107432D01*
X140306Y107464D01*
X140137Y107496D01*
X139978Y107549D01*
X139841Y107591D01*
X139714Y107644D01*
X139598Y107696D01*
X139492Y107749D01*
X139408Y107802D01*
X139323Y107855D01*
X139270Y107897D01*
X139217Y107929D01*
X139186Y107961D01*
X139164Y107971D01*
X139154Y107982D01*
X139048Y108098D01*
X138953Y108214D01*
X138869Y108341D01*
X138795Y108478D01*
X138742Y108605D01*
X138689Y108743D01*
X138615Y109007D01*
X138594Y109123D01*
X138573Y109239D01*
X138562Y109334D01*
X138552Y109429D01*
X138541Y109503D01*
Y109556D01*
Y109588D01*
Y109598D01*
X138562Y109873D01*
X138604Y110116D01*
X138668Y110327D01*
X138742Y110507D01*
X138816Y110655D01*
X138879Y110761D01*
X138900Y110792D01*
X138921Y110824D01*
X138943Y110835D01*
Y110845D01*
X139101Y111014D01*
X139281Y111152D01*
X139450Y111257D01*
X139619Y111342D01*
X139767Y111405D01*
X139894Y111437D01*
X139936Y111458D01*
X139968D01*
X139989Y111469D01*
X139999D01*
Y111490D01*
X139798Y111553D01*
X139619Y111638D01*
X139460Y111733D01*
X139323Y111838D01*
X139217Y111933D01*
X139143Y112018D01*
X139091Y112071D01*
X139080Y112092D01*
X138964Y112282D01*
X138869Y112472D01*
X138805Y112673D01*
X138763Y112853D01*
X138742Y113011D01*
X138731Y113085D01*
X138721Y113138D01*
Y113191D01*
Y113223D01*
Y113244D01*
Y113254D01*
X138731Y113413D01*
X138742Y113561D01*
X138816Y113835D01*
X138911Y114068D01*
X139017Y114269D01*
X139069Y114353D01*
X139122Y114427D01*
X139175Y114491D01*
X139217Y114543D01*
X139260Y114586D01*
X139291Y114617D01*
X139302Y114628D01*
X139312Y114639D01*
X139429Y114734D01*
X139545Y114818D01*
X139672Y114882D01*
X139809Y114945D01*
X140073Y115040D01*
X140327Y115104D01*
X140443Y115125D01*
X140549Y115135D01*
X140644Y115156D01*
X140728D01*
X140802Y115167D01*
X140897D01*
X141077Y115156D01*
D02*
G37*
G36*
X135690Y60600D02*
X135944Y60569D01*
X136187Y60516D01*
X136419Y60452D01*
X136620Y60378D01*
X136821Y60294D01*
X136990Y60199D01*
X137148Y60104D01*
X137296Y60009D01*
X137413Y59914D01*
X137518Y59829D01*
X137603Y59755D01*
X137677Y59692D01*
X137719Y59639D01*
X137751Y59607D01*
X137761Y59597D01*
X137909Y59396D01*
X138036Y59184D01*
X138152Y58962D01*
X138247Y58730D01*
X138321Y58487D01*
X138395Y58254D01*
X138448Y58022D01*
X138490Y57800D01*
X138522Y57589D01*
X138554Y57399D01*
X138575Y57219D01*
X138586Y57060D01*
Y56944D01*
X138596Y56849D01*
Y56786D01*
Y56775D01*
Y56765D01*
X138586Y56427D01*
X138564Y56120D01*
X138522Y55824D01*
X138469Y55550D01*
X138406Y55285D01*
X138332Y55053D01*
X138258Y54842D01*
X138184Y54641D01*
X138110Y54472D01*
X138036Y54313D01*
X137962Y54187D01*
X137899Y54081D01*
X137846Y53996D01*
X137804Y53944D01*
X137782Y53901D01*
X137772Y53891D01*
X137613Y53711D01*
X137434Y53552D01*
X137254Y53415D01*
X137064Y53288D01*
X136874Y53193D01*
X136684Y53109D01*
X136504Y53035D01*
X136324Y52982D01*
X136155Y52940D01*
X135997Y52908D01*
X135849Y52887D01*
X135732Y52876D01*
X135627Y52866D01*
X135553Y52855D01*
X135490D01*
X135130Y52876D01*
X134803Y52929D01*
X134496Y53014D01*
X134222Y53130D01*
X133979Y53257D01*
X133746Y53405D01*
X133556Y53563D01*
X133376Y53732D01*
X133228Y53891D01*
X133091Y54049D01*
X132985Y54197D01*
X132901Y54324D01*
X132837Y54440D01*
X132785Y54525D01*
X132763Y54577D01*
X132753Y54599D01*
X133387Y54894D01*
X133492Y54662D01*
X133609Y54451D01*
X133746Y54271D01*
X133862Y54113D01*
X133979Y53996D01*
X134074Y53912D01*
X134137Y53859D01*
X134148Y53838D01*
X134158D01*
X134359Y53711D01*
X134570Y53616D01*
X134792Y53552D01*
X134993Y53510D01*
X135183Y53478D01*
X135257Y53468D01*
X135321D01*
X135384Y53457D01*
X135458D01*
X135659Y53468D01*
X135859Y53500D01*
X136039Y53542D01*
X136208Y53595D01*
X136367Y53658D01*
X136515Y53732D01*
X136652Y53817D01*
X136768Y53901D01*
X136874Y53975D01*
X136969Y54060D01*
X137053Y54134D01*
X137117Y54197D01*
X137170Y54250D01*
X137201Y54292D01*
X137222Y54324D01*
X137233Y54334D01*
X137349Y54503D01*
X137444Y54694D01*
X137529Y54884D01*
X137603Y55085D01*
X137656Y55285D01*
X137709Y55486D01*
X137782Y55877D01*
X137814Y56057D01*
X137835Y56226D01*
X137846Y56374D01*
X137856Y56501D01*
X137867Y56606D01*
Y56691D01*
Y56733D01*
Y56754D01*
X137856Y57029D01*
X137835Y57293D01*
X137804Y57536D01*
X137772Y57769D01*
X137719Y57980D01*
X137666Y58181D01*
X137613Y58350D01*
X137550Y58519D01*
X137487Y58656D01*
X137434Y58783D01*
X137381Y58889D01*
X137328Y58973D01*
X137296Y59047D01*
X137265Y59089D01*
X137243Y59121D01*
X137233Y59132D01*
X137106Y59279D01*
X136969Y59417D01*
X136821Y59533D01*
X136673Y59628D01*
X136525Y59713D01*
X136377Y59787D01*
X136229Y59840D01*
X136081Y59892D01*
X135944Y59924D01*
X135817Y59956D01*
X135711Y59977D01*
X135606Y59987D01*
X135532D01*
X135468Y59998D01*
X135416D01*
X135162Y59987D01*
X134930Y59956D01*
X134718Y59903D01*
X134549Y59850D01*
X134401Y59787D01*
X134296Y59744D01*
X134264Y59723D01*
X134232Y59702D01*
X134222Y59692D01*
X134211D01*
X134031Y59565D01*
X133883Y59417D01*
X133746Y59258D01*
X133640Y59100D01*
X133556Y58952D01*
X133492Y58825D01*
X133471Y58783D01*
X133450Y58751D01*
X133440Y58730D01*
Y58720D01*
X132785Y58994D01*
X132858Y59153D01*
X132932Y59290D01*
X133006Y59417D01*
X133091Y59544D01*
X133260Y59755D01*
X133429Y59924D01*
X133577Y60051D01*
X133693Y60146D01*
X133736Y60178D01*
X133767Y60199D01*
X133788Y60220D01*
X133799D01*
X134052Y60347D01*
X134327Y60442D01*
X134602Y60516D01*
X134855Y60558D01*
X134972Y60579D01*
X135077Y60590D01*
X135173Y60600D01*
X135257D01*
X135321Y60611D01*
X135416D01*
X135690Y60600D01*
D02*
G37*
G36*
X131886Y59882D02*
X127945D01*
X128167Y59523D01*
X128378Y59174D01*
X128579Y58836D01*
X128759Y58498D01*
X128928Y58181D01*
X129076Y57885D01*
X129224Y57599D01*
X129340Y57335D01*
X129456Y57092D01*
X129551Y56870D01*
X129625Y56680D01*
X129699Y56522D01*
X129752Y56395D01*
X129784Y56300D01*
X129805Y56236D01*
X129815Y56215D01*
X129932Y55888D01*
X130027Y55571D01*
X130111Y55264D01*
X130185Y54968D01*
X130238Y54683D01*
X130291Y54419D01*
X130333Y54165D01*
X130365Y53933D01*
X130396Y53722D01*
X130418Y53531D01*
X130428Y53373D01*
X130439Y53236D01*
X130449Y53119D01*
Y53035D01*
Y52993D01*
Y52971D01*
X129762D01*
X129752Y53257D01*
X129741Y53542D01*
X129710Y53827D01*
X129667Y54113D01*
X129625Y54387D01*
X129572Y54651D01*
X129520Y54905D01*
X129456Y55148D01*
X129403Y55370D01*
X129350Y55571D01*
X129298Y55740D01*
X129255Y55898D01*
X129213Y56014D01*
X129181Y56110D01*
X129171Y56162D01*
X129160Y56184D01*
X129044Y56511D01*
X128907Y56828D01*
X128611Y57483D01*
X128452Y57800D01*
X128294Y58107D01*
X128135Y58403D01*
X127987Y58677D01*
X127839Y58941D01*
X127713Y59174D01*
X127586Y59385D01*
X127480Y59565D01*
X127396Y59702D01*
X127322Y59818D01*
X127301Y59850D01*
X127279Y59882D01*
X127269Y59892D01*
Y59903D01*
Y60495D01*
X131886D01*
Y59882D01*
D02*
G37*
G36*
X137115Y250516D02*
X137326Y250485D01*
X137527Y250432D01*
X137717Y250368D01*
X137886Y250294D01*
X138034Y250199D01*
X138171Y250115D01*
X138298Y250020D01*
X138414Y249914D01*
X138509Y249830D01*
X138583Y249745D01*
X138657Y249660D01*
X138710Y249597D01*
X138742Y249544D01*
X138763Y249513D01*
X138773Y249502D01*
X138890Y249301D01*
X138985Y249079D01*
X139069Y248847D01*
X139143Y248604D01*
X139196Y248350D01*
X139249Y248097D01*
X139291Y247843D01*
X139323Y247610D01*
X139355Y247378D01*
X139376Y247167D01*
X139386Y246966D01*
X139397Y246797D01*
X139408Y246660D01*
Y246554D01*
Y246522D01*
Y246490D01*
Y246480D01*
Y246469D01*
X139397Y246142D01*
X139386Y245825D01*
X139355Y245539D01*
X139312Y245265D01*
X139270Y245022D01*
X139217Y244789D01*
X139164Y244589D01*
X139101Y244398D01*
X139048Y244240D01*
X138995Y244092D01*
X138943Y243976D01*
X138900Y243881D01*
X138858Y243796D01*
X138826Y243743D01*
X138816Y243711D01*
X138805Y243701D01*
X138689Y243542D01*
X138552Y243395D01*
X138414Y243268D01*
X138277Y243162D01*
X138129Y243078D01*
X137981Y243004D01*
X137844Y242940D01*
X137706Y242887D01*
X137569Y242845D01*
X137442Y242824D01*
X137337Y242803D01*
X137241Y242782D01*
X137157D01*
X137104Y242771D01*
X137051D01*
X136861Y242782D01*
X136692Y242803D01*
X136523Y242834D01*
X136364Y242877D01*
X136216Y242930D01*
X136090Y242993D01*
X135963Y243046D01*
X135857Y243120D01*
X135751Y243183D01*
X135667Y243236D01*
X135593Y243299D01*
X135530Y243352D01*
X135487Y243395D01*
X135456Y243426D01*
X135435Y243447D01*
X135424Y243458D01*
X135318Y243595D01*
X135223Y243733D01*
X135149Y243891D01*
X135075Y244039D01*
X135012Y244198D01*
X134970Y244356D01*
X134896Y244652D01*
X134874Y244800D01*
X134853Y244927D01*
X134843Y245043D01*
X134832Y245138D01*
X134822Y245222D01*
Y245286D01*
Y245328D01*
Y245339D01*
X134832Y245539D01*
X134843Y245730D01*
X134874Y245909D01*
X134917Y246078D01*
X134959Y246226D01*
X135001Y246374D01*
X135054Y246501D01*
X135107Y246617D01*
X135170Y246723D01*
X135223Y246818D01*
X135266Y246892D01*
X135308Y246955D01*
X135350Y247008D01*
X135382Y247040D01*
X135392Y247061D01*
X135403Y247072D01*
X135519Y247188D01*
X135635Y247283D01*
X135762Y247367D01*
X135889Y247442D01*
X136016Y247505D01*
X136153Y247547D01*
X136396Y247632D01*
X136512Y247653D01*
X136618Y247674D01*
X136713Y247684D01*
X136798Y247695D01*
X136861Y247706D01*
X136956D01*
X137178Y247695D01*
X137379Y247663D01*
X137558Y247621D01*
X137717Y247579D01*
X137844Y247526D01*
X137939Y247484D01*
X138002Y247452D01*
X138013Y247442D01*
X138023D01*
X138182Y247336D01*
X138330Y247209D01*
X138446Y247082D01*
X138552Y246966D01*
X138636Y246850D01*
X138689Y246765D01*
X138731Y246702D01*
X138741Y246692D01*
X138731Y246977D01*
X138721Y247251D01*
X138700Y247505D01*
X138668Y247737D01*
X138626Y247959D01*
X138594Y248160D01*
X138552Y248340D01*
X138509Y248509D01*
X138467Y248646D01*
X138425Y248773D01*
X138383Y248878D01*
X138351Y248963D01*
X138319Y249037D01*
X138298Y249079D01*
X138277Y249111D01*
Y249121D01*
X138182Y249270D01*
X138087Y249396D01*
X137981Y249513D01*
X137875Y249608D01*
X137759Y249681D01*
X137643Y249755D01*
X137537Y249808D01*
X137432Y249851D01*
X137241Y249914D01*
X137157Y249935D01*
X137083Y249946D01*
X137020Y249956D01*
X136935D01*
X136755Y249946D01*
X136586Y249914D01*
X136449Y249872D01*
X136312Y249808D01*
X136195Y249745D01*
X136090Y249660D01*
X135995Y249576D01*
X135921Y249491D01*
X135847Y249407D01*
X135794Y249322D01*
X135751Y249238D01*
X135720Y249174D01*
X135688Y249111D01*
X135667Y249069D01*
X135656Y249037D01*
Y249026D01*
X135001Y249164D01*
X135086Y249407D01*
X135191Y249618D01*
X135308Y249798D01*
X135413Y249935D01*
X135519Y250051D01*
X135604Y250125D01*
X135656Y250178D01*
X135667Y250189D01*
X135678D01*
X135857Y250305D01*
X136058Y250389D01*
X136259Y250442D01*
X136460Y250485D01*
X136629Y250506D01*
X136702Y250516D01*
X136766Y250527D01*
X136893D01*
X137115Y250516D01*
D02*
G37*
G36*
X143264D02*
X143518Y250485D01*
X143761Y250432D01*
X143993Y250368D01*
X144194Y250294D01*
X144395Y250210D01*
X144564Y250115D01*
X144722Y250020D01*
X144870Y249925D01*
X144987Y249830D01*
X145092Y249745D01*
X145177Y249671D01*
X145251Y249608D01*
X145293Y249555D01*
X145325Y249523D01*
X145335Y249513D01*
X145483Y249312D01*
X145610Y249100D01*
X145726Y248878D01*
X145821Y248646D01*
X145895Y248403D01*
X145969Y248171D01*
X146022Y247938D01*
X146064Y247716D01*
X146096Y247505D01*
X146128Y247315D01*
X146149Y247135D01*
X146159Y246977D01*
Y246860D01*
X146170Y246765D01*
Y246702D01*
Y246691D01*
Y246681D01*
X146159Y246343D01*
X146138Y246036D01*
X146096Y245740D01*
X146043Y245466D01*
X145980Y245201D01*
X145906Y244969D01*
X145832Y244758D01*
X145758Y244557D01*
X145684Y244388D01*
X145610Y244229D01*
X145536Y244102D01*
X145473Y243997D01*
X145420Y243912D01*
X145378Y243860D01*
X145356Y243817D01*
X145346Y243807D01*
X145187Y243627D01*
X145008Y243468D01*
X144828Y243331D01*
X144638Y243204D01*
X144448Y243109D01*
X144257Y243025D01*
X144078Y242951D01*
X143898Y242898D01*
X143729Y242856D01*
X143571Y242824D01*
X143423Y242803D01*
X143307Y242792D01*
X143201Y242782D01*
X143127Y242771D01*
X143063D01*
X142704Y242792D01*
X142377Y242845D01*
X142070Y242930D01*
X141796Y243046D01*
X141552Y243173D01*
X141320Y243321D01*
X141130Y243479D01*
X140950Y243648D01*
X140802Y243807D01*
X140665Y243965D01*
X140559Y244113D01*
X140475Y244240D01*
X140411Y244356D01*
X140358Y244441D01*
X140337Y244493D01*
X140327Y244515D01*
X140961Y244810D01*
X141066Y244578D01*
X141183Y244367D01*
X141320Y244187D01*
X141436Y244028D01*
X141552Y243912D01*
X141648Y243828D01*
X141711Y243775D01*
X141721Y243754D01*
X141732D01*
X141933Y243627D01*
X142144Y243532D01*
X142366Y243468D01*
X142567Y243426D01*
X142757Y243395D01*
X142831Y243384D01*
X142894D01*
X142958Y243373D01*
X143032D01*
X143232Y243384D01*
X143433Y243416D01*
X143613Y243458D01*
X143782Y243511D01*
X143940Y243574D01*
X144088Y243648D01*
X144226Y243733D01*
X144342Y243817D01*
X144448Y243891D01*
X144543Y243976D01*
X144627Y244050D01*
X144691Y244113D01*
X144743Y244166D01*
X144775Y244208D01*
X144796Y244240D01*
X144807Y244250D01*
X144923Y244419D01*
X145018Y244610D01*
X145103Y244800D01*
X145177Y245001D01*
X145230Y245201D01*
X145282Y245402D01*
X145356Y245793D01*
X145388Y245973D01*
X145409Y246142D01*
X145420Y246290D01*
X145430Y246416D01*
X145441Y246522D01*
Y246607D01*
Y246649D01*
Y246670D01*
X145430Y246945D01*
X145409Y247209D01*
X145378Y247452D01*
X145346Y247684D01*
X145293Y247896D01*
X145240Y248097D01*
X145187Y248266D01*
X145124Y248435D01*
X145061Y248572D01*
X145008Y248699D01*
X144955Y248804D01*
X144902Y248889D01*
X144870Y248963D01*
X144839Y249005D01*
X144817Y249037D01*
X144807Y249048D01*
X144680Y249195D01*
X144543Y249333D01*
X144395Y249449D01*
X144247Y249544D01*
X144099Y249629D01*
X143951Y249703D01*
X143803Y249755D01*
X143655Y249808D01*
X143518Y249840D01*
X143391Y249872D01*
X143285Y249893D01*
X143180Y249903D01*
X143106D01*
X143042Y249914D01*
X142990D01*
X142736Y249903D01*
X142503Y249872D01*
X142292Y249819D01*
X142123Y249766D01*
X141975Y249703D01*
X141869Y249660D01*
X141838Y249639D01*
X141806Y249618D01*
X141796Y249608D01*
X141785D01*
X141605Y249481D01*
X141457Y249333D01*
X141320Y249174D01*
X141214Y249016D01*
X141130Y248868D01*
X141066Y248741D01*
X141045Y248699D01*
X141024Y248667D01*
X141014Y248646D01*
Y248636D01*
X140358Y248910D01*
X140432Y249069D01*
X140506Y249206D01*
X140580Y249333D01*
X140665Y249460D01*
X140834Y249671D01*
X141003Y249840D01*
X141151Y249967D01*
X141267Y250062D01*
X141309Y250094D01*
X141341Y250115D01*
X141362Y250136D01*
X141373D01*
X141626Y250263D01*
X141901Y250358D01*
X142176Y250432D01*
X142430Y250474D01*
X142546Y250495D01*
X142651Y250506D01*
X142746Y250516D01*
X142831D01*
X142894Y250527D01*
X142990D01*
X143264Y250516D01*
D02*
G37*
G36*
X37293Y114394D02*
X37452Y114384D01*
X37758Y114320D01*
X38022Y114236D01*
X38128Y114193D01*
X38234Y114141D01*
X38329Y114088D01*
X38413Y114046D01*
X38487Y114003D01*
X38551Y113961D01*
X38593Y113929D01*
X38625Y113898D01*
X38646Y113887D01*
X38656Y113876D01*
X38762Y113781D01*
X38857Y113665D01*
X38942Y113560D01*
X39005Y113443D01*
X39132Y113221D01*
X39206Y113010D01*
X39269Y112820D01*
X39290Y112735D01*
X39301Y112661D01*
X39312Y112609D01*
X39322Y112566D01*
Y112535D01*
Y112524D01*
X38646Y112439D01*
X38604Y112661D01*
X38540Y112862D01*
X38466Y113031D01*
X38382Y113179D01*
X38297Y113295D01*
X38234Y113380D01*
X38191Y113422D01*
X38170Y113443D01*
X38012Y113570D01*
X37843Y113665D01*
X37663Y113729D01*
X37505Y113781D01*
X37357Y113803D01*
X37241Y113813D01*
X37198Y113824D01*
X37135D01*
X36892Y113803D01*
X36670Y113760D01*
X36480Y113708D01*
X36332Y113633D01*
X36205Y113560D01*
X36121Y113507D01*
X36068Y113464D01*
X36047Y113443D01*
X35920Y113285D01*
X35825Y113116D01*
X35751Y112936D01*
X35708Y112767D01*
X35677Y112609D01*
X35666Y112492D01*
X35656Y112439D01*
Y112408D01*
Y112387D01*
Y112376D01*
X35677Y112154D01*
X35719Y111932D01*
X35772Y111742D01*
X35846Y111562D01*
X35920Y111425D01*
X35973Y111309D01*
X36004Y111267D01*
X36015Y111235D01*
X36036Y111224D01*
Y111214D01*
X36110Y111108D01*
X36195Y111003D01*
X36395Y110770D01*
X36607Y110548D01*
X36828Y110337D01*
X37019Y110157D01*
X37103Y110073D01*
X37188Y110009D01*
X37251Y109946D01*
X37293Y109904D01*
X37325Y109882D01*
X37336Y109872D01*
X37653Y109587D01*
X37938Y109322D01*
X38054Y109196D01*
X38170Y109079D01*
X38276Y108974D01*
X38361Y108868D01*
X38445Y108784D01*
X38519Y108699D01*
X38572Y108636D01*
X38625Y108572D01*
X38656Y108530D01*
X38688Y108498D01*
X38699Y108477D01*
X38709Y108467D01*
X38868Y108245D01*
X39016Y108023D01*
X39142Y107811D01*
X39238Y107632D01*
X39312Y107473D01*
X39343Y107399D01*
X39375Y107346D01*
X39396Y107304D01*
X39407Y107273D01*
X39417Y107251D01*
Y107241D01*
Y106765D01*
X34842D01*
Y107368D01*
X38635D01*
X38551Y107537D01*
X38456Y107706D01*
X38329Y107885D01*
X38191Y108076D01*
X37896Y108435D01*
X37589Y108773D01*
X37441Y108932D01*
X37293Y109069D01*
X37167Y109196D01*
X37050Y109312D01*
X36955Y109396D01*
X36881Y109470D01*
X36839Y109513D01*
X36818Y109523D01*
X36670Y109661D01*
X36533Y109777D01*
X36406Y109904D01*
X36290Y110009D01*
X36089Y110210D01*
X35930Y110368D01*
X35803Y110495D01*
X35719Y110590D01*
X35666Y110643D01*
X35656Y110664D01*
X35529Y110823D01*
X35423Y110971D01*
X35339Y111119D01*
X35265Y111245D01*
X35212Y111351D01*
X35169Y111436D01*
X35148Y111489D01*
X35138Y111510D01*
X35074Y111668D01*
X35032Y111827D01*
X35001Y111985D01*
X34979Y112122D01*
X34969Y112239D01*
X34958Y112334D01*
Y112397D01*
Y112418D01*
X34969Y112587D01*
X34979Y112746D01*
X35053Y113042D01*
X35138Y113285D01*
X35191Y113401D01*
X35243Y113496D01*
X35307Y113581D01*
X35360Y113665D01*
X35402Y113729D01*
X35444Y113781D01*
X35487Y113824D01*
X35518Y113855D01*
X35529Y113866D01*
X35539Y113876D01*
X35656Y113972D01*
X35772Y114056D01*
X35899Y114120D01*
X36025Y114183D01*
X36290Y114278D01*
X36543Y114341D01*
X36659Y114363D01*
X36776Y114373D01*
X36871Y114394D01*
X36955D01*
X37029Y114405D01*
X37124D01*
X37293Y114394D01*
D02*
G37*
G36*
X43242D02*
X43496Y114363D01*
X43739Y114310D01*
X43971Y114246D01*
X44172Y114172D01*
X44373Y114088D01*
X44542Y113993D01*
X44700Y113898D01*
X44848Y113803D01*
X44965Y113708D01*
X45070Y113623D01*
X45155Y113549D01*
X45229Y113486D01*
X45271Y113433D01*
X45303Y113401D01*
X45313Y113391D01*
X45461Y113190D01*
X45588Y112978D01*
X45704Y112757D01*
X45799Y112524D01*
X45873Y112281D01*
X45947Y112049D01*
X46000Y111816D01*
X46042Y111594D01*
X46074Y111383D01*
X46106Y111193D01*
X46127Y111013D01*
X46137Y110855D01*
Y110738D01*
X46148Y110643D01*
Y110580D01*
Y110569D01*
Y110559D01*
X46137Y110221D01*
X46116Y109914D01*
X46074Y109618D01*
X46021Y109344D01*
X45958Y109079D01*
X45884Y108847D01*
X45810Y108636D01*
X45736Y108435D01*
X45662Y108266D01*
X45588Y108107D01*
X45514Y107980D01*
X45451Y107875D01*
X45398Y107790D01*
X45356Y107738D01*
X45334Y107695D01*
X45324Y107685D01*
X45165Y107505D01*
X44986Y107346D01*
X44806Y107209D01*
X44616Y107082D01*
X44426Y106987D01*
X44236Y106903D01*
X44056Y106829D01*
X43876Y106776D01*
X43707Y106734D01*
X43549Y106702D01*
X43401Y106681D01*
X43285Y106670D01*
X43179Y106660D01*
X43105Y106649D01*
X43042D01*
X42682Y106670D01*
X42355Y106723D01*
X42048Y106808D01*
X41774Y106924D01*
X41530Y107051D01*
X41298Y107199D01*
X41108Y107357D01*
X40928Y107526D01*
X40780Y107685D01*
X40643Y107843D01*
X40537Y107991D01*
X40453Y108118D01*
X40389Y108234D01*
X40336Y108319D01*
X40315Y108371D01*
X40305Y108393D01*
X40939Y108688D01*
X41044Y108456D01*
X41161Y108245D01*
X41298Y108065D01*
X41414Y107907D01*
X41530Y107790D01*
X41626Y107706D01*
X41689Y107653D01*
X41700Y107632D01*
X41710D01*
X41911Y107505D01*
X42122Y107410D01*
X42344Y107346D01*
X42545Y107304D01*
X42735Y107273D01*
X42809Y107262D01*
X42872D01*
X42936Y107251D01*
X43010D01*
X43211Y107262D01*
X43411Y107294D01*
X43591Y107336D01*
X43760Y107389D01*
X43918Y107452D01*
X44066Y107526D01*
X44204Y107611D01*
X44320Y107695D01*
X44426Y107769D01*
X44521Y107854D01*
X44605Y107928D01*
X44669Y107991D01*
X44722Y108044D01*
X44753Y108086D01*
X44774Y108118D01*
X44785Y108128D01*
X44901Y108298D01*
X44996Y108488D01*
X45081Y108678D01*
X45155Y108879D01*
X45208Y109079D01*
X45260Y109280D01*
X45334Y109671D01*
X45366Y109851D01*
X45387Y110020D01*
X45398Y110168D01*
X45408Y110295D01*
X45419Y110400D01*
Y110485D01*
Y110527D01*
Y110548D01*
X45408Y110823D01*
X45387Y111087D01*
X45356Y111330D01*
X45324Y111562D01*
X45271Y111774D01*
X45218Y111975D01*
X45165Y112144D01*
X45102Y112313D01*
X45038Y112450D01*
X44986Y112577D01*
X44933Y112683D01*
X44880Y112767D01*
X44848Y112841D01*
X44817Y112883D01*
X44795Y112915D01*
X44785Y112926D01*
X44658Y113074D01*
X44521Y113211D01*
X44373Y113327D01*
X44225Y113422D01*
X44077Y113507D01*
X43929Y113581D01*
X43781Y113633D01*
X43633Y113686D01*
X43496Y113718D01*
X43369Y113750D01*
X43263Y113771D01*
X43158Y113781D01*
X43084D01*
X43020Y113792D01*
X42968D01*
X42714Y113781D01*
X42481Y113750D01*
X42270Y113697D01*
X42101Y113644D01*
X41953Y113581D01*
X41848Y113538D01*
X41816Y113517D01*
X41784Y113496D01*
X41774Y113486D01*
X41763D01*
X41583Y113359D01*
X41435Y113211D01*
X41298Y113052D01*
X41192Y112894D01*
X41108Y112746D01*
X41044Y112619D01*
X41023Y112577D01*
X41002Y112545D01*
X40992Y112524D01*
Y112514D01*
X40336Y112788D01*
X40410Y112947D01*
X40484Y113084D01*
X40558Y113211D01*
X40643Y113338D01*
X40812Y113549D01*
X40981Y113718D01*
X41129Y113845D01*
X41245Y113940D01*
X41287Y113972D01*
X41319Y113993D01*
X41340Y114014D01*
X41351D01*
X41604Y114141D01*
X41879Y114236D01*
X42154Y114310D01*
X42407Y114352D01*
X42524Y114373D01*
X42629Y114384D01*
X42724Y114394D01*
X42809D01*
X42872Y114405D01*
X42968D01*
X43242Y114394D01*
D02*
G37*
%LPC*%
G36*
X86177Y258955D02*
X86036D01*
X85942D01*
X85895D01*
X84767Y258861D01*
X83732Y258673D01*
X82839Y258438D01*
X82087Y258109D01*
X81523Y257780D01*
X81100Y257545D01*
X80817Y257357D01*
X80723Y257263D01*
X80065Y256604D01*
X79595Y255852D01*
X79219Y255147D01*
X78984Y254442D01*
X78843Y253878D01*
X78796Y253361D01*
X78749Y253172D01*
Y252937D01*
X78796Y252232D01*
X78890Y251574D01*
X78984Y251339D01*
X79031Y251151D01*
X79078Y251010D01*
Y250963D01*
X79360Y250210D01*
X79736Y249505D01*
X80206Y248941D01*
X80629Y248424D01*
X81005Y248048D01*
X81335Y247766D01*
X81570Y247578D01*
X81664Y247531D01*
X82228Y247201D01*
X82745Y246966D01*
X83262Y246778D01*
X83779Y246684D01*
X84156Y246590D01*
X84485Y246543D01*
X84673D01*
X84767D01*
X86224D01*
X87118Y246637D01*
X87964Y246825D01*
X88716Y247107D01*
X89421Y247437D01*
X89985Y247813D01*
X90409Y248095D01*
X90691Y248283D01*
X90738Y248377D01*
X90785D01*
X91208Y248753D01*
X91537Y249129D01*
X91866Y249552D01*
X92148Y249928D01*
X92571Y250681D01*
X92853Y251386D01*
X92994Y251997D01*
X93089Y252514D01*
X93135Y252702D01*
Y252937D01*
X93089Y253454D01*
X93041Y253972D01*
X92759Y254865D01*
X92383Y255617D01*
X91913Y256275D01*
X91490Y256793D01*
X91114Y257169D01*
X90832Y257404D01*
X90785Y257498D01*
X90738D01*
X89938Y257968D01*
X89139Y258344D01*
X88340Y258579D01*
X87588Y258767D01*
X86882Y258861D01*
X86365Y258908D01*
X86177Y258955D01*
D02*
G37*
G36*
X86271Y206345D02*
X85989D01*
X85942D01*
X85895D01*
X85284Y206298D01*
X84673Y206251D01*
X83544Y206016D01*
X82557Y205687D01*
X81664Y205311D01*
X81005Y204935D01*
X80676Y204747D01*
X80441Y204606D01*
X80253Y204464D01*
X80112Y204370D01*
X80065Y204276D01*
X80018D01*
X79595Y203618D01*
X79266Y202913D01*
X79078Y202208D01*
X78890Y201549D01*
X78796Y200938D01*
X78749Y200468D01*
Y200045D01*
X78843Y199105D01*
X79031Y198258D01*
X79313Y197506D01*
X79642Y196848D01*
X79971Y196378D01*
X80253Y196002D01*
X80441Y195767D01*
X80535Y195673D01*
X81335Y195014D01*
X82228Y194544D01*
X83121Y194168D01*
X83968Y193933D01*
X84720Y193792D01*
X85049Y193745D01*
X85331D01*
X85566Y193698D01*
X85754D01*
X85848D01*
X85895D01*
X87023Y193792D01*
X88011Y193980D01*
X88904Y194262D01*
X89703Y194591D01*
X90315Y194920D01*
X90785Y195202D01*
X90926Y195296D01*
X91067Y195390D01*
X91114Y195485D01*
X91161D01*
X91819Y196143D01*
X92289Y196895D01*
X92665Y197647D01*
X92900Y198353D01*
X93041Y199011D01*
X93089Y199528D01*
X93135Y199716D01*
Y199998D01*
X93089Y200656D01*
X92994Y201267D01*
X92853Y201832D01*
X92618Y202349D01*
X92148Y203289D01*
X91537Y204041D01*
X90973Y204606D01*
X90456Y205029D01*
X90267Y205170D01*
X90126Y205264D01*
X90033Y205358D01*
X89985D01*
X89280Y205687D01*
X88575Y205922D01*
X87917Y206110D01*
X87259Y206204D01*
X86694Y206298D01*
X86271Y206345D01*
D02*
G37*
G36*
X83309Y147200D02*
X82792Y147059D01*
X82275Y146824D01*
X81852Y146588D01*
X81429Y146353D01*
X81100Y146118D01*
X80864Y145883D01*
X80676Y145742D01*
X80629Y145695D01*
X79971Y144943D01*
X79501Y144144D01*
X79172Y143344D01*
X78937Y142545D01*
X78796Y141887D01*
X78749Y141323D01*
X78702Y141135D01*
Y140241D01*
X78796Y139630D01*
X79031Y138596D01*
X79360Y137750D01*
X79736Y137044D01*
X80159Y136480D01*
X80488Y136104D01*
X80723Y135916D01*
X80770Y135822D01*
X80817D01*
X81382Y135587D01*
X81899Y135399D01*
X82275Y135305D01*
X82604Y135211D01*
X82839Y135164D01*
X83027Y135117D01*
X83121D01*
X83168D01*
X83262Y135164D01*
X83309Y135211D01*
Y147200D01*
D02*
G37*
G36*
X140971Y114628D02*
X140908D01*
X140654Y114617D01*
X140433Y114575D01*
X140242Y114512D01*
X140084Y114448D01*
X139968Y114385D01*
X139883Y114321D01*
X139830Y114279D01*
X139809Y114269D01*
X139682Y114121D01*
X139587Y113962D01*
X139513Y113783D01*
X139471Y113614D01*
X139439Y113466D01*
X139429Y113339D01*
X139418Y113286D01*
Y113254D01*
Y113233D01*
Y113223D01*
X139439Y112969D01*
X139481Y112758D01*
X139534Y112568D01*
X139608Y112409D01*
X139682Y112293D01*
X139735Y112208D01*
X139777Y112155D01*
X139798Y112134D01*
X139957Y112008D01*
X140126Y111912D01*
X140306Y111849D01*
X140485Y111807D01*
X140644Y111775D01*
X140771Y111764D01*
X140823Y111754D01*
X140887D01*
X141130Y111775D01*
X141352Y111817D01*
X141542Y111881D01*
X141690Y111955D01*
X141817Y112018D01*
X141901Y112081D01*
X141954Y112124D01*
X141975Y112145D01*
X142102Y112303D01*
X142197Y112483D01*
X142261Y112663D01*
X142303Y112832D01*
X142334Y112990D01*
X142345Y113106D01*
X142356Y113159D01*
Y113191D01*
Y113212D01*
Y113223D01*
X142334Y113466D01*
X142292Y113666D01*
X142239Y113846D01*
X142165Y113994D01*
X142102Y114110D01*
X142039Y114195D01*
X141996Y114237D01*
X141986Y114258D01*
X141827Y114385D01*
X141658Y114469D01*
X141479Y114533D01*
X141299Y114586D01*
X141151Y114607D01*
X141024Y114617D01*
X140971Y114628D01*
D02*
G37*
G36*
Y111205D02*
X140897D01*
X140612Y111183D01*
X140369Y111141D01*
X140158Y111078D01*
X139989Y111004D01*
X139851Y110919D01*
X139756Y110856D01*
X139693Y110814D01*
X139672Y110792D01*
X139524Y110623D01*
X139418Y110444D01*
X139344Y110253D01*
X139291Y110074D01*
X139260Y109915D01*
X139249Y109841D01*
Y109778D01*
X139239Y109736D01*
Y109693D01*
Y109672D01*
Y109662D01*
X139260Y109366D01*
X139302Y109102D01*
X139365Y108890D01*
X139439Y108711D01*
X139524Y108563D01*
X139587Y108468D01*
X139629Y108404D01*
X139651Y108383D01*
X139820Y108235D01*
X140010Y108130D01*
X140211Y108056D01*
X140411Y108003D01*
X140591Y107971D01*
X140665Y107961D01*
X140728D01*
X140792Y107950D01*
X140866D01*
X141151Y107971D01*
X141405Y108013D01*
X141616Y108087D01*
X141785Y108172D01*
X141922Y108246D01*
X142028Y108320D01*
X142081Y108362D01*
X142102Y108383D01*
X142239Y108563D01*
X142345Y108764D01*
X142419Y108975D01*
X142472Y109176D01*
X142503Y109355D01*
X142514Y109440D01*
Y109503D01*
X142525Y109567D01*
Y109609D01*
Y109630D01*
Y109641D01*
X142503Y109894D01*
X142461Y110116D01*
X142387Y110306D01*
X142303Y110475D01*
X142229Y110602D01*
X142155Y110697D01*
X142113Y110750D01*
X142091Y110771D01*
X141912Y110919D01*
X141722Y111025D01*
X141521Y111099D01*
X141331Y111152D01*
X141162Y111183D01*
X141088Y111194D01*
X141024D01*
X140971Y111205D01*
D02*
G37*
G36*
X138741Y246692D02*
X138742Y246681D01*
Y246691D01*
X138741Y246692D01*
D02*
G37*
G36*
X137178Y247156D02*
X136967D01*
X136840Y247135D01*
X136597Y247082D01*
X136396Y246998D01*
X136227Y246913D01*
X136100Y246818D01*
X136005Y246733D01*
X135952Y246681D01*
X135931Y246670D01*
Y246660D01*
X135794Y246459D01*
X135688Y246237D01*
X135614Y246015D01*
X135561Y245793D01*
X135530Y245592D01*
X135519Y245508D01*
Y245444D01*
X135508Y245381D01*
Y245339D01*
Y245307D01*
Y245296D01*
X135530Y244969D01*
X135572Y244684D01*
X135635Y244441D01*
X135678Y244335D01*
X135709Y244229D01*
X135751Y244145D01*
X135794Y244071D01*
X135826Y244007D01*
X135857Y243955D01*
X135878Y243912D01*
X135899Y243881D01*
X135921Y243870D01*
Y243860D01*
X136005Y243764D01*
X136090Y243690D01*
X136185Y243616D01*
X136269Y243564D01*
X136470Y243468D01*
X136650Y243405D01*
X136819Y243373D01*
X136893Y243363D01*
X136945Y243352D01*
X136998Y243342D01*
X137072D01*
X137199Y243352D01*
X137326Y243373D01*
X137442Y243395D01*
X137548Y243437D01*
X137749Y243532D01*
X137918Y243648D01*
X138044Y243764D01*
X138139Y243860D01*
X138182Y243902D01*
X138203Y243933D01*
X138214Y243944D01*
X138224Y243955D01*
X138372Y244198D01*
X138478Y244462D01*
X138552Y244726D01*
X138604Y244979D01*
X138626Y245096D01*
X138636Y245201D01*
X138647Y245296D01*
Y245381D01*
X138657Y245444D01*
Y245497D01*
Y245529D01*
Y245539D01*
X138647Y245709D01*
X138626Y245878D01*
X138594Y246015D01*
X138552Y246142D01*
X138520Y246248D01*
X138488Y246321D01*
X138467Y246364D01*
X138456Y246385D01*
X138372Y246512D01*
X138287Y246628D01*
X138192Y246723D01*
X138097Y246807D01*
X138023Y246871D01*
X137960Y246924D01*
X137907Y246945D01*
X137896Y246955D01*
X137759Y247019D01*
X137622Y247072D01*
X137484Y247103D01*
X137368Y247135D01*
X137262Y247146D01*
X137178Y247156D01*
D02*
G37*
%LPD*%
D10*
X152236Y168856D02*
G03*
X147410Y172920I-4445J-381D01*
G01*
X147410Y145742D02*
G03*
X152490Y151076I-127J5207D01*
G01*
X138012Y151076D02*
G03*
X142330Y145742I4826J-508D01*
G01*
X142330Y172920D02*
G03*
X137758Y168856I-254J-4318D01*
G01*
X138640Y239754D02*
G03*
X134068Y235690I-254J-4318D01*
G01*
X134322Y217910D02*
G03*
X138640Y212576I4826J-508D01*
G01*
X143720Y212576D02*
G03*
X148800Y217910I-127J5207D01*
G01*
X148546Y235690D02*
G03*
X143720Y239754I-4445J-381D01*
G01*
X142370Y104394D02*
G03*
X137798Y100330I-254J-4318D01*
G01*
X138052Y82550D02*
G03*
X142370Y77216I4826J-508D01*
G01*
X147450Y77216D02*
G03*
X152530Y82550I-127J5207D01*
G01*
X152276Y100330D02*
G03*
X147450Y104394I-4445J-381D01*
G01*
X140972Y45720D02*
G03*
X136146Y49784I-4445J-381D01*
G01*
X136146Y22606D02*
G03*
X141226Y27940I-127J5207D01*
G01*
X126748Y27940D02*
G03*
X131066Y22606I4826J-508D01*
G01*
X131066Y49784D02*
G03*
X126494Y45720I-254J-4318D01*
G01*
X40306Y100584D02*
G03*
X35734Y96520I-254J-4318D01*
G01*
X35988Y78740D02*
G03*
X40306Y73406I4826J-508D01*
G01*
X45386Y73406D02*
G03*
X50466Y78740I-127J5207D01*
G01*
X50212Y96520D02*
G03*
X45386Y100584I-4445J-381D01*
G01*
X138012Y151076D02*
Y155648D01*
X142330Y145742D02*
X147410D01*
X152490Y151076D02*
Y155140D01*
X152236Y162252D02*
Y168856D01*
X142330Y172920D02*
X147410D01*
X137758Y163014D02*
Y168856D01*
X109220Y117640D02*
X127000D01*
X105410Y121450D02*
X109220Y117640D01*
X105410Y121450D02*
Y174790D01*
X127000Y117640D02*
X130810Y121450D01*
Y174790D01*
X105410D02*
X128270D01*
X107950D02*
X130810D01*
X109474Y290360D02*
X127254D01*
X105664Y294170D02*
X109474Y290360D01*
X105664Y294170D02*
Y347510D01*
X127254Y290360D02*
X131064Y294170D01*
Y347510D01*
X105664D02*
X128524D01*
X108204D02*
X131064D01*
X134068Y229848D02*
Y235690D01*
X138640Y239754D02*
X143720D01*
X148546Y229086D02*
Y235690D01*
X148800Y217910D02*
Y221974D01*
X138640Y212576D02*
X143720D01*
X134322Y217910D02*
Y222482D01*
X137798Y94488D02*
Y100330D01*
X142370Y104394D02*
X147450D01*
X152276Y93726D02*
Y100330D01*
X152530Y82550D02*
Y86614D01*
X142370Y77216D02*
X147450D01*
X138052Y82550D02*
Y87122D01*
X126748Y27940D02*
Y32512D01*
X131066Y22606D02*
X136146D01*
X141226Y27940D02*
Y32004D01*
X140972Y39116D02*
Y45720D01*
X131066Y49784D02*
X136146D01*
X126494Y39878D02*
Y45720D01*
X35734Y90678D02*
Y96520D01*
X40306Y100584D02*
X45386D01*
X50212Y89916D02*
Y96520D01*
X50466Y78740D02*
Y82804D01*
X40306Y73406D02*
X45386D01*
X35988Y78740D02*
Y83312D01*
M02*
