G04*
G04 #@! TF.GenerationSoftware,Altium Limited,Altium Designer,19.0.10 (269)*
G04*
G04 Layer_Physical_Order=2*
G04 Layer_Color=16711680*
%FSLAX44Y44*%
%MOMM*%
G71*
G01*
G75*
%ADD11C,0.2500*%
%ADD12C,0.2540*%
%ADD40C,0.5000*%
%ADD41C,1.5240*%
%ADD42C,1.5000*%
%ADD43C,1.0000*%
%ADD44C,0.6000*%
%ADD45C,0.5000*%
G36*
X24166Y375408D02*
X24722Y372728D01*
X25060Y371527D01*
X25438Y370419D01*
X25856Y369404D01*
X26314Y368481D01*
X26811Y367652D01*
X27349Y366915D01*
X27926Y366272D01*
X26158Y364504D01*
X25515Y365081D01*
X24778Y365619D01*
X23949Y366116D01*
X23026Y366574D01*
X22011Y366992D01*
X20903Y367370D01*
X19702Y367708D01*
X17022Y368264D01*
X15543Y368483D01*
X23947Y376887D01*
X24166Y375408D01*
D02*
G37*
G36*
X57150Y342058D02*
X55977Y341572D01*
X30912Y366636D01*
X30884Y366777D01*
X30812Y367287D01*
X30769Y367359D01*
X30752Y367442D01*
X30466Y367870D01*
X30203Y368314D01*
X29729Y368843D01*
X29363Y369344D01*
X29000Y369950D01*
X28644Y370667D01*
X28303Y371495D01*
X27982Y372436D01*
X27695Y373454D01*
X27179Y375942D01*
X26973Y377334D01*
X26880Y377595D01*
X26740Y378661D01*
X25682Y381215D01*
X23999Y383409D01*
X21805Y385092D01*
X19251Y386150D01*
X16510Y386511D01*
X13769Y386150D01*
X11215Y385092D01*
X9021Y383409D01*
X7338Y381215D01*
X6280Y378661D01*
X5919Y375920D01*
X6280Y373179D01*
X7338Y370625D01*
X9021Y368431D01*
X11215Y366748D01*
X13769Y365690D01*
X14835Y365550D01*
X15096Y365457D01*
X16487Y365251D01*
X18976Y364735D01*
X19994Y364448D01*
X20935Y364127D01*
X21763Y363786D01*
X22480Y363430D01*
X23087Y363066D01*
X23587Y362701D01*
X24116Y362227D01*
X24559Y361964D01*
X24988Y361678D01*
X25071Y361661D01*
X25143Y361618D01*
X25653Y361545D01*
X25794Y361517D01*
X57150Y330161D01*
Y281287D01*
X55880Y280640D01*
X54373Y281264D01*
X52285Y281539D01*
X50197Y281264D01*
X48250Y280458D01*
X46579Y279176D01*
X45297Y277505D01*
X44491Y275558D01*
X44216Y273470D01*
X44491Y271382D01*
X45297Y269436D01*
X45714Y268892D01*
X45801Y268689D01*
X45992Y268412D01*
X46100Y268214D01*
X46215Y267948D01*
X46331Y267612D01*
X46440Y267203D01*
X46536Y266724D01*
X46611Y266209D01*
X46714Y264850D01*
X46727Y264087D01*
X46848Y263529D01*
X46959Y262969D01*
X46974Y262947D01*
X46980Y262921D01*
X47305Y262452D01*
X47391Y262323D01*
Y129042D01*
X47305Y128913D01*
X46980Y128444D01*
X46974Y128418D01*
X46959Y128396D01*
X46848Y127836D01*
X46727Y127278D01*
X46714Y126515D01*
X46611Y125156D01*
X46536Y124641D01*
X46440Y124162D01*
X46331Y123753D01*
X46215Y123417D01*
X46100Y123151D01*
X45992Y122953D01*
X45801Y122676D01*
X45714Y122473D01*
X45297Y121930D01*
X44491Y119983D01*
X44216Y117895D01*
X44491Y115807D01*
X45297Y113861D01*
X46579Y112189D01*
X48250Y110907D01*
X50197Y110101D01*
X50876Y110012D01*
X51081Y109930D01*
X51412Y109868D01*
X51628Y109805D01*
X51898Y109699D01*
X52217Y109542D01*
X52583Y109331D01*
X52990Y109060D01*
X53407Y108749D01*
X54441Y107860D01*
X54989Y107330D01*
X55469Y107021D01*
X55944Y106704D01*
X55970Y106699D01*
X55993Y106684D01*
X56555Y106582D01*
X56707Y106552D01*
X61309Y101949D01*
X62897Y100889D01*
X64770Y100516D01*
X114813D01*
X123616Y91713D01*
Y75917D01*
X123530Y75788D01*
X123205Y75319D01*
X123199Y75293D01*
X123184Y75271D01*
X123073Y74711D01*
X122952Y74153D01*
X122939Y73390D01*
X122836Y72031D01*
X122761Y71516D01*
X122665Y71037D01*
X122556Y70628D01*
X122440Y70292D01*
X122325Y70026D01*
X122217Y69828D01*
X122026Y69551D01*
X121939Y69348D01*
X121522Y68804D01*
X120716Y66858D01*
X120441Y64770D01*
X120716Y62682D01*
X121522Y60736D01*
X122804Y59064D01*
X124475Y57782D01*
X126422Y56976D01*
X128510Y56701D01*
X130598Y56976D01*
X132544Y57782D01*
X134216Y59064D01*
X135498Y60736D01*
X136304Y62682D01*
X136579Y64770D01*
X136304Y66858D01*
X135498Y68804D01*
X135081Y69348D01*
X134994Y69551D01*
X134803Y69828D01*
X134695Y70026D01*
X134580Y70292D01*
X134464Y70628D01*
X134355Y71037D01*
X134259Y71516D01*
X134184Y72031D01*
X134081Y73390D01*
X134068Y74153D01*
X133947Y74711D01*
X133836Y75271D01*
X133821Y75293D01*
X133815Y75319D01*
X133490Y75788D01*
X133404Y75917D01*
Y93740D01*
X133032Y95613D01*
X131971Y97201D01*
X120301Y108871D01*
X118713Y109931D01*
X116840Y110304D01*
X66797D01*
X63628Y113473D01*
X63597Y113625D01*
X63496Y114187D01*
X63481Y114210D01*
X63476Y114236D01*
X63159Y114711D01*
X62850Y115191D01*
X62320Y115739D01*
X61431Y116773D01*
X61120Y117190D01*
X60849Y117597D01*
X60638Y117963D01*
X60481Y118282D01*
X60375Y118552D01*
X60312Y118768D01*
X60251Y119099D01*
X60168Y119304D01*
X60079Y119983D01*
X59273Y121930D01*
X58856Y122473D01*
X58769Y122676D01*
X58578Y122953D01*
X58470Y123151D01*
X58355Y123417D01*
X58239Y123753D01*
X58130Y124162D01*
X58034Y124641D01*
X57959Y125156D01*
X57856Y126515D01*
X57843Y127278D01*
X57722Y127836D01*
X57611Y128396D01*
X57596Y128418D01*
X57590Y128444D01*
X57265Y128913D01*
X57179Y129042D01*
Y262323D01*
X57265Y262452D01*
X57590Y262921D01*
X57596Y262947D01*
X57611Y262969D01*
X57722Y263529D01*
X57843Y264087D01*
X57856Y264850D01*
X57959Y266209D01*
X58034Y266724D01*
X58130Y267204D01*
X58239Y267612D01*
X58355Y267948D01*
X58470Y268214D01*
X58578Y268412D01*
X58769Y268689D01*
X58856Y268892D01*
X59273Y269436D01*
X60079Y271382D01*
X60354Y273470D01*
X60249Y274268D01*
X61086Y275222D01*
X75121D01*
Y267970D01*
X75396Y266585D01*
X76181Y265411D01*
X86576Y255016D01*
X87750Y254231D01*
X89135Y253955D01*
X97829D01*
X97987Y253850D01*
X98446Y253527D01*
X98482Y253519D01*
X98512Y253499D01*
X99063Y253389D01*
X99611Y253267D01*
X100010Y253258D01*
X100309Y253236D01*
X100577Y253201D01*
X100814Y253156D01*
X101022Y253104D01*
X101202Y253045D01*
X101358Y252981D01*
X101492Y252915D01*
X101609Y252845D01*
X101813Y252701D01*
X102088Y252578D01*
X103069Y251923D01*
X105410Y251457D01*
X107751Y251923D01*
X109736Y253249D01*
X111062Y255234D01*
X111528Y257575D01*
X111369Y258374D01*
X112539Y259000D01*
X114486Y257053D01*
Y232410D01*
X114859Y230537D01*
X115919Y228949D01*
X131159Y213709D01*
X132747Y212649D01*
X134620Y212276D01*
X145293D01*
X150046Y207523D01*
Y204724D01*
X148776Y204339D01*
X147836Y205746D01*
X145851Y207072D01*
X143510Y207537D01*
X141169Y207072D01*
X139184Y205746D01*
X137858Y203761D01*
X137393Y201420D01*
X137858Y199079D01*
X138512Y198100D01*
X138635Y197825D01*
X138774Y197628D01*
X138838Y197519D01*
X138902Y197390D01*
X138963Y197238D01*
X139020Y197059D01*
X139072Y196851D01*
X139109Y196652D01*
X139174Y195996D01*
X139182Y195632D01*
X139304Y195083D01*
X139414Y194531D01*
X139434Y194502D01*
X139442Y194467D01*
X139765Y194006D01*
X139870Y193849D01*
Y188198D01*
X82790Y131117D01*
X82603Y131080D01*
X82050Y130983D01*
X82020Y130964D01*
X81985Y130957D01*
X81517Y130645D01*
X81043Y130343D01*
X80750Y130064D01*
X80520Y129865D01*
X80304Y129697D01*
X80103Y129559D01*
X79919Y129448D01*
X79752Y129362D01*
X79601Y129298D01*
X79465Y129252D01*
X79342Y129220D01*
X79105Y129179D01*
X78824Y129072D01*
X77669Y128842D01*
X75684Y127516D01*
X74358Y125531D01*
X73892Y123190D01*
X74358Y120849D01*
X75684Y118864D01*
X77669Y117538D01*
X80010Y117072D01*
X82351Y117538D01*
X84336Y118864D01*
X85662Y120849D01*
X85892Y122004D01*
X85999Y122285D01*
X86040Y122522D01*
X86072Y122645D01*
X86118Y122781D01*
X86182Y122931D01*
X86269Y123099D01*
X86379Y123283D01*
X86494Y123450D01*
X86911Y123959D01*
X87163Y124223D01*
X87465Y124697D01*
X87777Y125165D01*
X87784Y125200D01*
X87803Y125230D01*
X87900Y125784D01*
X87937Y125970D01*
X146084Y184116D01*
X146873Y185297D01*
X147150Y186690D01*
Y193849D01*
X147255Y194006D01*
X147578Y194467D01*
X147586Y194502D01*
X147606Y194531D01*
X147716Y195083D01*
X147838Y195632D01*
X147847Y196036D01*
X147869Y196340D01*
X147903Y196611D01*
X147948Y196851D01*
X148000Y197059D01*
X148057Y197238D01*
X148118Y197390D01*
X148182Y197519D01*
X148246Y197628D01*
X148385Y197825D01*
X148508Y198100D01*
X148776Y198501D01*
X150046Y198116D01*
Y110490D01*
X150419Y108617D01*
X151479Y107029D01*
X153861Y104648D01*
X153887Y104516D01*
X153978Y103974D01*
X154003Y103933D01*
X154013Y103885D01*
X154318Y103428D01*
X154609Y102962D01*
X155291Y102235D01*
X155850Y101558D01*
X156352Y100858D01*
X156802Y100135D01*
X157199Y99385D01*
X157547Y98607D01*
X157844Y97798D01*
X158092Y96955D01*
X158291Y96075D01*
X158453Y95067D01*
X158542Y94825D01*
X158680Y93779D01*
X159738Y91225D01*
X161421Y89031D01*
X163615Y87348D01*
X166169Y86290D01*
X168910Y85929D01*
X171651Y86290D01*
X174205Y87348D01*
X176399Y89031D01*
X178082Y91225D01*
X179140Y93779D01*
X179501Y96520D01*
X179140Y99261D01*
X178082Y101815D01*
X176399Y104009D01*
X174205Y105692D01*
X171651Y106750D01*
X170605Y106888D01*
X170363Y106977D01*
X169355Y107140D01*
X168475Y107338D01*
X167632Y107586D01*
X166823Y107883D01*
X166045Y108231D01*
X165295Y108628D01*
X164572Y109078D01*
X163872Y109581D01*
X163194Y110139D01*
X162468Y110821D01*
X162002Y111112D01*
X161545Y111417D01*
X161497Y111426D01*
X161455Y111452D01*
X160913Y111543D01*
X160783Y111569D01*
X159834Y112517D01*
Y114524D01*
X161037Y114933D01*
X161421Y114431D01*
X163615Y112748D01*
X166169Y111690D01*
X168910Y111329D01*
X171651Y111690D01*
X174205Y112748D01*
X176399Y114431D01*
X178082Y116625D01*
X179140Y119179D01*
X179501Y121920D01*
X179140Y124661D01*
X178082Y127215D01*
X176399Y129409D01*
X174205Y131092D01*
X171651Y132150D01*
X168910Y132511D01*
X166169Y132150D01*
X163615Y131092D01*
X161421Y129409D01*
X161037Y128907D01*
X159834Y129316D01*
Y139924D01*
X161037Y140333D01*
X161421Y139831D01*
X163615Y138148D01*
X166169Y137090D01*
X168910Y136729D01*
X171651Y137090D01*
X174205Y138148D01*
X176399Y139831D01*
X178082Y142025D01*
X179140Y144579D01*
X179501Y147320D01*
X179140Y150061D01*
X178082Y152615D01*
X176399Y154809D01*
X174205Y156492D01*
X171651Y157550D01*
X168910Y157911D01*
X166169Y157550D01*
X163615Y156492D01*
X161421Y154809D01*
X161037Y154307D01*
X159834Y154716D01*
Y165324D01*
X161037Y165733D01*
X161421Y165231D01*
X163615Y163548D01*
X166169Y162490D01*
X168910Y162129D01*
X171651Y162490D01*
X174205Y163548D01*
X176399Y165231D01*
X178082Y167425D01*
X179140Y169979D01*
X179501Y172720D01*
X179140Y175461D01*
X178082Y178015D01*
X176399Y180209D01*
X174205Y181892D01*
X171651Y182950D01*
X168910Y183311D01*
X166169Y182950D01*
X163615Y181892D01*
X161421Y180209D01*
X161037Y179707D01*
X159834Y180116D01*
Y190724D01*
X161037Y191133D01*
X161421Y190631D01*
X163615Y188948D01*
X166169Y187890D01*
X168910Y187529D01*
X171651Y187890D01*
X174205Y188948D01*
X176399Y190631D01*
X178082Y192825D01*
X179140Y195379D01*
X179501Y198120D01*
X179140Y200861D01*
X178082Y203415D01*
X176399Y205609D01*
X174205Y207292D01*
X171651Y208350D01*
X168910Y208711D01*
X166169Y208350D01*
X163615Y207292D01*
X161421Y205609D01*
X161037Y205107D01*
X159834Y205516D01*
Y209550D01*
X159461Y211423D01*
X158401Y213011D01*
X150781Y220631D01*
X149193Y221691D01*
X147320Y222064D01*
X136647D01*
X124274Y234437D01*
Y259080D01*
X123902Y260953D01*
X122841Y262541D01*
X109359Y276023D01*
X109984Y277193D01*
X110490Y277092D01*
X112831Y277558D01*
X114816Y278884D01*
X116142Y280869D01*
X116608Y283210D01*
X116142Y285551D01*
X115487Y286531D01*
X115364Y286807D01*
X115219Y287011D01*
X115150Y287128D01*
X115083Y287262D01*
X115020Y287418D01*
X114961Y287598D01*
X114909Y287806D01*
X114872Y288002D01*
X114843Y288290D01*
X115410Y289182D01*
X115681Y289422D01*
X115976Y289560D01*
X150050D01*
Y258039D01*
X145821Y253810D01*
X139898D01*
X139844Y253893D01*
X139759Y254045D01*
X139688Y254195D01*
X139629Y254344D01*
X139581Y254496D01*
X139543Y254653D01*
X139498Y254919D01*
X139387Y255208D01*
X139162Y256341D01*
X137836Y258326D01*
X135851Y259652D01*
X133510Y260117D01*
X131169Y259652D01*
X129184Y258326D01*
X127858Y256341D01*
X127393Y254000D01*
X127858Y251659D01*
X129184Y249674D01*
X131169Y248348D01*
X132302Y248123D01*
X132591Y248012D01*
X132857Y247967D01*
X133014Y247929D01*
X133166Y247881D01*
X133315Y247822D01*
X133465Y247751D01*
X133617Y247666D01*
X133773Y247565D01*
X133934Y247445D01*
X134101Y247304D01*
X134334Y247084D01*
X134803Y246789D01*
X135266Y246480D01*
X135308Y246472D01*
X135345Y246449D01*
X135891Y246356D01*
X136436Y246247D01*
X136479Y246256D01*
X136521Y246248D01*
X137062Y246372D01*
X137607Y246480D01*
X137643Y246504D01*
X137685Y246514D01*
X137765Y246570D01*
X147320D01*
X148705Y246846D01*
X149879Y247631D01*
X156229Y253981D01*
X157014Y255155D01*
X157289Y256540D01*
Y272413D01*
X158560Y272496D01*
X158680Y271579D01*
X159738Y269025D01*
X161421Y266831D01*
X163615Y265148D01*
X166169Y264090D01*
X168910Y263729D01*
X171651Y264090D01*
X174205Y265148D01*
X176399Y266831D01*
X178082Y269025D01*
X179140Y271579D01*
X179501Y274320D01*
X179140Y277061D01*
X178082Y279615D01*
X176399Y281809D01*
X174205Y283492D01*
X171651Y284550D01*
X168910Y284911D01*
X166169Y284550D01*
X163615Y283492D01*
X161421Y281809D01*
X159738Y279615D01*
X158680Y277061D01*
X158560Y276144D01*
X157289Y276227D01*
Y289560D01*
X166001D01*
X166169Y289490D01*
X168910Y289129D01*
X171651Y289490D01*
X171819Y289560D01*
X181610D01*
Y3640D01*
X107913D01*
X107528Y4910D01*
X108911Y5834D01*
X110237Y7819D01*
X110454Y8910D01*
X98716D01*
X98933Y7819D01*
X100259Y5834D01*
X101643Y4910D01*
X101257Y3640D01*
X3810D01*
Y397680D01*
X57150D01*
Y342058D01*
D02*
G37*
G36*
X169877Y343083D02*
X168398Y342864D01*
X165718Y342308D01*
X164517Y341970D01*
X163409Y341592D01*
X162394Y341174D01*
X161471Y340716D01*
X160642Y340219D01*
X159905Y339681D01*
X159262Y339104D01*
X157494Y340872D01*
X158071Y341515D01*
X158609Y342252D01*
X159106Y343081D01*
X159564Y344004D01*
X159982Y345019D01*
X160360Y346127D01*
X160698Y347328D01*
X161254Y350008D01*
X161473Y351487D01*
X169877Y343083D01*
D02*
G37*
G36*
X169142Y317624D02*
X167537Y317548D01*
X164664Y317250D01*
X163396Y317029D01*
X162240Y316758D01*
X161197Y316439D01*
X160265Y316071D01*
X159446Y315655D01*
X158740Y315190D01*
X158146Y314676D01*
X156738Y316804D01*
X157381Y317499D01*
X157989Y318261D01*
X158563Y319092D01*
X159102Y319992D01*
X159606Y320960D01*
X160075Y321996D01*
X160910Y324273D01*
X161275Y325514D01*
X161606Y326823D01*
X169142Y317624D01*
D02*
G37*
G36*
X181610Y293370D02*
X178686D01*
X178171Y294640D01*
X179140Y296979D01*
X179501Y299720D01*
X179140Y302461D01*
X178082Y305015D01*
X176399Y307209D01*
X174205Y308892D01*
X171651Y309950D01*
X168910Y310311D01*
X166169Y309950D01*
X163615Y308892D01*
X161421Y307209D01*
X159738Y305015D01*
X158680Y302461D01*
X158560Y301544D01*
X157289Y301627D01*
Y310469D01*
X158495Y311674D01*
X158728Y311673D01*
X158912Y311748D01*
X159108Y311773D01*
X159459Y311972D01*
X159833Y312125D01*
X159974Y312264D01*
X160146Y312362D01*
X160589Y312745D01*
X160985Y313006D01*
X161523Y313279D01*
X162207Y313550D01*
X163036Y313803D01*
X164008Y314030D01*
X165085Y314219D01*
X167767Y314497D01*
X168792Y314545D01*
X168910Y314529D01*
X169159Y314562D01*
X169286Y314568D01*
X169378Y314591D01*
X171651Y314890D01*
X174205Y315948D01*
X176399Y317631D01*
X178082Y319825D01*
X179140Y322379D01*
X179501Y325120D01*
X179140Y327861D01*
X178082Y330415D01*
X176399Y332609D01*
X174205Y334292D01*
X171651Y335350D01*
X168910Y335711D01*
X166169Y335350D01*
X163615Y334292D01*
X161421Y332609D01*
X159738Y330415D01*
X158680Y327861D01*
X158643Y327578D01*
X158640Y327572D01*
X158324Y326320D01*
X158004Y325232D01*
X157242Y323155D01*
X156854Y322298D01*
X156431Y321486D01*
X155989Y320748D01*
X155532Y320085D01*
X155060Y319494D01*
X154494Y318882D01*
X154370Y318681D01*
X154203Y318516D01*
X154061Y318178D01*
X153869Y317865D01*
X153832Y317633D01*
X153741Y317415D01*
X153740Y317157D01*
X151111Y314527D01*
X150326Y313353D01*
X150050Y311968D01*
Y293370D01*
X118538Y293370D01*
X118052Y294543D01*
X159626Y336118D01*
X159767Y336146D01*
X160277Y336218D01*
X160349Y336261D01*
X160432Y336278D01*
X160860Y336564D01*
X161304Y336827D01*
X161833Y337301D01*
X162334Y337667D01*
X162940Y338031D01*
X163657Y338386D01*
X164485Y338727D01*
X165426Y339048D01*
X166444Y339335D01*
X168932Y339851D01*
X170324Y340057D01*
X170585Y340150D01*
X171651Y340290D01*
X174205Y341348D01*
X176399Y343031D01*
X178082Y345225D01*
X179140Y347779D01*
X179501Y350520D01*
X179140Y353261D01*
X178082Y355815D01*
X176399Y358009D01*
X174205Y359692D01*
X171651Y360750D01*
X168910Y361111D01*
X166169Y360750D01*
X163615Y359692D01*
X161421Y358009D01*
X159738Y355815D01*
X158680Y353261D01*
X158540Y352196D01*
X158447Y351934D01*
X158241Y350543D01*
X157725Y348054D01*
X157438Y347036D01*
X157117Y346095D01*
X156776Y345267D01*
X156420Y344550D01*
X156056Y343943D01*
X155691Y343443D01*
X155217Y342914D01*
X154954Y342471D01*
X154668Y342042D01*
X154651Y341959D01*
X154608Y341887D01*
X154536Y341377D01*
X154508Y341236D01*
X107931Y294659D01*
X107428Y293908D01*
X106116Y293692D01*
X105902Y293735D01*
X105698Y293889D01*
X105209Y294640D01*
X105284Y295639D01*
X105359Y296154D01*
X105455Y296633D01*
X105564Y297042D01*
X105680Y297378D01*
X105795Y297644D01*
X105903Y297841D01*
X106094Y298119D01*
X106181Y298322D01*
X106598Y298865D01*
X107404Y300812D01*
X107514Y301650D01*
X91706D01*
X91816Y300812D01*
X92622Y298865D01*
X93039Y298322D01*
X93126Y298119D01*
X93316Y297841D01*
X93425Y297644D01*
X93540Y297378D01*
X93656Y297042D01*
X93765Y296633D01*
X93861Y296154D01*
X93936Y295639D01*
X94038Y294280D01*
X94052Y293517D01*
X94173Y292959D01*
X94284Y292399D01*
X94299Y292377D01*
X94305Y292351D01*
X94630Y291882D01*
X94716Y291753D01*
Y279400D01*
X82360Y279400D01*
Y313690D01*
X82084Y315075D01*
X81299Y316249D01*
X62230Y335319D01*
Y350291D01*
X63500Y350930D01*
X64969Y349948D01*
X66060Y349731D01*
Y355600D01*
Y361469D01*
X64969Y361252D01*
X63500Y360270D01*
X62230Y360909D01*
Y397680D01*
X181610D01*
X181610Y293370D01*
D02*
G37*
G36*
X103294Y299445D02*
X103046Y298991D01*
X102826Y298487D01*
X102636Y297934D01*
X102476Y297330D01*
X102344Y296677D01*
X102241Y295975D01*
X102125Y294421D01*
X102110Y293570D01*
X97110D01*
X97095Y294421D01*
X96978Y295975D01*
X96876Y296677D01*
X96744Y297330D01*
X96584Y297934D01*
X96394Y298487D01*
X96174Y298991D01*
X95926Y299445D01*
X95648Y299850D01*
X103572D01*
X103294Y299445D01*
D02*
G37*
G36*
X111751Y288460D02*
X111841Y287565D01*
X111920Y287146D01*
X112022Y286746D01*
X112146Y286366D01*
X112292Y286006D01*
X112461Y285665D01*
X112653Y285343D01*
X112867Y285040D01*
X108113D01*
X108327Y285343D01*
X108519Y285665D01*
X108688Y286006D01*
X108834Y286366D01*
X108958Y286746D01*
X109060Y287146D01*
X109138Y287565D01*
X109195Y288003D01*
X109229Y288460D01*
X109240Y288937D01*
X111740D01*
X111751Y288460D01*
D02*
G37*
G36*
X75121Y312191D02*
Y279400D01*
X62230Y279400D01*
Y323422D01*
X63403Y323908D01*
X75121Y312191D01*
D02*
G37*
G36*
X55969Y270015D02*
X55721Y269561D01*
X55501Y269057D01*
X55311Y268504D01*
X55150Y267900D01*
X55019Y267248D01*
X54917Y266545D01*
X54800Y264991D01*
X54785Y264140D01*
X49785D01*
X49770Y264991D01*
X49653Y266545D01*
X49551Y267248D01*
X49419Y267900D01*
X49259Y268504D01*
X49069Y269057D01*
X48849Y269561D01*
X48601Y270015D01*
X48323Y270420D01*
X56247D01*
X55969Y270015D01*
D02*
G37*
G36*
X106835Y264704D02*
X106209Y263534D01*
X105410Y263692D01*
X103069Y263227D01*
X102089Y262572D01*
X101813Y262449D01*
X101609Y262304D01*
X101492Y262235D01*
X101358Y262168D01*
X101202Y262105D01*
X101022Y262046D01*
X100814Y261994D01*
X100618Y261957D01*
X99970Y261891D01*
X99611Y261883D01*
X99063Y261761D01*
X98512Y261651D01*
X98482Y261630D01*
X98446Y261623D01*
X97986Y261300D01*
X97829Y261194D01*
X90634D01*
X82360Y269469D01*
Y275222D01*
X96316D01*
X106835Y264704D01*
D02*
G37*
G36*
X103580Y255198D02*
X103278Y255412D01*
X102956Y255604D01*
X102614Y255773D01*
X102254Y255919D01*
X101874Y256043D01*
X101474Y256145D01*
X101055Y256224D01*
X100617Y256280D01*
X100160Y256314D01*
X99683Y256325D01*
Y258825D01*
X100160Y258836D01*
X101055Y258926D01*
X101474Y259005D01*
X101874Y259107D01*
X102254Y259231D01*
X102614Y259377D01*
X102956Y259546D01*
X103278Y259738D01*
X103580Y259952D01*
Y255198D01*
D02*
G37*
G36*
X136545Y254036D02*
X136633Y253675D01*
X136744Y253322D01*
X136880Y252977D01*
X137040Y252640D01*
X137224Y252311D01*
X137433Y251990D01*
X137665Y251677D01*
X137922Y251371D01*
X138204Y251074D01*
X136436Y249306D01*
X136139Y249587D01*
X135833Y249845D01*
X135520Y250077D01*
X135199Y250286D01*
X134870Y250470D01*
X134532Y250630D01*
X134188Y250766D01*
X133835Y250877D01*
X133474Y250965D01*
X133105Y251027D01*
X136483Y254405D01*
X136545Y254036D01*
D02*
G37*
G36*
X145677Y199292D02*
X145489Y198974D01*
X145323Y198636D01*
X145179Y198277D01*
X145057Y197899D01*
X144957Y197500D01*
X144880Y197081D01*
X144824Y196642D01*
X144791Y196182D01*
X144780Y195702D01*
X142240D01*
X142229Y196182D01*
X142140Y197081D01*
X142063Y197500D01*
X141963Y197899D01*
X141841Y198277D01*
X141698Y198636D01*
X141531Y198974D01*
X141343Y199292D01*
X141133Y199590D01*
X145887D01*
X145677Y199292D01*
D02*
G37*
G36*
X84951Y126335D02*
X84620Y125988D01*
X84047Y125290D01*
X83805Y124939D01*
X83594Y124586D01*
X83412Y124232D01*
X83260Y123877D01*
X83139Y123520D01*
X83047Y123162D01*
X82985Y122803D01*
X79623Y126165D01*
X79982Y126227D01*
X80340Y126319D01*
X80697Y126440D01*
X81052Y126592D01*
X81406Y126774D01*
X81759Y126985D01*
X82110Y127227D01*
X82460Y127498D01*
X82808Y127800D01*
X83155Y128131D01*
X84951Y126335D01*
D02*
G37*
G36*
X54800Y126374D02*
X54917Y124820D01*
X55019Y124117D01*
X55150Y123465D01*
X55311Y122861D01*
X55501Y122308D01*
X55721Y121804D01*
X55969Y121350D01*
X56247Y120945D01*
X48323D01*
X48601Y121350D01*
X48849Y121804D01*
X49069Y122308D01*
X49259Y122861D01*
X49419Y123465D01*
X49551Y124117D01*
X49653Y124820D01*
X49770Y126374D01*
X49785Y127225D01*
X54785D01*
X54800Y126374D01*
D02*
G37*
G36*
X57333Y118057D02*
X57478Y117560D01*
X57680Y117049D01*
X57937Y116523D01*
X58250Y115983D01*
X58618Y115428D01*
X59043Y114859D01*
X60058Y113678D01*
X60650Y113065D01*
X57115Y109530D01*
X56502Y110121D01*
X55321Y111138D01*
X54752Y111562D01*
X54197Y111931D01*
X53657Y112243D01*
X53131Y112500D01*
X52620Y112702D01*
X52123Y112847D01*
X51640Y112937D01*
X57243Y118540D01*
X57333Y118057D01*
D02*
G37*
G36*
X161173Y107842D02*
X162004Y107156D01*
X162870Y106534D01*
X163770Y105975D01*
X164703Y105480D01*
X165670Y105048D01*
X166671Y104680D01*
X167706Y104376D01*
X168775Y104135D01*
X169877Y103957D01*
X161473Y95553D01*
X161295Y96655D01*
X161054Y97724D01*
X160750Y98759D01*
X160382Y99760D01*
X159950Y100727D01*
X159455Y101660D01*
X158896Y102560D01*
X158274Y103426D01*
X157588Y104257D01*
X156839Y105056D01*
X160375Y108591D01*
X161173Y107842D01*
D02*
G37*
G36*
X131025Y73249D02*
X131142Y71695D01*
X131244Y70992D01*
X131376Y70340D01*
X131536Y69736D01*
X131726Y69183D01*
X131946Y68679D01*
X132194Y68225D01*
X132472Y67820D01*
X124548D01*
X124826Y68225D01*
X125074Y68679D01*
X125294Y69183D01*
X125484Y69736D01*
X125645Y70340D01*
X125776Y70992D01*
X125878Y71695D01*
X125995Y73249D01*
X126010Y74100D01*
X131010D01*
X131025Y73249D01*
D02*
G37*
%LPC*%
G36*
X16510Y335711D02*
X13769Y335350D01*
X11215Y334292D01*
X9021Y332609D01*
X7338Y330415D01*
X6280Y327861D01*
X5919Y325120D01*
X6280Y322379D01*
X7338Y319825D01*
X9021Y317631D01*
X11215Y315948D01*
X13769Y314890D01*
X16510Y314529D01*
X19251Y314890D01*
X21805Y315948D01*
X23999Y317631D01*
X25682Y319825D01*
X26740Y322379D01*
X27101Y325120D01*
X26740Y327861D01*
X25682Y330415D01*
X23999Y332609D01*
X21805Y334292D01*
X19251Y335350D01*
X16510Y335711D01*
D02*
G37*
G36*
Y310311D02*
X13769Y309950D01*
X11215Y308892D01*
X9021Y307209D01*
X7338Y305015D01*
X6280Y302461D01*
X5919Y299720D01*
X6280Y296979D01*
X7338Y294425D01*
X9021Y292231D01*
X11215Y290548D01*
X13769Y289490D01*
X16510Y289129D01*
X19251Y289490D01*
X21805Y290548D01*
X23999Y292231D01*
X25682Y294425D01*
X26740Y296979D01*
X27101Y299720D01*
X26740Y302461D01*
X25682Y305015D01*
X23999Y307209D01*
X21805Y308892D01*
X19251Y309950D01*
X16510Y310311D01*
D02*
G37*
G36*
Y284911D02*
X13769Y284550D01*
X11215Y283492D01*
X9021Y281809D01*
X7338Y279615D01*
X6280Y277061D01*
X5919Y274320D01*
X6280Y271579D01*
X7338Y269025D01*
X9021Y266831D01*
X11215Y265148D01*
X13769Y264090D01*
X16510Y263729D01*
X19251Y264090D01*
X21805Y265148D01*
X23999Y266831D01*
X25682Y269025D01*
X26740Y271579D01*
X27101Y274320D01*
X26740Y277061D01*
X25682Y279615D01*
X23999Y281809D01*
X21805Y283492D01*
X19251Y284550D01*
X16510Y284911D01*
D02*
G37*
G36*
X168910Y259511D02*
X166169Y259150D01*
X163615Y258092D01*
X161421Y256409D01*
X159738Y254215D01*
X158680Y251661D01*
X158319Y248920D01*
X158680Y246179D01*
X159738Y243625D01*
X161421Y241431D01*
X163615Y239748D01*
X166169Y238690D01*
X168910Y238329D01*
X171651Y238690D01*
X174205Y239748D01*
X176399Y241431D01*
X178082Y243625D01*
X179140Y246179D01*
X179501Y248920D01*
X179140Y251661D01*
X178082Y254215D01*
X176399Y256409D01*
X174205Y258092D01*
X171651Y259150D01*
X168910Y259511D01*
D02*
G37*
G36*
X16510D02*
X13769Y259150D01*
X11215Y258092D01*
X9021Y256409D01*
X7338Y254215D01*
X6280Y251661D01*
X5919Y248920D01*
X6280Y246179D01*
X7338Y243625D01*
X9021Y241431D01*
X11215Y239748D01*
X13769Y238690D01*
X16510Y238329D01*
X19251Y238690D01*
X21805Y239748D01*
X23999Y241431D01*
X25682Y243625D01*
X26740Y246179D01*
X27101Y248920D01*
X26740Y251661D01*
X25682Y254215D01*
X23999Y256409D01*
X21805Y258092D01*
X19251Y259150D01*
X16510Y259511D01*
D02*
G37*
G36*
X139920Y237249D02*
Y232630D01*
X144539D01*
X144322Y233721D01*
X142996Y235706D01*
X141011Y237032D01*
X139920Y237249D01*
D02*
G37*
G36*
X137420D02*
X136329Y237032D01*
X134344Y235706D01*
X133018Y233721D01*
X132801Y232630D01*
X137420D01*
Y237249D01*
D02*
G37*
G36*
X144539Y230130D02*
X139920D01*
Y225511D01*
X141011Y225728D01*
X142996Y227054D01*
X144322Y229039D01*
X144539Y230130D01*
D02*
G37*
G36*
X137420D02*
X132801D01*
X133018Y229039D01*
X134344Y227054D01*
X136329Y225728D01*
X137420Y225511D01*
Y230130D01*
D02*
G37*
G36*
X168910Y234111D02*
X166169Y233750D01*
X163615Y232692D01*
X161421Y231009D01*
X159738Y228815D01*
X158680Y226261D01*
X158319Y223520D01*
X158680Y220779D01*
X159738Y218225D01*
X161421Y216031D01*
X163615Y214348D01*
X166169Y213290D01*
X168910Y212929D01*
X171651Y213290D01*
X174205Y214348D01*
X176399Y216031D01*
X178082Y218225D01*
X179140Y220779D01*
X179501Y223520D01*
X179140Y226261D01*
X178082Y228815D01*
X176399Y231009D01*
X174205Y232692D01*
X171651Y233750D01*
X168910Y234111D01*
D02*
G37*
G36*
X16510D02*
X13769Y233750D01*
X11215Y232692D01*
X9021Y231009D01*
X7338Y228815D01*
X6280Y226261D01*
X5919Y223520D01*
X6280Y220779D01*
X7338Y218225D01*
X9021Y216031D01*
X11215Y214348D01*
X13769Y213290D01*
X16510Y212929D01*
X19251Y213290D01*
X21805Y214348D01*
X23999Y216031D01*
X25682Y218225D01*
X26740Y220779D01*
X27101Y223520D01*
X26740Y226261D01*
X25682Y228815D01*
X23999Y231009D01*
X21805Y232692D01*
X19251Y233750D01*
X16510Y234111D01*
D02*
G37*
G36*
Y208711D02*
X13769Y208350D01*
X11215Y207292D01*
X9021Y205609D01*
X7338Y203415D01*
X6280Y200861D01*
X5919Y198120D01*
X6280Y195379D01*
X7338Y192825D01*
X9021Y190631D01*
X11215Y188948D01*
X13769Y187890D01*
X16510Y187529D01*
X19251Y187890D01*
X21805Y188948D01*
X23999Y190631D01*
X25682Y192825D01*
X26740Y195379D01*
X27101Y198120D01*
X26740Y200861D01*
X25682Y203415D01*
X23999Y205609D01*
X21805Y207292D01*
X19251Y208350D01*
X16510Y208711D01*
D02*
G37*
G36*
X93960Y181129D02*
Y176510D01*
X98579D01*
X98362Y177601D01*
X97036Y179586D01*
X95051Y180912D01*
X93960Y181129D01*
D02*
G37*
G36*
X91460D02*
X90369Y180912D01*
X88384Y179586D01*
X87058Y177601D01*
X86841Y176510D01*
X91460D01*
Y181129D01*
D02*
G37*
G36*
X98579Y174010D02*
X93960D01*
Y169391D01*
X95051Y169608D01*
X97036Y170934D01*
X98362Y172919D01*
X98579Y174010D01*
D02*
G37*
G36*
X91460D02*
X86841D01*
X87058Y172919D01*
X88384Y170934D01*
X90369Y169608D01*
X91460Y169391D01*
Y174010D01*
D02*
G37*
G36*
X16510Y183311D02*
X13769Y182950D01*
X11215Y181892D01*
X9021Y180209D01*
X7338Y178015D01*
X6280Y175461D01*
X5919Y172720D01*
X6280Y169979D01*
X7338Y167425D01*
X9021Y165231D01*
X11215Y163548D01*
X13769Y162490D01*
X16510Y162129D01*
X19251Y162490D01*
X21805Y163548D01*
X23999Y165231D01*
X25682Y167425D01*
X26740Y169979D01*
X27101Y172720D01*
X26740Y175461D01*
X25682Y178015D01*
X23999Y180209D01*
X21805Y181892D01*
X19251Y182950D01*
X16510Y183311D01*
D02*
G37*
G36*
X68560Y148109D02*
Y143490D01*
X73179D01*
X72962Y144581D01*
X71636Y146566D01*
X69651Y147892D01*
X68560Y148109D01*
D02*
G37*
G36*
X66060D02*
X64969Y147892D01*
X62984Y146566D01*
X61658Y144581D01*
X61441Y143490D01*
X66060D01*
Y148109D01*
D02*
G37*
G36*
X16510Y157911D02*
X13769Y157550D01*
X11215Y156492D01*
X9021Y154809D01*
X7338Y152615D01*
X6280Y150061D01*
X5919Y147320D01*
X6280Y144579D01*
X7338Y142025D01*
X9021Y139831D01*
X11215Y138148D01*
X13769Y137090D01*
X16510Y136729D01*
X19251Y137090D01*
X21805Y138148D01*
X23999Y139831D01*
X25682Y142025D01*
X26740Y144579D01*
X27101Y147320D01*
X26740Y150061D01*
X25682Y152615D01*
X23999Y154809D01*
X21805Y156492D01*
X19251Y157550D01*
X16510Y157911D01*
D02*
G37*
G36*
X73179Y140990D02*
X68560D01*
Y136371D01*
X69651Y136588D01*
X71636Y137914D01*
X72962Y139899D01*
X73179Y140990D01*
D02*
G37*
G36*
X66060D02*
X61441D01*
X61658Y139899D01*
X62984Y137914D01*
X64969Y136588D01*
X66060Y136371D01*
Y140990D01*
D02*
G37*
G36*
X16510Y132511D02*
X13769Y132150D01*
X11215Y131092D01*
X9021Y129409D01*
X7338Y127215D01*
X6280Y124661D01*
X5919Y121920D01*
X6280Y119179D01*
X7338Y116625D01*
X9021Y114431D01*
X11215Y112748D01*
X13769Y111690D01*
X16510Y111329D01*
X19251Y111690D01*
X21805Y112748D01*
X23999Y114431D01*
X25682Y116625D01*
X26740Y119179D01*
X27101Y121920D01*
X26740Y124661D01*
X25682Y127215D01*
X23999Y129409D01*
X21805Y131092D01*
X19251Y132150D01*
X16510Y132511D01*
D02*
G37*
G36*
X90610Y95319D02*
X89714Y95141D01*
X87895Y93925D01*
X87109Y92750D01*
X85611D01*
X84825Y93925D01*
X83006Y95141D01*
X82110Y95319D01*
Y89960D01*
X80860D01*
Y88710D01*
X75501D01*
X75679Y87814D01*
X76895Y85995D01*
X78070Y85209D01*
Y83711D01*
X76895Y82925D01*
X75679Y81106D01*
X75501Y80210D01*
X80860D01*
Y78960D01*
X82110D01*
Y73601D01*
X83006Y73779D01*
X84825Y74995D01*
X85611Y76170D01*
X87109D01*
X87895Y74995D01*
X89714Y73779D01*
X90610Y73601D01*
Y78960D01*
X91860D01*
Y80210D01*
X97219D01*
X97041Y81106D01*
X95825Y82925D01*
X94650Y83711D01*
Y85209D01*
X95825Y85995D01*
X97041Y87814D01*
X97219Y88710D01*
X91860D01*
Y89960D01*
X90610D01*
Y95319D01*
D02*
G37*
G36*
X93110D02*
Y91210D01*
X97219D01*
X97041Y92106D01*
X95825Y93925D01*
X94006Y95141D01*
X93110Y95319D01*
D02*
G37*
G36*
X79610D02*
X78714Y95141D01*
X76895Y93925D01*
X75679Y92106D01*
X75501Y91210D01*
X79610D01*
Y95319D01*
D02*
G37*
G36*
X16510Y107111D02*
X13769Y106750D01*
X11215Y105692D01*
X9021Y104009D01*
X7338Y101815D01*
X6280Y99261D01*
X5919Y96520D01*
X6280Y93779D01*
X7338Y91225D01*
X9021Y89031D01*
X11215Y87348D01*
X13769Y86290D01*
X16510Y85929D01*
X19251Y86290D01*
X21805Y87348D01*
X23999Y89031D01*
X25682Y91225D01*
X26740Y93779D01*
X27101Y96520D01*
X26740Y99261D01*
X25682Y101815D01*
X23999Y104009D01*
X21805Y105692D01*
X19251Y106750D01*
X16510Y107111D01*
D02*
G37*
G36*
X97219Y77710D02*
X93110D01*
Y73601D01*
X94006Y73779D01*
X95825Y74995D01*
X97041Y76814D01*
X97219Y77710D01*
D02*
G37*
G36*
X79610D02*
X75501D01*
X75679Y76814D01*
X76895Y74995D01*
X78714Y73779D01*
X79610Y73601D01*
Y77710D01*
D02*
G37*
G36*
X16510Y361111D02*
X13769Y360750D01*
X11215Y359692D01*
X9021Y358009D01*
X7338Y355815D01*
X6280Y353261D01*
X5919Y350520D01*
X6280Y347779D01*
X7338Y345225D01*
X9021Y343031D01*
X11215Y341348D01*
X13769Y340290D01*
X14815Y340153D01*
X15057Y340063D01*
X16065Y339901D01*
X16945Y339702D01*
X17788Y339454D01*
X18598Y339156D01*
X19375Y338809D01*
X20125Y338412D01*
X20848Y337962D01*
X21548Y337460D01*
X22226Y336901D01*
X22952Y336219D01*
X23418Y335928D01*
X23875Y335623D01*
X23923Y335614D01*
X23965Y335588D01*
X24507Y335497D01*
X24637Y335471D01*
X31936Y328173D01*
Y99060D01*
X32308Y97187D01*
X33369Y95599D01*
X48517Y80452D01*
X48480Y80399D01*
X48474Y80373D01*
X48459Y80351D01*
X48348Y79791D01*
X48227Y79233D01*
X48214Y78470D01*
X48111Y77111D01*
X48036Y76596D01*
X47940Y76116D01*
X47831Y75708D01*
X47715Y75372D01*
X47600Y75106D01*
X47492Y74908D01*
X47301Y74631D01*
X47214Y74428D01*
X46797Y73885D01*
X45991Y71938D01*
X45716Y69850D01*
X45991Y67762D01*
X46797Y65816D01*
X48079Y64144D01*
X49750Y62862D01*
X51697Y62056D01*
X53785Y61781D01*
X55873Y62056D01*
X57819Y62862D01*
X59491Y64144D01*
X60773Y65816D01*
X61579Y67762D01*
X61854Y69850D01*
X61579Y71938D01*
X60773Y73885D01*
X60356Y74428D01*
X60269Y74631D01*
X60078Y74908D01*
X59970Y75106D01*
X59855Y75372D01*
X59739Y75708D01*
X59630Y76117D01*
X59534Y76596D01*
X59459Y77111D01*
X59356Y78470D01*
X59343Y79233D01*
X59222Y79791D01*
X59111Y80351D01*
X59096Y80373D01*
X59090Y80399D01*
X58765Y80868D01*
X58679Y80997D01*
Y82105D01*
X58306Y83978D01*
X57246Y85566D01*
X41724Y101087D01*
Y330200D01*
X41351Y332073D01*
X40291Y333661D01*
X31559Y342393D01*
X31533Y342524D01*
X31442Y343066D01*
X31416Y343107D01*
X31407Y343155D01*
X31102Y343612D01*
X30811Y344078D01*
X30129Y344804D01*
X29570Y345482D01*
X29068Y346181D01*
X28618Y346905D01*
X28221Y347654D01*
X27873Y348433D01*
X27576Y349242D01*
X27328Y350085D01*
X27129Y350965D01*
X26967Y351973D01*
X26877Y352215D01*
X26740Y353261D01*
X25682Y355815D01*
X23999Y358009D01*
X21805Y359692D01*
X19251Y360750D01*
X16510Y361111D01*
D02*
G37*
G36*
X168910Y81711D02*
X166169Y81350D01*
X163615Y80292D01*
X161421Y78609D01*
X159738Y76415D01*
X158680Y73861D01*
X158319Y71120D01*
X158680Y68379D01*
X159738Y65825D01*
X161421Y63631D01*
X163615Y61948D01*
X166169Y60890D01*
X168910Y60529D01*
X171651Y60890D01*
X174205Y61948D01*
X176399Y63631D01*
X178082Y65825D01*
X179140Y68379D01*
X179501Y71120D01*
X179140Y73861D01*
X178082Y76415D01*
X176399Y78609D01*
X174205Y80292D01*
X171651Y81350D01*
X168910Y81711D01*
D02*
G37*
G36*
X16510D02*
X13769Y81350D01*
X11215Y80292D01*
X9021Y78609D01*
X7338Y76415D01*
X6280Y73861D01*
X5919Y71120D01*
X6280Y68379D01*
X7338Y65825D01*
X9021Y63631D01*
X11215Y61948D01*
X13769Y60890D01*
X16510Y60529D01*
X19251Y60890D01*
X21805Y61948D01*
X23999Y63631D01*
X25682Y65825D01*
X26740Y68379D01*
X27101Y71120D01*
X26740Y73861D01*
X25682Y76415D01*
X23999Y78609D01*
X21805Y80292D01*
X19251Y81350D01*
X16510Y81711D01*
D02*
G37*
G36*
X15260Y56146D02*
X13769Y55950D01*
X11215Y54892D01*
X9021Y53209D01*
X7338Y51015D01*
X6280Y48461D01*
X6084Y46970D01*
X15260D01*
Y56146D01*
D02*
G37*
G36*
X55860Y52457D02*
Y43160D01*
X65157D01*
X64957Y44682D01*
X63887Y47266D01*
X62184Y49484D01*
X59966Y51187D01*
X57382Y52257D01*
X55860Y52457D01*
D02*
G37*
G36*
X15260Y44470D02*
X6084D01*
X6280Y42979D01*
X7338Y40425D01*
X9021Y38231D01*
X11215Y36548D01*
X13769Y35490D01*
X15260Y35294D01*
Y44470D01*
D02*
G37*
G36*
X168910Y56311D02*
X166169Y55950D01*
X163615Y54892D01*
X161421Y53209D01*
X159738Y51015D01*
X158680Y48461D01*
X158319Y45720D01*
X158680Y42979D01*
X159738Y40425D01*
X161421Y38231D01*
X163615Y36548D01*
X166169Y35490D01*
X168910Y35129D01*
X171651Y35490D01*
X174205Y36548D01*
X176399Y38231D01*
X178082Y40425D01*
X179140Y42979D01*
X179501Y45720D01*
X179140Y48461D01*
X178082Y51015D01*
X176399Y53209D01*
X174205Y54892D01*
X171651Y55950D01*
X168910Y56311D01*
D02*
G37*
G36*
X17760Y56146D02*
Y45720D01*
Y35294D01*
X19251Y35490D01*
X21805Y36548D01*
X22642Y37191D01*
X22877Y37298D01*
X23705Y37896D01*
X24467Y38378D01*
X25238Y38799D01*
X26021Y39161D01*
X26817Y39465D01*
X27628Y39714D01*
X28457Y39908D01*
X29308Y40047D01*
X30182Y40131D01*
X31177Y40163D01*
X31713Y40287D01*
X32252Y40394D01*
X32292Y40421D01*
X32340Y40432D01*
X32787Y40752D01*
X32898Y40826D01*
X33163D01*
X35539Y38449D01*
X37127Y37389D01*
X37590Y37296D01*
X37601Y37288D01*
X37629Y37247D01*
X38085Y36942D01*
X38531Y36623D01*
X38580Y36612D01*
X38621Y36584D01*
X39160Y36477D01*
X39694Y36353D01*
X40699Y36321D01*
X41582Y36234D01*
X42445Y36091D01*
X43288Y35891D01*
X44116Y35635D01*
X44930Y35320D01*
X45734Y34946D01*
X46528Y34510D01*
X47316Y34011D01*
X48169Y33394D01*
X48404Y33286D01*
X49254Y32633D01*
X51261Y31802D01*
Y30428D01*
X49254Y29597D01*
X47036Y27894D01*
X45333Y25676D01*
X44263Y23092D01*
X44063Y21570D01*
X54610D01*
X65157D01*
X64957Y23092D01*
X63887Y25676D01*
X62184Y27894D01*
X59966Y29597D01*
X57959Y30428D01*
Y31802D01*
X59966Y32633D01*
X62184Y34336D01*
X63887Y36554D01*
X64957Y39138D01*
X65157Y40660D01*
X54610D01*
Y41910D01*
X53360D01*
Y52457D01*
X51838Y52257D01*
X49254Y51187D01*
X48404Y50534D01*
X48169Y50426D01*
X47316Y49809D01*
X46529Y49310D01*
X45734Y48874D01*
X44930Y48500D01*
X44116Y48185D01*
X43288Y47929D01*
X42445Y47729D01*
X41582Y47586D01*
X40699Y47499D01*
X40343Y47488D01*
X38651Y49181D01*
X37063Y50241D01*
X35190Y50614D01*
X32898D01*
X32787Y50688D01*
X32340Y51008D01*
X32292Y51019D01*
X32252Y51046D01*
X31712Y51153D01*
X31177Y51277D01*
X30182Y51309D01*
X29308Y51393D01*
X28457Y51532D01*
X27628Y51726D01*
X26817Y51975D01*
X26021Y52279D01*
X25239Y52641D01*
X24467Y53062D01*
X23705Y53544D01*
X22877Y54142D01*
X22642Y54249D01*
X21805Y54892D01*
X19251Y55950D01*
X17760Y56146D01*
D02*
G37*
G36*
X105835Y16029D02*
Y11410D01*
X110454D01*
X110237Y12501D01*
X108911Y14486D01*
X106926Y15812D01*
X105835Y16029D01*
D02*
G37*
G36*
X103335D02*
X102244Y15812D01*
X100259Y14486D01*
X98933Y12501D01*
X98716Y11410D01*
X103335D01*
Y16029D01*
D02*
G37*
G36*
X65157Y19070D02*
X55860D01*
Y9773D01*
X57382Y9973D01*
X59966Y11043D01*
X62184Y12746D01*
X63887Y14964D01*
X64957Y17548D01*
X65157Y19070D01*
D02*
G37*
G36*
X53360D02*
X44063D01*
X44263Y17548D01*
X45333Y14964D01*
X47036Y12746D01*
X49254Y11043D01*
X51838Y9973D01*
X53360Y9773D01*
Y19070D01*
D02*
G37*
G36*
X168910Y30911D02*
X166169Y30550D01*
X163615Y29492D01*
X161421Y27809D01*
X159738Y25615D01*
X158680Y23061D01*
X158319Y20320D01*
X158680Y17579D01*
X159738Y15025D01*
X161421Y12831D01*
X163615Y11148D01*
X166169Y10090D01*
X168910Y9729D01*
X171651Y10090D01*
X174205Y11148D01*
X176399Y12831D01*
X178082Y15025D01*
X179140Y17579D01*
X179501Y20320D01*
X179140Y23061D01*
X178082Y25615D01*
X176399Y27809D01*
X174205Y29492D01*
X171651Y30550D01*
X168910Y30911D01*
D02*
G37*
G36*
X16510D02*
X13769Y30550D01*
X11215Y29492D01*
X9021Y27809D01*
X7338Y25615D01*
X6280Y23061D01*
X5919Y20320D01*
X6280Y17579D01*
X7338Y15025D01*
X9021Y12831D01*
X11215Y11148D01*
X13769Y10090D01*
X16510Y9729D01*
X19251Y10090D01*
X21805Y11148D01*
X23999Y12831D01*
X25682Y15025D01*
X26740Y17579D01*
X27101Y20320D01*
X26740Y23061D01*
X25682Y25615D01*
X23999Y27809D01*
X21805Y29492D01*
X19251Y30550D01*
X16510Y30911D01*
D02*
G37*
G36*
X80000Y52622D02*
X77228Y52257D01*
X74644Y51187D01*
X72426Y49484D01*
X70723Y47266D01*
X69653Y44682D01*
X69288Y41910D01*
X69653Y39138D01*
X70723Y36554D01*
X72426Y34336D01*
X74644Y32633D01*
X76656Y31800D01*
Y30426D01*
X74654Y29597D01*
X72436Y27894D01*
X70733Y25676D01*
X69663Y23092D01*
X69298Y20320D01*
X69663Y17548D01*
X70733Y14964D01*
X72436Y12746D01*
X74654Y11043D01*
X77238Y9973D01*
X80010Y9608D01*
X82782Y9973D01*
X85366Y11043D01*
X87584Y12746D01*
X89287Y14964D01*
X90357Y17548D01*
X90722Y20320D01*
X90357Y23092D01*
X89287Y25676D01*
X87584Y27894D01*
X85366Y29597D01*
X83354Y30430D01*
Y31804D01*
X85356Y32633D01*
X87574Y34336D01*
X89277Y36554D01*
X90347Y39138D01*
X90712Y41910D01*
X90347Y44682D01*
X89277Y47266D01*
X87574Y49484D01*
X85356Y51187D01*
X82772Y52257D01*
X80000Y52622D01*
D02*
G37*
%LPD*%
G36*
X24125Y350385D02*
X24366Y349316D01*
X24670Y348281D01*
X25038Y347280D01*
X25470Y346313D01*
X25965Y345380D01*
X26524Y344480D01*
X27146Y343614D01*
X27832Y342783D01*
X28581Y341984D01*
X25045Y338449D01*
X24248Y339198D01*
X23416Y339884D01*
X22550Y340506D01*
X21650Y341065D01*
X20717Y341560D01*
X19750Y341992D01*
X18749Y342360D01*
X17714Y342664D01*
X16645Y342905D01*
X15543Y343083D01*
X23947Y351487D01*
X24125Y350385D01*
D02*
G37*
G36*
X56300Y78329D02*
X56417Y76775D01*
X56519Y76073D01*
X56651Y75420D01*
X56811Y74816D01*
X57001Y74263D01*
X57221Y73759D01*
X57469Y73305D01*
X57747Y72900D01*
X49823D01*
X50101Y73305D01*
X50349Y73759D01*
X50569Y74263D01*
X50759Y74816D01*
X50919Y75420D01*
X51051Y76073D01*
X51153Y76775D01*
X51270Y78329D01*
X51285Y79180D01*
X56285D01*
X56300Y78329D01*
D02*
G37*
G36*
X21990Y51009D02*
X22916Y50423D01*
X23863Y49907D01*
X24831Y49460D01*
X25820Y49081D01*
X26830Y48771D01*
X27861Y48530D01*
X28914Y48358D01*
X29987Y48254D01*
X31081Y48220D01*
Y43220D01*
X29987Y43186D01*
X28914Y43082D01*
X27861Y42910D01*
X26830Y42669D01*
X25820Y42359D01*
X24831Y41981D01*
X23863Y41533D01*
X22916Y41017D01*
X21990Y40431D01*
X21085Y39777D01*
Y51663D01*
X21990Y51009D01*
D02*
G37*
G36*
X49962Y35872D02*
X49033Y36544D01*
X48084Y37146D01*
X47116Y37676D01*
X46129Y38136D01*
X45121Y38526D01*
X44095Y38844D01*
X43048Y39092D01*
X41982Y39269D01*
X40897Y39375D01*
X39792Y39410D01*
Y44410D01*
X40897Y44445D01*
X41982Y44552D01*
X43048Y44728D01*
X44095Y44976D01*
X45121Y45294D01*
X46129Y45684D01*
X47116Y46144D01*
X48084Y46674D01*
X49033Y47276D01*
X49962Y47948D01*
Y35872D01*
D02*
G37*
%LPC*%
G36*
X168910Y386511D02*
X166169Y386150D01*
X163615Y385092D01*
X161421Y383409D01*
X159738Y381215D01*
X158680Y378661D01*
X158319Y375920D01*
X158680Y373179D01*
X159738Y370625D01*
X161421Y368431D01*
X163615Y366748D01*
X166169Y365690D01*
X168910Y365329D01*
X171651Y365690D01*
X174205Y366748D01*
X176399Y368431D01*
X178082Y370625D01*
X179140Y373179D01*
X179501Y375920D01*
X179140Y378661D01*
X178082Y381215D01*
X176399Y383409D01*
X174205Y385092D01*
X171651Y386150D01*
X168910Y386511D01*
D02*
G37*
G36*
X68560Y361469D02*
Y356850D01*
X73179D01*
X72962Y357941D01*
X71636Y359926D01*
X69651Y361252D01*
X68560Y361469D01*
D02*
G37*
G36*
X73179Y354350D02*
X68560D01*
Y349731D01*
X69651Y349948D01*
X71636Y351274D01*
X72962Y353259D01*
X73179Y354350D01*
D02*
G37*
G36*
X100860Y310804D02*
Y304150D01*
X107514D01*
X107404Y304988D01*
X106598Y306935D01*
X105316Y308606D01*
X103645Y309888D01*
X101698Y310694D01*
X100860Y310804D01*
D02*
G37*
G36*
X98360D02*
X97521Y310694D01*
X95576Y309888D01*
X93904Y308606D01*
X92622Y306935D01*
X91816Y304988D01*
X91706Y304150D01*
X98360D01*
Y310804D01*
D02*
G37*
%LPD*%
D11*
X147320Y250190D02*
X153670Y256540D01*
X137320Y250190D02*
X147320D01*
X133510Y254000D02*
X137320Y250190D01*
X153670Y256540D02*
Y311968D01*
X110490Y283210D02*
Y292100D01*
X168910Y350520D01*
X89135Y257575D02*
X105410D01*
X78740Y267970D02*
X89135Y257575D01*
X78740Y267970D02*
Y313690D01*
X16510Y375920D02*
X78740Y313690D01*
X153670Y311968D02*
X166822Y325120D01*
D12*
X143510Y186690D02*
Y201420D01*
X80010Y123190D02*
X143510Y186690D01*
D40*
X39000Y41910D02*
X54610D01*
X35190Y45720D02*
X39000Y41910D01*
X16510Y45720D02*
X35190D01*
X53785Y69850D02*
Y82105D01*
X36830Y99060D02*
X53785Y82105D01*
X36830Y99060D02*
Y330200D01*
X64770Y105410D02*
X116840D01*
X52285Y117895D02*
X64770Y105410D01*
X52285Y117895D02*
Y273470D01*
X16510Y350520D02*
X36830Y330200D01*
X147320Y217170D02*
X154940Y209550D01*
Y110490D02*
Y209550D01*
Y110490D02*
X168910Y96520D01*
X134620Y217170D02*
X147320D01*
X119380Y232410D02*
X134620Y217170D01*
X119380Y232410D02*
Y259080D01*
X99610Y278850D02*
X119380Y259080D01*
X99610Y278850D02*
Y302900D01*
X128510Y64770D02*
Y93740D01*
X116840Y105410D02*
X128510Y93740D01*
D41*
X54610Y41910D02*
D03*
X80000D02*
D03*
X54610Y20320D02*
D03*
X80010D02*
D03*
D42*
X16510D02*
D03*
Y45720D02*
D03*
Y71120D02*
D03*
Y96520D02*
D03*
Y121920D02*
D03*
Y147320D02*
D03*
Y172720D02*
D03*
Y198120D02*
D03*
Y223520D02*
D03*
Y248920D02*
D03*
Y274320D02*
D03*
Y299720D02*
D03*
Y325120D02*
D03*
Y350520D02*
D03*
Y375920D02*
D03*
X168910Y20320D02*
D03*
Y45720D02*
D03*
Y71120D02*
D03*
Y96520D02*
D03*
Y121920D02*
D03*
Y147320D02*
D03*
Y172720D02*
D03*
Y198120D02*
D03*
Y223520D02*
D03*
Y248920D02*
D03*
Y274320D02*
D03*
Y299720D02*
D03*
Y325120D02*
D03*
Y350520D02*
D03*
Y375920D02*
D03*
D43*
X52285Y117895D02*
D03*
X53785Y69850D02*
D03*
X128510Y64770D02*
D03*
X52285Y273470D02*
D03*
X99610Y302900D02*
D03*
D44*
X67310Y355600D02*
D03*
X104585Y10160D02*
D03*
X138670Y231380D02*
D03*
X110490Y283210D02*
D03*
X143510Y201420D02*
D03*
X80010Y123190D02*
D03*
X105410Y257575D02*
D03*
X133510Y254000D02*
D03*
X92710Y175260D02*
D03*
X67310Y142240D02*
D03*
D45*
X91860Y89960D02*
D03*
Y78960D02*
D03*
X80860Y89960D02*
D03*
Y78960D02*
D03*
M02*
