G04*
G04 #@! TF.GenerationSoftware,Altium Limited,Altium Designer,19.0.10 (269)*
G04*
G04 Layer_Color=65535*
%FSLAX44Y44*%
%MOMM*%
G71*
G01*
G75*
%ADD10C,0.2000*%
%ADD11C,0.2500*%
%ADD12C,0.2540*%
%ADD13C,0.1500*%
%ADD14C,0.5080*%
%ADD15C,0.2032*%
G36*
X36784Y108992D02*
Y108978D01*
Y108935D01*
Y108851D01*
X36770Y108766D01*
Y108639D01*
X36756Y108498D01*
X36727Y108357D01*
X36699Y108188D01*
X36615Y107836D01*
X36502Y107455D01*
X36333Y107089D01*
X36220Y106920D01*
X36107Y106765D01*
X36093Y106750D01*
X36079Y106736D01*
X36037Y106694D01*
X35980Y106638D01*
X35910Y106581D01*
X35839Y106511D01*
X35628Y106370D01*
X35374Y106215D01*
X35064Y106088D01*
X34895Y106032D01*
X34712Y105989D01*
X34514Y105975D01*
X34303Y105961D01*
X34162D01*
X34007Y105975D01*
X33823Y105989D01*
X33612Y106003D01*
X33401Y106046D01*
X33203Y106088D01*
X33020Y106144D01*
Y107061D01*
X33034Y107046D01*
X33105Y107018D01*
X33189Y106962D01*
X33330Y106920D01*
X33499Y106863D01*
X33697Y106807D01*
X33936Y106779D01*
X34204Y106765D01*
X34275D01*
X34331Y106779D01*
X34472Y106793D01*
X34641Y106835D01*
X34824Y106906D01*
X35022Y107004D01*
X35219Y107145D01*
X35388Y107329D01*
X35402Y107357D01*
X35459Y107427D01*
X35529Y107568D01*
X35614Y107751D01*
X35684Y107977D01*
X35755Y108259D01*
X35811Y108583D01*
X35825Y108964D01*
Y115336D01*
X34402D01*
Y116153D01*
X36784D01*
Y108992D01*
D02*
G37*
G36*
X44721Y107723D02*
Y107709D01*
Y107653D01*
Y107582D01*
Y107469D01*
Y107357D01*
Y107216D01*
X44735Y106920D01*
Y106906D01*
Y106849D01*
Y106779D01*
X44749Y106666D01*
Y106553D01*
X44763Y106412D01*
X44777Y106116D01*
X43945D01*
X43861Y107498D01*
X43818D01*
Y107484D01*
X43804Y107469D01*
X43776Y107427D01*
X43748Y107371D01*
X43677Y107230D01*
X43565Y107061D01*
X43424Y106863D01*
X43254Y106680D01*
X43071Y106497D01*
X42860Y106342D01*
X42832Y106328D01*
X42761Y106285D01*
X42634Y106215D01*
X42465Y106158D01*
X42253Y106088D01*
X42000Y106017D01*
X41718Y105975D01*
X41394Y105961D01*
X41281D01*
X41182Y105975D01*
X41083Y105989D01*
X40971Y106003D01*
X40689Y106046D01*
X40393Y106130D01*
X40083Y106271D01*
X39927Y106342D01*
X39787Y106440D01*
X39660Y106553D01*
X39533Y106680D01*
Y106694D01*
X39505Y106708D01*
X39476Y106750D01*
X39434Y106821D01*
X39392Y106891D01*
X39350Y106976D01*
X39293Y107089D01*
X39237Y107216D01*
X39180Y107371D01*
X39124Y107526D01*
X39082Y107709D01*
X39039Y107906D01*
X38997Y108118D01*
X38969Y108357D01*
X38955Y108611D01*
X38941Y108879D01*
Y113376D01*
X39843D01*
Y109105D01*
Y109091D01*
Y109048D01*
Y108978D01*
X39857Y108893D01*
Y108794D01*
X39871Y108668D01*
X39899Y108400D01*
X39942Y108104D01*
X40026Y107794D01*
X40125Y107512D01*
X40195Y107385D01*
X40266Y107272D01*
X40280Y107244D01*
X40350Y107188D01*
X40449Y107089D01*
X40604Y106990D01*
X40787Y106891D01*
X41027Y106793D01*
X41309Y106736D01*
X41633Y106708D01*
X41732D01*
X41802Y106722D01*
X41887Y106736D01*
X41986Y106750D01*
X42211Y106793D01*
X42465Y106877D01*
X42719Y107018D01*
X42846Y107089D01*
X42972Y107188D01*
X43099Y107300D01*
X43212Y107427D01*
Y107441D01*
X43240Y107455D01*
X43268Y107498D01*
X43297Y107554D01*
X43353Y107639D01*
X43395Y107723D01*
X43452Y107822D01*
X43508Y107949D01*
X43551Y108076D01*
X43607Y108217D01*
X43706Y108555D01*
X43762Y108950D01*
X43790Y109387D01*
Y113376D01*
X44721D01*
Y107723D01*
D02*
G37*
G36*
X50444Y106877D02*
X52643D01*
Y106116D01*
X46990D01*
Y106877D01*
X49556D01*
Y115223D01*
X47258Y113700D01*
Y114518D01*
X49640Y116153D01*
X50444D01*
Y106877D01*
D02*
G37*
G36*
X55788Y383737D02*
X57987D01*
Y382976D01*
X52334D01*
Y383737D01*
X54900D01*
Y392083D01*
X52602Y390560D01*
Y391378D01*
X54985Y393013D01*
X55788D01*
Y383737D01*
D02*
G37*
G36*
X47288Y392999D02*
X47429Y392985D01*
X47584Y392971D01*
X47767Y392957D01*
X47950Y392915D01*
X48359Y392830D01*
X48782Y392689D01*
X48994Y392604D01*
X49191Y392506D01*
X49374Y392393D01*
X49557Y392252D01*
X49571Y392238D01*
X49600Y392224D01*
X49642Y392182D01*
X49698Y392111D01*
X49769Y392040D01*
X49839Y391942D01*
X49924Y391843D01*
X50009Y391716D01*
X50093Y391575D01*
X50178Y391420D01*
X50248Y391251D01*
X50319Y391068D01*
X50375Y390870D01*
X50417Y390659D01*
X50445Y390433D01*
X50460Y390194D01*
Y390180D01*
Y390137D01*
Y390081D01*
X50445Y390010D01*
Y389912D01*
X50417Y389799D01*
X50375Y389531D01*
X50290Y389235D01*
X50164Y388925D01*
X50079Y388756D01*
X49994Y388601D01*
X49882Y388446D01*
X49755Y388305D01*
X49741Y388291D01*
X49727Y388277D01*
X49684Y388234D01*
X49628Y388192D01*
X49557Y388121D01*
X49473Y388065D01*
X49374Y387995D01*
X49261Y387910D01*
X48979Y387755D01*
X48655Y387614D01*
X48289Y387487D01*
X47866Y387403D01*
X50798Y382976D01*
X49656D01*
X46893Y387290D01*
X45089D01*
Y382976D01*
X44130D01*
Y393013D01*
X47175D01*
X47288Y392999D01*
D02*
G37*
G36*
X69668Y238346D02*
X72713D01*
Y237585D01*
X69668D01*
Y234540D01*
X68921D01*
Y237585D01*
X65890D01*
Y238346D01*
X68921D01*
Y241391D01*
X69668D01*
Y238346D01*
D02*
G37*
G36*
X50705Y283178D02*
X53750D01*
Y282431D01*
X50705D01*
Y279400D01*
X49944D01*
Y282431D01*
X46899D01*
Y283178D01*
X49944D01*
Y286223D01*
X50705D01*
Y283178D01*
D02*
G37*
G36*
X90214Y264884D02*
X90326D01*
X90453Y264870D01*
X90594Y264856D01*
X90749Y264828D01*
X91088Y264771D01*
X91454Y264673D01*
X91821Y264546D01*
X92159Y264377D01*
X92173D01*
X92201Y264349D01*
X92244Y264320D01*
X92300Y264278D01*
X92455Y264151D01*
X92653Y263982D01*
X92878Y263756D01*
X93104Y263475D01*
X93216Y263305D01*
X93315Y263136D01*
X93414Y262953D01*
X93512Y262741D01*
X92638Y262375D01*
Y262389D01*
X92624Y262417D01*
X92596Y262460D01*
X92568Y262516D01*
X92483Y262685D01*
X92371Y262882D01*
X92230Y263094D01*
X92046Y263305D01*
X91849Y263503D01*
X91609Y263672D01*
X91595D01*
X91581Y263686D01*
X91539Y263714D01*
X91496Y263742D01*
X91355Y263799D01*
X91158Y263883D01*
X90933Y263954D01*
X90651Y264024D01*
X90341Y264067D01*
X90002Y264081D01*
X89932D01*
X89847Y264067D01*
X89748D01*
X89607Y264052D01*
X89466Y264024D01*
X89297Y263982D01*
X89114Y263940D01*
X88917Y263869D01*
X88719Y263799D01*
X88522Y263700D01*
X88325Y263587D01*
X88127Y263460D01*
X87930Y263305D01*
X87747Y263122D01*
X87577Y262925D01*
X87563Y262911D01*
X87535Y262868D01*
X87493Y262812D01*
X87451Y262713D01*
X87380Y262600D01*
X87310Y262460D01*
X87239Y262290D01*
X87155Y262107D01*
X87070Y261882D01*
X87000Y261656D01*
X86929Y261388D01*
X86859Y261106D01*
X86816Y260796D01*
X86774Y260472D01*
X86746Y260119D01*
X86732Y259753D01*
Y259725D01*
Y259668D01*
Y259555D01*
X86746Y259415D01*
X86760Y259245D01*
X86774Y259048D01*
X86802Y258822D01*
X86845Y258583D01*
X86943Y258061D01*
X87014Y257793D01*
X87084Y257526D01*
X87183Y257258D01*
X87296Y257004D01*
X87423Y256750D01*
X87577Y256525D01*
X87592Y256511D01*
X87620Y256468D01*
X87662Y256412D01*
X87733Y256341D01*
X87817Y256257D01*
X87930Y256158D01*
X88057Y256045D01*
X88198Y255947D01*
X88353Y255834D01*
X88536Y255721D01*
X88734Y255622D01*
X88945Y255538D01*
X89171Y255467D01*
X89410Y255411D01*
X89678Y255369D01*
X89946Y255355D01*
X90044D01*
X90129Y255369D01*
X90214D01*
X90312Y255383D01*
X90566Y255425D01*
X90834Y255481D01*
X91130Y255566D01*
X91412Y255693D01*
X91680Y255862D01*
X91694D01*
X91708Y255890D01*
X91793Y255961D01*
X91919Y256073D01*
X92074Y256229D01*
X92230Y256440D01*
X92413Y256680D01*
X92568Y256962D01*
X92709Y257272D01*
X93555Y256877D01*
X93541Y256849D01*
X93512Y256778D01*
X93442Y256666D01*
X93357Y256511D01*
X93244Y256341D01*
X93104Y256144D01*
X92920Y255933D01*
X92723Y255721D01*
X92483Y255496D01*
X92230Y255284D01*
X91919Y255087D01*
X91595Y254918D01*
X91229Y254762D01*
X90820Y254650D01*
X90383Y254579D01*
X89904Y254551D01*
X89819D01*
X89720Y254565D01*
X89579Y254579D01*
X89424Y254593D01*
X89227Y254622D01*
X89015Y254664D01*
X88790Y254720D01*
X88550Y254791D01*
X88311Y254889D01*
X88057Y255002D01*
X87803Y255129D01*
X87549Y255298D01*
X87310Y255481D01*
X87070Y255693D01*
X86859Y255933D01*
X86845Y255947D01*
X86816Y256003D01*
X86760Y256073D01*
X86689Y256186D01*
X86605Y256327D01*
X86506Y256496D01*
X86407Y256708D01*
X86309Y256933D01*
X86210Y257201D01*
X86111Y257483D01*
X86013Y257793D01*
X85928Y258146D01*
X85858Y258512D01*
X85801Y258907D01*
X85773Y259316D01*
X85759Y259767D01*
Y259781D01*
Y259795D01*
Y259880D01*
X85773Y260007D01*
Y260162D01*
X85787Y260373D01*
X85815Y260613D01*
X85858Y260867D01*
X85900Y261148D01*
X85956Y261444D01*
X86027Y261755D01*
X86126Y262065D01*
X86224Y262389D01*
X86351Y262699D01*
X86506Y262995D01*
X86675Y263277D01*
X86873Y263545D01*
X86887Y263559D01*
X86929Y263601D01*
X86986Y263672D01*
X87084Y263756D01*
X87197Y263855D01*
X87338Y263968D01*
X87493Y264095D01*
X87690Y264222D01*
X87902Y264349D01*
X88127Y264475D01*
X88395Y264588D01*
X88663Y264687D01*
X88973Y264771D01*
X89297Y264842D01*
X89636Y264884D01*
X90002Y264898D01*
X90129D01*
X90214Y264884D01*
D02*
G37*
G36*
X98503Y255467D02*
X100702D01*
Y254706D01*
X95049D01*
Y255467D01*
X97615D01*
Y263813D01*
X95317Y262290D01*
Y263108D01*
X97699Y264743D01*
X98503D01*
Y255467D01*
D02*
G37*
G36*
X84744Y263926D02*
X81544D01*
Y254706D01*
X80599D01*
Y263926D01*
X77470D01*
Y264743D01*
X84744D01*
Y263926D01*
D02*
G37*
G36*
X76102Y352688D02*
X79627Y347416D01*
X78555D01*
X75496Y352012D01*
X72423Y347416D01*
X71380D01*
X74961Y352688D01*
X71662Y357453D01*
X72719D01*
X75525Y353295D01*
X78274Y357453D01*
X79331D01*
X76102Y352688D01*
D02*
G37*
G36*
X84265Y348177D02*
X86464D01*
Y347416D01*
X80811D01*
Y348177D01*
X83377D01*
Y356523D01*
X81079Y355000D01*
Y355818D01*
X83461Y357453D01*
X84265D01*
Y348177D01*
D02*
G37*
G36*
X109083Y91751D02*
X102627D01*
X102613D01*
X102570D01*
X102486D01*
X102401Y91737D01*
X102274D01*
X102147Y91709D01*
X101992Y91695D01*
X101823Y91667D01*
X101471Y91582D01*
X101118Y91469D01*
X100766Y91300D01*
X100611Y91187D01*
X100456Y91075D01*
X100442Y91061D01*
X100428Y91047D01*
X100385Y91004D01*
X100343Y90948D01*
X100287Y90877D01*
X100216Y90793D01*
X100146Y90694D01*
X100075Y90567D01*
X100005Y90440D01*
X99934Y90285D01*
X99878Y90130D01*
X99807Y89961D01*
X99765Y89764D01*
X99723Y89566D01*
X99709Y89341D01*
X99694Y89115D01*
Y88988D01*
X99709Y88890D01*
X99723Y88777D01*
X99737Y88650D01*
X99765Y88495D01*
X99793Y88340D01*
X99878Y88002D01*
X100019Y87663D01*
X100118Y87494D01*
X100216Y87325D01*
X100329Y87170D01*
X100470Y87029D01*
X100484Y87015D01*
X100512Y87001D01*
X100555Y86958D01*
X100611Y86916D01*
X100695Y86860D01*
X100794Y86803D01*
X100907Y86733D01*
X101048Y86662D01*
X101203Y86592D01*
X101358Y86521D01*
X101555Y86465D01*
X101753Y86409D01*
X101964Y86366D01*
X102204Y86324D01*
X102444Y86310D01*
X102711Y86296D01*
X109083D01*
Y85337D01*
X102669D01*
X102655D01*
X102584D01*
X102500D01*
X102373Y85351D01*
X102232Y85365D01*
X102049Y85394D01*
X101866Y85422D01*
X101654Y85464D01*
X101443Y85520D01*
X101217Y85577D01*
X100977Y85661D01*
X100752Y85760D01*
X100526Y85873D01*
X100301Y86014D01*
X100089Y86155D01*
X99892Y86338D01*
X99878Y86352D01*
X99850Y86380D01*
X99793Y86437D01*
X99737Y86521D01*
X99666Y86620D01*
X99582Y86747D01*
X99483Y86888D01*
X99398Y87057D01*
X99300Y87254D01*
X99201Y87466D01*
X99117Y87691D01*
X99046Y87931D01*
X98990Y88213D01*
X98933Y88495D01*
X98905Y88805D01*
X98891Y89129D01*
Y89284D01*
X98905Y89411D01*
X98919Y89552D01*
X98947Y89707D01*
X98976Y89891D01*
X99004Y90088D01*
X99117Y90511D01*
X99201Y90736D01*
X99286Y90948D01*
X99398Y91173D01*
X99525Y91385D01*
X99666Y91582D01*
X99836Y91765D01*
X99850Y91780D01*
X99878Y91808D01*
X99934Y91850D01*
X100019Y91906D01*
X100118Y91991D01*
X100230Y92062D01*
X100371Y92146D01*
X100526Y92231D01*
X100709Y92329D01*
X100921Y92414D01*
X101132Y92484D01*
X101372Y92555D01*
X101640Y92625D01*
X101922Y92668D01*
X102218Y92696D01*
X102528Y92710D01*
X109083D01*
Y91751D01*
D02*
G37*
G36*
X99723Y83336D02*
X99765Y83321D01*
X99821Y83293D01*
X99892Y83251D01*
X99991Y83209D01*
X100202Y83110D01*
X100442Y82983D01*
X100724Y82814D01*
X101020Y82617D01*
X101316Y82405D01*
X101330Y82391D01*
X101358Y82377D01*
X101400Y82335D01*
X101457Y82292D01*
X101541Y82222D01*
X101626Y82151D01*
X101739Y82053D01*
X101851Y81940D01*
X101992Y81827D01*
X102133Y81686D01*
X102288Y81531D01*
X102458Y81376D01*
X102810Y80995D01*
X103191Y80573D01*
X103205Y80558D01*
X103233Y80516D01*
X103289Y80460D01*
X103374Y80375D01*
X103458Y80262D01*
X103571Y80150D01*
X103811Y79896D01*
X104093Y79600D01*
X104389Y79318D01*
X104699Y79050D01*
X104840Y78937D01*
X104981Y78839D01*
X104995D01*
X105009Y78810D01*
X105051Y78796D01*
X105108Y78754D01*
X105263Y78684D01*
X105446Y78585D01*
X105686Y78486D01*
X105940Y78416D01*
X106236Y78359D01*
X106532Y78331D01*
X106546D01*
X106574D01*
X106616D01*
X106687Y78345D01*
X106842Y78359D01*
X107053Y78401D01*
X107279Y78458D01*
X107518Y78557D01*
X107744Y78684D01*
X107955Y78853D01*
X107984Y78881D01*
X108040Y78951D01*
X108111Y79064D01*
X108209Y79233D01*
X108308Y79431D01*
X108378Y79684D01*
X108435Y79980D01*
X108463Y80305D01*
Y80389D01*
X108449Y80446D01*
X108435Y80601D01*
X108406Y80798D01*
X108336Y81010D01*
X108251Y81249D01*
X108125Y81475D01*
X107955Y81686D01*
X107927Y81714D01*
X107871Y81771D01*
X107758Y81855D01*
X107603Y81968D01*
X107406Y82081D01*
X107180Y82179D01*
X106912Y82264D01*
X106616Y82320D01*
X106729Y83223D01*
X106743D01*
X106785D01*
X106842Y83209D01*
X106912Y83195D01*
X107011Y83180D01*
X107124Y83152D01*
X107377Y83068D01*
X107659Y82969D01*
X107955Y82800D01*
X108111Y82715D01*
X108251Y82603D01*
X108406Y82476D01*
X108533Y82335D01*
X108547Y82320D01*
X108562Y82292D01*
X108604Y82250D01*
X108646Y82194D01*
X108702Y82109D01*
X108759Y82010D01*
X108815Y81898D01*
X108886Y81771D01*
X108956Y81630D01*
X109013Y81489D01*
X109125Y81136D01*
X109210Y80728D01*
X109224Y80516D01*
X109238Y80290D01*
Y80164D01*
X109224Y80065D01*
Y79952D01*
X109196Y79825D01*
X109182Y79670D01*
X109154Y79515D01*
X109069Y79177D01*
X108942Y78825D01*
X108858Y78655D01*
X108773Y78486D01*
X108660Y78331D01*
X108533Y78176D01*
X108519Y78162D01*
X108505Y78148D01*
X108463Y78106D01*
X108406Y78049D01*
X108336Y77993D01*
X108251Y77936D01*
X108139Y77866D01*
X108026Y77781D01*
X107899Y77711D01*
X107744Y77640D01*
X107420Y77527D01*
X107025Y77429D01*
X106813Y77415D01*
X106588Y77401D01*
X106560D01*
X106475D01*
X106348Y77415D01*
X106193Y77429D01*
X106010Y77457D01*
X105799Y77499D01*
X105587Y77556D01*
X105376Y77640D01*
X105347Y77654D01*
X105277Y77683D01*
X105164Y77739D01*
X105023Y77810D01*
X104854Y77908D01*
X104657Y78021D01*
X104459Y78162D01*
X104248Y78331D01*
X104220Y78345D01*
X104149Y78416D01*
X104022Y78528D01*
X103853Y78698D01*
X103642Y78909D01*
X103374Y79177D01*
X103233Y79332D01*
X103064Y79501D01*
X102909Y79684D01*
X102725Y79882D01*
X102711Y79910D01*
X102655Y79966D01*
X102556Y80065D01*
X102444Y80192D01*
X102288Y80347D01*
X102119Y80516D01*
X101936Y80714D01*
X101725Y80911D01*
X101273Y81320D01*
X100794Y81714D01*
X100540Y81898D01*
X100301Y82067D01*
X100075Y82194D01*
X99850Y82306D01*
Y77246D01*
X99046D01*
Y83350D01*
X99680D01*
X99694D01*
X99723Y83336D01*
D02*
G37*
G36*
X133423Y293889D02*
Y293875D01*
Y293804D01*
Y293720D01*
X133409Y293593D01*
X133394Y293452D01*
X133366Y293269D01*
X133338Y293085D01*
X133296Y292874D01*
X133239Y292663D01*
X133183Y292437D01*
X133098Y292197D01*
X133000Y291972D01*
X132887Y291746D01*
X132746Y291521D01*
X132605Y291309D01*
X132422Y291112D01*
X132408Y291098D01*
X132380Y291070D01*
X132323Y291013D01*
X132239Y290957D01*
X132140Y290886D01*
X132013Y290802D01*
X131872Y290703D01*
X131703Y290618D01*
X131505Y290520D01*
X131294Y290421D01*
X131068Y290337D01*
X130829Y290266D01*
X130547Y290210D01*
X130265Y290153D01*
X129955Y290125D01*
X129631Y290111D01*
X129476D01*
X129349Y290125D01*
X129208Y290139D01*
X129053Y290167D01*
X128869Y290196D01*
X128672Y290224D01*
X128249Y290337D01*
X128024Y290421D01*
X127812Y290506D01*
X127587Y290618D01*
X127375Y290745D01*
X127178Y290886D01*
X126994Y291056D01*
X126980Y291070D01*
X126952Y291098D01*
X126910Y291154D01*
X126854Y291239D01*
X126769Y291338D01*
X126699Y291450D01*
X126614Y291591D01*
X126529Y291746D01*
X126431Y291930D01*
X126346Y292141D01*
X126276Y292353D01*
X126205Y292592D01*
X126135Y292860D01*
X126092Y293142D01*
X126064Y293438D01*
X126050Y293748D01*
Y300303D01*
X127009D01*
Y293847D01*
Y293833D01*
Y293790D01*
Y293706D01*
X127023Y293621D01*
Y293494D01*
X127051Y293368D01*
X127065Y293212D01*
X127093Y293043D01*
X127178Y292691D01*
X127290Y292338D01*
X127460Y291986D01*
X127572Y291831D01*
X127685Y291676D01*
X127699Y291662D01*
X127713Y291648D01*
X127756Y291605D01*
X127812Y291563D01*
X127883Y291507D01*
X127967Y291436D01*
X128066Y291366D01*
X128193Y291295D01*
X128320Y291225D01*
X128475Y291154D01*
X128630Y291098D01*
X128799Y291027D01*
X128996Y290985D01*
X129194Y290943D01*
X129419Y290929D01*
X129645Y290915D01*
X129772D01*
X129870Y290929D01*
X129983Y290943D01*
X130110Y290957D01*
X130265Y290985D01*
X130420Y291013D01*
X130758Y291098D01*
X131097Y291239D01*
X131266Y291338D01*
X131435Y291436D01*
X131590Y291549D01*
X131731Y291690D01*
X131745Y291704D01*
X131759Y291732D01*
X131802Y291775D01*
X131844Y291831D01*
X131900Y291915D01*
X131957Y292014D01*
X132027Y292127D01*
X132098Y292268D01*
X132168Y292423D01*
X132239Y292578D01*
X132295Y292775D01*
X132351Y292973D01*
X132394Y293184D01*
X132436Y293424D01*
X132450Y293664D01*
X132464Y293931D01*
Y300303D01*
X133423D01*
Y293889D01*
D02*
G37*
G36*
X139174Y291027D02*
X141373D01*
Y290266D01*
X135721D01*
Y291027D01*
X138286D01*
Y299373D01*
X135988Y297850D01*
Y298668D01*
X138371Y300303D01*
X139174D01*
Y291027D01*
D02*
G37*
G36*
X49574Y357594D02*
X49686D01*
X49813Y357580D01*
X49954Y357566D01*
X50109Y357538D01*
X50448Y357481D01*
X50814Y357383D01*
X51181Y357256D01*
X51519Y357087D01*
X51533D01*
X51561Y357058D01*
X51604Y357030D01*
X51660Y356988D01*
X51815Y356861D01*
X52013Y356692D01*
X52238Y356466D01*
X52464Y356185D01*
X52576Y356015D01*
X52675Y355846D01*
X52774Y355663D01*
X52872Y355451D01*
X51998Y355085D01*
Y355099D01*
X51984Y355127D01*
X51956Y355169D01*
X51928Y355226D01*
X51843Y355395D01*
X51730Y355592D01*
X51590Y355804D01*
X51406Y356015D01*
X51209Y356213D01*
X50969Y356382D01*
X50955D01*
X50941Y356396D01*
X50899Y356424D01*
X50856Y356452D01*
X50715Y356509D01*
X50518Y356593D01*
X50293Y356664D01*
X50011Y356734D01*
X49701Y356777D01*
X49362Y356791D01*
X49292D01*
X49207Y356777D01*
X49109D01*
X48967Y356762D01*
X48826Y356734D01*
X48657Y356692D01*
X48474Y356650D01*
X48277Y356579D01*
X48079Y356509D01*
X47882Y356410D01*
X47685Y356297D01*
X47487Y356170D01*
X47290Y356015D01*
X47107Y355832D01*
X46937Y355635D01*
X46923Y355621D01*
X46895Y355578D01*
X46853Y355522D01*
X46811Y355423D01*
X46740Y355310D01*
X46670Y355169D01*
X46599Y355000D01*
X46515Y354817D01*
X46430Y354591D01*
X46360Y354366D01*
X46289Y354098D01*
X46219Y353816D01*
X46176Y353506D01*
X46134Y353182D01*
X46106Y352829D01*
X46092Y352463D01*
Y352435D01*
Y352378D01*
Y352266D01*
X46106Y352124D01*
X46120Y351955D01*
X46134Y351758D01*
X46162Y351532D01*
X46205Y351293D01*
X46303Y350771D01*
X46374Y350503D01*
X46444Y350235D01*
X46543Y349968D01*
X46656Y349714D01*
X46782Y349460D01*
X46937Y349235D01*
X46952Y349221D01*
X46980Y349178D01*
X47022Y349122D01*
X47093Y349051D01*
X47177Y348967D01*
X47290Y348868D01*
X47417Y348755D01*
X47558Y348657D01*
X47713Y348544D01*
X47896Y348431D01*
X48094Y348332D01*
X48305Y348248D01*
X48531Y348177D01*
X48770Y348121D01*
X49038Y348079D01*
X49306Y348065D01*
X49405D01*
X49489Y348079D01*
X49574D01*
X49672Y348093D01*
X49926Y348135D01*
X50194Y348191D01*
X50490Y348276D01*
X50772Y348403D01*
X51040Y348572D01*
X51054D01*
X51068Y348600D01*
X51153Y348671D01*
X51279Y348783D01*
X51434Y348939D01*
X51590Y349150D01*
X51773Y349390D01*
X51928Y349672D01*
X52069Y349982D01*
X52915Y349587D01*
X52901Y349559D01*
X52872Y349488D01*
X52802Y349376D01*
X52717Y349221D01*
X52604Y349051D01*
X52464Y348854D01*
X52280Y348643D01*
X52083Y348431D01*
X51843Y348206D01*
X51590Y347994D01*
X51279Y347797D01*
X50955Y347628D01*
X50589Y347472D01*
X50180Y347360D01*
X49743Y347289D01*
X49264Y347261D01*
X49179D01*
X49080Y347275D01*
X48939Y347289D01*
X48784Y347303D01*
X48587Y347332D01*
X48375Y347374D01*
X48150Y347430D01*
X47910Y347501D01*
X47671Y347599D01*
X47417Y347712D01*
X47163Y347839D01*
X46909Y348008D01*
X46670Y348191D01*
X46430Y348403D01*
X46219Y348643D01*
X46205Y348657D01*
X46176Y348713D01*
X46120Y348783D01*
X46049Y348896D01*
X45965Y349037D01*
X45866Y349206D01*
X45767Y349418D01*
X45669Y349643D01*
X45570Y349911D01*
X45472Y350193D01*
X45373Y350503D01*
X45288Y350856D01*
X45218Y351222D01*
X45161Y351617D01*
X45133Y352026D01*
X45119Y352477D01*
Y352491D01*
Y352505D01*
Y352590D01*
X45133Y352717D01*
Y352872D01*
X45147Y353083D01*
X45175Y353323D01*
X45218Y353577D01*
X45260Y353858D01*
X45316Y354155D01*
X45387Y354465D01*
X45486Y354775D01*
X45584Y355099D01*
X45711Y355409D01*
X45866Y355705D01*
X46035Y355987D01*
X46233Y356255D01*
X46247Y356269D01*
X46289Y356311D01*
X46346Y356382D01*
X46444Y356466D01*
X46557Y356565D01*
X46698Y356678D01*
X46853Y356805D01*
X47050Y356932D01*
X47262Y357058D01*
X47487Y357185D01*
X47755Y357298D01*
X48023Y357397D01*
X48333Y357481D01*
X48657Y357552D01*
X48996Y357594D01*
X49362Y357608D01*
X49489D01*
X49574Y357594D01*
D02*
G37*
G36*
X57383D02*
X57496D01*
X57623Y357566D01*
X57778Y357552D01*
X57933Y357524D01*
X58271Y357439D01*
X58624Y357312D01*
X58793Y357228D01*
X58962Y357143D01*
X59117Y357030D01*
X59272Y356903D01*
X59286Y356889D01*
X59301Y356875D01*
X59343Y356833D01*
X59399Y356777D01*
X59456Y356706D01*
X59512Y356622D01*
X59583Y356509D01*
X59667Y356396D01*
X59738Y356269D01*
X59808Y356114D01*
X59921Y355790D01*
X60020Y355395D01*
X60034Y355184D01*
X60048Y354958D01*
Y354930D01*
Y354845D01*
X60034Y354718D01*
X60020Y354563D01*
X59991Y354380D01*
X59949Y354169D01*
X59893Y353957D01*
X59808Y353746D01*
X59794Y353717D01*
X59766Y353647D01*
X59709Y353534D01*
X59639Y353393D01*
X59540Y353224D01*
X59427Y353027D01*
X59286Y352829D01*
X59117Y352618D01*
X59103Y352590D01*
X59033Y352519D01*
X58920Y352392D01*
X58751Y352223D01*
X58539Y352012D01*
X58271Y351744D01*
X58116Y351603D01*
X57947Y351434D01*
X57764Y351279D01*
X57567Y351095D01*
X57538Y351081D01*
X57482Y351025D01*
X57383Y350926D01*
X57257Y350813D01*
X57101Y350658D01*
X56932Y350489D01*
X56735Y350306D01*
X56538Y350094D01*
X56129Y349643D01*
X55734Y349164D01*
X55551Y348910D01*
X55382Y348671D01*
X55255Y348445D01*
X55142Y348220D01*
X60203D01*
Y347416D01*
X54099D01*
Y348050D01*
Y348065D01*
X54113Y348093D01*
X54127Y348135D01*
X54155Y348191D01*
X54198Y348262D01*
X54240Y348361D01*
X54338Y348572D01*
X54465Y348812D01*
X54634Y349094D01*
X54832Y349390D01*
X55043Y349686D01*
X55057Y349700D01*
X55072Y349728D01*
X55114Y349770D01*
X55156Y349827D01*
X55227Y349911D01*
X55297Y349996D01*
X55396Y350109D01*
X55508Y350221D01*
X55621Y350362D01*
X55762Y350503D01*
X55917Y350658D01*
X56072Y350828D01*
X56453Y351180D01*
X56876Y351561D01*
X56890Y351575D01*
X56932Y351603D01*
X56989Y351659D01*
X57073Y351744D01*
X57186Y351828D01*
X57299Y351941D01*
X57553Y352181D01*
X57849Y352463D01*
X58131Y352759D01*
X58398Y353069D01*
X58511Y353210D01*
X58610Y353351D01*
Y353365D01*
X58638Y353379D01*
X58652Y353421D01*
X58694Y353478D01*
X58765Y353633D01*
X58864Y353816D01*
X58962Y354056D01*
X59033Y354310D01*
X59089Y354606D01*
X59117Y354902D01*
Y354916D01*
Y354944D01*
Y354986D01*
X59103Y355057D01*
X59089Y355212D01*
X59047Y355423D01*
X58991Y355649D01*
X58892Y355888D01*
X58765Y356114D01*
X58596Y356325D01*
X58568Y356354D01*
X58497Y356410D01*
X58384Y356480D01*
X58215Y356579D01*
X58018Y356678D01*
X57764Y356748D01*
X57468Y356805D01*
X57144Y356833D01*
X57059D01*
X57003Y356819D01*
X56848Y356805D01*
X56650Y356777D01*
X56439Y356706D01*
X56199Y356622D01*
X55974Y356495D01*
X55762Y356325D01*
X55734Y356297D01*
X55678Y356241D01*
X55593Y356128D01*
X55480Y355973D01*
X55368Y355776D01*
X55269Y355550D01*
X55184Y355282D01*
X55128Y354986D01*
X54226Y355099D01*
Y355113D01*
Y355155D01*
X54240Y355212D01*
X54254Y355282D01*
X54268Y355381D01*
X54296Y355494D01*
X54381Y355747D01*
X54479Y356029D01*
X54649Y356325D01*
X54733Y356480D01*
X54846Y356622D01*
X54973Y356777D01*
X55114Y356903D01*
X55128Y356917D01*
X55156Y356932D01*
X55198Y356974D01*
X55255Y357016D01*
X55339Y357073D01*
X55438Y357129D01*
X55551Y357185D01*
X55678Y357256D01*
X55819Y357326D01*
X55960Y357383D01*
X56312Y357495D01*
X56721Y357580D01*
X56932Y357594D01*
X57158Y357608D01*
X57285D01*
X57383Y357594D01*
D02*
G37*
G36*
X44104Y356636D02*
X40904D01*
Y347416D01*
X39959D01*
Y356636D01*
X36830D01*
Y357453D01*
X44104D01*
Y356636D01*
D02*
G37*
G36*
X152536Y67104D02*
Y67090D01*
X152522Y67076D01*
X152494Y67033D01*
X152466Y66991D01*
X152367Y66836D01*
X152255Y66653D01*
X152114Y66413D01*
X151945Y66131D01*
X151775Y65821D01*
X151578Y65469D01*
X151381Y65102D01*
X151169Y64707D01*
X150958Y64298D01*
X150746Y63875D01*
X150351Y63001D01*
X150168Y62579D01*
X150013Y62142D01*
X149999Y62113D01*
X149985Y62043D01*
X149943Y61916D01*
X149886Y61761D01*
X149830Y61550D01*
X149759Y61324D01*
X149689Y61056D01*
X149618Y60760D01*
X149534Y60436D01*
X149463Y60097D01*
X149393Y59745D01*
X149337Y59379D01*
X149280Y58998D01*
X149238Y58617D01*
X149224Y58237D01*
X149210Y57856D01*
X148293D01*
Y57884D01*
Y57941D01*
Y58053D01*
X148307Y58208D01*
X148322Y58392D01*
X148336Y58603D01*
X148364Y58857D01*
X148406Y59139D01*
X148448Y59449D01*
X148505Y59787D01*
X148575Y60140D01*
X148646Y60521D01*
X148744Y60915D01*
X148857Y61324D01*
X148984Y61747D01*
X149139Y62184D01*
X149153Y62212D01*
X149181Y62297D01*
X149224Y62424D01*
X149294Y62593D01*
X149393Y62804D01*
X149492Y63058D01*
X149618Y63354D01*
X149774Y63678D01*
X149929Y64031D01*
X150126Y64411D01*
X150323Y64806D01*
X150549Y65229D01*
X150788Y65680D01*
X151056Y66131D01*
X151338Y66596D01*
X151634Y67076D01*
X146376D01*
Y67893D01*
X152536D01*
Y67104D01*
D02*
G37*
G36*
X141668Y67879D02*
X141809Y67865D01*
X141964Y67851D01*
X142147Y67837D01*
X142330Y67794D01*
X142739Y67710D01*
X143162Y67569D01*
X143373Y67484D01*
X143571Y67386D01*
X143754Y67273D01*
X143937Y67132D01*
X143952Y67118D01*
X143980Y67104D01*
X144022Y67062D01*
X144078Y66991D01*
X144149Y66920D01*
X144219Y66822D01*
X144304Y66723D01*
X144389Y66596D01*
X144473Y66455D01*
X144558Y66300D01*
X144628Y66131D01*
X144699Y65948D01*
X144755Y65750D01*
X144797Y65539D01*
X144825Y65313D01*
X144840Y65074D01*
Y65060D01*
Y65017D01*
Y64961D01*
X144825Y64890D01*
Y64792D01*
X144797Y64679D01*
X144755Y64411D01*
X144670Y64115D01*
X144544Y63805D01*
X144459Y63636D01*
X144374Y63481D01*
X144262Y63326D01*
X144135Y63185D01*
X144121Y63171D01*
X144107Y63157D01*
X144064Y63114D01*
X144008Y63072D01*
X143937Y63001D01*
X143853Y62945D01*
X143754Y62875D01*
X143641Y62790D01*
X143359Y62635D01*
X143035Y62494D01*
X142669Y62367D01*
X142246Y62283D01*
X145178Y57856D01*
X144036D01*
X141273Y62170D01*
X139469D01*
Y57856D01*
X138510D01*
Y67893D01*
X141555D01*
X141668Y67879D01*
D02*
G37*
G36*
X50148Y169479D02*
X50289Y169465D01*
X50444Y169451D01*
X50627Y169437D01*
X50810Y169394D01*
X51219Y169310D01*
X51642Y169169D01*
X51853Y169084D01*
X52051Y168986D01*
X52234Y168873D01*
X52417Y168732D01*
X52431Y168718D01*
X52460Y168704D01*
X52502Y168661D01*
X52558Y168591D01*
X52629Y168521D01*
X52699Y168422D01*
X52784Y168323D01*
X52868Y168196D01*
X52953Y168055D01*
X53038Y167900D01*
X53108Y167731D01*
X53179Y167548D01*
X53235Y167350D01*
X53277Y167139D01*
X53306Y166913D01*
X53320Y166674D01*
Y166660D01*
Y166617D01*
Y166561D01*
X53306Y166490D01*
Y166392D01*
X53277Y166279D01*
X53235Y166011D01*
X53150Y165715D01*
X53024Y165405D01*
X52939Y165236D01*
X52854Y165081D01*
X52742Y164926D01*
X52615Y164785D01*
X52601Y164771D01*
X52586Y164757D01*
X52544Y164714D01*
X52488Y164672D01*
X52417Y164601D01*
X52333Y164545D01*
X52234Y164475D01*
X52121Y164390D01*
X51839Y164235D01*
X51515Y164094D01*
X51149Y163967D01*
X50726Y163883D01*
X53658Y159456D01*
X52516D01*
X49753Y163770D01*
X47949D01*
Y159456D01*
X46990D01*
Y169493D01*
X50035D01*
X50148Y169479D01*
D02*
G37*
G36*
X58141Y169634D02*
X58253D01*
X58380Y169606D01*
X58521Y169592D01*
X58676Y169564D01*
X59015Y169479D01*
X59367Y169352D01*
X59550Y169268D01*
X59720Y169183D01*
X59875Y169070D01*
X60030Y168943D01*
X60044Y168929D01*
X60058Y168915D01*
X60100Y168873D01*
X60157Y168817D01*
X60213Y168746D01*
X60283Y168661D01*
X60354Y168563D01*
X60424Y168450D01*
X60565Y168182D01*
X60692Y167872D01*
X60791Y167505D01*
X60805Y167308D01*
X60819Y167097D01*
Y167083D01*
Y167054D01*
Y167012D01*
Y166942D01*
X60805Y166871D01*
X60791Y166772D01*
X60763Y166561D01*
X60706Y166321D01*
X60622Y166054D01*
X60495Y165800D01*
X60340Y165546D01*
X60326Y165518D01*
X60255Y165447D01*
X60157Y165335D01*
X60016Y165208D01*
X59832Y165067D01*
X59621Y164940D01*
X59381Y164827D01*
X59113Y164743D01*
Y164714D01*
X59127D01*
X59156Y164700D01*
X59198D01*
X59254Y164672D01*
X59424Y164630D01*
X59621Y164545D01*
X59847Y164432D01*
X60072Y164291D01*
X60312Y164108D01*
X60523Y163883D01*
Y163869D01*
X60551Y163854D01*
X60580Y163812D01*
X60608Y163770D01*
X60692Y163629D01*
X60791Y163431D01*
X60890Y163192D01*
X60974Y162910D01*
X61031Y162586D01*
X61059Y162219D01*
Y162205D01*
Y162163D01*
Y162092D01*
X61045Y161994D01*
X61031Y161867D01*
X61017Y161740D01*
X60988Y161585D01*
X60960Y161430D01*
X60861Y161077D01*
X60791Y160894D01*
X60721Y160725D01*
X60622Y160542D01*
X60509Y160372D01*
X60382Y160217D01*
X60241Y160062D01*
X60227Y160048D01*
X60199Y160034D01*
X60157Y159992D01*
X60086Y159950D01*
X60016Y159893D01*
X59903Y159823D01*
X59790Y159752D01*
X59649Y159682D01*
X59494Y159611D01*
X59325Y159541D01*
X59142Y159484D01*
X58930Y159414D01*
X58705Y159372D01*
X58465Y159329D01*
X58211Y159315D01*
X57943Y159301D01*
X57802D01*
X57704Y159315D01*
X57577Y159329D01*
X57422Y159343D01*
X57267Y159372D01*
X57098Y159400D01*
X56717Y159484D01*
X56336Y159625D01*
X56153Y159710D01*
X55970Y159809D01*
X55786Y159935D01*
X55631Y160062D01*
X55617Y160076D01*
X55603Y160105D01*
X55561Y160147D01*
X55505Y160203D01*
X55448Y160288D01*
X55378Y160387D01*
X55307Y160499D01*
X55237Y160626D01*
X55152Y160767D01*
X55082Y160922D01*
X55011Y161105D01*
X54955Y161289D01*
X54898Y161500D01*
X54856Y161726D01*
X54842Y161951D01*
X54828Y162205D01*
Y162219D01*
Y162247D01*
Y162304D01*
X54842Y162374D01*
Y162445D01*
X54856Y162543D01*
X54898Y162769D01*
X54955Y163037D01*
X55054Y163305D01*
X55180Y163587D01*
X55349Y163840D01*
Y163854D01*
X55378Y163869D01*
X55448Y163953D01*
X55561Y164066D01*
X55730Y164207D01*
X55928Y164348D01*
X56167Y164489D01*
X56435Y164601D01*
X56745Y164686D01*
Y164728D01*
X56731D01*
X56717Y164743D01*
X56675Y164757D01*
X56618Y164771D01*
X56477Y164827D01*
X56294Y164912D01*
X56097Y165024D01*
X55885Y165165D01*
X55688Y165349D01*
X55505Y165574D01*
Y165588D01*
X55490Y165602D01*
X55434Y165687D01*
X55364Y165828D01*
X55279Y166011D01*
X55195Y166237D01*
X55124Y166490D01*
X55068Y166787D01*
X55054Y167111D01*
Y167125D01*
Y167167D01*
Y167224D01*
X55068Y167294D01*
X55082Y167393D01*
X55096Y167505D01*
X55152Y167759D01*
X55237Y168055D01*
X55378Y168365D01*
X55476Y168506D01*
X55575Y168661D01*
X55688Y168802D01*
X55829Y168943D01*
X55843Y168958D01*
X55871Y168972D01*
X55913Y169014D01*
X55970Y169056D01*
X56054Y169113D01*
X56139Y169169D01*
X56252Y169225D01*
X56379Y169296D01*
X56520Y169366D01*
X56675Y169423D01*
X56844Y169479D01*
X57041Y169536D01*
X57450Y169620D01*
X57675Y169634D01*
X57915Y169648D01*
X58042D01*
X58141Y169634D01*
D02*
G37*
G36*
X58169Y220434D02*
X58282D01*
X58409Y220406D01*
X58564Y220392D01*
X58719Y220364D01*
X59057Y220279D01*
X59409Y220152D01*
X59579Y220068D01*
X59748Y219983D01*
X59903Y219870D01*
X60058Y219743D01*
X60072Y219729D01*
X60086Y219715D01*
X60128Y219673D01*
X60185Y219617D01*
X60241Y219546D01*
X60298Y219461D01*
X60368Y219349D01*
X60453Y219236D01*
X60523Y219109D01*
X60594Y218954D01*
X60706Y218630D01*
X60805Y218235D01*
X60819Y218024D01*
X60833Y217798D01*
Y217770D01*
Y217685D01*
X60819Y217558D01*
X60805Y217403D01*
X60777Y217220D01*
X60735Y217009D01*
X60678Y216797D01*
X60594Y216586D01*
X60580Y216558D01*
X60551Y216487D01*
X60495Y216374D01*
X60424Y216233D01*
X60326Y216064D01*
X60213Y215867D01*
X60072Y215669D01*
X59903Y215458D01*
X59889Y215430D01*
X59818Y215359D01*
X59706Y215232D01*
X59536Y215063D01*
X59325Y214852D01*
X59057Y214584D01*
X58902Y214443D01*
X58733Y214274D01*
X58549Y214119D01*
X58352Y213935D01*
X58324Y213921D01*
X58268Y213865D01*
X58169Y213766D01*
X58042Y213654D01*
X57887Y213498D01*
X57718Y213329D01*
X57520Y213146D01*
X57323Y212934D01*
X56914Y212483D01*
X56520Y212004D01*
X56336Y211750D01*
X56167Y211511D01*
X56040Y211285D01*
X55928Y211060D01*
X60988D01*
Y210256D01*
X54884D01*
Y210891D01*
Y210905D01*
X54898Y210933D01*
X54913Y210975D01*
X54941Y211031D01*
X54983Y211102D01*
X55025Y211201D01*
X55124Y211412D01*
X55251Y211652D01*
X55420Y211934D01*
X55617Y212230D01*
X55829Y212526D01*
X55843Y212540D01*
X55857Y212568D01*
X55899Y212610D01*
X55942Y212667D01*
X56012Y212751D01*
X56083Y212836D01*
X56181Y212949D01*
X56294Y213061D01*
X56407Y213202D01*
X56548Y213343D01*
X56703Y213498D01*
X56858Y213668D01*
X57238Y214020D01*
X57661Y214401D01*
X57675Y214415D01*
X57718Y214443D01*
X57774Y214499D01*
X57859Y214584D01*
X57972Y214669D01*
X58084Y214781D01*
X58338Y215021D01*
X58634Y215303D01*
X58916Y215599D01*
X59184Y215909D01*
X59297Y216050D01*
X59395Y216191D01*
Y216205D01*
X59424Y216219D01*
X59438Y216261D01*
X59480Y216318D01*
X59550Y216473D01*
X59649Y216656D01*
X59748Y216896D01*
X59818Y217150D01*
X59875Y217446D01*
X59903Y217742D01*
Y217756D01*
Y217784D01*
Y217826D01*
X59889Y217897D01*
X59875Y218052D01*
X59832Y218263D01*
X59776Y218489D01*
X59677Y218728D01*
X59550Y218954D01*
X59381Y219165D01*
X59353Y219194D01*
X59283Y219250D01*
X59170Y219321D01*
X59001Y219419D01*
X58803Y219518D01*
X58549Y219588D01*
X58253Y219645D01*
X57929Y219673D01*
X57845D01*
X57788Y219659D01*
X57633Y219645D01*
X57436Y219617D01*
X57224Y219546D01*
X56985Y219461D01*
X56759Y219335D01*
X56548Y219165D01*
X56520Y219137D01*
X56463Y219081D01*
X56379Y218968D01*
X56266Y218813D01*
X56153Y218616D01*
X56054Y218390D01*
X55970Y218122D01*
X55913Y217826D01*
X55011Y217939D01*
Y217953D01*
Y217995D01*
X55025Y218052D01*
X55039Y218122D01*
X55054Y218221D01*
X55082Y218334D01*
X55166Y218587D01*
X55265Y218869D01*
X55434Y219165D01*
X55519Y219321D01*
X55631Y219461D01*
X55758Y219617D01*
X55899Y219743D01*
X55913Y219757D01*
X55942Y219772D01*
X55984Y219814D01*
X56040Y219856D01*
X56125Y219913D01*
X56224Y219969D01*
X56336Y220025D01*
X56463Y220096D01*
X56604Y220166D01*
X56745Y220223D01*
X57098Y220336D01*
X57506Y220420D01*
X57718Y220434D01*
X57943Y220448D01*
X58070D01*
X58169Y220434D01*
D02*
G37*
G36*
X50148Y220279D02*
X50289Y220265D01*
X50444Y220251D01*
X50627Y220237D01*
X50810Y220194D01*
X51219Y220110D01*
X51642Y219969D01*
X51853Y219884D01*
X52051Y219786D01*
X52234Y219673D01*
X52417Y219532D01*
X52431Y219518D01*
X52460Y219504D01*
X52502Y219461D01*
X52558Y219391D01*
X52629Y219321D01*
X52699Y219222D01*
X52784Y219123D01*
X52868Y218996D01*
X52953Y218855D01*
X53038Y218700D01*
X53108Y218531D01*
X53179Y218348D01*
X53235Y218150D01*
X53277Y217939D01*
X53306Y217713D01*
X53320Y217474D01*
Y217460D01*
Y217417D01*
Y217361D01*
X53306Y217290D01*
Y217192D01*
X53277Y217079D01*
X53235Y216811D01*
X53150Y216515D01*
X53024Y216205D01*
X52939Y216036D01*
X52854Y215881D01*
X52742Y215726D01*
X52615Y215585D01*
X52601Y215571D01*
X52586Y215557D01*
X52544Y215514D01*
X52488Y215472D01*
X52417Y215401D01*
X52333Y215345D01*
X52234Y215275D01*
X52121Y215190D01*
X51839Y215035D01*
X51515Y214894D01*
X51149Y214767D01*
X50726Y214683D01*
X53658Y210256D01*
X52516D01*
X49753Y214570D01*
X47949D01*
Y210256D01*
X46990D01*
Y220293D01*
X50035D01*
X50148Y220279D01*
D02*
G37*
G36*
X110632Y162600D02*
X112000D01*
Y161853D01*
X110632D01*
Y159456D01*
X109744D01*
Y161853D01*
X105219D01*
Y162558D01*
X109646Y169493D01*
X110632D01*
Y162600D01*
D02*
G37*
G36*
X100948Y169479D02*
X101089Y169465D01*
X101244Y169451D01*
X101427Y169437D01*
X101610Y169394D01*
X102019Y169310D01*
X102442Y169169D01*
X102654Y169084D01*
X102851Y168986D01*
X103034Y168873D01*
X103217Y168732D01*
X103231Y168718D01*
X103260Y168704D01*
X103302Y168661D01*
X103358Y168591D01*
X103429Y168521D01*
X103499Y168422D01*
X103584Y168323D01*
X103668Y168196D01*
X103753Y168055D01*
X103838Y167900D01*
X103908Y167731D01*
X103979Y167548D01*
X104035Y167350D01*
X104077Y167139D01*
X104106Y166913D01*
X104120Y166674D01*
Y166660D01*
Y166617D01*
Y166561D01*
X104106Y166490D01*
Y166392D01*
X104077Y166279D01*
X104035Y166011D01*
X103950Y165715D01*
X103823Y165405D01*
X103739Y165236D01*
X103654Y165081D01*
X103542Y164926D01*
X103415Y164785D01*
X103401Y164771D01*
X103386Y164757D01*
X103344Y164714D01*
X103288Y164672D01*
X103217Y164601D01*
X103133Y164545D01*
X103034Y164475D01*
X102921Y164390D01*
X102639Y164235D01*
X102315Y164094D01*
X101949Y163967D01*
X101526Y163883D01*
X104458Y159456D01*
X103316D01*
X100553Y163770D01*
X98749D01*
Y159456D01*
X97790D01*
Y169493D01*
X100835D01*
X100948Y169479D01*
D02*
G37*
G36*
X134735Y220434D02*
X134834Y220420D01*
X135060Y220392D01*
X135328Y220336D01*
X135595Y220265D01*
X135863Y220152D01*
X136103Y219997D01*
X136117D01*
X136131Y219983D01*
X136201Y219913D01*
X136314Y219814D01*
X136455Y219659D01*
X136596Y219476D01*
X136751Y219236D01*
X136892Y218954D01*
X137005Y218630D01*
X136131Y218447D01*
Y218461D01*
X136117Y218503D01*
X136089Y218559D01*
X136046Y218644D01*
X136004Y218728D01*
X135948Y218841D01*
X135877Y218954D01*
X135779Y219067D01*
X135680Y219179D01*
X135553Y219292D01*
X135412Y219405D01*
X135257Y219490D01*
X135074Y219574D01*
X134890Y219631D01*
X134665Y219673D01*
X134425Y219687D01*
X134312D01*
X134228Y219673D01*
X134129Y219659D01*
X134017Y219631D01*
X133763Y219546D01*
X133622Y219490D01*
X133481Y219419D01*
X133326Y219321D01*
X133171Y219222D01*
X133030Y219095D01*
X132889Y218940D01*
X132762Y218771D01*
X132635Y218573D01*
Y218559D01*
X132607Y218517D01*
X132579Y218461D01*
X132536Y218362D01*
X132494Y218249D01*
X132438Y218108D01*
X132381Y217939D01*
X132325Y217756D01*
X132268Y217530D01*
X132212Y217290D01*
X132170Y217023D01*
X132113Y216727D01*
X132071Y216416D01*
X132043Y216078D01*
X132029Y215712D01*
X132015Y215332D01*
X132015Y215331D01*
Y215317D01*
X132015Y215332D01*
X132029Y215345D01*
X132085Y215430D01*
X132156Y215543D01*
X132268Y215698D01*
X132409Y215853D01*
X132564Y216022D01*
X132762Y216191D01*
X132973Y216332D01*
X132987D01*
X133001Y216346D01*
X133086Y216388D01*
X133213Y216445D01*
X133382Y216515D01*
X133594Y216572D01*
X133833Y216628D01*
X134101Y216670D01*
X134397Y216684D01*
X134524D01*
X134609Y216670D01*
X134721Y216656D01*
X134848Y216642D01*
X134989Y216614D01*
X135144Y216586D01*
X135469Y216473D01*
X135652Y216416D01*
X135821Y216332D01*
X135990Y216233D01*
X136159Y216120D01*
X136314Y215994D01*
X136469Y215839D01*
X136483Y215824D01*
X136498Y215796D01*
X136540Y215754D01*
X136596Y215683D01*
X136653Y215599D01*
X136709Y215500D01*
X136779Y215373D01*
X136864Y215232D01*
X136935Y215077D01*
X137005Y214908D01*
X137061Y214711D01*
X137118Y214513D01*
X137174Y214288D01*
X137217Y214048D01*
X137231Y213794D01*
X137245Y213527D01*
Y213512D01*
Y213456D01*
Y213372D01*
X137231Y213259D01*
X137217Y213132D01*
X137202Y212977D01*
X137174Y212808D01*
X137146Y212610D01*
X137047Y212216D01*
X136991Y212004D01*
X136906Y211793D01*
X136808Y211595D01*
X136709Y211384D01*
X136582Y211201D01*
X136441Y211017D01*
X136427Y211003D01*
X136399Y210975D01*
X136357Y210933D01*
X136300Y210876D01*
X136216Y210806D01*
X136117Y210721D01*
X136004Y210651D01*
X135863Y210566D01*
X135722Y210468D01*
X135553Y210397D01*
X135384Y210312D01*
X135187Y210242D01*
X134975Y210186D01*
X134749Y210143D01*
X134524Y210115D01*
X134270Y210101D01*
X134200D01*
X134129Y210115D01*
X134017D01*
X133890Y210143D01*
X133749Y210172D01*
X133580Y210200D01*
X133396Y210256D01*
X133213Y210327D01*
X133030Y210411D01*
X132832Y210510D01*
X132635Y210623D01*
X132452Y210764D01*
X132268Y210933D01*
X132085Y211130D01*
X131930Y211342D01*
X131916Y211356D01*
X131902Y211398D01*
X131860Y211469D01*
X131803Y211581D01*
X131747Y211708D01*
X131676Y211863D01*
X131606Y212061D01*
X131535Y212272D01*
X131451Y212526D01*
X131380Y212794D01*
X131310Y213104D01*
X131253Y213428D01*
X131197Y213794D01*
X131155Y214175D01*
X131141Y214598D01*
X131127Y215035D01*
Y215049D01*
Y215063D01*
Y215105D01*
Y215148D01*
Y215289D01*
X131141Y215472D01*
X131155Y215698D01*
X131169Y215965D01*
X131197Y216247D01*
X131239Y216558D01*
X131282Y216868D01*
X131338Y217206D01*
X131409Y217544D01*
X131479Y217883D01*
X131578Y218207D01*
X131691Y218517D01*
X131817Y218813D01*
X131972Y219081D01*
X131987Y219095D01*
X132015Y219137D01*
X132057Y219208D01*
X132128Y219292D01*
X132226Y219405D01*
X132325Y219518D01*
X132452Y219631D01*
X132607Y219772D01*
X132776Y219898D01*
X132959Y220011D01*
X133157Y220138D01*
X133382Y220237D01*
X133636Y220321D01*
X133904Y220392D01*
X134186Y220434D01*
X134482Y220448D01*
X134651D01*
X134735Y220434D01*
D02*
G37*
G36*
X126348Y220279D02*
X126489Y220265D01*
X126644Y220251D01*
X126827Y220237D01*
X127010Y220194D01*
X127419Y220110D01*
X127842Y219969D01*
X128054Y219884D01*
X128251Y219786D01*
X128434Y219673D01*
X128617Y219532D01*
X128631Y219518D01*
X128660Y219504D01*
X128702Y219461D01*
X128758Y219391D01*
X128829Y219321D01*
X128899Y219222D01*
X128984Y219123D01*
X129068Y218996D01*
X129153Y218855D01*
X129238Y218700D01*
X129308Y218531D01*
X129379Y218348D01*
X129435Y218150D01*
X129477Y217939D01*
X129506Y217713D01*
X129520Y217474D01*
Y217460D01*
Y217417D01*
Y217361D01*
X129506Y217290D01*
Y217192D01*
X129477Y217079D01*
X129435Y216811D01*
X129350Y216515D01*
X129223Y216205D01*
X129139Y216036D01*
X129054Y215881D01*
X128942Y215726D01*
X128815Y215585D01*
X128801Y215571D01*
X128786Y215557D01*
X128744Y215514D01*
X128688Y215472D01*
X128617Y215401D01*
X128533Y215345D01*
X128434Y215275D01*
X128321Y215190D01*
X128039Y215035D01*
X127715Y214894D01*
X127349Y214767D01*
X126926Y214683D01*
X129858Y210256D01*
X128716D01*
X125953Y214570D01*
X124149D01*
Y210256D01*
X123190D01*
Y220293D01*
X126235D01*
X126348Y220279D01*
D02*
G37*
G36*
X111351Y219518D02*
X107150D01*
X106925Y215881D01*
X106953Y215895D01*
X107009Y215937D01*
X107108Y216008D01*
X107235Y216078D01*
X107376Y216163D01*
X107545Y216247D01*
X107714Y216332D01*
X107898Y216388D01*
X107926D01*
X107982Y216416D01*
X108081Y216431D01*
X108208Y216459D01*
X108363Y216487D01*
X108532Y216501D01*
X108729Y216529D01*
X109053D01*
X109152Y216515D01*
X109265Y216501D01*
X109392Y216487D01*
X109533Y216459D01*
X109702Y216431D01*
X110040Y216332D01*
X110210Y216261D01*
X110393Y216177D01*
X110562Y216078D01*
X110731Y215979D01*
X110900Y215839D01*
X111055Y215698D01*
X111069Y215683D01*
X111083Y215655D01*
X111126Y215613D01*
X111182Y215543D01*
X111238Y215472D01*
X111309Y215359D01*
X111379Y215247D01*
X111450Y215120D01*
X111521Y214965D01*
X111591Y214795D01*
X111661Y214612D01*
X111718Y214415D01*
X111774Y214203D01*
X111817Y213978D01*
X111831Y213724D01*
X111845Y213470D01*
Y213456D01*
Y213400D01*
Y213315D01*
X111831Y213202D01*
X111817Y213076D01*
X111802Y212920D01*
X111774Y212751D01*
X111746Y212568D01*
X111633Y212159D01*
X111577Y211962D01*
X111492Y211750D01*
X111394Y211553D01*
X111281Y211356D01*
X111154Y211158D01*
X110999Y210989D01*
X110985Y210975D01*
X110957Y210947D01*
X110914Y210905D01*
X110844Y210848D01*
X110759Y210778D01*
X110646Y210707D01*
X110534Y210623D01*
X110393Y210552D01*
X110224Y210468D01*
X110054Y210383D01*
X109857Y210312D01*
X109646Y210242D01*
X109420Y210186D01*
X109166Y210143D01*
X108912Y210115D01*
X108631Y210101D01*
X108532D01*
X108405Y210115D01*
X108236Y210143D01*
X108053Y210172D01*
X107841Y210214D01*
X107601Y210284D01*
X107348Y210383D01*
X107108Y210496D01*
X106854Y210651D01*
X106601Y210834D01*
X106375Y211046D01*
X106164Y211299D01*
X105980Y211609D01*
X105839Y211948D01*
X105727Y212342D01*
X106629Y212498D01*
Y212483D01*
X106643Y212455D01*
X106657Y212413D01*
X106671Y212357D01*
X106728Y212201D01*
X106798Y212004D01*
X106897Y211793D01*
X107009Y211581D01*
X107164Y211398D01*
X107334Y211229D01*
X107362Y211215D01*
X107418Y211172D01*
X107531Y211116D01*
X107686Y211046D01*
X107884Y210975D01*
X108109Y210919D01*
X108377Y210876D01*
X108687Y210862D01*
X108786D01*
X108870Y210876D01*
X108955D01*
X109053Y210905D01*
X109293Y210947D01*
X109561Y211031D01*
X109829Y211144D01*
X110097Y211313D01*
X110224Y211412D01*
X110336Y211525D01*
Y211539D01*
X110365Y211553D01*
X110393Y211595D01*
X110421Y211652D01*
X110477Y211722D01*
X110520Y211807D01*
X110576Y211905D01*
X110632Y212018D01*
X110675Y212145D01*
X110731Y212286D01*
X110787Y212441D01*
X110830Y212624D01*
X110886Y213005D01*
X110914Y213442D01*
Y213456D01*
Y213484D01*
Y213541D01*
X110900Y213611D01*
Y213710D01*
X110886Y213809D01*
X110844Y214048D01*
X110773Y214316D01*
X110675Y214598D01*
X110534Y214880D01*
X110336Y215134D01*
Y215148D01*
X110308Y215162D01*
X110238Y215232D01*
X110111Y215331D01*
X109928Y215458D01*
X109716Y215571D01*
X109448Y215669D01*
X109138Y215740D01*
X108969Y215768D01*
X108687D01*
X108574Y215754D01*
X108447Y215740D01*
X108278Y215726D01*
X108109Y215698D01*
X107940Y215641D01*
X107771Y215585D01*
X107757Y215571D01*
X107700Y215557D01*
X107616Y215514D01*
X107503Y215458D01*
X107362Y215373D01*
X107207Y215275D01*
X107052Y215162D01*
X106883Y215021D01*
X106037D01*
X106347Y220293D01*
X111351D01*
Y219518D01*
D02*
G37*
G36*
X100948Y220279D02*
X101089Y220265D01*
X101244Y220251D01*
X101427Y220237D01*
X101610Y220194D01*
X102019Y220110D01*
X102442Y219969D01*
X102654Y219884D01*
X102851Y219786D01*
X103034Y219673D01*
X103217Y219532D01*
X103231Y219518D01*
X103260Y219504D01*
X103302Y219461D01*
X103358Y219391D01*
X103429Y219321D01*
X103499Y219222D01*
X103584Y219123D01*
X103668Y218996D01*
X103753Y218855D01*
X103838Y218700D01*
X103908Y218531D01*
X103979Y218348D01*
X104035Y218150D01*
X104077Y217939D01*
X104106Y217713D01*
X104120Y217474D01*
Y217460D01*
Y217417D01*
Y217361D01*
X104106Y217290D01*
Y217192D01*
X104077Y217079D01*
X104035Y216811D01*
X103950Y216515D01*
X103823Y216205D01*
X103739Y216036D01*
X103654Y215881D01*
X103542Y215726D01*
X103415Y215585D01*
X103401Y215571D01*
X103386Y215557D01*
X103344Y215514D01*
X103288Y215472D01*
X103217Y215401D01*
X103133Y215345D01*
X103034Y215275D01*
X102921Y215190D01*
X102639Y215035D01*
X102315Y214894D01*
X101949Y214767D01*
X101526Y214683D01*
X104458Y210256D01*
X103316D01*
X100553Y214570D01*
X98749D01*
Y210256D01*
X97790D01*
Y220293D01*
X100835D01*
X100948Y220279D01*
D02*
G37*
G36*
X83386Y220434D02*
X83498D01*
X83625Y220406D01*
X83766Y220378D01*
X83935Y220350D01*
X84105Y220293D01*
X84288Y220223D01*
X84485Y220152D01*
X84669Y220039D01*
X84866Y219927D01*
X85049Y219786D01*
X85232Y219617D01*
X85401Y219433D01*
X85557Y219208D01*
X85571Y219194D01*
X85585Y219151D01*
X85627Y219081D01*
X85683Y218982D01*
X85740Y218841D01*
X85810Y218686D01*
X85881Y218503D01*
X85965Y218277D01*
X86036Y218038D01*
X86106Y217756D01*
X86177Y217446D01*
X86233Y217121D01*
X86290Y216755D01*
X86332Y216360D01*
X86346Y215937D01*
X86360Y215486D01*
Y215472D01*
Y215458D01*
Y215373D01*
Y215232D01*
X86346Y215049D01*
X86332Y214838D01*
X86318Y214584D01*
X86290Y214302D01*
X86247Y213992D01*
X86205Y213682D01*
X86149Y213343D01*
X86078Y213019D01*
X85994Y212681D01*
X85895Y212357D01*
X85782Y212032D01*
X85655Y211736D01*
X85500Y211469D01*
X85486Y211454D01*
X85458Y211412D01*
X85416Y211342D01*
X85345Y211257D01*
X85261Y211158D01*
X85148Y211031D01*
X85021Y210919D01*
X84866Y210792D01*
X84711Y210651D01*
X84513Y210538D01*
X84316Y210425D01*
X84090Y210312D01*
X83851Y210228D01*
X83583Y210157D01*
X83301Y210115D01*
X83005Y210101D01*
X82921D01*
X82808Y210115D01*
X82667Y210129D01*
X82512Y210157D01*
X82314Y210200D01*
X82117Y210256D01*
X81891Y210327D01*
X81666Y210425D01*
X81454Y210552D01*
X81229Y210707D01*
X81017Y210876D01*
X80820Y211088D01*
X80651Y211342D01*
X80496Y211623D01*
X80383Y211948D01*
X81229Y212145D01*
Y212131D01*
X81243Y212117D01*
X81271Y212032D01*
X81313Y211920D01*
X81384Y211779D01*
X81483Y211609D01*
X81595Y211454D01*
X81736Y211299D01*
X81891Y211158D01*
X81920Y211144D01*
X81976Y211116D01*
X82075Y211060D01*
X82201Y211003D01*
X82371Y210947D01*
X82568Y210891D01*
X82780Y210862D01*
X83019Y210848D01*
X83047D01*
X83118Y210862D01*
X83245Y210876D01*
X83386Y210919D01*
X83569Y210989D01*
X83780Y211074D01*
X83992Y211215D01*
X84217Y211398D01*
X84330Y211511D01*
X84443Y211623D01*
X84556Y211765D01*
X84654Y211920D01*
X84767Y212089D01*
X84866Y212272D01*
X84965Y212483D01*
X85049Y212695D01*
X85134Y212934D01*
X85218Y213202D01*
X85289Y213484D01*
X85345Y213780D01*
X85387Y214119D01*
X85430Y214457D01*
X85458Y214838D01*
X85472Y215232D01*
X85458Y215204D01*
X85416Y215134D01*
X85345Y215021D01*
X85246Y214880D01*
X85105Y214711D01*
X84936Y214542D01*
X84739Y214372D01*
X84513Y214217D01*
X84485Y214203D01*
X84401Y214161D01*
X84260Y214090D01*
X84090Y214020D01*
X83865Y213950D01*
X83611Y213879D01*
X83329Y213837D01*
X83033Y213823D01*
X82906D01*
X82822Y213837D01*
X82709Y213851D01*
X82582Y213865D01*
X82441Y213893D01*
X82300Y213935D01*
X81976Y214048D01*
X81807Y214119D01*
X81623Y214203D01*
X81454Y214302D01*
X81299Y214429D01*
X81144Y214570D01*
X80989Y214725D01*
X80975Y214739D01*
X80961Y214767D01*
X80919Y214823D01*
X80876Y214894D01*
X80820Y214979D01*
X80750Y215091D01*
X80679Y215218D01*
X80623Y215359D01*
X80552Y215528D01*
X80482Y215712D01*
X80411Y215909D01*
X80355Y216120D01*
X80312Y216360D01*
X80270Y216600D01*
X80256Y216854D01*
X80242Y217136D01*
Y217150D01*
Y217206D01*
Y217290D01*
X80256Y217389D01*
X80270Y217516D01*
X80284Y217671D01*
X80312Y217840D01*
X80341Y218009D01*
X80439Y218404D01*
X80580Y218813D01*
X80665Y219010D01*
X80778Y219208D01*
X80891Y219391D01*
X81032Y219560D01*
X81046Y219574D01*
X81074Y219602D01*
X81116Y219645D01*
X81187Y219701D01*
X81257Y219772D01*
X81356Y219842D01*
X81483Y219927D01*
X81609Y220011D01*
X81764Y220082D01*
X81920Y220166D01*
X82103Y220237D01*
X82300Y220307D01*
X82512Y220364D01*
X82751Y220406D01*
X82991Y220434D01*
X83245Y220448D01*
X83315D01*
X83386Y220434D01*
D02*
G37*
G36*
X75548Y220279D02*
X75689Y220265D01*
X75844Y220251D01*
X76027Y220237D01*
X76210Y220194D01*
X76619Y220110D01*
X77042Y219969D01*
X77253Y219884D01*
X77451Y219786D01*
X77634Y219673D01*
X77817Y219532D01*
X77831Y219518D01*
X77860Y219504D01*
X77902Y219461D01*
X77958Y219391D01*
X78029Y219321D01*
X78099Y219222D01*
X78184Y219123D01*
X78268Y218996D01*
X78353Y218855D01*
X78438Y218700D01*
X78508Y218531D01*
X78579Y218348D01*
X78635Y218150D01*
X78677Y217939D01*
X78706Y217713D01*
X78720Y217474D01*
Y217460D01*
Y217417D01*
Y217361D01*
X78706Y217290D01*
Y217192D01*
X78677Y217079D01*
X78635Y216811D01*
X78550Y216515D01*
X78424Y216205D01*
X78339Y216036D01*
X78254Y215881D01*
X78142Y215726D01*
X78015Y215585D01*
X78001Y215571D01*
X77986Y215557D01*
X77944Y215514D01*
X77888Y215472D01*
X77817Y215401D01*
X77733Y215345D01*
X77634Y215275D01*
X77521Y215190D01*
X77239Y215035D01*
X76915Y214894D01*
X76549Y214767D01*
X76126Y214683D01*
X79058Y210256D01*
X77916D01*
X75153Y214570D01*
X73349D01*
Y210256D01*
X72390D01*
Y220293D01*
X75435D01*
X75548Y220279D01*
D02*
G37*
G36*
X58070Y267424D02*
X58183D01*
X58324Y267396D01*
X58465Y267382D01*
X58620Y267354D01*
X58958Y267269D01*
X59311Y267142D01*
X59494Y267058D01*
X59649Y266973D01*
X59818Y266860D01*
X59959Y266733D01*
X59973Y266719D01*
X59987Y266705D01*
X60030Y266663D01*
X60072Y266607D01*
X60142Y266536D01*
X60199Y266451D01*
X60269Y266353D01*
X60340Y266226D01*
X60410Y266099D01*
X60481Y265958D01*
X60551Y265789D01*
X60608Y265620D01*
X60650Y265422D01*
X60692Y265225D01*
X60706Y265000D01*
X60721Y264774D01*
Y264760D01*
Y264732D01*
Y264689D01*
X60706Y264619D01*
Y264548D01*
X60692Y264450D01*
X60650Y264238D01*
X60594Y263999D01*
X60495Y263731D01*
X60368Y263477D01*
X60185Y263223D01*
X60157Y263195D01*
X60086Y263125D01*
X59959Y263012D01*
X59804Y262885D01*
X59593Y262744D01*
X59339Y262603D01*
X59043Y262476D01*
X58705Y262377D01*
Y262349D01*
X58747D01*
X58803Y262335D01*
X58888Y262321D01*
X58972Y262307D01*
X59071Y262279D01*
X59311Y262208D01*
X59579Y262110D01*
X59861Y261969D01*
X60142Y261800D01*
X60382Y261574D01*
X60396D01*
X60410Y261546D01*
X60481Y261461D01*
X60580Y261320D01*
X60692Y261137D01*
X60791Y260911D01*
X60890Y260644D01*
X60960Y260333D01*
X60988Y260164D01*
Y259995D01*
Y259981D01*
Y259939D01*
Y259868D01*
X60974Y259769D01*
X60960Y259657D01*
X60946Y259516D01*
X60918Y259375D01*
X60890Y259206D01*
X60791Y258867D01*
X60721Y258684D01*
X60650Y258515D01*
X60551Y258332D01*
X60438Y258162D01*
X60312Y258007D01*
X60171Y257852D01*
X60157Y257838D01*
X60128Y257824D01*
X60086Y257782D01*
X60016Y257740D01*
X59931Y257683D01*
X59832Y257613D01*
X59720Y257542D01*
X59579Y257472D01*
X59424Y257401D01*
X59254Y257331D01*
X59057Y257274D01*
X58860Y257204D01*
X58634Y257162D01*
X58394Y257119D01*
X58141Y257105D01*
X57873Y257091D01*
X57746D01*
X57605Y257105D01*
X57422Y257133D01*
X57196Y257176D01*
X56957Y257232D01*
X56689Y257302D01*
X56407Y257415D01*
X56125Y257556D01*
X55843Y257725D01*
X55575Y257937D01*
X55335Y258191D01*
X55110Y258487D01*
X54927Y258825D01*
X54856Y259022D01*
X54786Y259234D01*
X54743Y259445D01*
X54701Y259685D01*
X55617Y259798D01*
Y259769D01*
X55631Y259713D01*
X55660Y259614D01*
X55688Y259502D01*
X55730Y259347D01*
X55801Y259191D01*
X55885Y259008D01*
X55984Y258839D01*
X56125Y258656D01*
X56280Y258473D01*
X56463Y258318D01*
X56675Y258162D01*
X56914Y258050D01*
X57196Y257951D01*
X57520Y257895D01*
X57873Y257866D01*
X57972D01*
X58042Y257880D01*
X58141D01*
X58239Y257895D01*
X58479Y257937D01*
X58733Y257993D01*
X59001Y258092D01*
X59268Y258219D01*
X59494Y258402D01*
X59522Y258430D01*
X59579Y258501D01*
X59677Y258628D01*
X59776Y258797D01*
X59875Y259022D01*
X59973Y259304D01*
X60030Y259629D01*
X60058Y259995D01*
Y260009D01*
Y260037D01*
Y260080D01*
X60044Y260150D01*
X60030Y260319D01*
X59973Y260531D01*
X59889Y260756D01*
X59776Y260996D01*
X59607Y261236D01*
X59494Y261334D01*
X59381Y261433D01*
X59367D01*
X59353Y261461D01*
X59311Y261475D01*
X59254Y261518D01*
X59198Y261546D01*
X59113Y261588D01*
X59015Y261630D01*
X58902Y261687D01*
X58775Y261729D01*
X58634Y261771D01*
X58310Y261856D01*
X57929Y261912D01*
X57506Y261926D01*
X56830D01*
Y262758D01*
X57605D01*
X57732Y262772D01*
X57887Y262786D01*
X58070Y262814D01*
X58268Y262843D01*
X58479Y262899D01*
X58676Y262969D01*
X58705Y262984D01*
X58761Y263012D01*
X58860Y263068D01*
X58972Y263139D01*
X59099Y263223D01*
X59240Y263336D01*
X59381Y263463D01*
X59494Y263618D01*
X59508Y263632D01*
X59536Y263703D01*
X59593Y263787D01*
X59649Y263914D01*
X59706Y264069D01*
X59762Y264252D01*
X59790Y264464D01*
X59804Y264689D01*
Y264703D01*
Y264732D01*
Y264774D01*
X59790Y264844D01*
Y264929D01*
X59776Y265014D01*
X59748Y265225D01*
X59677Y265465D01*
X59593Y265704D01*
X59466Y265944D01*
X59297Y266155D01*
X59268Y266184D01*
X59212Y266240D01*
X59085Y266325D01*
X58930Y266423D01*
X58733Y266508D01*
X58479Y266592D01*
X58183Y266649D01*
X57845Y266677D01*
X57704D01*
X57535Y266649D01*
X57337Y266621D01*
X57112Y266564D01*
X56872Y266494D01*
X56646Y266381D01*
X56421Y266226D01*
X56393Y266212D01*
X56336Y266141D01*
X56252Y266029D01*
X56139Y265888D01*
X56026Y265690D01*
X55928Y265465D01*
X55843Y265183D01*
X55786Y264858D01*
X54898Y264929D01*
Y264943D01*
X54913Y264985D01*
Y265042D01*
X54927Y265126D01*
X54955Y265225D01*
X54983Y265338D01*
X55054Y265606D01*
X55180Y265902D01*
X55335Y266212D01*
X55533Y266508D01*
X55660Y266649D01*
X55801Y266776D01*
X55815Y266790D01*
X55843Y266804D01*
X55885Y266832D01*
X55942Y266874D01*
X56026Y266931D01*
X56111Y266987D01*
X56224Y267043D01*
X56350Y267114D01*
X56491Y267170D01*
X56646Y267227D01*
X56999Y267340D01*
X57394Y267410D01*
X57619Y267438D01*
X57972D01*
X58070Y267424D01*
D02*
G37*
G36*
X50148Y267269D02*
X50289Y267255D01*
X50444Y267241D01*
X50627Y267227D01*
X50810Y267185D01*
X51219Y267100D01*
X51642Y266959D01*
X51853Y266874D01*
X52051Y266776D01*
X52234Y266663D01*
X52417Y266522D01*
X52431Y266508D01*
X52460Y266494D01*
X52502Y266451D01*
X52558Y266381D01*
X52629Y266311D01*
X52699Y266212D01*
X52784Y266113D01*
X52868Y265986D01*
X52953Y265845D01*
X53038Y265690D01*
X53108Y265521D01*
X53179Y265338D01*
X53235Y265140D01*
X53277Y264929D01*
X53306Y264703D01*
X53320Y264464D01*
Y264450D01*
Y264407D01*
Y264351D01*
X53306Y264280D01*
Y264182D01*
X53277Y264069D01*
X53235Y263801D01*
X53150Y263505D01*
X53024Y263195D01*
X52939Y263026D01*
X52854Y262871D01*
X52742Y262716D01*
X52615Y262575D01*
X52601Y262561D01*
X52586Y262547D01*
X52544Y262504D01*
X52488Y262462D01*
X52417Y262391D01*
X52333Y262335D01*
X52234Y262265D01*
X52121Y262180D01*
X51839Y262025D01*
X51515Y261884D01*
X51149Y261757D01*
X50726Y261673D01*
X53658Y257246D01*
X52516D01*
X49753Y261560D01*
X47949D01*
Y257246D01*
X46990D01*
Y267283D01*
X50035D01*
X50148Y267269D01*
D02*
G37*
G36*
X102463Y20947D02*
X107491D01*
Y18738D01*
X102463D01*
Y13663D01*
X100254D01*
Y18738D01*
X95250D01*
Y20947D01*
X100254D01*
Y26022D01*
X102463D01*
Y20947D01*
D02*
G37*
G36*
X107170Y38043D02*
Y38029D01*
Y37973D01*
Y37902D01*
Y37789D01*
Y37677D01*
Y37536D01*
X107184Y37240D01*
Y37226D01*
Y37169D01*
Y37099D01*
X107198Y36986D01*
Y36873D01*
X107212Y36732D01*
X107226Y36436D01*
X106395D01*
X106310Y37818D01*
X106268D01*
Y37803D01*
X106254Y37789D01*
X106226Y37747D01*
X106198Y37691D01*
X106127Y37550D01*
X106014Y37381D01*
X105873Y37183D01*
X105704Y37000D01*
X105521Y36817D01*
X105309Y36662D01*
X105281Y36648D01*
X105211Y36605D01*
X105084Y36535D01*
X104915Y36478D01*
X104703Y36408D01*
X104449Y36337D01*
X104167Y36295D01*
X103843Y36281D01*
X103730D01*
X103632Y36295D01*
X103533Y36309D01*
X103420Y36323D01*
X103138Y36366D01*
X102842Y36450D01*
X102532Y36591D01*
X102377Y36662D01*
X102236Y36760D01*
X102109Y36873D01*
X101982Y37000D01*
Y37014D01*
X101954Y37028D01*
X101926Y37071D01*
X101884Y37141D01*
X101841Y37211D01*
X101799Y37296D01*
X101743Y37409D01*
X101686Y37536D01*
X101630Y37691D01*
X101574Y37846D01*
X101531Y38029D01*
X101489Y38226D01*
X101447Y38438D01*
X101419Y38677D01*
X101404Y38931D01*
X101390Y39199D01*
Y43696D01*
X102293D01*
Y39425D01*
Y39411D01*
Y39368D01*
Y39298D01*
X102307Y39213D01*
Y39115D01*
X102321Y38988D01*
X102349Y38720D01*
X102391Y38424D01*
X102476Y38114D01*
X102575Y37832D01*
X102645Y37705D01*
X102716Y37592D01*
X102730Y37564D01*
X102800Y37508D01*
X102899Y37409D01*
X103054Y37310D01*
X103237Y37211D01*
X103477Y37113D01*
X103759Y37056D01*
X104083Y37028D01*
X104182D01*
X104252Y37042D01*
X104337Y37056D01*
X104435Y37071D01*
X104661Y37113D01*
X104915Y37197D01*
X105168Y37338D01*
X105295Y37409D01*
X105422Y37508D01*
X105549Y37620D01*
X105662Y37747D01*
Y37761D01*
X105690Y37775D01*
X105718Y37818D01*
X105746Y37874D01*
X105803Y37959D01*
X105845Y38043D01*
X105901Y38142D01*
X105958Y38269D01*
X106000Y38396D01*
X106056Y38537D01*
X106155Y38875D01*
X106212Y39270D01*
X106240Y39707D01*
Y43696D01*
X107170D01*
Y38043D01*
D02*
G37*
G36*
X110652Y43696D02*
X112569D01*
Y42949D01*
X110652D01*
Y38142D01*
Y38114D01*
Y38057D01*
X110666Y37959D01*
X110680Y37846D01*
X110737Y37578D01*
X110779Y37451D01*
X110850Y37338D01*
X110864Y37324D01*
X110892Y37296D01*
X110948Y37254D01*
X111019Y37197D01*
X111131Y37141D01*
X111258Y37099D01*
X111413Y37071D01*
X111597Y37056D01*
X111681D01*
X111780Y37071D01*
X111907D01*
X112062Y37085D01*
X112245Y37113D01*
X112442Y37141D01*
X112668Y37183D01*
Y36478D01*
X112640D01*
X112555Y36450D01*
X112428Y36422D01*
X112259Y36394D01*
X112062Y36366D01*
X111836Y36337D01*
X111597Y36323D01*
X111343Y36309D01*
X111272D01*
X111216Y36323D01*
X111075Y36337D01*
X110892Y36366D01*
X110709Y36408D01*
X110511Y36493D01*
X110314Y36591D01*
X110145Y36732D01*
X110131Y36746D01*
X110088Y36803D01*
X110018Y36901D01*
X109947Y37042D01*
X109863Y37211D01*
X109806Y37423D01*
X109750Y37677D01*
X109736Y37973D01*
Y42949D01*
X108664D01*
Y43696D01*
X109750D01*
X109990Y45374D01*
X110652D01*
Y43696D01*
D02*
G37*
G36*
X94990Y46614D02*
X95117D01*
X95272Y46600D01*
X95441Y46572D01*
X95625Y46558D01*
X96019Y46473D01*
X96442Y46360D01*
X96865Y46219D01*
X97077Y46121D01*
X97288Y46008D01*
X97302D01*
X97330Y45980D01*
X97387Y45938D01*
X97471Y45895D01*
X97556Y45825D01*
X97655Y45754D01*
X97894Y45557D01*
X98162Y45303D01*
X98430Y44993D01*
X98698Y44626D01*
X98923Y44218D01*
Y44204D01*
X98952Y44161D01*
X98980Y44105D01*
X99008Y44006D01*
X99064Y43893D01*
X99107Y43767D01*
X99163Y43611D01*
X99219Y43442D01*
X99262Y43245D01*
X99318Y43033D01*
X99375Y42822D01*
X99417Y42582D01*
X99473Y42061D01*
X99501Y41497D01*
Y41483D01*
Y41427D01*
Y41342D01*
X99487Y41229D01*
Y41102D01*
X99473Y40933D01*
X99459Y40764D01*
X99431Y40567D01*
X99360Y40129D01*
X99248Y39678D01*
X99107Y39199D01*
X98909Y38734D01*
Y38720D01*
X98881Y38677D01*
X98853Y38621D01*
X98797Y38537D01*
X98740Y38438D01*
X98670Y38325D01*
X98486Y38057D01*
X98247Y37775D01*
X97965Y37465D01*
X97641Y37169D01*
X97260Y36915D01*
X97246D01*
X97218Y36887D01*
X97147Y36859D01*
X97077Y36817D01*
X96964Y36774D01*
X96851Y36718D01*
X96696Y36662D01*
X96541Y36605D01*
X96372Y36535D01*
X96174Y36478D01*
X95963Y36422D01*
X95737Y36380D01*
X95258Y36309D01*
X95004Y36295D01*
X94737Y36281D01*
X94596D01*
X94483Y36295D01*
X94356D01*
X94215Y36309D01*
X94046Y36337D01*
X93863Y36366D01*
X93468Y36436D01*
X93031Y36549D01*
X92608Y36704D01*
X92396Y36803D01*
X92185Y36915D01*
X92171Y36930D01*
X92143Y36944D01*
X92086Y36986D01*
X92016Y37028D01*
X91917Y37099D01*
X91819Y37183D01*
X91706Y37268D01*
X91579Y37381D01*
X91311Y37634D01*
X91043Y37945D01*
X90789Y38311D01*
X90550Y38734D01*
Y38748D01*
X90522Y38790D01*
X90493Y38861D01*
X90465Y38945D01*
X90423Y39058D01*
X90381Y39199D01*
X90324Y39354D01*
X90282Y39523D01*
X90225Y39721D01*
X90169Y39932D01*
X90127Y40158D01*
X90085Y40397D01*
X90028Y40919D01*
X90000Y41497D01*
Y41525D01*
Y41610D01*
X90014Y41722D01*
Y41892D01*
X90042Y42089D01*
X90070Y42329D01*
X90099Y42582D01*
X90155Y42864D01*
X90225Y43160D01*
X90310Y43471D01*
X90409Y43781D01*
X90536Y44091D01*
X90677Y44401D01*
X90846Y44711D01*
X91029Y44993D01*
X91255Y45261D01*
X91269Y45275D01*
X91311Y45317D01*
X91382Y45388D01*
X91480Y45472D01*
X91621Y45585D01*
X91776Y45698D01*
X91959Y45811D01*
X92157Y45952D01*
X92396Y46079D01*
X92664Y46191D01*
X92946Y46318D01*
X93256Y46417D01*
X93595Y46501D01*
X93961Y46572D01*
X94342Y46614D01*
X94751Y46628D01*
X94892D01*
X94990Y46614D01*
D02*
G37*
G36*
X149169Y25597D02*
X151369D01*
Y24836D01*
X145716D01*
Y25597D01*
X148281D01*
Y33943D01*
X145983Y32420D01*
Y33238D01*
X148366Y34873D01*
X149169D01*
Y25597D01*
D02*
G37*
G36*
X138907Y34859D02*
X139076D01*
X139287Y34831D01*
X139527Y34803D01*
X139795Y34774D01*
X140077Y34718D01*
X140387Y34648D01*
X140697Y34563D01*
X141007Y34464D01*
X141331Y34337D01*
X141642Y34197D01*
X141938Y34027D01*
X142220Y33844D01*
X142473Y33619D01*
X142487Y33605D01*
X142530Y33562D01*
X142600Y33492D01*
X142685Y33379D01*
X142783Y33252D01*
X142882Y33097D01*
X143009Y32914D01*
X143136Y32688D01*
X143249Y32448D01*
X143376Y32167D01*
X143474Y31871D01*
X143587Y31546D01*
X143657Y31194D01*
X143728Y30799D01*
X143770Y30390D01*
X143784Y29953D01*
Y29939D01*
Y29883D01*
Y29798D01*
X143770Y29685D01*
Y29559D01*
X143756Y29404D01*
X143742Y29220D01*
X143714Y29023D01*
X143643Y28600D01*
X143531Y28135D01*
X143390Y27670D01*
X143192Y27218D01*
Y27204D01*
X143164Y27162D01*
X143136Y27106D01*
X143080Y27021D01*
X143023Y26923D01*
X142953Y26824D01*
X142755Y26556D01*
X142530Y26274D01*
X142234Y25978D01*
X141895Y25696D01*
X141515Y25442D01*
X141501D01*
X141472Y25414D01*
X141402Y25386D01*
X141317Y25344D01*
X141219Y25301D01*
X141092Y25245D01*
X140951Y25203D01*
X140796Y25146D01*
X140612Y25090D01*
X140429Y25034D01*
X140218Y24977D01*
X139992Y24935D01*
X139527Y24864D01*
X139273Y24850D01*
X139005Y24836D01*
X135890D01*
Y34873D01*
X138780D01*
X138907Y34859D01*
D02*
G37*
G36*
X78375Y304254D02*
X78487D01*
X78614Y304240D01*
X78755Y304226D01*
X78910Y304198D01*
X79249Y304141D01*
X79615Y304043D01*
X79982Y303916D01*
X80320Y303747D01*
X80334D01*
X80362Y303718D01*
X80405Y303690D01*
X80461Y303648D01*
X80616Y303521D01*
X80814Y303352D01*
X81039Y303126D01*
X81265Y302845D01*
X81377Y302675D01*
X81476Y302506D01*
X81575Y302323D01*
X81673Y302111D01*
X80799Y301745D01*
Y301759D01*
X80785Y301787D01*
X80757Y301829D01*
X80729Y301886D01*
X80644Y302055D01*
X80532Y302252D01*
X80391Y302464D01*
X80207Y302675D01*
X80010Y302873D01*
X79770Y303042D01*
X79756D01*
X79742Y303056D01*
X79700Y303084D01*
X79658Y303112D01*
X79517Y303169D01*
X79319Y303253D01*
X79094Y303324D01*
X78812Y303394D01*
X78502Y303437D01*
X78163Y303451D01*
X78093D01*
X78008Y303437D01*
X77909D01*
X77769Y303422D01*
X77628Y303394D01*
X77458Y303352D01*
X77275Y303310D01*
X77078Y303239D01*
X76880Y303169D01*
X76683Y303070D01*
X76486Y302957D01*
X76288Y302830D01*
X76091Y302675D01*
X75908Y302492D01*
X75739Y302295D01*
X75724Y302281D01*
X75696Y302238D01*
X75654Y302182D01*
X75612Y302083D01*
X75541Y301970D01*
X75471Y301829D01*
X75400Y301660D01*
X75316Y301477D01*
X75231Y301252D01*
X75161Y301026D01*
X75090Y300758D01*
X75020Y300476D01*
X74977Y300166D01*
X74935Y299842D01*
X74907Y299489D01*
X74893Y299123D01*
Y299095D01*
Y299038D01*
Y298925D01*
X74907Y298785D01*
X74921Y298615D01*
X74935Y298418D01*
X74963Y298192D01*
X75005Y297953D01*
X75104Y297431D01*
X75175Y297163D01*
X75245Y296896D01*
X75344Y296628D01*
X75457Y296374D01*
X75584Y296120D01*
X75739Y295895D01*
X75753Y295881D01*
X75781Y295838D01*
X75823Y295782D01*
X75894Y295711D01*
X75978Y295627D01*
X76091Y295528D01*
X76218Y295415D01*
X76359Y295317D01*
X76514Y295204D01*
X76697Y295091D01*
X76894Y294992D01*
X77106Y294908D01*
X77332Y294837D01*
X77571Y294781D01*
X77839Y294739D01*
X78107Y294725D01*
X78205D01*
X78290Y294739D01*
X78375D01*
X78473Y294753D01*
X78727Y294795D01*
X78995Y294851D01*
X79291Y294936D01*
X79573Y295063D01*
X79841Y295232D01*
X79855D01*
X79869Y295260D01*
X79953Y295331D01*
X80080Y295443D01*
X80236Y295599D01*
X80391Y295810D01*
X80574Y296050D01*
X80729Y296332D01*
X80870Y296642D01*
X81716Y296247D01*
X81702Y296219D01*
X81673Y296148D01*
X81603Y296036D01*
X81518Y295881D01*
X81405Y295711D01*
X81265Y295514D01*
X81081Y295303D01*
X80884Y295091D01*
X80644Y294866D01*
X80391Y294654D01*
X80080Y294457D01*
X79756Y294288D01*
X79390Y294132D01*
X78981Y294020D01*
X78544Y293949D01*
X78064Y293921D01*
X77980D01*
X77881Y293935D01*
X77740Y293949D01*
X77585Y293963D01*
X77388Y293992D01*
X77176Y294034D01*
X76951Y294090D01*
X76711Y294161D01*
X76472Y294259D01*
X76218Y294372D01*
X75964Y294499D01*
X75710Y294668D01*
X75471Y294851D01*
X75231Y295063D01*
X75020Y295303D01*
X75005Y295317D01*
X74977Y295373D01*
X74921Y295443D01*
X74850Y295556D01*
X74766Y295697D01*
X74667Y295866D01*
X74569Y296078D01*
X74470Y296303D01*
X74371Y296571D01*
X74272Y296853D01*
X74174Y297163D01*
X74089Y297516D01*
X74019Y297882D01*
X73962Y298277D01*
X73934Y298686D01*
X73920Y299137D01*
Y299151D01*
Y299165D01*
Y299250D01*
X73934Y299377D01*
Y299532D01*
X73948Y299743D01*
X73976Y299983D01*
X74019Y300236D01*
X74061Y300518D01*
X74117Y300814D01*
X74188Y301125D01*
X74286Y301435D01*
X74385Y301759D01*
X74512Y302069D01*
X74667Y302365D01*
X74836Y302647D01*
X75034Y302915D01*
X75048Y302929D01*
X75090Y302971D01*
X75146Y303042D01*
X75245Y303126D01*
X75358Y303225D01*
X75499Y303338D01*
X75654Y303465D01*
X75851Y303592D01*
X76063Y303718D01*
X76288Y303845D01*
X76556Y303958D01*
X76824Y304057D01*
X77134Y304141D01*
X77458Y304212D01*
X77797Y304254D01*
X78163Y304268D01*
X78290D01*
X78375Y304254D01*
D02*
G37*
G36*
X87848Y297220D02*
X89215D01*
Y296473D01*
X87848D01*
Y294076D01*
X86960D01*
Y296473D01*
X82435D01*
Y297178D01*
X86861Y304113D01*
X87848D01*
Y297220D01*
D02*
G37*
G36*
X124635Y117574D02*
X124747D01*
X124874Y117560D01*
X125015Y117546D01*
X125170Y117518D01*
X125509Y117461D01*
X125875Y117363D01*
X126242Y117236D01*
X126580Y117067D01*
X126594D01*
X126622Y117038D01*
X126665Y117010D01*
X126721Y116968D01*
X126876Y116841D01*
X127073Y116672D01*
X127299Y116446D01*
X127524Y116165D01*
X127637Y115995D01*
X127736Y115826D01*
X127835Y115643D01*
X127933Y115431D01*
X127059Y115065D01*
Y115079D01*
X127045Y115107D01*
X127017Y115149D01*
X126989Y115206D01*
X126904Y115375D01*
X126791Y115572D01*
X126650Y115784D01*
X126467Y115995D01*
X126270Y116193D01*
X126030Y116362D01*
X126016D01*
X126002Y116376D01*
X125960Y116404D01*
X125918Y116432D01*
X125777Y116489D01*
X125579Y116573D01*
X125354Y116644D01*
X125072Y116714D01*
X124761Y116756D01*
X124423Y116771D01*
X124353D01*
X124268Y116756D01*
X124169D01*
X124029Y116742D01*
X123888Y116714D01*
X123718Y116672D01*
X123535Y116630D01*
X123338Y116559D01*
X123140Y116489D01*
X122943Y116390D01*
X122746Y116277D01*
X122548Y116150D01*
X122351Y115995D01*
X122168Y115812D01*
X121999Y115615D01*
X121984Y115601D01*
X121956Y115558D01*
X121914Y115502D01*
X121872Y115403D01*
X121801Y115290D01*
X121731Y115149D01*
X121660Y114980D01*
X121576Y114797D01*
X121491Y114572D01*
X121420Y114346D01*
X121350Y114078D01*
X121280Y113796D01*
X121237Y113486D01*
X121195Y113162D01*
X121167Y112809D01*
X121153Y112443D01*
Y112415D01*
Y112358D01*
Y112246D01*
X121167Y112105D01*
X121181Y111935D01*
X121195Y111738D01*
X121223Y111512D01*
X121265Y111273D01*
X121364Y110751D01*
X121435Y110483D01*
X121505Y110216D01*
X121604Y109948D01*
X121717Y109694D01*
X121843Y109440D01*
X121999Y109215D01*
X122013Y109200D01*
X122041Y109158D01*
X122083Y109102D01*
X122154Y109031D01*
X122238Y108947D01*
X122351Y108848D01*
X122478Y108735D01*
X122619Y108637D01*
X122774Y108524D01*
X122957Y108411D01*
X123154Y108312D01*
X123366Y108228D01*
X123591Y108157D01*
X123831Y108101D01*
X124099Y108059D01*
X124367Y108045D01*
X124466D01*
X124550Y108059D01*
X124635D01*
X124733Y108073D01*
X124987Y108115D01*
X125255Y108172D01*
X125551Y108256D01*
X125833Y108383D01*
X126101Y108552D01*
X126115D01*
X126129Y108580D01*
X126214Y108651D01*
X126340Y108764D01*
X126496Y108919D01*
X126650Y109130D01*
X126834Y109370D01*
X126989Y109652D01*
X127130Y109962D01*
X127976Y109567D01*
X127962Y109539D01*
X127933Y109468D01*
X127863Y109356D01*
X127778Y109200D01*
X127666Y109031D01*
X127524Y108834D01*
X127341Y108623D01*
X127144Y108411D01*
X126904Y108186D01*
X126650Y107974D01*
X126340Y107777D01*
X126016Y107608D01*
X125650Y107452D01*
X125241Y107340D01*
X124804Y107269D01*
X124325Y107241D01*
X124240D01*
X124141Y107255D01*
X124000Y107269D01*
X123845Y107283D01*
X123648Y107311D01*
X123436Y107354D01*
X123211Y107410D01*
X122971Y107481D01*
X122732Y107579D01*
X122478Y107692D01*
X122224Y107819D01*
X121970Y107988D01*
X121731Y108172D01*
X121491Y108383D01*
X121280Y108623D01*
X121265Y108637D01*
X121237Y108693D01*
X121181Y108764D01*
X121110Y108876D01*
X121026Y109017D01*
X120927Y109186D01*
X120829Y109398D01*
X120730Y109623D01*
X120631Y109891D01*
X120532Y110173D01*
X120434Y110483D01*
X120349Y110836D01*
X120279Y111202D01*
X120222Y111597D01*
X120194Y112006D01*
X120180Y112457D01*
Y112471D01*
Y112485D01*
Y112570D01*
X120194Y112697D01*
Y112852D01*
X120208Y113063D01*
X120236Y113303D01*
X120279Y113556D01*
X120321Y113839D01*
X120377Y114135D01*
X120448Y114445D01*
X120547Y114755D01*
X120645Y115079D01*
X120772Y115389D01*
X120927Y115685D01*
X121096Y115967D01*
X121294Y116235D01*
X121308Y116249D01*
X121350Y116291D01*
X121406Y116362D01*
X121505Y116446D01*
X121618Y116545D01*
X121759Y116658D01*
X121914Y116785D01*
X122111Y116912D01*
X122323Y117038D01*
X122548Y117165D01*
X122816Y117278D01*
X123084Y117377D01*
X123394Y117461D01*
X123718Y117532D01*
X124057Y117574D01*
X124423Y117588D01*
X124550D01*
X124635Y117574D01*
D02*
G37*
G36*
X134827Y116658D02*
X130626D01*
X130400Y113021D01*
X130428Y113035D01*
X130485Y113077D01*
X130584Y113148D01*
X130710Y113218D01*
X130851Y113303D01*
X131021Y113387D01*
X131190Y113472D01*
X131373Y113528D01*
X131401D01*
X131458Y113556D01*
X131556Y113571D01*
X131683Y113599D01*
X131838Y113627D01*
X132007Y113641D01*
X132205Y113669D01*
X132529D01*
X132628Y113655D01*
X132740Y113641D01*
X132867Y113627D01*
X133008Y113599D01*
X133177Y113571D01*
X133516Y113472D01*
X133685Y113401D01*
X133868Y113317D01*
X134037Y113218D01*
X134206Y113119D01*
X134376Y112978D01*
X134531Y112838D01*
X134545Y112823D01*
X134559Y112795D01*
X134601Y112753D01*
X134658Y112683D01*
X134714Y112612D01*
X134784Y112499D01*
X134855Y112387D01*
X134925Y112260D01*
X134996Y112105D01*
X135066Y111935D01*
X135137Y111752D01*
X135193Y111555D01*
X135250Y111343D01*
X135292Y111118D01*
X135306Y110864D01*
X135320Y110610D01*
Y110596D01*
Y110540D01*
Y110455D01*
X135306Y110342D01*
X135292Y110216D01*
X135278Y110061D01*
X135250Y109891D01*
X135222Y109708D01*
X135109Y109299D01*
X135052Y109102D01*
X134968Y108890D01*
X134869Y108693D01*
X134756Y108496D01*
X134629Y108298D01*
X134474Y108129D01*
X134460Y108115D01*
X134432Y108087D01*
X134390Y108045D01*
X134319Y107988D01*
X134235Y107918D01*
X134122Y107847D01*
X134009Y107763D01*
X133868Y107692D01*
X133699Y107608D01*
X133530Y107523D01*
X133333Y107452D01*
X133121Y107382D01*
X132895Y107326D01*
X132642Y107283D01*
X132388Y107255D01*
X132106Y107241D01*
X132007D01*
X131881Y107255D01*
X131711Y107283D01*
X131528Y107311D01*
X131317Y107354D01*
X131077Y107424D01*
X130823Y107523D01*
X130584Y107636D01*
X130330Y107791D01*
X130076Y107974D01*
X129851Y108186D01*
X129639Y108439D01*
X129456Y108749D01*
X129315Y109088D01*
X129202Y109482D01*
X130104Y109638D01*
Y109623D01*
X130118Y109595D01*
X130133Y109553D01*
X130147Y109497D01*
X130203Y109341D01*
X130274Y109144D01*
X130372Y108933D01*
X130485Y108721D01*
X130640Y108538D01*
X130809Y108369D01*
X130837Y108355D01*
X130894Y108312D01*
X131006Y108256D01*
X131162Y108186D01*
X131359Y108115D01*
X131585Y108059D01*
X131852Y108016D01*
X132162Y108002D01*
X132261D01*
X132346Y108016D01*
X132430D01*
X132529Y108045D01*
X132769Y108087D01*
X133036Y108172D01*
X133304Y108284D01*
X133572Y108453D01*
X133699Y108552D01*
X133812Y108665D01*
Y108679D01*
X133840Y108693D01*
X133868Y108735D01*
X133896Y108792D01*
X133953Y108862D01*
X133995Y108947D01*
X134051Y109045D01*
X134108Y109158D01*
X134150Y109285D01*
X134206Y109426D01*
X134263Y109581D01*
X134305Y109764D01*
X134362Y110145D01*
X134390Y110582D01*
Y110596D01*
Y110624D01*
Y110681D01*
X134376Y110751D01*
Y110850D01*
X134362Y110949D01*
X134319Y111188D01*
X134249Y111456D01*
X134150Y111738D01*
X134009Y112020D01*
X133812Y112274D01*
Y112288D01*
X133784Y112302D01*
X133713Y112372D01*
X133586Y112471D01*
X133403Y112598D01*
X133191Y112711D01*
X132924Y112809D01*
X132614Y112880D01*
X132444Y112908D01*
X132162D01*
X132050Y112894D01*
X131923Y112880D01*
X131754Y112866D01*
X131585Y112838D01*
X131415Y112781D01*
X131246Y112725D01*
X131232Y112711D01*
X131176Y112697D01*
X131091Y112654D01*
X130978Y112598D01*
X130837Y112513D01*
X130682Y112415D01*
X130527Y112302D01*
X130358Y112161D01*
X129512D01*
X129822Y117433D01*
X134827D01*
Y116658D01*
D02*
G37*
G36*
X76845Y169634D02*
X76957D01*
X77084Y169620D01*
X77225Y169606D01*
X77380Y169578D01*
X77719Y169521D01*
X78085Y169423D01*
X78452Y169296D01*
X78790Y169127D01*
X78804D01*
X78832Y169098D01*
X78875Y169070D01*
X78931Y169028D01*
X79086Y168901D01*
X79283Y168732D01*
X79509Y168506D01*
X79735Y168225D01*
X79847Y168055D01*
X79946Y167886D01*
X80045Y167703D01*
X80143Y167491D01*
X79269Y167125D01*
Y167139D01*
X79255Y167167D01*
X79227Y167209D01*
X79199Y167266D01*
X79114Y167435D01*
X79001Y167632D01*
X78861Y167844D01*
X78677Y168055D01*
X78480Y168253D01*
X78240Y168422D01*
X78226D01*
X78212Y168436D01*
X78170Y168464D01*
X78127Y168492D01*
X77986Y168549D01*
X77789Y168633D01*
X77564Y168704D01*
X77282Y168774D01*
X76972Y168817D01*
X76633Y168831D01*
X76563D01*
X76478Y168817D01*
X76379D01*
X76238Y168802D01*
X76097Y168774D01*
X75928Y168732D01*
X75745Y168690D01*
X75548Y168619D01*
X75350Y168549D01*
X75153Y168450D01*
X74956Y168337D01*
X74758Y168210D01*
X74561Y168055D01*
X74378Y167872D01*
X74208Y167675D01*
X74194Y167661D01*
X74166Y167618D01*
X74124Y167562D01*
X74082Y167463D01*
X74011Y167350D01*
X73941Y167209D01*
X73870Y167040D01*
X73786Y166857D01*
X73701Y166632D01*
X73630Y166406D01*
X73560Y166138D01*
X73490Y165856D01*
X73447Y165546D01*
X73405Y165222D01*
X73377Y164869D01*
X73363Y164503D01*
Y164475D01*
Y164418D01*
Y164305D01*
X73377Y164165D01*
X73391Y163995D01*
X73405Y163798D01*
X73433Y163572D01*
X73475Y163333D01*
X73574Y162811D01*
X73645Y162543D01*
X73715Y162276D01*
X73814Y162008D01*
X73927Y161754D01*
X74053Y161500D01*
X74208Y161275D01*
X74223Y161261D01*
X74251Y161218D01*
X74293Y161162D01*
X74364Y161091D01*
X74448Y161007D01*
X74561Y160908D01*
X74688Y160795D01*
X74829Y160697D01*
X74984Y160584D01*
X75167Y160471D01*
X75364Y160372D01*
X75576Y160288D01*
X75802Y160217D01*
X76041Y160161D01*
X76309Y160119D01*
X76577Y160105D01*
X76676D01*
X76760Y160119D01*
X76845D01*
X76943Y160133D01*
X77197Y160175D01*
X77465Y160231D01*
X77761Y160316D01*
X78043Y160443D01*
X78311Y160612D01*
X78325D01*
X78339Y160640D01*
X78424Y160711D01*
X78550Y160823D01*
X78706Y160979D01*
X78861Y161190D01*
X79044Y161430D01*
X79199Y161712D01*
X79340Y162022D01*
X80186Y161627D01*
X80171Y161599D01*
X80143Y161528D01*
X80073Y161416D01*
X79988Y161261D01*
X79875Y161091D01*
X79735Y160894D01*
X79551Y160683D01*
X79354Y160471D01*
X79114Y160246D01*
X78861Y160034D01*
X78550Y159837D01*
X78226Y159668D01*
X77860Y159513D01*
X77451Y159400D01*
X77014Y159329D01*
X76535Y159301D01*
X76450D01*
X76351Y159315D01*
X76210Y159329D01*
X76055Y159343D01*
X75858Y159372D01*
X75646Y159414D01*
X75421Y159470D01*
X75181Y159541D01*
X74942Y159639D01*
X74688Y159752D01*
X74434Y159879D01*
X74180Y160048D01*
X73941Y160231D01*
X73701Y160443D01*
X73490Y160683D01*
X73475Y160697D01*
X73447Y160753D01*
X73391Y160823D01*
X73320Y160936D01*
X73236Y161077D01*
X73137Y161246D01*
X73039Y161458D01*
X72940Y161683D01*
X72841Y161951D01*
X72742Y162233D01*
X72644Y162543D01*
X72559Y162896D01*
X72489Y163262D01*
X72432Y163657D01*
X72404Y164066D01*
X72390Y164517D01*
Y164531D01*
Y164545D01*
Y164630D01*
X72404Y164757D01*
Y164912D01*
X72418Y165123D01*
X72446Y165363D01*
X72489Y165616D01*
X72531Y165898D01*
X72587Y166194D01*
X72658Y166505D01*
X72757Y166815D01*
X72855Y167139D01*
X72982Y167449D01*
X73137Y167745D01*
X73306Y168027D01*
X73504Y168295D01*
X73518Y168309D01*
X73560Y168351D01*
X73616Y168422D01*
X73715Y168506D01*
X73828Y168605D01*
X73969Y168718D01*
X74124Y168845D01*
X74321Y168972D01*
X74533Y169098D01*
X74758Y169225D01*
X75026Y169338D01*
X75294Y169437D01*
X75604Y169521D01*
X75928Y169592D01*
X76267Y169634D01*
X76633Y169648D01*
X76760D01*
X76845Y169634D01*
D02*
G37*
G36*
X87502Y168704D02*
Y168690D01*
X87488Y168676D01*
X87460Y168633D01*
X87431Y168591D01*
X87333Y168436D01*
X87220Y168253D01*
X87079Y168013D01*
X86910Y167731D01*
X86741Y167421D01*
X86543Y167069D01*
X86346Y166702D01*
X86135Y166307D01*
X85923Y165898D01*
X85712Y165476D01*
X85317Y164601D01*
X85134Y164179D01*
X84979Y163742D01*
X84965Y163713D01*
X84950Y163643D01*
X84908Y163516D01*
X84852Y163361D01*
X84795Y163150D01*
X84725Y162924D01*
X84654Y162656D01*
X84584Y162360D01*
X84499Y162036D01*
X84429Y161698D01*
X84358Y161345D01*
X84302Y160979D01*
X84246Y160598D01*
X84203Y160217D01*
X84189Y159837D01*
X84175Y159456D01*
X83259D01*
Y159484D01*
Y159541D01*
Y159654D01*
X83273Y159809D01*
X83287Y159992D01*
X83301Y160203D01*
X83329Y160457D01*
X83372Y160739D01*
X83414Y161049D01*
X83470Y161387D01*
X83541Y161740D01*
X83611Y162120D01*
X83710Y162515D01*
X83823Y162924D01*
X83949Y163347D01*
X84105Y163784D01*
X84119Y163812D01*
X84147Y163897D01*
X84189Y164023D01*
X84260Y164193D01*
X84358Y164404D01*
X84457Y164658D01*
X84584Y164954D01*
X84739Y165278D01*
X84894Y165631D01*
X85091Y166011D01*
X85289Y166406D01*
X85514Y166829D01*
X85754Y167280D01*
X86022Y167731D01*
X86304Y168196D01*
X86600Y168676D01*
X81342D01*
Y169493D01*
X87502D01*
Y168704D01*
D02*
G37*
G36*
X135821Y169634D02*
X135920Y169620D01*
X136145Y169592D01*
X136413Y169536D01*
X136681Y169465D01*
X136949Y169352D01*
X137188Y169197D01*
X137202D01*
X137217Y169183D01*
X137287Y169113D01*
X137400Y169014D01*
X137541Y168859D01*
X137682Y168676D01*
X137837Y168436D01*
X137978Y168154D01*
X138090Y167830D01*
X137217Y167647D01*
Y167661D01*
X137202Y167703D01*
X137174Y167759D01*
X137132Y167844D01*
X137090Y167928D01*
X137033Y168041D01*
X136963Y168154D01*
X136864Y168267D01*
X136765Y168379D01*
X136638Y168492D01*
X136498Y168605D01*
X136342Y168690D01*
X136159Y168774D01*
X135976Y168831D01*
X135750Y168873D01*
X135511Y168887D01*
X135398D01*
X135313Y168873D01*
X135215Y168859D01*
X135102Y168831D01*
X134848Y168746D01*
X134707Y168690D01*
X134566Y168619D01*
X134411Y168521D01*
X134256Y168422D01*
X134115Y168295D01*
X133974Y168140D01*
X133847Y167971D01*
X133721Y167773D01*
Y167759D01*
X133692Y167717D01*
X133664Y167661D01*
X133622Y167562D01*
X133580Y167449D01*
X133523Y167308D01*
X133467Y167139D01*
X133410Y166956D01*
X133354Y166730D01*
X133298Y166490D01*
X133255Y166223D01*
X133199Y165927D01*
X133157Y165616D01*
X133128Y165278D01*
X133114Y164912D01*
X133101Y164532D01*
X133100Y164531D01*
Y164517D01*
X133101Y164532D01*
X133114Y164545D01*
X133171Y164630D01*
X133241Y164743D01*
X133354Y164898D01*
X133495Y165053D01*
X133650Y165222D01*
X133847Y165391D01*
X134059Y165532D01*
X134073D01*
X134087Y165546D01*
X134172Y165588D01*
X134298Y165645D01*
X134468Y165715D01*
X134679Y165772D01*
X134919Y165828D01*
X135187Y165870D01*
X135483Y165884D01*
X135610D01*
X135694Y165870D01*
X135807Y165856D01*
X135934Y165842D01*
X136075Y165814D01*
X136230Y165786D01*
X136554Y165673D01*
X136737Y165616D01*
X136906Y165532D01*
X137076Y165433D01*
X137245Y165320D01*
X137400Y165194D01*
X137555Y165039D01*
X137569Y165024D01*
X137583Y164996D01*
X137625Y164954D01*
X137682Y164883D01*
X137738Y164799D01*
X137795Y164700D01*
X137865Y164573D01*
X137950Y164432D01*
X138020Y164277D01*
X138090Y164108D01*
X138147Y163911D01*
X138203Y163713D01*
X138260Y163488D01*
X138302Y163248D01*
X138316Y162994D01*
X138330Y162727D01*
Y162712D01*
Y162656D01*
Y162572D01*
X138316Y162459D01*
X138302Y162332D01*
X138288Y162177D01*
X138260Y162008D01*
X138231Y161810D01*
X138133Y161416D01*
X138076Y161204D01*
X137992Y160993D01*
X137893Y160795D01*
X137795Y160584D01*
X137668Y160401D01*
X137527Y160217D01*
X137513Y160203D01*
X137484Y160175D01*
X137442Y160133D01*
X137386Y160076D01*
X137301Y160006D01*
X137202Y159921D01*
X137090Y159851D01*
X136949Y159766D01*
X136808Y159668D01*
X136638Y159597D01*
X136469Y159513D01*
X136272Y159442D01*
X136061Y159386D01*
X135835Y159343D01*
X135610Y159315D01*
X135356Y159301D01*
X135285D01*
X135215Y159315D01*
X135102D01*
X134975Y159343D01*
X134834Y159372D01*
X134665Y159400D01*
X134482Y159456D01*
X134298Y159527D01*
X134115Y159611D01*
X133918Y159710D01*
X133721Y159823D01*
X133537Y159964D01*
X133354Y160133D01*
X133171Y160330D01*
X133016Y160542D01*
X133001Y160556D01*
X132987Y160598D01*
X132945Y160669D01*
X132889Y160781D01*
X132832Y160908D01*
X132762Y161063D01*
X132691Y161261D01*
X132621Y161472D01*
X132536Y161726D01*
X132466Y161994D01*
X132395Y162304D01*
X132339Y162628D01*
X132283Y162994D01*
X132240Y163375D01*
X132226Y163798D01*
X132212Y164235D01*
Y164249D01*
Y164263D01*
Y164305D01*
Y164348D01*
Y164489D01*
X132226Y164672D01*
X132240Y164898D01*
X132254Y165165D01*
X132283Y165447D01*
X132325Y165758D01*
X132367Y166068D01*
X132423Y166406D01*
X132494Y166744D01*
X132564Y167083D01*
X132663Y167407D01*
X132776Y167717D01*
X132903Y168013D01*
X133058Y168281D01*
X133072Y168295D01*
X133100Y168337D01*
X133142Y168408D01*
X133213Y168492D01*
X133312Y168605D01*
X133410Y168718D01*
X133537Y168831D01*
X133692Y168972D01*
X133861Y169098D01*
X134045Y169211D01*
X134242Y169338D01*
X134468Y169437D01*
X134721Y169521D01*
X134989Y169592D01*
X135271Y169634D01*
X135567Y169648D01*
X135736D01*
X135821Y169634D01*
D02*
G37*
G36*
X127645D02*
X127757D01*
X127884Y169620D01*
X128025Y169606D01*
X128180Y169578D01*
X128519Y169521D01*
X128885Y169423D01*
X129252Y169296D01*
X129590Y169127D01*
X129604D01*
X129632Y169098D01*
X129675Y169070D01*
X129731Y169028D01*
X129886Y168901D01*
X130083Y168732D01*
X130309Y168506D01*
X130534Y168225D01*
X130647Y168055D01*
X130746Y167886D01*
X130845Y167703D01*
X130943Y167491D01*
X130069Y167125D01*
Y167139D01*
X130055Y167167D01*
X130027Y167209D01*
X129999Y167266D01*
X129914Y167435D01*
X129802Y167632D01*
X129661Y167844D01*
X129477Y168055D01*
X129280Y168253D01*
X129040Y168422D01*
X129026D01*
X129012Y168436D01*
X128970Y168464D01*
X128927Y168492D01*
X128786Y168549D01*
X128589Y168633D01*
X128364Y168704D01*
X128082Y168774D01*
X127772Y168817D01*
X127433Y168831D01*
X127363D01*
X127278Y168817D01*
X127179D01*
X127038Y168802D01*
X126897Y168774D01*
X126728Y168732D01*
X126545Y168690D01*
X126348Y168619D01*
X126150Y168549D01*
X125953Y168450D01*
X125756Y168337D01*
X125558Y168210D01*
X125361Y168055D01*
X125178Y167872D01*
X125008Y167675D01*
X124994Y167661D01*
X124966Y167618D01*
X124924Y167562D01*
X124882Y167463D01*
X124811Y167350D01*
X124741Y167209D01*
X124670Y167040D01*
X124586Y166857D01*
X124501Y166632D01*
X124431Y166406D01*
X124360Y166138D01*
X124290Y165856D01*
X124247Y165546D01*
X124205Y165222D01*
X124177Y164869D01*
X124163Y164503D01*
Y164475D01*
Y164418D01*
Y164305D01*
X124177Y164165D01*
X124191Y163995D01*
X124205Y163798D01*
X124233Y163572D01*
X124276Y163333D01*
X124374Y162811D01*
X124445Y162543D01*
X124515Y162276D01*
X124614Y162008D01*
X124727Y161754D01*
X124853Y161500D01*
X125008Y161275D01*
X125023Y161261D01*
X125051Y161218D01*
X125093Y161162D01*
X125164Y161091D01*
X125248Y161007D01*
X125361Y160908D01*
X125488Y160795D01*
X125629Y160697D01*
X125784Y160584D01*
X125967Y160471D01*
X126165Y160372D01*
X126376Y160288D01*
X126601Y160217D01*
X126841Y160161D01*
X127109Y160119D01*
X127377Y160105D01*
X127476D01*
X127560Y160119D01*
X127645D01*
X127743Y160133D01*
X127997Y160175D01*
X128265Y160231D01*
X128561Y160316D01*
X128843Y160443D01*
X129111Y160612D01*
X129125D01*
X129139Y160640D01*
X129223Y160711D01*
X129350Y160823D01*
X129506Y160979D01*
X129661Y161190D01*
X129844Y161430D01*
X129999Y161712D01*
X130140Y162022D01*
X130986Y161627D01*
X130971Y161599D01*
X130943Y161528D01*
X130873Y161416D01*
X130788Y161261D01*
X130675Y161091D01*
X130534Y160894D01*
X130351Y160683D01*
X130154Y160471D01*
X129914Y160246D01*
X129661Y160034D01*
X129350Y159837D01*
X129026Y159668D01*
X128660Y159513D01*
X128251Y159400D01*
X127814Y159329D01*
X127334Y159301D01*
X127250D01*
X127151Y159315D01*
X127010Y159329D01*
X126855Y159343D01*
X126658Y159372D01*
X126446Y159414D01*
X126221Y159470D01*
X125981Y159541D01*
X125742Y159639D01*
X125488Y159752D01*
X125234Y159879D01*
X124980Y160048D01*
X124741Y160231D01*
X124501Y160443D01*
X124290Y160683D01*
X124276Y160697D01*
X124247Y160753D01*
X124191Y160823D01*
X124120Y160936D01*
X124036Y161077D01*
X123937Y161246D01*
X123839Y161458D01*
X123740Y161683D01*
X123641Y161951D01*
X123542Y162233D01*
X123444Y162543D01*
X123359Y162896D01*
X123289Y163262D01*
X123232Y163657D01*
X123204Y164066D01*
X123190Y164517D01*
Y164531D01*
Y164545D01*
Y164630D01*
X123204Y164757D01*
Y164912D01*
X123218Y165123D01*
X123246Y165363D01*
X123289Y165616D01*
X123331Y165898D01*
X123387Y166194D01*
X123458Y166505D01*
X123556Y166815D01*
X123655Y167139D01*
X123782Y167449D01*
X123937Y167745D01*
X124106Y168027D01*
X124304Y168295D01*
X124318Y168309D01*
X124360Y168351D01*
X124416Y168422D01*
X124515Y168506D01*
X124628Y168605D01*
X124769Y168718D01*
X124924Y168845D01*
X125121Y168972D01*
X125333Y169098D01*
X125558Y169225D01*
X125826Y169338D01*
X126094Y169437D01*
X126404Y169521D01*
X126728Y169592D01*
X127067Y169634D01*
X127433Y169648D01*
X127560D01*
X127645Y169634D01*
D02*
G37*
G36*
X125105Y393154D02*
X125217D01*
X125344Y393140D01*
X125485Y393126D01*
X125640Y393098D01*
X125979Y393041D01*
X126345Y392943D01*
X126712Y392816D01*
X127050Y392647D01*
X127064D01*
X127092Y392618D01*
X127135Y392590D01*
X127191Y392548D01*
X127346Y392421D01*
X127543Y392252D01*
X127769Y392026D01*
X127994Y391744D01*
X128107Y391575D01*
X128206Y391406D01*
X128305Y391223D01*
X128403Y391011D01*
X127529Y390645D01*
Y390659D01*
X127515Y390687D01*
X127487Y390729D01*
X127459Y390786D01*
X127374Y390955D01*
X127261Y391152D01*
X127121Y391364D01*
X126937Y391575D01*
X126740Y391773D01*
X126500Y391942D01*
X126486D01*
X126472Y391956D01*
X126430Y391984D01*
X126388Y392012D01*
X126247Y392069D01*
X126049Y392153D01*
X125824Y392224D01*
X125542Y392294D01*
X125232Y392337D01*
X124893Y392351D01*
X124823D01*
X124738Y392337D01*
X124640D01*
X124499Y392322D01*
X124358Y392294D01*
X124188Y392252D01*
X124005Y392210D01*
X123808Y392139D01*
X123610Y392069D01*
X123413Y391970D01*
X123216Y391857D01*
X123018Y391730D01*
X122821Y391575D01*
X122638Y391392D01*
X122469Y391195D01*
X122454Y391181D01*
X122426Y391138D01*
X122384Y391082D01*
X122342Y390983D01*
X122271Y390870D01*
X122201Y390729D01*
X122130Y390560D01*
X122046Y390377D01*
X121961Y390151D01*
X121890Y389926D01*
X121820Y389658D01*
X121750Y389376D01*
X121707Y389066D01*
X121665Y388742D01*
X121637Y388389D01*
X121623Y388023D01*
Y387995D01*
Y387938D01*
Y387826D01*
X121637Y387685D01*
X121651Y387515D01*
X121665Y387318D01*
X121693Y387092D01*
X121735Y386853D01*
X121834Y386331D01*
X121905Y386063D01*
X121975Y385796D01*
X122074Y385528D01*
X122187Y385274D01*
X122313Y385020D01*
X122469Y384795D01*
X122483Y384781D01*
X122511Y384738D01*
X122553Y384682D01*
X122624Y384611D01*
X122708Y384527D01*
X122821Y384428D01*
X122948Y384315D01*
X123089Y384217D01*
X123244Y384104D01*
X123427Y383991D01*
X123624Y383892D01*
X123836Y383808D01*
X124061Y383737D01*
X124301Y383681D01*
X124569Y383639D01*
X124837Y383625D01*
X124936D01*
X125020Y383639D01*
X125105D01*
X125203Y383653D01*
X125457Y383695D01*
X125725Y383751D01*
X126021Y383836D01*
X126303Y383963D01*
X126571Y384132D01*
X126585D01*
X126599Y384160D01*
X126684Y384231D01*
X126810Y384343D01*
X126966Y384499D01*
X127121Y384710D01*
X127304Y384950D01*
X127459Y385232D01*
X127600Y385542D01*
X128446Y385147D01*
X128432Y385119D01*
X128403Y385048D01*
X128333Y384936D01*
X128248Y384781D01*
X128135Y384611D01*
X127994Y384414D01*
X127811Y384203D01*
X127614Y383991D01*
X127374Y383766D01*
X127121Y383554D01*
X126810Y383357D01*
X126486Y383188D01*
X126120Y383032D01*
X125711Y382920D01*
X125274Y382849D01*
X124795Y382821D01*
X124710D01*
X124611Y382835D01*
X124470Y382849D01*
X124315Y382863D01*
X124118Y382892D01*
X123906Y382934D01*
X123681Y382990D01*
X123441Y383061D01*
X123202Y383159D01*
X122948Y383272D01*
X122694Y383399D01*
X122440Y383568D01*
X122201Y383751D01*
X121961Y383963D01*
X121750Y384203D01*
X121735Y384217D01*
X121707Y384273D01*
X121651Y384343D01*
X121580Y384456D01*
X121496Y384597D01*
X121397Y384766D01*
X121299Y384978D01*
X121200Y385203D01*
X121101Y385471D01*
X121002Y385753D01*
X120904Y386063D01*
X120819Y386416D01*
X120749Y386782D01*
X120692Y387177D01*
X120664Y387586D01*
X120650Y388037D01*
Y388051D01*
Y388065D01*
Y388150D01*
X120664Y388277D01*
Y388432D01*
X120678Y388643D01*
X120706Y388883D01*
X120749Y389137D01*
X120791Y389418D01*
X120847Y389715D01*
X120918Y390025D01*
X121017Y390335D01*
X121115Y390659D01*
X121242Y390969D01*
X121397Y391265D01*
X121566Y391547D01*
X121764Y391815D01*
X121778Y391829D01*
X121820Y391871D01*
X121876Y391942D01*
X121975Y392026D01*
X122088Y392125D01*
X122229Y392238D01*
X122384Y392365D01*
X122581Y392492D01*
X122793Y392618D01*
X123018Y392745D01*
X123286Y392858D01*
X123554Y392957D01*
X123864Y393041D01*
X124188Y393112D01*
X124527Y393154D01*
X124893Y393168D01*
X125020D01*
X125105Y393154D01*
D02*
G37*
G36*
X132914D02*
X133027D01*
X133154Y393126D01*
X133309Y393112D01*
X133464Y393084D01*
X133802Y392999D01*
X134155Y392872D01*
X134324Y392788D01*
X134493Y392703D01*
X134648Y392590D01*
X134803Y392463D01*
X134817Y392449D01*
X134832Y392435D01*
X134874Y392393D01*
X134930Y392337D01*
X134987Y392266D01*
X135043Y392182D01*
X135113Y392069D01*
X135198Y391956D01*
X135269Y391829D01*
X135339Y391674D01*
X135452Y391350D01*
X135550Y390955D01*
X135565Y390744D01*
X135579Y390518D01*
Y390490D01*
Y390405D01*
X135565Y390278D01*
X135550Y390123D01*
X135522Y389940D01*
X135480Y389729D01*
X135424Y389517D01*
X135339Y389306D01*
X135325Y389277D01*
X135297Y389207D01*
X135240Y389094D01*
X135170Y388953D01*
X135071Y388784D01*
X134958Y388587D01*
X134817Y388389D01*
X134648Y388178D01*
X134634Y388150D01*
X134564Y388079D01*
X134451Y387952D01*
X134282Y387783D01*
X134070Y387572D01*
X133802Y387304D01*
X133647Y387163D01*
X133478Y386994D01*
X133295Y386839D01*
X133098Y386655D01*
X133069Y386641D01*
X133013Y386585D01*
X132914Y386486D01*
X132788Y386373D01*
X132632Y386218D01*
X132463Y386049D01*
X132266Y385866D01*
X132069Y385655D01*
X131660Y385203D01*
X131265Y384724D01*
X131082Y384470D01*
X130913Y384231D01*
X130786Y384005D01*
X130673Y383780D01*
X135734D01*
Y382976D01*
X129630D01*
Y383610D01*
Y383625D01*
X129644Y383653D01*
X129658Y383695D01*
X129686Y383751D01*
X129728Y383822D01*
X129771Y383921D01*
X129869Y384132D01*
X129996Y384372D01*
X130166Y384654D01*
X130363Y384950D01*
X130574Y385246D01*
X130588Y385260D01*
X130603Y385288D01*
X130645Y385330D01*
X130687Y385387D01*
X130758Y385471D01*
X130828Y385556D01*
X130927Y385669D01*
X131039Y385781D01*
X131152Y385922D01*
X131293Y386063D01*
X131448Y386218D01*
X131603Y386388D01*
X131984Y386740D01*
X132407Y387121D01*
X132421Y387135D01*
X132463Y387163D01*
X132520Y387219D01*
X132604Y387304D01*
X132717Y387388D01*
X132830Y387501D01*
X133084Y387741D01*
X133380Y388023D01*
X133661Y388319D01*
X133929Y388629D01*
X134042Y388770D01*
X134141Y388911D01*
Y388925D01*
X134169Y388939D01*
X134183Y388981D01*
X134225Y389038D01*
X134296Y389193D01*
X134395Y389376D01*
X134493Y389616D01*
X134564Y389870D01*
X134620Y390166D01*
X134648Y390462D01*
Y390476D01*
Y390504D01*
Y390546D01*
X134634Y390617D01*
X134620Y390772D01*
X134578Y390983D01*
X134521Y391209D01*
X134423Y391448D01*
X134296Y391674D01*
X134127Y391885D01*
X134099Y391914D01*
X134028Y391970D01*
X133915Y392040D01*
X133746Y392139D01*
X133549Y392238D01*
X133295Y392308D01*
X132999Y392365D01*
X132675Y392393D01*
X132590D01*
X132534Y392379D01*
X132379Y392365D01*
X132181Y392337D01*
X131970Y392266D01*
X131730Y392182D01*
X131505Y392055D01*
X131293Y391885D01*
X131265Y391857D01*
X131209Y391801D01*
X131124Y391688D01*
X131011Y391533D01*
X130899Y391336D01*
X130800Y391110D01*
X130715Y390842D01*
X130659Y390546D01*
X129757Y390659D01*
Y390673D01*
Y390715D01*
X129771Y390772D01*
X129785Y390842D01*
X129799Y390941D01*
X129827Y391054D01*
X129912Y391307D01*
X130010Y391589D01*
X130180Y391885D01*
X130264Y392040D01*
X130377Y392182D01*
X130504Y392337D01*
X130645Y392463D01*
X130659Y392477D01*
X130687Y392492D01*
X130729Y392534D01*
X130786Y392576D01*
X130870Y392633D01*
X130969Y392689D01*
X131082Y392745D01*
X131209Y392816D01*
X131350Y392886D01*
X131491Y392943D01*
X131843Y393055D01*
X132252Y393140D01*
X132463Y393154D01*
X132689Y393168D01*
X132816D01*
X132914Y393154D01*
D02*
G37*
G36*
X89545D02*
X89657D01*
X89784Y393140D01*
X89925Y393126D01*
X90080Y393098D01*
X90419Y393041D01*
X90785Y392943D01*
X91152Y392816D01*
X91490Y392647D01*
X91504D01*
X91532Y392618D01*
X91575Y392590D01*
X91631Y392548D01*
X91786Y392421D01*
X91983Y392252D01*
X92209Y392026D01*
X92435Y391744D01*
X92547Y391575D01*
X92646Y391406D01*
X92745Y391223D01*
X92843Y391011D01*
X91969Y390645D01*
Y390659D01*
X91955Y390687D01*
X91927Y390729D01*
X91899Y390786D01*
X91814Y390955D01*
X91701Y391152D01*
X91560Y391364D01*
X91377Y391575D01*
X91180Y391773D01*
X90940Y391942D01*
X90926D01*
X90912Y391956D01*
X90870Y391984D01*
X90828Y392012D01*
X90687Y392069D01*
X90489Y392153D01*
X90264Y392224D01*
X89982Y392294D01*
X89671Y392337D01*
X89333Y392351D01*
X89263D01*
X89178Y392337D01*
X89080D01*
X88939Y392322D01*
X88798Y392294D01*
X88628Y392252D01*
X88445Y392210D01*
X88248Y392139D01*
X88050Y392069D01*
X87853Y391970D01*
X87656Y391857D01*
X87458Y391730D01*
X87261Y391575D01*
X87078Y391392D01*
X86909Y391195D01*
X86894Y391181D01*
X86866Y391138D01*
X86824Y391082D01*
X86782Y390983D01*
X86711Y390870D01*
X86641Y390729D01*
X86570Y390560D01*
X86486Y390377D01*
X86401Y390151D01*
X86330Y389926D01*
X86260Y389658D01*
X86190Y389376D01*
X86147Y389066D01*
X86105Y388742D01*
X86077Y388389D01*
X86063Y388023D01*
Y387995D01*
Y387938D01*
Y387826D01*
X86077Y387685D01*
X86091Y387515D01*
X86105Y387318D01*
X86133Y387092D01*
X86175Y386853D01*
X86274Y386331D01*
X86345Y386063D01*
X86415Y385796D01*
X86514Y385528D01*
X86627Y385274D01*
X86753Y385020D01*
X86909Y384795D01*
X86923Y384781D01*
X86951Y384738D01*
X86993Y384682D01*
X87064Y384611D01*
X87148Y384527D01*
X87261Y384428D01*
X87388Y384315D01*
X87529Y384217D01*
X87684Y384104D01*
X87867Y383991D01*
X88064Y383892D01*
X88276Y383808D01*
X88502Y383737D01*
X88741Y383681D01*
X89009Y383639D01*
X89277Y383625D01*
X89375D01*
X89460Y383639D01*
X89545D01*
X89643Y383653D01*
X89897Y383695D01*
X90165Y383751D01*
X90461Y383836D01*
X90743Y383963D01*
X91011Y384132D01*
X91025D01*
X91039Y384160D01*
X91124Y384231D01*
X91250Y384343D01*
X91405Y384499D01*
X91560Y384710D01*
X91744Y384950D01*
X91899Y385232D01*
X92040Y385542D01*
X92886Y385147D01*
X92872Y385119D01*
X92843Y385048D01*
X92773Y384936D01*
X92688Y384781D01*
X92576Y384611D01*
X92435Y384414D01*
X92251Y384203D01*
X92054Y383991D01*
X91814Y383766D01*
X91560Y383554D01*
X91250Y383357D01*
X90926Y383188D01*
X90560Y383032D01*
X90151Y382920D01*
X89714Y382849D01*
X89235Y382821D01*
X89150D01*
X89051Y382835D01*
X88910Y382849D01*
X88755Y382863D01*
X88558Y382892D01*
X88346Y382934D01*
X88121Y382990D01*
X87881Y383061D01*
X87642Y383159D01*
X87388Y383272D01*
X87134Y383399D01*
X86880Y383568D01*
X86641Y383751D01*
X86401Y383963D01*
X86190Y384203D01*
X86175Y384217D01*
X86147Y384273D01*
X86091Y384343D01*
X86020Y384456D01*
X85936Y384597D01*
X85837Y384766D01*
X85738Y384978D01*
X85640Y385203D01*
X85541Y385471D01*
X85442Y385753D01*
X85344Y386063D01*
X85259Y386416D01*
X85189Y386782D01*
X85132Y387177D01*
X85104Y387586D01*
X85090Y388037D01*
Y388051D01*
Y388065D01*
Y388150D01*
X85104Y388277D01*
Y388432D01*
X85118Y388643D01*
X85146Y388883D01*
X85189Y389137D01*
X85231Y389418D01*
X85287Y389715D01*
X85358Y390025D01*
X85456Y390335D01*
X85555Y390659D01*
X85682Y390969D01*
X85837Y391265D01*
X86006Y391547D01*
X86204Y391815D01*
X86218Y391829D01*
X86260Y391871D01*
X86316Y391942D01*
X86415Y392026D01*
X86528Y392125D01*
X86669Y392238D01*
X86824Y392365D01*
X87021Y392492D01*
X87233Y392618D01*
X87458Y392745D01*
X87726Y392858D01*
X87994Y392957D01*
X88304Y393041D01*
X88628Y393112D01*
X88967Y393154D01*
X89333Y393168D01*
X89460D01*
X89545Y393154D01*
D02*
G37*
G36*
X97834Y383737D02*
X100033D01*
Y382976D01*
X94380D01*
Y383737D01*
X96946D01*
Y392083D01*
X94648Y390560D01*
Y391378D01*
X97030Y393013D01*
X97834D01*
Y383737D01*
D02*
G37*
G36*
X119025Y362674D02*
X119137D01*
X119264Y362660D01*
X119405Y362646D01*
X119560Y362618D01*
X119899Y362561D01*
X120265Y362463D01*
X120632Y362336D01*
X120970Y362167D01*
X120984D01*
X121012Y362138D01*
X121055Y362110D01*
X121111Y362068D01*
X121266Y361941D01*
X121463Y361772D01*
X121689Y361546D01*
X121915Y361264D01*
X122027Y361095D01*
X122126Y360926D01*
X122225Y360743D01*
X122323Y360531D01*
X121449Y360165D01*
Y360179D01*
X121435Y360207D01*
X121407Y360249D01*
X121379Y360306D01*
X121294Y360475D01*
X121181Y360672D01*
X121041Y360884D01*
X120857Y361095D01*
X120660Y361293D01*
X120420Y361462D01*
X120406D01*
X120392Y361476D01*
X120350Y361504D01*
X120308Y361532D01*
X120167Y361589D01*
X119969Y361673D01*
X119744Y361744D01*
X119462Y361814D01*
X119152Y361856D01*
X118813Y361871D01*
X118743D01*
X118658Y361856D01*
X118560D01*
X118419Y361842D01*
X118278Y361814D01*
X118108Y361772D01*
X117925Y361730D01*
X117728Y361659D01*
X117530Y361589D01*
X117333Y361490D01*
X117136Y361377D01*
X116938Y361250D01*
X116741Y361095D01*
X116558Y360912D01*
X116389Y360715D01*
X116374Y360701D01*
X116346Y360658D01*
X116304Y360602D01*
X116262Y360503D01*
X116191Y360390D01*
X116121Y360249D01*
X116050Y360080D01*
X115966Y359897D01*
X115881Y359672D01*
X115811Y359446D01*
X115740Y359178D01*
X115670Y358896D01*
X115627Y358586D01*
X115585Y358262D01*
X115557Y357909D01*
X115543Y357543D01*
Y357515D01*
Y357458D01*
Y357346D01*
X115557Y357205D01*
X115571Y357035D01*
X115585Y356838D01*
X115613Y356612D01*
X115655Y356373D01*
X115754Y355851D01*
X115825Y355583D01*
X115895Y355316D01*
X115994Y355048D01*
X116107Y354794D01*
X116234Y354540D01*
X116389Y354315D01*
X116403Y354300D01*
X116431Y354258D01*
X116473Y354202D01*
X116544Y354131D01*
X116628Y354047D01*
X116741Y353948D01*
X116868Y353835D01*
X117009Y353737D01*
X117164Y353624D01*
X117347Y353511D01*
X117544Y353412D01*
X117756Y353328D01*
X117982Y353257D01*
X118221Y353201D01*
X118489Y353159D01*
X118757Y353145D01*
X118855D01*
X118940Y353159D01*
X119025D01*
X119123Y353173D01*
X119377Y353215D01*
X119645Y353271D01*
X119941Y353356D01*
X120223Y353483D01*
X120491Y353652D01*
X120505D01*
X120519Y353680D01*
X120604Y353751D01*
X120730Y353863D01*
X120885Y354019D01*
X121041Y354230D01*
X121224Y354470D01*
X121379Y354752D01*
X121520Y355062D01*
X122366Y354667D01*
X122352Y354639D01*
X122323Y354568D01*
X122253Y354456D01*
X122168Y354300D01*
X122056Y354131D01*
X121915Y353934D01*
X121731Y353723D01*
X121534Y353511D01*
X121294Y353286D01*
X121041Y353074D01*
X120730Y352877D01*
X120406Y352708D01*
X120040Y352552D01*
X119631Y352440D01*
X119194Y352369D01*
X118715Y352341D01*
X118630D01*
X118531Y352355D01*
X118390Y352369D01*
X118235Y352383D01*
X118038Y352411D01*
X117826Y352454D01*
X117601Y352510D01*
X117361Y352581D01*
X117122Y352679D01*
X116868Y352792D01*
X116614Y352919D01*
X116360Y353088D01*
X116121Y353271D01*
X115881Y353483D01*
X115670Y353723D01*
X115655Y353737D01*
X115627Y353793D01*
X115571Y353863D01*
X115500Y353976D01*
X115416Y354117D01*
X115317Y354286D01*
X115218Y354498D01*
X115120Y354723D01*
X115021Y354991D01*
X114923Y355273D01*
X114824Y355583D01*
X114739Y355936D01*
X114669Y356302D01*
X114612Y356697D01*
X114584Y357106D01*
X114570Y357557D01*
Y357571D01*
Y357585D01*
Y357670D01*
X114584Y357797D01*
Y357952D01*
X114598Y358163D01*
X114626Y358403D01*
X114669Y358657D01*
X114711Y358938D01*
X114767Y359235D01*
X114838Y359545D01*
X114937Y359855D01*
X115035Y360179D01*
X115162Y360489D01*
X115317Y360785D01*
X115486Y361067D01*
X115684Y361335D01*
X115698Y361349D01*
X115740Y361391D01*
X115796Y361462D01*
X115895Y361546D01*
X116008Y361645D01*
X116149Y361758D01*
X116304Y361885D01*
X116501Y362012D01*
X116713Y362138D01*
X116938Y362265D01*
X117206Y362378D01*
X117474Y362477D01*
X117784Y362561D01*
X118108Y362632D01*
X118447Y362674D01*
X118813Y362688D01*
X118940D01*
X119025Y362674D01*
D02*
G37*
G36*
X126736D02*
X126848D01*
X126989Y362646D01*
X127130Y362632D01*
X127285Y362604D01*
X127624Y362519D01*
X127976Y362392D01*
X128160Y362308D01*
X128315Y362223D01*
X128484Y362110D01*
X128625Y361983D01*
X128639Y361969D01*
X128653Y361955D01*
X128695Y361913D01*
X128737Y361856D01*
X128808Y361786D01*
X128864Y361702D01*
X128935Y361603D01*
X129005Y361476D01*
X129076Y361349D01*
X129146Y361208D01*
X129217Y361039D01*
X129273Y360870D01*
X129316Y360672D01*
X129358Y360475D01*
X129372Y360249D01*
X129386Y360024D01*
Y360010D01*
Y359982D01*
Y359939D01*
X129372Y359869D01*
Y359798D01*
X129358Y359700D01*
X129316Y359488D01*
X129259Y359249D01*
X129160Y358981D01*
X129033Y358727D01*
X128850Y358473D01*
X128822Y358445D01*
X128752Y358375D01*
X128625Y358262D01*
X128470Y358135D01*
X128258Y357994D01*
X128005Y357853D01*
X127708Y357726D01*
X127370Y357627D01*
Y357599D01*
X127412D01*
X127469Y357585D01*
X127553Y357571D01*
X127638Y357557D01*
X127737Y357529D01*
X127976Y357458D01*
X128244Y357360D01*
X128526Y357219D01*
X128808Y357049D01*
X129048Y356824D01*
X129062D01*
X129076Y356796D01*
X129146Y356711D01*
X129245Y356570D01*
X129358Y356387D01*
X129457Y356161D01*
X129555Y355894D01*
X129626Y355583D01*
X129654Y355414D01*
Y355245D01*
Y355231D01*
Y355189D01*
Y355118D01*
X129640Y355019D01*
X129626Y354907D01*
X129612Y354766D01*
X129583Y354625D01*
X129555Y354456D01*
X129457Y354117D01*
X129386Y353934D01*
X129316Y353765D01*
X129217Y353582D01*
X129104Y353412D01*
X128977Y353257D01*
X128836Y353102D01*
X128822Y353088D01*
X128794Y353074D01*
X128752Y353032D01*
X128681Y352990D01*
X128596Y352933D01*
X128498Y352863D01*
X128385Y352792D01*
X128244Y352722D01*
X128089Y352651D01*
X127920Y352581D01*
X127723Y352524D01*
X127525Y352454D01*
X127300Y352411D01*
X127060Y352369D01*
X126806Y352355D01*
X126538Y352341D01*
X126412D01*
X126271Y352355D01*
X126087Y352383D01*
X125862Y352426D01*
X125622Y352482D01*
X125354Y352552D01*
X125072Y352665D01*
X124790Y352806D01*
X124508Y352975D01*
X124241Y353187D01*
X124001Y353441D01*
X123775Y353737D01*
X123592Y354075D01*
X123522Y354272D01*
X123451Y354484D01*
X123409Y354695D01*
X123367Y354935D01*
X124283Y355048D01*
Y355019D01*
X124297Y354963D01*
X124325Y354864D01*
X124353Y354752D01*
X124396Y354597D01*
X124466Y354441D01*
X124551Y354258D01*
X124649Y354089D01*
X124790Y353906D01*
X124945Y353723D01*
X125129Y353568D01*
X125340Y353412D01*
X125580Y353300D01*
X125862Y353201D01*
X126186Y353145D01*
X126538Y353116D01*
X126637D01*
X126707Y353130D01*
X126806D01*
X126905Y353145D01*
X127145Y353187D01*
X127398Y353243D01*
X127666Y353342D01*
X127934Y353469D01*
X128160Y353652D01*
X128188Y353680D01*
X128244Y353751D01*
X128343Y353878D01*
X128441Y354047D01*
X128540Y354272D01*
X128639Y354554D01*
X128695Y354879D01*
X128723Y355245D01*
Y355259D01*
Y355287D01*
Y355330D01*
X128709Y355400D01*
X128695Y355569D01*
X128639Y355781D01*
X128554Y356006D01*
X128441Y356246D01*
X128272Y356486D01*
X128160Y356584D01*
X128047Y356683D01*
X128033D01*
X128019Y356711D01*
X127976Y356725D01*
X127920Y356768D01*
X127864Y356796D01*
X127779Y356838D01*
X127680Y356880D01*
X127568Y356937D01*
X127441Y356979D01*
X127300Y357021D01*
X126975Y357106D01*
X126595Y357162D01*
X126172Y357176D01*
X125495D01*
Y358008D01*
X126271D01*
X126397Y358022D01*
X126552Y358036D01*
X126736Y358064D01*
X126933Y358093D01*
X127145Y358149D01*
X127342Y358219D01*
X127370Y358234D01*
X127427Y358262D01*
X127525Y358318D01*
X127638Y358389D01*
X127765Y358473D01*
X127906Y358586D01*
X128047Y358713D01*
X128160Y358868D01*
X128174Y358882D01*
X128202Y358952D01*
X128258Y359037D01*
X128315Y359164D01*
X128371Y359319D01*
X128427Y359502D01*
X128456Y359714D01*
X128470Y359939D01*
Y359953D01*
Y359982D01*
Y360024D01*
X128456Y360094D01*
Y360179D01*
X128441Y360264D01*
X128413Y360475D01*
X128343Y360715D01*
X128258Y360954D01*
X128131Y361194D01*
X127962Y361405D01*
X127934Y361434D01*
X127878Y361490D01*
X127751Y361575D01*
X127596Y361673D01*
X127398Y361758D01*
X127145Y361842D01*
X126848Y361899D01*
X126510Y361927D01*
X126369D01*
X126200Y361899D01*
X126003Y361871D01*
X125777Y361814D01*
X125538Y361744D01*
X125312Y361631D01*
X125086Y361476D01*
X125058Y361462D01*
X125002Y361391D01*
X124917Y361279D01*
X124804Y361138D01*
X124692Y360940D01*
X124593Y360715D01*
X124508Y360433D01*
X124452Y360108D01*
X123564Y360179D01*
Y360193D01*
X123578Y360235D01*
Y360292D01*
X123592Y360376D01*
X123620Y360475D01*
X123649Y360588D01*
X123719Y360856D01*
X123846Y361152D01*
X124001Y361462D01*
X124198Y361758D01*
X124325Y361899D01*
X124466Y362026D01*
X124480Y362040D01*
X124508Y362054D01*
X124551Y362082D01*
X124607Y362124D01*
X124692Y362181D01*
X124776Y362237D01*
X124889Y362294D01*
X125016Y362364D01*
X125157Y362420D01*
X125312Y362477D01*
X125664Y362590D01*
X126059Y362660D01*
X126285Y362688D01*
X126637D01*
X126736Y362674D01*
D02*
G37*
%LPC*%
G36*
X46921Y392238D02*
X45089D01*
Y388051D01*
X47090D01*
X47175Y388065D01*
X47274D01*
X47386Y388079D01*
X47654Y388121D01*
X47950Y388192D01*
X48260Y388277D01*
X48556Y388418D01*
X48824Y388601D01*
X48838D01*
X48853Y388629D01*
X48923Y388699D01*
X49036Y388826D01*
X49163Y389010D01*
X49275Y389235D01*
X49388Y389503D01*
X49459Y389827D01*
X49487Y389996D01*
Y390180D01*
Y390194D01*
Y390222D01*
Y390278D01*
X49473Y390349D01*
Y390419D01*
X49459Y390518D01*
X49402Y390744D01*
X49318Y390983D01*
X49205Y391237D01*
X49036Y391477D01*
X48923Y391604D01*
X48810Y391702D01*
X48796D01*
X48782Y391730D01*
X48740Y391759D01*
X48683Y391787D01*
X48613Y391829D01*
X48542Y391871D01*
X48444Y391914D01*
X48331Y391970D01*
X48204Y392026D01*
X48063Y392069D01*
X47739Y392153D01*
X47358Y392210D01*
X46921Y392238D01*
D02*
G37*
G36*
X141301Y67118D02*
X139469D01*
Y62931D01*
X141470D01*
X141555Y62945D01*
X141654D01*
X141766Y62959D01*
X142034Y63001D01*
X142330Y63072D01*
X142640Y63157D01*
X142936Y63298D01*
X143204Y63481D01*
X143218D01*
X143232Y63509D01*
X143303Y63580D01*
X143416Y63706D01*
X143543Y63890D01*
X143655Y64115D01*
X143768Y64383D01*
X143839Y64707D01*
X143867Y64876D01*
Y65060D01*
Y65074D01*
Y65102D01*
Y65158D01*
X143853Y65229D01*
Y65299D01*
X143839Y65398D01*
X143782Y65624D01*
X143698Y65863D01*
X143585Y66117D01*
X143416Y66357D01*
X143303Y66483D01*
X143190Y66582D01*
X143176D01*
X143162Y66610D01*
X143120Y66639D01*
X143063Y66667D01*
X142993Y66709D01*
X142922Y66751D01*
X142824Y66794D01*
X142711Y66850D01*
X142584Y66906D01*
X142443Y66949D01*
X142119Y67033D01*
X141738Y67090D01*
X141301Y67118D01*
D02*
G37*
G36*
X49781Y168718D02*
X47949D01*
Y164531D01*
X49950D01*
X50035Y164545D01*
X50134D01*
X50246Y164559D01*
X50514Y164601D01*
X50810Y164672D01*
X51120Y164757D01*
X51417Y164898D01*
X51684Y165081D01*
X51698D01*
X51712Y165109D01*
X51783Y165180D01*
X51896Y165306D01*
X52023Y165490D01*
X52135Y165715D01*
X52248Y165983D01*
X52319Y166307D01*
X52347Y166476D01*
Y166660D01*
Y166674D01*
Y166702D01*
Y166758D01*
X52333Y166829D01*
Y166899D01*
X52319Y166998D01*
X52262Y167224D01*
X52178Y167463D01*
X52065Y167717D01*
X51896Y167957D01*
X51783Y168083D01*
X51670Y168182D01*
X51656D01*
X51642Y168210D01*
X51600Y168239D01*
X51543Y168267D01*
X51473Y168309D01*
X51402Y168351D01*
X51304Y168394D01*
X51191Y168450D01*
X51064Y168506D01*
X50923Y168549D01*
X50599Y168633D01*
X50218Y168690D01*
X49781Y168718D01*
D02*
G37*
G36*
X57901Y168929D02*
X57817D01*
X57746Y168915D01*
X57577Y168901D01*
X57379Y168873D01*
X57140Y168802D01*
X56900Y168718D01*
X56675Y168605D01*
X56463Y168436D01*
X56449Y168408D01*
X56393Y168351D01*
X56308Y168239D01*
X56224Y168083D01*
X56125Y167886D01*
X56054Y167647D01*
X55998Y167379D01*
X55970Y167054D01*
Y167040D01*
Y167012D01*
Y166970D01*
X55984Y166899D01*
X55998Y166744D01*
X56040Y166533D01*
X56097Y166307D01*
X56181Y166068D01*
X56308Y165828D01*
X56477Y165616D01*
X56505Y165588D01*
X56576Y165532D01*
X56689Y165447D01*
X56858Y165363D01*
X57055Y165264D01*
X57309Y165180D01*
X57605Y165123D01*
X57929Y165095D01*
X58014D01*
X58084Y165109D01*
X58253Y165123D01*
X58465Y165165D01*
X58705Y165222D01*
X58944Y165306D01*
X59170Y165433D01*
X59381Y165602D01*
X59409Y165631D01*
X59466Y165701D01*
X59536Y165814D01*
X59635Y165969D01*
X59734Y166180D01*
X59804Y166434D01*
X59861Y166716D01*
X59889Y167054D01*
Y167069D01*
Y167097D01*
Y167139D01*
X59875Y167209D01*
X59861Y167379D01*
X59818Y167576D01*
X59762Y167801D01*
X59663Y168041D01*
X59536Y168253D01*
X59367Y168450D01*
X59339Y168464D01*
X59268Y168521D01*
X59156Y168605D01*
X59001Y168690D01*
X58789Y168774D01*
X58535Y168859D01*
X58239Y168915D01*
X57901Y168929D01*
D02*
G37*
G36*
X57915Y164362D02*
X57817D01*
X57746Y164348D01*
X57661D01*
X57563Y164334D01*
X57337Y164291D01*
X57084Y164221D01*
X56816Y164122D01*
X56562Y163981D01*
X56322Y163784D01*
X56294Y163756D01*
X56238Y163685D01*
X56139Y163558D01*
X56040Y163389D01*
X55928Y163164D01*
X55829Y162910D01*
X55772Y162614D01*
X55744Y162276D01*
Y162261D01*
Y162233D01*
Y162177D01*
X55758Y162092D01*
Y162008D01*
X55772Y161895D01*
X55815Y161655D01*
X55885Y161387D01*
X55984Y161105D01*
X56125Y160838D01*
X56308Y160598D01*
X56336Y160570D01*
X56407Y160513D01*
X56548Y160415D01*
X56731Y160316D01*
X56957Y160203D01*
X57238Y160105D01*
X57577Y160048D01*
X57958Y160020D01*
X58056D01*
X58141Y160034D01*
X58225D01*
X58324Y160048D01*
X58564Y160091D01*
X58832Y160161D01*
X59099Y160260D01*
X59353Y160401D01*
X59579Y160598D01*
X59607Y160626D01*
X59663Y160711D01*
X59748Y160838D01*
X59861Y161035D01*
X59959Y161275D01*
X60044Y161557D01*
X60100Y161909D01*
X60128Y162304D01*
Y162318D01*
Y162346D01*
Y162402D01*
X60114Y162459D01*
Y162543D01*
X60100Y162642D01*
X60058Y162854D01*
X59987Y163093D01*
X59889Y163347D01*
X59748Y163587D01*
X59550Y163812D01*
X59522Y163840D01*
X59438Y163897D01*
X59311Y163981D01*
X59127Y164094D01*
X58902Y164193D01*
X58620Y164277D01*
X58296Y164334D01*
X57915Y164362D01*
D02*
G37*
G36*
X49781Y219518D02*
X47949D01*
Y215331D01*
X49950D01*
X50035Y215345D01*
X50134D01*
X50246Y215359D01*
X50514Y215401D01*
X50810Y215472D01*
X51120Y215557D01*
X51417Y215698D01*
X51684Y215881D01*
X51698D01*
X51712Y215909D01*
X51783Y215979D01*
X51896Y216106D01*
X52023Y216290D01*
X52135Y216515D01*
X52248Y216783D01*
X52319Y217107D01*
X52347Y217276D01*
Y217460D01*
Y217474D01*
Y217502D01*
Y217558D01*
X52333Y217629D01*
Y217699D01*
X52319Y217798D01*
X52262Y218024D01*
X52178Y218263D01*
X52065Y218517D01*
X51896Y218757D01*
X51783Y218883D01*
X51670Y218982D01*
X51656D01*
X51642Y219010D01*
X51600Y219039D01*
X51543Y219067D01*
X51473Y219109D01*
X51402Y219151D01*
X51304Y219194D01*
X51191Y219250D01*
X51064Y219306D01*
X50923Y219349D01*
X50599Y219433D01*
X50218Y219490D01*
X49781Y219518D01*
D02*
G37*
G36*
X109744Y168295D02*
X106121Y162600D01*
X109744D01*
Y168295D01*
D02*
G37*
G36*
X100581Y168718D02*
X98749D01*
Y164531D01*
X100750D01*
X100835Y164545D01*
X100934D01*
X101046Y164559D01*
X101314Y164601D01*
X101610Y164672D01*
X101920Y164757D01*
X102217Y164898D01*
X102484Y165081D01*
X102498D01*
X102513Y165109D01*
X102583Y165180D01*
X102696Y165306D01*
X102823Y165490D01*
X102935Y165715D01*
X103048Y165983D01*
X103119Y166307D01*
X103147Y166476D01*
Y166660D01*
Y166674D01*
Y166702D01*
Y166758D01*
X103133Y166829D01*
Y166899D01*
X103119Y166998D01*
X103062Y167224D01*
X102978Y167463D01*
X102865Y167717D01*
X102696Y167957D01*
X102583Y168083D01*
X102470Y168182D01*
X102456D01*
X102442Y168210D01*
X102400Y168239D01*
X102343Y168267D01*
X102273Y168309D01*
X102202Y168351D01*
X102104Y168394D01*
X101991Y168450D01*
X101864Y168506D01*
X101723Y168549D01*
X101399Y168633D01*
X101018Y168690D01*
X100581Y168718D01*
D02*
G37*
G36*
X134383Y215951D02*
X134101D01*
X133988Y215937D01*
X133847Y215923D01*
X133692Y215881D01*
X133509Y215839D01*
X133326Y215768D01*
X133142Y215683D01*
X133128Y215669D01*
X133058Y215641D01*
X132973Y215571D01*
X132875Y215486D01*
X132748Y215373D01*
X132621Y215247D01*
X132508Y215091D01*
X132395Y214922D01*
X132381Y214894D01*
X132353Y214838D01*
X132311Y214739D01*
X132268Y214598D01*
X132212Y214429D01*
X132170Y214246D01*
X132142Y214020D01*
X132128Y213794D01*
Y213780D01*
Y213738D01*
Y213668D01*
X132142Y213583D01*
Y213470D01*
X132156Y213343D01*
X132170Y213202D01*
X132198Y213047D01*
X132268Y212709D01*
X132367Y212357D01*
X132508Y212004D01*
X132705Y211680D01*
X132720Y211666D01*
X132734Y211652D01*
X132762Y211609D01*
X132818Y211553D01*
X132945Y211426D01*
X133114Y211271D01*
X133340Y211116D01*
X133608Y210989D01*
X133749Y210933D01*
X133904Y210905D01*
X134073Y210876D01*
X134242Y210862D01*
X134341D01*
X134411Y210876D01*
X134482Y210891D01*
X134580Y210905D01*
X134806Y210947D01*
X135046Y211031D01*
X135313Y211158D01*
X135426Y211229D01*
X135553Y211327D01*
X135666Y211426D01*
X135779Y211553D01*
Y211567D01*
X135807Y211581D01*
X135835Y211623D01*
X135863Y211680D01*
X135906Y211750D01*
X135948Y211835D01*
X136004Y211934D01*
X136061Y212046D01*
X136103Y212187D01*
X136159Y212328D01*
X136244Y212653D01*
X136300Y213033D01*
X136328Y213470D01*
Y213484D01*
Y213527D01*
Y213583D01*
X136314Y213668D01*
Y213752D01*
X136300Y213865D01*
X136258Y214133D01*
X136187Y214429D01*
X136089Y214725D01*
X135948Y215021D01*
X135765Y215289D01*
Y215303D01*
X135736Y215317D01*
X135666Y215387D01*
X135539Y215500D01*
X135370Y215627D01*
X135144Y215740D01*
X134876Y215853D01*
X134552Y215923D01*
X134383Y215951D01*
D02*
G37*
G36*
X125981Y219518D02*
X124149D01*
Y215331D01*
X126150D01*
X126235Y215345D01*
X126334D01*
X126446Y215359D01*
X126714Y215401D01*
X127010Y215472D01*
X127320Y215557D01*
X127617Y215698D01*
X127884Y215881D01*
X127898D01*
X127913Y215909D01*
X127983Y215979D01*
X128096Y216106D01*
X128223Y216290D01*
X128335Y216515D01*
X128448Y216783D01*
X128519Y217107D01*
X128547Y217276D01*
Y217460D01*
Y217474D01*
Y217502D01*
Y217558D01*
X128533Y217629D01*
Y217699D01*
X128519Y217798D01*
X128462Y218024D01*
X128378Y218263D01*
X128265Y218517D01*
X128096Y218757D01*
X127983Y218883D01*
X127870Y218982D01*
X127856D01*
X127842Y219010D01*
X127800Y219039D01*
X127743Y219067D01*
X127673Y219109D01*
X127602Y219151D01*
X127504Y219194D01*
X127391Y219250D01*
X127264Y219306D01*
X127123Y219349D01*
X126799Y219433D01*
X126418Y219490D01*
X125981Y219518D01*
D02*
G37*
G36*
X100581D02*
X98749D01*
Y215331D01*
X100750D01*
X100835Y215345D01*
X100934D01*
X101046Y215359D01*
X101314Y215401D01*
X101610Y215472D01*
X101920Y215557D01*
X102217Y215698D01*
X102484Y215881D01*
X102498D01*
X102513Y215909D01*
X102583Y215979D01*
X102696Y216106D01*
X102823Y216290D01*
X102935Y216515D01*
X103048Y216783D01*
X103119Y217107D01*
X103147Y217276D01*
Y217460D01*
Y217474D01*
Y217502D01*
Y217558D01*
X103133Y217629D01*
Y217699D01*
X103119Y217798D01*
X103062Y218024D01*
X102978Y218263D01*
X102865Y218517D01*
X102696Y218757D01*
X102583Y218883D01*
X102470Y218982D01*
X102456D01*
X102442Y219010D01*
X102400Y219039D01*
X102343Y219067D01*
X102273Y219109D01*
X102202Y219151D01*
X102104Y219194D01*
X101991Y219250D01*
X101864Y219306D01*
X101723Y219349D01*
X101399Y219433D01*
X101018Y219490D01*
X100581Y219518D01*
D02*
G37*
G36*
X83231Y219687D02*
X83132D01*
X83061Y219673D01*
X82991D01*
X82892Y219659D01*
X82667Y219602D01*
X82427Y219518D01*
X82173Y219405D01*
X81920Y219236D01*
X81807Y219123D01*
X81694Y219010D01*
Y218996D01*
X81666Y218982D01*
X81652Y218940D01*
X81609Y218883D01*
X81567Y218813D01*
X81525Y218728D01*
X81483Y218630D01*
X81426Y218531D01*
X81327Y218263D01*
X81243Y217939D01*
X81187Y217572D01*
X81158Y217150D01*
Y217136D01*
Y217093D01*
Y217037D01*
X81172Y216952D01*
Y216839D01*
X81187Y216727D01*
X81229Y216459D01*
X81285Y216149D01*
X81384Y215824D01*
X81511Y215528D01*
X81694Y215247D01*
Y215232D01*
X81722Y215218D01*
X81793Y215148D01*
X81920Y215035D01*
X82089Y214908D01*
X82314Y214781D01*
X82568Y214683D01*
X82878Y214598D01*
X83033Y214584D01*
X83216Y214570D01*
X83315D01*
X83372Y214584D01*
X83456D01*
X83555Y214598D01*
X83766Y214654D01*
X84020Y214725D01*
X84274Y214838D01*
X84528Y214993D01*
X84654Y215077D01*
X84767Y215190D01*
X84781Y215204D01*
X84795Y215218D01*
X84866Y215303D01*
X84950Y215444D01*
X85063Y215627D01*
X85176Y215867D01*
X85261Y216149D01*
X85331Y216473D01*
X85359Y216825D01*
Y216839D01*
Y216882D01*
Y216952D01*
X85345Y217037D01*
Y217150D01*
X85331Y217276D01*
X85317Y217417D01*
X85289Y217572D01*
X85218Y217897D01*
X85105Y218249D01*
X84965Y218587D01*
X84767Y218898D01*
Y218912D01*
X84739Y218926D01*
X84654Y219025D01*
X84528Y219151D01*
X84358Y219292D01*
X84133Y219433D01*
X83865Y219560D01*
X83569Y219659D01*
X83400Y219673D01*
X83231Y219687D01*
D02*
G37*
G36*
X75181Y219518D02*
X73349D01*
Y215331D01*
X75350D01*
X75435Y215345D01*
X75534D01*
X75646Y215359D01*
X75914Y215401D01*
X76210Y215472D01*
X76520Y215557D01*
X76817Y215698D01*
X77084Y215881D01*
X77098D01*
X77112Y215909D01*
X77183Y215979D01*
X77296Y216106D01*
X77423Y216290D01*
X77535Y216515D01*
X77648Y216783D01*
X77719Y217107D01*
X77747Y217276D01*
Y217460D01*
Y217474D01*
Y217502D01*
Y217558D01*
X77733Y217629D01*
Y217699D01*
X77719Y217798D01*
X77662Y218024D01*
X77578Y218263D01*
X77465Y218517D01*
X77296Y218757D01*
X77183Y218883D01*
X77070Y218982D01*
X77056D01*
X77042Y219010D01*
X77000Y219039D01*
X76943Y219067D01*
X76873Y219109D01*
X76802Y219151D01*
X76704Y219194D01*
X76591Y219250D01*
X76464Y219306D01*
X76323Y219349D01*
X75999Y219433D01*
X75618Y219490D01*
X75181Y219518D01*
D02*
G37*
G36*
X49781Y266508D02*
X47949D01*
Y262321D01*
X49950D01*
X50035Y262335D01*
X50134D01*
X50246Y262349D01*
X50514Y262391D01*
X50810Y262462D01*
X51120Y262547D01*
X51417Y262688D01*
X51684Y262871D01*
X51698D01*
X51712Y262899D01*
X51783Y262969D01*
X51896Y263096D01*
X52023Y263280D01*
X52135Y263505D01*
X52248Y263773D01*
X52319Y264097D01*
X52347Y264266D01*
Y264450D01*
Y264464D01*
Y264492D01*
Y264548D01*
X52333Y264619D01*
Y264689D01*
X52319Y264788D01*
X52262Y265014D01*
X52178Y265253D01*
X52065Y265507D01*
X51896Y265747D01*
X51783Y265874D01*
X51670Y265972D01*
X51656D01*
X51642Y266000D01*
X51600Y266029D01*
X51543Y266057D01*
X51473Y266099D01*
X51402Y266141D01*
X51304Y266184D01*
X51191Y266240D01*
X51064Y266296D01*
X50923Y266339D01*
X50599Y266423D01*
X50218Y266480D01*
X49781Y266508D01*
D02*
G37*
G36*
X94751Y45811D02*
X94666D01*
X94581Y45796D01*
X94455D01*
X94300Y45782D01*
X94130Y45754D01*
X93933Y45712D01*
X93722Y45670D01*
X93510Y45613D01*
X93271Y45529D01*
X93045Y45444D01*
X92819Y45331D01*
X92580Y45205D01*
X92368Y45049D01*
X92157Y44866D01*
X91959Y44669D01*
X91945Y44655D01*
X91917Y44612D01*
X91875Y44556D01*
X91804Y44457D01*
X91734Y44345D01*
X91649Y44204D01*
X91565Y44034D01*
X91466Y43837D01*
X91382Y43626D01*
X91283Y43386D01*
X91198Y43132D01*
X91128Y42850D01*
X91057Y42540D01*
X91015Y42202D01*
X90987Y41849D01*
X90973Y41483D01*
Y41455D01*
Y41398D01*
Y41286D01*
X90987Y41144D01*
X91001Y40975D01*
X91029Y40778D01*
X91057Y40552D01*
X91100Y40327D01*
X91156Y40073D01*
X91212Y39805D01*
X91297Y39537D01*
X91396Y39270D01*
X91508Y39002D01*
X91649Y38748D01*
X91804Y38494D01*
X91974Y38269D01*
X91988Y38255D01*
X92016Y38212D01*
X92072Y38156D01*
X92157Y38085D01*
X92270Y38001D01*
X92382Y37888D01*
X92537Y37789D01*
X92707Y37677D01*
X92890Y37564D01*
X93101Y37465D01*
X93327Y37366D01*
X93567Y37268D01*
X93834Y37197D01*
X94116Y37141D01*
X94412Y37099D01*
X94737Y37085D01*
X94821D01*
X94906Y37099D01*
X95033D01*
X95188Y37127D01*
X95357Y37141D01*
X95554Y37183D01*
X95766Y37226D01*
X95977Y37296D01*
X96217Y37366D01*
X96442Y37465D01*
X96682Y37578D01*
X96908Y37705D01*
X97119Y37860D01*
X97330Y38043D01*
X97528Y38240D01*
X97542Y38255D01*
X97570Y38297D01*
X97612Y38367D01*
X97683Y38452D01*
X97753Y38579D01*
X97838Y38720D01*
X97937Y38889D01*
X98021Y39086D01*
X98120Y39298D01*
X98204Y39552D01*
X98289Y39819D01*
X98359Y40101D01*
X98430Y40412D01*
X98472Y40750D01*
X98500Y41102D01*
X98515Y41483D01*
Y41511D01*
Y41567D01*
Y41680D01*
X98500Y41821D01*
X98486Y41990D01*
X98458Y42188D01*
X98430Y42399D01*
X98388Y42639D01*
X98331Y42878D01*
X98275Y43146D01*
X98190Y43414D01*
X98092Y43668D01*
X97979Y43936D01*
X97838Y44190D01*
X97697Y44429D01*
X97514Y44655D01*
X97500Y44669D01*
X97471Y44711D01*
X97415Y44767D01*
X97330Y44838D01*
X97232Y44922D01*
X97105Y45021D01*
X96964Y45120D01*
X96795Y45233D01*
X96611Y45345D01*
X96400Y45444D01*
X96174Y45543D01*
X95935Y45627D01*
X95667Y45698D01*
X95385Y45768D01*
X95075Y45796D01*
X94751Y45811D01*
D02*
G37*
G36*
X138625Y34056D02*
X136849D01*
Y25654D01*
X138963D01*
X139062Y25668D01*
X139189D01*
X139344Y25682D01*
X139513Y25710D01*
X139724Y25752D01*
X139936Y25795D01*
X140161Y25851D01*
X140401Y25936D01*
X140641Y26020D01*
X140880Y26133D01*
X141120Y26260D01*
X141346Y26415D01*
X141571Y26584D01*
X141768Y26781D01*
X141783Y26796D01*
X141811Y26838D01*
X141867Y26894D01*
X141938Y26993D01*
X142008Y27106D01*
X142093Y27247D01*
X142191Y27416D01*
X142290Y27599D01*
X142389Y27811D01*
X142487Y28050D01*
X142572Y28318D01*
X142642Y28600D01*
X142713Y28896D01*
X142769Y29234D01*
X142797Y29587D01*
X142812Y29953D01*
Y29967D01*
Y29996D01*
Y30052D01*
X142797Y30137D01*
Y30221D01*
X142783Y30334D01*
X142769Y30461D01*
X142741Y30602D01*
X142685Y30912D01*
X142586Y31250D01*
X142459Y31617D01*
X142290Y32011D01*
X142065Y32392D01*
X141938Y32575D01*
X141797Y32759D01*
X141628Y32942D01*
X141458Y33111D01*
X141261Y33266D01*
X141049Y33421D01*
X140810Y33548D01*
X140570Y33675D01*
X140302Y33788D01*
X140006Y33886D01*
X139696Y33957D01*
X139358Y34013D01*
X139005Y34042D01*
X138625Y34056D01*
D02*
G37*
G36*
X86960Y302915D02*
X83337Y297220D01*
X86960D01*
Y302915D01*
D02*
G37*
G36*
X135469Y165151D02*
X135187D01*
X135074Y165137D01*
X134933Y165123D01*
X134778Y165081D01*
X134594Y165039D01*
X134411Y164968D01*
X134228Y164883D01*
X134214Y164869D01*
X134143Y164841D01*
X134059Y164771D01*
X133960Y164686D01*
X133833Y164573D01*
X133706Y164447D01*
X133594Y164291D01*
X133481Y164122D01*
X133467Y164094D01*
X133439Y164038D01*
X133396Y163939D01*
X133354Y163798D01*
X133298Y163629D01*
X133255Y163446D01*
X133227Y163220D01*
X133213Y162994D01*
Y162980D01*
Y162938D01*
Y162868D01*
X133227Y162783D01*
Y162670D01*
X133241Y162543D01*
X133255Y162402D01*
X133284Y162247D01*
X133354Y161909D01*
X133453Y161557D01*
X133594Y161204D01*
X133791Y160880D01*
X133805Y160866D01*
X133819Y160852D01*
X133847Y160809D01*
X133904Y160753D01*
X134031Y160626D01*
X134200Y160471D01*
X134425Y160316D01*
X134693Y160189D01*
X134834Y160133D01*
X134989Y160105D01*
X135158Y160076D01*
X135328Y160062D01*
X135426D01*
X135497Y160076D01*
X135567Y160091D01*
X135666Y160105D01*
X135891Y160147D01*
X136131Y160231D01*
X136399Y160358D01*
X136512Y160429D01*
X136638Y160527D01*
X136751Y160626D01*
X136864Y160753D01*
Y160767D01*
X136892Y160781D01*
X136920Y160823D01*
X136949Y160880D01*
X136991Y160950D01*
X137033Y161035D01*
X137090Y161134D01*
X137146Y161246D01*
X137188Y161387D01*
X137245Y161528D01*
X137329Y161853D01*
X137386Y162233D01*
X137414Y162670D01*
Y162684D01*
Y162727D01*
Y162783D01*
X137400Y162868D01*
Y162952D01*
X137386Y163065D01*
X137343Y163333D01*
X137273Y163629D01*
X137174Y163925D01*
X137033Y164221D01*
X136850Y164489D01*
Y164503D01*
X136822Y164517D01*
X136751Y164587D01*
X136624Y164700D01*
X136455Y164827D01*
X136230Y164940D01*
X135962Y165053D01*
X135638Y165123D01*
X135469Y165151D01*
D02*
G37*
%LPD*%
D10*
X73860Y281480D02*
G03*
X78860Y276480I5000J0D01*
G01*
Y292480D02*
G03*
X73860Y287480I0J-5000D01*
G01*
X103860Y287480D02*
G03*
X98860Y292480I-5000J0D01*
G01*
Y276480D02*
G03*
X103860Y281480I0J5000D01*
G01*
X131510Y74280D02*
G03*
X136510Y79280I0J5000D01*
G01*
X120510D02*
G03*
X125510Y74280I5000J0D01*
G01*
X125510Y104280D02*
G03*
X120510Y99280I0J-5000D01*
G01*
X136510D02*
G03*
X131510Y104280I-5000J0D01*
G01*
X83010Y127620D02*
G03*
X88010Y132620I0J5000D01*
G01*
X72010D02*
G03*
X77010Y127620I5000J0D01*
G01*
X77010Y157620D02*
G03*
X72010Y152620I0J-5000D01*
G01*
X88010D02*
G03*
X83010Y157620I-5000J0D01*
G01*
X134064Y127620D02*
G03*
X139064Y132620I0J5000D01*
G01*
X123064D02*
G03*
X128064Y127620I5000J0D01*
G01*
X128064Y157620D02*
G03*
X123064Y152620I0J-5000D01*
G01*
X139064D02*
G03*
X134064Y157620I-5000J0D01*
G01*
X151510Y376380D02*
G03*
X146510Y381380I-5000J0D01*
G01*
Y365380D02*
G03*
X151510Y370380I0J5000D01*
G01*
X121510Y370380D02*
G03*
X126510Y365380I5000J0D01*
G01*
Y381380D02*
G03*
X121510Y376380I0J-5000D01*
G01*
X114950Y376380D02*
G03*
X109950Y381380I-5000J0D01*
G01*
Y365380D02*
G03*
X114950Y370380I0J5000D01*
G01*
X84950Y370380D02*
G03*
X89950Y365380I5000J0D01*
G01*
Y381380D02*
G03*
X84950Y376380I0J-5000D01*
G01*
X145430Y345900D02*
G03*
X140430Y350900I-5000J0D01*
G01*
Y334900D02*
G03*
X145430Y339900I0J5000D01*
G01*
X115430Y339900D02*
G03*
X120430Y334900I5000J0D01*
G01*
Y350900D02*
G03*
X115430Y345900I0J-5000D01*
G01*
X73860Y281480D02*
Y287480D01*
X78860Y276480D02*
X84860D01*
X78860Y292480D02*
X84860D01*
X103860Y281480D02*
Y287480D01*
X92860Y292480D02*
X98860D01*
X92860Y276480D02*
X98860D01*
X125510Y74280D02*
X131510D01*
X136510Y79280D02*
Y85280D01*
X120510Y79280D02*
Y85280D01*
X125510Y104280D02*
X131510D01*
X120510Y93280D02*
Y99280D01*
X136510Y93280D02*
Y99280D01*
X77010Y127620D02*
X83010D01*
X88010Y132620D02*
Y138620D01*
X72010Y132620D02*
Y138620D01*
X77010Y157620D02*
X83010D01*
X72010Y146620D02*
Y152620D01*
X88010Y146620D02*
Y152620D01*
X128064Y127620D02*
X134064D01*
X139064Y132620D02*
Y138620D01*
X123064Y132620D02*
Y138620D01*
X128064Y157620D02*
X134064D01*
X123064Y146620D02*
Y152620D01*
X139064Y146620D02*
Y152620D01*
X151510Y370380D02*
Y376380D01*
X140510Y381380D02*
X146510D01*
X140510Y365380D02*
X146510D01*
X121510Y370380D02*
Y376380D01*
X126510Y365380D02*
X132510D01*
X126510Y381380D02*
X132510D01*
X114950Y370380D02*
Y376380D01*
X103950Y381380D02*
X109950D01*
X103950Y365380D02*
X109950D01*
X84950Y370380D02*
Y376380D01*
X89950Y365380D02*
X95950D01*
X89950Y381380D02*
X95950D01*
X145430Y339900D02*
Y345900D01*
X134430Y350900D02*
X140430D01*
X134430Y334900D02*
X140430D01*
X115430Y339900D02*
Y345900D01*
X120430Y334900D02*
X126430D01*
X120430Y350900D02*
X126430D01*
X131930Y228600D02*
Y251460D01*
Y226060D02*
Y248920D01*
X78590Y251460D02*
X131930D01*
X74780Y247650D02*
X78590Y251460D01*
Y226060D02*
X131930D01*
X74780Y229870D02*
X78590Y226060D01*
X74780Y229870D02*
Y247650D01*
X36830Y345440D02*
X59690D01*
X39370D02*
X62230D01*
X36830Y292100D02*
Y345440D01*
Y292100D02*
X40640Y288290D01*
X62230Y292100D02*
Y345440D01*
X58420Y288290D02*
X62230Y292100D01*
X40640Y288290D02*
X58420D01*
X118010Y287730D02*
Y303730D01*
X149010Y287730D02*
Y303730D01*
X118010Y287730D02*
X149010D01*
X118010Y303730D02*
X149010D01*
X111360Y74460D02*
Y94460D01*
X61360Y74460D02*
Y94460D01*
X3810Y388620D02*
X29210D01*
X3810Y7620D02*
X29210D01*
X3810D02*
Y26670D01*
Y388620D01*
X29210Y7620D02*
Y388620D01*
X156210D02*
X181610D01*
X156210Y7620D02*
X181610D01*
X156210D02*
Y26670D01*
Y388620D01*
X181610Y7620D02*
Y388620D01*
D11*
X151760Y316230D02*
G03*
X151760Y316230I-1250J0D01*
G01*
X115160Y107960D02*
G03*
X115160Y107960I-1250J0D01*
G01*
D12*
X34290Y102870D02*
X49530D01*
X34290Y58422D02*
X49530D01*
Y91440D02*
Y102870D01*
X34290Y91440D02*
Y102870D01*
X49530Y58422D02*
Y69090D01*
X34290Y58422D02*
Y69090D01*
X45400Y365760D02*
Y381000D01*
X73848Y365760D02*
Y381000D01*
X45400D02*
X56830D01*
X45400Y365760D02*
X56830D01*
X63180Y381000D02*
X73848D01*
X63180Y365760D02*
X73848D01*
X46990Y226060D02*
X62230D01*
X46990Y254508D02*
X62230D01*
X46990Y226060D02*
Y237490D01*
X62230Y226060D02*
Y237490D01*
X46990Y243840D02*
Y254508D01*
X62230Y243840D02*
Y254508D01*
X123444Y179070D02*
X138684D01*
X123444Y207518D02*
X138684D01*
X123444Y179070D02*
Y190500D01*
X138684Y179070D02*
Y190500D01*
X123444Y196850D02*
Y207518D01*
X138684Y196850D02*
Y207518D01*
X97790Y207770D02*
X113030D01*
X97790Y179322D02*
X113030D01*
Y196340D02*
Y207770D01*
X97790Y196340D02*
Y207770D01*
X113030Y179322D02*
Y189990D01*
X97790Y179322D02*
Y189990D01*
X72390Y179070D02*
X87630D01*
X72390Y207518D02*
X87630D01*
X72390Y179070D02*
Y190500D01*
X87630Y179070D02*
Y190500D01*
X72390Y196850D02*
Y207518D01*
X87630Y196850D02*
Y207518D01*
X46990Y179070D02*
X62230D01*
X46990Y207518D02*
X62230D01*
X46990Y179070D02*
Y190500D01*
X62230Y179070D02*
Y190500D01*
X46990Y196850D02*
Y207518D01*
X62230Y196850D02*
Y207518D01*
X46990Y128270D02*
X62230D01*
X46990Y156718D02*
X62230D01*
X46990Y128270D02*
Y139700D01*
X62230Y128270D02*
Y139700D01*
X46990Y146050D02*
Y156718D01*
X62230Y146050D02*
Y156718D01*
X97790Y128270D02*
X113030D01*
X97790Y156718D02*
X113030D01*
X97790Y128270D02*
Y139700D01*
X113030Y128270D02*
Y139700D01*
X97790Y146050D02*
Y156718D01*
X113030Y146050D02*
Y156718D01*
X67310Y7620D02*
Y33020D01*
X92710Y7620D02*
Y33020D01*
X41910Y7620D02*
X92710D01*
X41910D02*
Y33020D01*
X92710D01*
X150860Y40640D02*
Y55880D01*
X122412Y40640D02*
Y55880D01*
X139430Y40640D02*
X150860D01*
X139430Y55880D02*
X150860D01*
X122412Y40640D02*
X133080D01*
X122412Y55880D02*
X133080D01*
D13*
X72310Y345830D02*
X110410D01*
Y312810D02*
Y345830D01*
X72310Y312810D02*
X110410D01*
X72310D02*
Y345830D01*
D14*
X71040Y312048D02*
Y323224D01*
Y311794D02*
X82470D01*
D15*
X109220Y15240D02*
X116267Y22287D01*
X109220Y15240D02*
X116397Y8063D01*
X116585D01*
X138937D02*
X152399D01*
X152653D01*
Y21779D01*
Y22287D01*
X138937D02*
X152653D01*
X116585Y8063D02*
X130301D01*
X116267Y22287D02*
X130301D01*
M02*
