G04*
G04 #@! TF.GenerationSoftware,Altium Limited,Altium Designer,19.0.10 (269)*
G04*
G04 Layer_Color=8388736*
%FSLAX44Y44*%
%MOMM*%
G71*
G01*
G75*
%ADD27R,1.1682X1.0032*%
%ADD28R,1.0032X1.1682*%
%ADD29R,1.0032X1.1592*%
%ADD30R,1.1592X1.0032*%
%ADD31R,2.2032X1.9032*%
%ADD32R,1.9032X2.2032*%
%ADD33R,1.5032X1.4032*%
%ADD34R,1.4732X1.0922*%
%ADD35O,0.4572X1.9032*%
%ADD36O,0.8032X2.1032*%
%ADD37R,2.4932X2.4032*%
%ADD38C,1.7272*%
%ADD39C,1.7032*%
D27*
X41910Y64520D02*
D03*
Y96520D02*
D03*
Y80520D02*
D03*
X54610Y248410D02*
D03*
Y232410D02*
D03*
X131064Y201420D02*
D03*
Y185420D02*
D03*
X105410D02*
D03*
Y201420D02*
D03*
X80010D02*
D03*
Y185420D02*
D03*
X54610Y201420D02*
D03*
Y185420D02*
D03*
Y150620D02*
D03*
Y134620D02*
D03*
X105410Y150620D02*
D03*
Y134620D02*
D03*
D28*
X67750Y373380D02*
D03*
X51750D02*
D03*
X128510Y48260D02*
D03*
X144510D02*
D03*
D29*
X96860Y284480D02*
D03*
X80860D02*
D03*
X128510Y373380D02*
D03*
X144510D02*
D03*
X91950D02*
D03*
X107950D02*
D03*
X122430Y342900D02*
D03*
X138430D02*
D03*
D30*
X128510Y97280D02*
D03*
Y81280D02*
D03*
X80010Y150620D02*
D03*
Y134620D02*
D03*
X131064Y150620D02*
D03*
Y134620D02*
D03*
D31*
X89220Y238760D02*
D03*
X116690D02*
D03*
D32*
X49530Y302730D02*
D03*
Y330200D02*
D03*
D33*
X80860Y320820D02*
D03*
X101860D02*
D03*
Y337820D02*
D03*
X80860D02*
D03*
D34*
X125729Y15175D02*
D03*
X143509D02*
D03*
D35*
X123510Y275230D02*
D03*
X128510D02*
D03*
X133510D02*
D03*
X138510D02*
D03*
X143510D02*
D03*
X123510Y316230D02*
D03*
X128510D02*
D03*
X133510D02*
D03*
X138510D02*
D03*
X143510D02*
D03*
D36*
X105410Y107960D02*
D03*
X92710D02*
D03*
X80010D02*
D03*
X67310D02*
D03*
X105410Y60960D02*
D03*
X92710D02*
D03*
X80010D02*
D03*
X67310D02*
D03*
D37*
X86360Y84460D02*
D03*
D38*
X54610Y41910D02*
D03*
X80000D02*
D03*
X54610Y20320D02*
D03*
X80010D02*
D03*
D39*
X16510D02*
D03*
Y45720D02*
D03*
Y71120D02*
D03*
Y96520D02*
D03*
Y121920D02*
D03*
Y147320D02*
D03*
Y172720D02*
D03*
Y198120D02*
D03*
Y223520D02*
D03*
Y248920D02*
D03*
Y274320D02*
D03*
Y299720D02*
D03*
Y325120D02*
D03*
Y350520D02*
D03*
Y375920D02*
D03*
X168910Y20320D02*
D03*
Y45720D02*
D03*
Y71120D02*
D03*
Y96520D02*
D03*
Y121920D02*
D03*
Y147320D02*
D03*
Y172720D02*
D03*
Y198120D02*
D03*
Y223520D02*
D03*
Y248920D02*
D03*
Y274320D02*
D03*
Y299720D02*
D03*
Y325120D02*
D03*
Y350520D02*
D03*
Y375920D02*
D03*
M02*
