G04*
G04 #@! TF.GenerationSoftware,Altium Limited,Altium Designer,19.0.10 (269)*
G04*
G04 Layer_Color=2752767*
%FSLAX44Y44*%
%MOMM*%
G71*
G01*
G75*
%ADD47C,0.0508*%
%ADD48C,0.0677*%
D47*
X52578Y39878D02*
Y43942D01*
X56642D01*
Y39878D01*
X52578D01*
X77968D02*
Y43942D01*
X82032D01*
Y39878D01*
X77968D01*
X52578Y18288D02*
Y22352D01*
X56642D01*
Y18288D01*
X52578D01*
X77978D02*
Y22352D01*
X82042D01*
Y18288D01*
X77978D01*
X52285Y115863D02*
X50253Y119927D01*
X54317D01*
X52285Y115863D01*
X53785Y67818D02*
X51753Y71882D01*
X55817D01*
X53785Y67818D01*
X67310Y353568D02*
X68326Y354584D01*
X69342D01*
X68326Y355600D01*
X69342Y356616D01*
X68326D01*
X67310Y357632D01*
X66294Y356616D01*
X65278D01*
X66294Y355600D01*
X65278Y354584D01*
X66294D01*
X67310Y353568D01*
X128510Y62738D02*
X126478Y66802D01*
X130542D01*
X128510Y62738D01*
X104585Y8128D02*
X105601Y9144D01*
X106617D01*
X105601Y10160D01*
X106617Y11176D01*
X105601D01*
X104585Y12192D01*
X103569Y11176D01*
X102553D01*
X103569Y10160D01*
X102553Y9144D01*
X103569D01*
X104585Y8128D01*
X52285Y271438D02*
X50253Y275502D01*
X54317D01*
X52285Y271438D01*
X138670Y229348D02*
X139686Y230364D01*
X140702D01*
X139686Y231380D01*
X140702Y232396D01*
X139686D01*
X138670Y233412D01*
X137654Y232396D01*
X136638D01*
X137654Y231380D01*
X136638Y230364D01*
X137654D01*
X138670Y229348D01*
X110490Y281178D02*
X111506Y282194D01*
X112522D01*
X111506Y283210D01*
X112522Y284226D01*
X111506D01*
X110490Y285242D01*
X109474Y284226D01*
X108458D01*
X109474Y283210D01*
X108458Y282194D01*
X109474D01*
X110490Y281178D01*
X143510Y199388D02*
X144526Y200404D01*
X145542D01*
X144526Y201420D01*
X145542Y202436D01*
X144526D01*
X143510Y203452D01*
X142494Y202436D01*
X141478D01*
X142494Y201420D01*
X141478Y200404D01*
X142494D01*
X143510Y199388D01*
X80010Y121158D02*
X81026Y122174D01*
X82042D01*
X81026Y123190D01*
X82042Y124206D01*
X81026D01*
X80010Y125222D01*
X78994Y124206D01*
X77978D01*
X78994Y123190D01*
X77978Y122174D01*
X78994D01*
X80010Y121158D01*
X99610Y300868D02*
X97578Y304932D01*
X101642D01*
X99610Y300868D01*
X105410Y255543D02*
X106426Y256559D01*
X107442D01*
X106426Y257575D01*
X107442Y258591D01*
X106426D01*
X105410Y259607D01*
X104394Y258591D01*
X103378D01*
X104394Y257575D01*
X103378Y256559D01*
X104394D01*
X105410Y255543D01*
X133510Y251968D02*
X134526Y252984D01*
X135542D01*
X134526Y254000D01*
X135542Y255016D01*
X134526D01*
X133510Y256032D01*
X132494Y255016D01*
X131478D01*
X132494Y254000D01*
X131478Y252984D01*
X132494D01*
X133510Y251968D01*
X92710Y173228D02*
X93726Y174244D01*
X94742D01*
X93726Y175260D01*
X94742Y176276D01*
X93726D01*
X92710Y177292D01*
X91694Y176276D01*
X90678D01*
X91694Y175260D01*
X90678Y174244D01*
X91694D01*
X92710Y173228D01*
X67310Y140208D02*
X68326Y141224D01*
X69342D01*
X68326Y142240D01*
X69342Y143256D01*
X68326D01*
X67310Y144272D01*
X66294Y143256D01*
X65278D01*
X66294Y142240D01*
X65278Y141224D01*
X66294D01*
X67310Y140208D01*
X91860Y87928D02*
X92876Y88944D01*
X93892D01*
X92876Y89960D01*
X93892Y90976D01*
X92876D01*
X91860Y91992D01*
X90844Y90976D01*
X89828D01*
X90844Y89960D01*
X89828Y88944D01*
X90844D01*
X91860Y87928D01*
Y76928D02*
X92876Y77944D01*
X93892D01*
X92876Y78960D01*
X93892Y79976D01*
X92876D01*
X91860Y80992D01*
X90844Y79976D01*
X89828D01*
X90844Y78960D01*
X89828Y77944D01*
X90844D01*
X91860Y76928D01*
X80860Y87928D02*
X81876Y88944D01*
X82892D01*
X81876Y89960D01*
X82892Y90976D01*
X81876D01*
X80860Y91992D01*
X79844Y90976D01*
X78828D01*
X79844Y89960D01*
X78828Y88944D01*
X79844D01*
X80860Y87928D01*
Y76928D02*
X81876Y77944D01*
X82892D01*
X81876Y78960D01*
X82892Y79976D01*
X81876D01*
X80860Y80992D01*
X79844Y79976D01*
X78828D01*
X79844Y78960D01*
X78828Y77944D01*
X79844D01*
X80860Y76928D01*
D48*
X18542Y20320D02*
G03*
X18542Y20320I-2032J0D01*
G01*
Y45720D02*
G03*
X18542Y45720I-2032J0D01*
G01*
Y71120D02*
G03*
X18542Y71120I-2032J0D01*
G01*
Y96520D02*
G03*
X18542Y96520I-2032J0D01*
G01*
Y121920D02*
G03*
X18542Y121920I-2032J0D01*
G01*
Y147320D02*
G03*
X18542Y147320I-2032J0D01*
G01*
Y172720D02*
G03*
X18542Y172720I-2032J0D01*
G01*
Y198120D02*
G03*
X18542Y198120I-2032J0D01*
G01*
Y223520D02*
G03*
X18542Y223520I-2032J0D01*
G01*
Y248920D02*
G03*
X18542Y248920I-2032J0D01*
G01*
Y274320D02*
G03*
X18542Y274320I-2032J0D01*
G01*
Y299720D02*
G03*
X18542Y299720I-2032J0D01*
G01*
Y325120D02*
G03*
X18542Y325120I-2032J0D01*
G01*
Y350520D02*
G03*
X18542Y350520I-2032J0D01*
G01*
Y375920D02*
G03*
X18542Y375920I-2032J0D01*
G01*
X170942Y20320D02*
G03*
X170942Y20320I-2032J0D01*
G01*
Y45720D02*
G03*
X170942Y45720I-2032J0D01*
G01*
Y71120D02*
G03*
X170942Y71120I-2032J0D01*
G01*
Y96520D02*
G03*
X170942Y96520I-2032J0D01*
G01*
Y121920D02*
G03*
X170942Y121920I-2032J0D01*
G01*
Y147320D02*
G03*
X170942Y147320I-2032J0D01*
G01*
Y172720D02*
G03*
X170942Y172720I-2032J0D01*
G01*
Y198120D02*
G03*
X170942Y198120I-2032J0D01*
G01*
Y223520D02*
G03*
X170942Y223520I-2032J0D01*
G01*
Y248920D02*
G03*
X170942Y248920I-2032J0D01*
G01*
Y274320D02*
G03*
X170942Y274320I-2032J0D01*
G01*
Y299720D02*
G03*
X170942Y299720I-2032J0D01*
G01*
Y325120D02*
G03*
X170942Y325120I-2032J0D01*
G01*
Y350520D02*
G03*
X170942Y350520I-2032J0D01*
G01*
Y375920D02*
G03*
X170942Y375920I-2032J0D01*
G01*
M02*
