G04*
G04 #@! TF.GenerationSoftware,Altium Limited,Altium Designer,19.0.10 (269)*
G04*
G04 Layer_Color=255*
%FSLAX44Y44*%
%MOMM*%
G71*
G01*
G75*
%ADD16R,0.9650X0.8000*%
%ADD17R,0.8000X0.9650*%
%ADD18R,0.8000X0.9560*%
%ADD19R,0.9560X0.8000*%
%ADD20R,2.0000X1.7000*%
%ADD21R,1.7000X2.0000*%
%ADD22R,1.3000X1.2000*%
%ADD23R,1.2700X0.8890*%
%ADD24O,0.2540X1.7000*%
%ADD25O,0.6000X1.9000*%
%ADD26R,2.2900X2.2000*%
%ADD41C,1.5240*%
%ADD42C,1.5000*%
D16*
X41910Y64520D02*
D03*
Y96520D02*
D03*
Y80520D02*
D03*
X54610Y248410D02*
D03*
Y232410D02*
D03*
X131064Y201420D02*
D03*
Y185420D02*
D03*
X105410D02*
D03*
Y201420D02*
D03*
X80010D02*
D03*
Y185420D02*
D03*
X54610Y201420D02*
D03*
Y185420D02*
D03*
Y150620D02*
D03*
Y134620D02*
D03*
X105410Y150620D02*
D03*
Y134620D02*
D03*
D17*
X67750Y373380D02*
D03*
X51750D02*
D03*
X128510Y48260D02*
D03*
X144510D02*
D03*
D18*
X96860Y284480D02*
D03*
X80860D02*
D03*
X128510Y373380D02*
D03*
X144510D02*
D03*
X91950D02*
D03*
X107950D02*
D03*
X122430Y342900D02*
D03*
X138430D02*
D03*
D19*
X128510Y97280D02*
D03*
Y81280D02*
D03*
X80010Y150620D02*
D03*
Y134620D02*
D03*
X131064Y150620D02*
D03*
Y134620D02*
D03*
D20*
X89220Y238760D02*
D03*
X116690D02*
D03*
D21*
X49530Y302730D02*
D03*
Y330200D02*
D03*
D22*
X80860Y320820D02*
D03*
X101860D02*
D03*
Y337820D02*
D03*
X80860D02*
D03*
D23*
X125729Y15175D02*
D03*
X143509D02*
D03*
D24*
X123510Y275230D02*
D03*
X128510D02*
D03*
X133510D02*
D03*
X138510D02*
D03*
X143510D02*
D03*
X123510Y316230D02*
D03*
X128510D02*
D03*
X133510D02*
D03*
X138510D02*
D03*
X143510D02*
D03*
D25*
X105410Y107960D02*
D03*
X92710D02*
D03*
X80010D02*
D03*
X67310D02*
D03*
X105410Y60960D02*
D03*
X92710D02*
D03*
X80010D02*
D03*
X67310D02*
D03*
D26*
X86360Y84460D02*
D03*
D41*
X54610Y41910D02*
D03*
X80000D02*
D03*
X54610Y20320D02*
D03*
X80010D02*
D03*
D42*
X16510D02*
D03*
Y45720D02*
D03*
Y71120D02*
D03*
Y96520D02*
D03*
Y121920D02*
D03*
Y147320D02*
D03*
Y172720D02*
D03*
Y198120D02*
D03*
Y223520D02*
D03*
Y248920D02*
D03*
Y274320D02*
D03*
Y299720D02*
D03*
Y325120D02*
D03*
Y350520D02*
D03*
Y375920D02*
D03*
X168910Y20320D02*
D03*
Y45720D02*
D03*
Y71120D02*
D03*
Y96520D02*
D03*
Y121920D02*
D03*
Y147320D02*
D03*
Y172720D02*
D03*
Y198120D02*
D03*
Y223520D02*
D03*
Y248920D02*
D03*
Y274320D02*
D03*
Y299720D02*
D03*
Y325120D02*
D03*
Y350520D02*
D03*
Y375920D02*
D03*
M02*
