G04*
G04 #@! TF.GenerationSoftware,Altium Limited,Altium Designer,19.0.10 (269)*
G04*
G04 Layer_Physical_Order=1*
G04 Layer_Color=255*
%FSLAX44Y44*%
%MOMM*%
G71*
G01*
G75*
%ADD11C,0.2500*%
%ADD12C,0.2540*%
%ADD16R,0.9650X0.8000*%
%ADD17R,0.8000X0.9650*%
%ADD18R,0.8000X0.9560*%
%ADD19R,0.9560X0.8000*%
%ADD20R,2.0000X1.7000*%
%ADD21R,1.7000X2.0000*%
%ADD22R,1.3000X1.2000*%
%ADD23R,1.2700X0.8890*%
%ADD24O,0.2540X1.7000*%
%ADD25O,0.6000X1.9000*%
%ADD26R,2.2900X2.2000*%
%ADD40C,0.5000*%
%ADD41C,1.5240*%
%ADD42C,1.5000*%
%ADD43C,1.0000*%
%ADD44C,0.6000*%
%ADD45C,0.5000*%
G36*
X55719Y378175D02*
X50133Y378144D01*
X50250Y378176D01*
X50355Y378271D01*
X50448Y378429D01*
X50528Y378649D01*
X50596Y378932D01*
X50651Y379279D01*
X50694Y379688D01*
X50744Y380694D01*
X50750Y381291D01*
X55750D01*
X55719Y378175D01*
D02*
G37*
G36*
X92959Y380895D02*
X93033Y379792D01*
X93097Y379344D01*
X93180Y378964D01*
X93281Y378653D01*
X93401Y378412D01*
X93539Y378239D01*
X93696Y378134D01*
X93870Y378099D01*
X87980Y378130D01*
X87975Y378164D01*
X87970Y378266D01*
X87950Y381550D01*
X92950D01*
X92959Y380895D01*
D02*
G37*
G36*
X124541Y378130D02*
X124571Y370705D01*
X124519Y371180D01*
X124367Y371605D01*
X124114Y371980D01*
X123761Y372305D01*
X123308Y372580D01*
X122755Y372805D01*
X122102Y372980D01*
X121348Y373105D01*
X120494Y373180D01*
X119541Y373205D01*
Y378205D01*
X124541Y378130D01*
D02*
G37*
G36*
X116920Y373205D02*
X115966Y373180D01*
X115112Y373105D01*
X114358Y372980D01*
X113705Y372805D01*
X113152Y372580D01*
X112699Y372305D01*
X112346Y371980D01*
X112094Y371605D01*
X111941Y371180D01*
X111889Y370705D01*
X111920Y378130D01*
X111969Y378144D01*
X112120Y378157D01*
X113169Y378186D01*
X116920Y378205D01*
Y373205D01*
D02*
G37*
G36*
X131028Y373485D02*
X131087Y373247D01*
X131163Y373013D01*
X131254Y372784D01*
X131362Y372560D01*
X131486Y372341D01*
X131626Y372127D01*
X131782Y371918D01*
X131955Y371713D01*
X132144Y371514D01*
X130376Y369746D01*
X130177Y369935D01*
X129972Y370108D01*
X129763Y370264D01*
X129549Y370404D01*
X129330Y370528D01*
X129106Y370636D01*
X128877Y370727D01*
X128643Y370803D01*
X128405Y370862D01*
X128161Y370905D01*
X130985Y373729D01*
X131028Y373485D01*
D02*
G37*
G36*
X132485Y368605D02*
X132491Y368531D01*
X132507Y367406D01*
X132510Y366130D01*
X130010D01*
X129998Y366605D01*
X129960Y367030D01*
X129897Y367406D01*
X129810Y367730D01*
X129698Y368005D01*
X129560Y368231D01*
X129397Y368405D01*
X129210Y368531D01*
X128997Y368605D01*
X128760Y368630D01*
X132479D01*
X132485Y368605D01*
D02*
G37*
G36*
X181610Y293370D02*
X178686D01*
X178171Y294640D01*
X179140Y296979D01*
X179501Y299720D01*
X179140Y302461D01*
X178082Y305015D01*
X176399Y307209D01*
X174205Y308892D01*
X171651Y309950D01*
X168910Y310311D01*
X166169Y309950D01*
X163615Y308892D01*
X161421Y307209D01*
X159738Y305015D01*
X158680Y302461D01*
X158319Y299720D01*
X158680Y296979D01*
X159649Y294640D01*
X159134Y293370D01*
X101600Y293370D01*
Y292260D01*
X98110D01*
Y284480D01*
X96860D01*
Y283230D01*
X89860D01*
Y279400D01*
X87860D01*
Y292260D01*
X83763D01*
X82821Y293671D01*
X81754Y294737D01*
Y308034D01*
X81833Y308151D01*
X82154Y308606D01*
X82163Y308646D01*
X82186Y308680D01*
X82295Y309226D01*
X82418Y309770D01*
X82440Y310630D01*
X82497Y311273D01*
X82578Y311764D01*
X82593Y311820D01*
X90360D01*
Y328820D01*
Y343633D01*
X90388Y343771D01*
X90414Y347952D01*
X92360Y349898D01*
X98252D01*
X100125Y350271D01*
X101713Y351332D01*
X109911Y359529D01*
X110971Y361117D01*
X111026Y361393D01*
X111055Y361412D01*
X111079Y361445D01*
X111113Y361468D01*
X111423Y361931D01*
X111744Y362386D01*
X111753Y362426D01*
X111776Y362460D01*
X111885Y363007D01*
X112008Y363550D01*
X112030Y364406D01*
X112086Y365044D01*
X112168Y365530D01*
X112186Y365600D01*
X114950D01*
Y369972D01*
X115006Y369987D01*
X115497Y370068D01*
X116140Y370125D01*
X117000Y370147D01*
X117544Y370270D01*
X118090Y370379D01*
X118124Y370402D01*
X118164Y370411D01*
X118230Y370458D01*
X118296Y370411D01*
X118336Y370402D01*
X118370Y370379D01*
X118917Y370270D01*
X119460Y370147D01*
X120321Y370125D01*
X120963Y370068D01*
X121454Y369987D01*
X121510Y369972D01*
Y365600D01*
X127054D01*
X127075Y365506D01*
X127184Y364960D01*
X127207Y364926D01*
X127216Y364886D01*
X127537Y364431D01*
X127640Y364277D01*
Y362930D01*
X127916Y361545D01*
X128701Y360371D01*
X136838Y352233D01*
X137262Y351950D01*
X136876Y350680D01*
X131430D01*
Y338320D01*
X131402Y338188D01*
X131380Y336369D01*
X131371Y335688D01*
X131374Y335664D01*
X131371Y335650D01*
X131430Y335120D01*
X130951Y334520D01*
X130951Y334519D01*
X130509Y333858D01*
X129200Y334072D01*
X129430Y335120D01*
X129489Y335650D01*
X129488Y335653D01*
X129489Y335657D01*
X129486Y336932D01*
X129482Y336951D01*
X129486Y336971D01*
X129469Y338096D01*
X129458Y338148D01*
X129458Y338150D01*
X129452Y338182D01*
X129462Y338261D01*
X129457Y338336D01*
X129430Y338435D01*
Y341650D01*
X115430D01*
Y335120D01*
X120974D01*
X120995Y335027D01*
X121104Y334480D01*
X121127Y334446D01*
X121136Y334406D01*
X121458Y333951D01*
X121560Y333797D01*
Y332390D01*
X121355Y332183D01*
X120290Y331743D01*
X119495Y332274D01*
X118110Y332550D01*
X115799D01*
X113038Y335311D01*
X113025Y335392D01*
X112997Y335438D01*
X112986Y335490D01*
X112683Y335943D01*
X112397Y336406D01*
X112353Y336438D01*
X112323Y336483D01*
X111870Y336785D01*
X111428Y337104D01*
X111375Y337116D01*
X111360Y337126D01*
Y346820D01*
X92360D01*
Y328820D01*
Y322070D01*
X101860D01*
X111360D01*
Y325098D01*
X112630Y325776D01*
X112915Y325586D01*
X114300Y325311D01*
X116611D01*
X117288Y324633D01*
X117407Y324455D01*
X117476Y324386D01*
X117475Y324157D01*
X117581Y323896D01*
X117631Y323618D01*
X117803Y323349D01*
X117924Y323052D01*
X118122Y322851D01*
X118275Y322613D01*
X118674Y322198D01*
X118962Y321871D01*
X119156Y321626D01*
Y309000D01*
X119488Y307334D01*
X120431Y305921D01*
X121844Y304978D01*
X123510Y304646D01*
X125176Y304978D01*
X126010Y305535D01*
X126844Y304978D01*
X127260Y304895D01*
Y306926D01*
X127533Y307334D01*
X127864Y309000D01*
Y316230D01*
X129156D01*
Y309000D01*
X129487Y307334D01*
X129760Y306926D01*
Y304895D01*
X130176Y304978D01*
X131010Y305535D01*
X131844Y304978D01*
X133510Y304646D01*
X135176Y304978D01*
X136010Y305535D01*
X136844Y304978D01*
X138510Y304646D01*
X140176Y304978D01*
X141010Y305535D01*
X141844Y304978D01*
X143510Y304646D01*
X145176Y304978D01*
X146588Y305921D01*
X147532Y307334D01*
X147864Y309000D01*
Y321607D01*
X148373Y322216D01*
X148745Y322603D01*
X148883Y322817D01*
X149065Y322996D01*
X149202Y323315D01*
X149389Y323607D01*
X149434Y323858D01*
X149512Y324040D01*
X149985D01*
X151370Y324316D01*
X152544Y325101D01*
X155721Y328278D01*
X156506Y329452D01*
X156782Y330837D01*
Y366268D01*
X156506Y367653D01*
X155721Y368827D01*
X152184Y372364D01*
X151510Y372815D01*
Y381160D01*
X137510D01*
Y365600D01*
X148711D01*
X149543Y364769D01*
Y356676D01*
X148369Y356190D01*
X147207Y357352D01*
X146033Y358136D01*
X144648Y358412D01*
X140897D01*
X134941Y364368D01*
X135005Y364465D01*
X135336Y364960D01*
X135337Y364963D01*
X135338Y364966D01*
X135453Y365550D01*
X135463Y365600D01*
X135510Y365600D01*
X135569Y366130D01*
X135568Y366133D01*
X135569Y366137D01*
X135566Y367412D01*
X135562Y367431D01*
X135566Y367451D01*
X135549Y368576D01*
X135538Y368628D01*
X135538Y368630D01*
X135532Y368662D01*
X135542Y368741D01*
X135537Y368816D01*
X135510Y368915D01*
Y381160D01*
X124717D01*
X124587Y381188D01*
X119587Y381263D01*
X119564Y381259D01*
X119541Y381264D01*
X118977Y381152D01*
X118413Y381048D01*
X118393Y381035D01*
X118370Y381031D01*
X118230Y380937D01*
X118090Y381031D01*
X118082Y381032D01*
X118076Y381037D01*
X117497Y381149D01*
X116920Y381264D01*
X116912Y381262D01*
X116904Y381264D01*
X113154Y381245D01*
X113119Y381238D01*
X113084Y381244D01*
X112034Y381214D01*
X111947Y381194D01*
X111859Y381204D01*
X111708Y381191D01*
X111600Y381160D01*
X100950D01*
Y368787D01*
X100922Y368649D01*
X100896Y364357D01*
X96225Y359687D01*
X90333D01*
X88460Y359314D01*
X86872Y358253D01*
X81399Y352780D01*
X80338Y351192D01*
X80309Y351043D01*
X80255Y351008D01*
X80231Y350975D01*
X80197Y350952D01*
X79888Y350489D01*
X79566Y350034D01*
X79557Y349994D01*
X79534Y349960D01*
X79425Y349413D01*
X79302Y348870D01*
X79280Y348014D01*
X79223Y347376D01*
X79142Y346890D01*
X79124Y346820D01*
X71360D01*
Y332085D01*
X71301Y331790D01*
X71302Y331783D01*
X71301Y331777D01*
X71313Y328830D01*
X71301Y326869D01*
X71303Y326860D01*
X71301Y326851D01*
X71354Y326585D01*
X71346Y326488D01*
X71352Y326437D01*
X71360Y326413D01*
Y315007D01*
X71332Y314869D01*
X71301Y309869D01*
X71303Y309860D01*
X71301Y309851D01*
X71416Y309274D01*
X71527Y308697D01*
X71532Y308689D01*
X71534Y308680D01*
X71861Y308191D01*
X71966Y308031D01*
Y300124D01*
X64816D01*
X64699Y300203D01*
X64244Y300524D01*
X64204Y300533D01*
X64170Y300556D01*
X63623Y300665D01*
X63080Y300788D01*
X62230Y300810D01*
Y350291D01*
X63500Y350930D01*
X64969Y349948D01*
X66060Y349731D01*
Y355600D01*
Y361469D01*
X64969Y361252D01*
X63500Y360270D01*
X62230Y360909D01*
Y365555D01*
X66500D01*
Y373380D01*
Y381205D01*
X62230D01*
Y383350D01*
X62986Y384106D01*
X80973D01*
X84899Y380179D01*
X84911Y378248D01*
X84925Y378181D01*
X84915Y378112D01*
X84920Y378009D01*
X84950Y377890D01*
Y365600D01*
X98950D01*
Y381160D01*
X96014D01*
X96009Y381593D01*
X95888Y382156D01*
X95776Y382720D01*
X95764Y382739D01*
X95759Y382760D01*
X95433Y383234D01*
X95113Y383713D01*
X95095Y383725D01*
X95082Y383743D01*
X94600Y384056D01*
X94507Y384117D01*
X93911Y385011D01*
X86461Y392461D01*
X84873Y393521D01*
X83000Y393894D01*
X62230D01*
Y397680D01*
X181610D01*
X181610Y293370D01*
D02*
G37*
G36*
X110975Y368581D02*
X110550Y368430D01*
X110175Y368181D01*
X109850Y367831D01*
X109575Y367380D01*
X109350Y366830D01*
X109175Y366180D01*
X109050Y365430D01*
X108975Y364580D01*
X108950Y363630D01*
X103950D01*
X103981Y368630D01*
X111450D01*
X110975Y368581D01*
D02*
G37*
G36*
X87330Y343789D02*
X79860D01*
X80335Y343839D01*
X80760Y343989D01*
X81135Y344240D01*
X81460Y344590D01*
X81735Y345039D01*
X81960Y345589D01*
X82135Y346240D01*
X82260Y346990D01*
X82335Y347840D01*
X82360Y348789D01*
X87360D01*
X87330Y343789D01*
D02*
G37*
G36*
X137942Y338125D02*
X137730Y338050D01*
X137542Y337925D01*
X137380Y337751D01*
X137242Y337525D01*
X137130Y337251D01*
X137043Y336926D01*
X136980Y336550D01*
X136943Y336125D01*
X136930Y335650D01*
X134430D01*
X134460Y338150D01*
X138180D01*
X137942Y338125D01*
D02*
G37*
G36*
X126405D02*
X126411Y338050D01*
X126427Y336926D01*
X126430Y335650D01*
X123930D01*
X123918Y336125D01*
X123880Y336550D01*
X123818Y336926D01*
X123730Y337251D01*
X123617Y337525D01*
X123480Y337751D01*
X123317Y337925D01*
X123130Y338050D01*
X122917Y338125D01*
X122680Y338150D01*
X126399D01*
X126405Y338125D01*
D02*
G37*
G36*
X108319Y334790D02*
X108375Y334692D01*
X108469Y334604D01*
X108600Y334529D01*
X108767Y334465D01*
X108972Y334413D01*
X109213Y334372D01*
X109492Y334343D01*
X110160Y334320D01*
Y331820D01*
X108329Y331851D01*
X108299Y334901D01*
X108319Y334790D01*
D02*
G37*
G36*
X81385Y331829D02*
X80960Y331676D01*
X80585Y331424D01*
X80260Y331071D01*
X79985Y330618D01*
X79760Y330065D01*
X79585Y329412D01*
X79571Y329325D01*
X79585Y329240D01*
X79760Y328590D01*
X79985Y328040D01*
X80260Y327589D01*
X80585Y327239D01*
X80960Y326990D01*
X81385Y326839D01*
X81860Y326790D01*
X74391D01*
X74385Y326839D01*
X74384Y326851D01*
X74360D01*
X74372Y328827D01*
X74360Y331790D01*
X74390D01*
X74391Y331851D01*
X81860Y331881D01*
X81385Y331829D01*
D02*
G37*
G36*
X123994Y324628D02*
X122277Y321199D01*
X122363Y321443D01*
X122390Y321711D01*
X122358Y322004D01*
X122267Y322320D01*
X122117Y322662D01*
X121908Y323027D01*
X121639Y323418D01*
X121311Y323832D01*
X120924Y324271D01*
X120478Y324735D01*
X122610Y326139D01*
X123994Y324628D01*
D02*
G37*
G36*
X146542Y324724D02*
X146096Y324261D01*
X145381Y323407D01*
X145113Y323017D01*
X144904Y322651D01*
X144753Y322310D01*
X144662Y321993D01*
X144630Y321701D01*
X144657Y321432D01*
X144743Y321188D01*
X143026Y324628D01*
X143014Y324638D01*
X143036Y324680D01*
X143093Y324753D01*
X143183Y324859D01*
X144148Y325864D01*
X144443Y326161D01*
X146542Y324724D01*
D02*
G37*
G36*
X81385Y314829D02*
X80960Y314676D01*
X80585Y314424D01*
X80260Y314071D01*
X79985Y313618D01*
X79760Y313065D01*
X79585Y312412D01*
X79460Y311658D01*
X79385Y310804D01*
X79360Y309851D01*
X74360D01*
X74391Y314851D01*
X81860Y314881D01*
X81385Y314829D01*
D02*
G37*
G36*
X58021Y299755D02*
X58173Y299330D01*
X58426Y298955D01*
X58779Y298630D01*
X59232Y298355D01*
X59785Y298130D01*
X60438Y297955D01*
X61192Y297830D01*
X62045Y297755D01*
X63000Y297730D01*
Y292730D01*
X58000Y292761D01*
X57969Y300230D01*
X58021Y299755D01*
D02*
G37*
G36*
X48055Y292739D02*
X47630Y292586D01*
X47255Y292334D01*
X46930Y291981D01*
X46655Y291528D01*
X46430Y290975D01*
X46255Y290322D01*
X46130Y289568D01*
X46055Y288714D01*
X46030Y287761D01*
X41030D01*
X41061Y292761D01*
X48530Y292791D01*
X48055Y292739D01*
D02*
G37*
G36*
X112653Y281077D02*
X112461Y280756D01*
X112292Y280414D01*
X112146Y280054D01*
X112022Y279674D01*
X111920Y279274D01*
X111841Y278855D01*
X111785Y278417D01*
X111751Y277960D01*
X111740Y277483D01*
X109240D01*
X109229Y277960D01*
X109138Y278855D01*
X109060Y279274D01*
X108958Y279674D01*
X108834Y280054D01*
X108688Y280414D01*
X108519Y280756D01*
X108327Y281077D01*
X108113Y281380D01*
X112867D01*
X112653Y281077D01*
D02*
G37*
G36*
X48068Y281243D02*
X49249Y280228D01*
X49818Y279803D01*
X50373Y279435D01*
X50913Y279122D01*
X51439Y278865D01*
X51950Y278664D01*
X52447Y278518D01*
X52930Y278428D01*
X47327Y272825D01*
X47237Y273308D01*
X47091Y273805D01*
X46890Y274316D01*
X46633Y274842D01*
X46321Y275382D01*
X45952Y275937D01*
X45528Y276506D01*
X44511Y277687D01*
X43920Y278300D01*
X47455Y281835D01*
X48068Y281243D01*
D02*
G37*
G36*
X144657Y270028D02*
X144630Y269760D01*
X144662Y269467D01*
X144753Y269150D01*
X144904Y268808D01*
X145113Y268443D01*
X145381Y268053D01*
X145709Y267638D01*
X146096Y267199D01*
X146542Y266736D01*
X144443Y265299D01*
X143026Y266832D01*
X144743Y270272D01*
X144657Y270028D01*
D02*
G37*
G36*
X55969Y270015D02*
X55721Y269561D01*
X55501Y269057D01*
X55311Y268504D01*
X55150Y267900D01*
X55019Y267248D01*
X54917Y266545D01*
X54800Y264991D01*
X54785Y264140D01*
X49785D01*
X49770Y264991D01*
X49653Y266545D01*
X49551Y267248D01*
X49419Y267900D01*
X49259Y268504D01*
X49069Y269057D01*
X48849Y269561D01*
X48601Y270015D01*
X48323Y270420D01*
X56247D01*
X55969Y270015D01*
D02*
G37*
G36*
X134771Y259250D02*
X134861Y258355D01*
X134940Y257936D01*
X135042Y257536D01*
X135166Y257156D01*
X135312Y256796D01*
X135481Y256455D01*
X135673Y256133D01*
X135887Y255830D01*
X131133D01*
X131347Y256133D01*
X131539Y256455D01*
X131708Y256796D01*
X131854Y257156D01*
X131978Y257536D01*
X132080Y257936D01*
X132158Y258355D01*
X132215Y258793D01*
X132249Y259250D01*
X132260Y259727D01*
X134760D01*
X134771Y259250D01*
D02*
G37*
G36*
X107542Y259738D02*
X107865Y259546D01*
X108206Y259377D01*
X108566Y259231D01*
X108946Y259107D01*
X109346Y259005D01*
X109765Y258926D01*
X110203Y258870D01*
X110660Y258836D01*
X111137Y258825D01*
Y256325D01*
X110660Y256314D01*
X109765Y256224D01*
X109346Y256145D01*
X108946Y256043D01*
X108566Y255919D01*
X108206Y255773D01*
X107865Y255604D01*
X107542Y255412D01*
X107240Y255198D01*
Y259952D01*
X107542Y259738D01*
D02*
G37*
G36*
X54810Y256425D02*
X54885Y255572D01*
X55010Y254818D01*
X55185Y254165D01*
X55410Y253612D01*
X55685Y253159D01*
X56010Y252806D01*
X56385Y252554D01*
X56810Y252401D01*
X57285Y252349D01*
X49816Y252379D01*
X49810Y252430D01*
X49805Y252579D01*
X49785Y257379D01*
X54785D01*
X54810Y256425D01*
D02*
G37*
G36*
X54959Y245935D02*
X54715Y245892D01*
X54477Y245833D01*
X54243Y245757D01*
X54014Y245666D01*
X53790Y245558D01*
X53571Y245434D01*
X53357Y245294D01*
X53148Y245138D01*
X52943Y244965D01*
X52744Y244776D01*
X50976Y246544D01*
X51165Y246743D01*
X51338Y246948D01*
X51494Y247157D01*
X51634Y247371D01*
X51758Y247590D01*
X51866Y247814D01*
X51957Y248043D01*
X52033Y248277D01*
X52092Y248515D01*
X52134Y248759D01*
X54959Y245935D01*
D02*
G37*
G36*
X49816Y244440D02*
X49791Y244435D01*
X49715Y244429D01*
X48590Y244413D01*
X47316Y244410D01*
Y246910D01*
X47794Y246922D01*
X48223Y246960D01*
X48602Y247022D01*
X48930Y247110D01*
X49208Y247222D01*
X49436Y247360D01*
X49614Y247523D01*
X49742Y247710D01*
X49819Y247922D01*
X49846Y248160D01*
X49816Y244440D01*
D02*
G37*
G36*
X143611Y234525D02*
X143280Y234178D01*
X142707Y233480D01*
X142465Y233129D01*
X142254Y232776D01*
X142072Y232422D01*
X141920Y232067D01*
X141798Y231710D01*
X141707Y231352D01*
X141645Y230993D01*
X138283Y234355D01*
X138642Y234417D01*
X139000Y234508D01*
X139357Y234630D01*
X139712Y234782D01*
X140066Y234964D01*
X140419Y235175D01*
X140770Y235417D01*
X141120Y235688D01*
X141468Y235990D01*
X141815Y236321D01*
X143611Y234525D01*
D02*
G37*
G36*
X79250Y230291D02*
X79226Y230285D01*
X79151Y230280D01*
X78025Y230263D01*
X76750Y230260D01*
Y232760D01*
X77229Y232773D01*
X77658Y232810D01*
X78037Y232873D01*
X78365Y232960D01*
X78643Y233072D01*
X78871Y233210D01*
X79049Y233372D01*
X79177Y233560D01*
X79254Y233773D01*
X79281Y234010D01*
X79250Y230291D01*
D02*
G37*
G36*
X126424Y232201D02*
X126304Y232026D01*
X126270Y231799D01*
X126321Y231522D01*
X126458Y231194D01*
X126681Y230815D01*
X126989Y230385D01*
X127383Y229904D01*
X128427Y228790D01*
X125160Y228523D01*
X124711Y228954D01*
X123877Y229648D01*
X123492Y229912D01*
X123128Y230120D01*
X122785Y230272D01*
X122463Y230368D01*
X122162Y230408D01*
X121883Y230392D01*
X121624Y230321D01*
X126629Y232326D01*
X126424Y232201D01*
D02*
G37*
G36*
X59429Y231922D02*
X59504Y231710D01*
X59630Y231523D01*
X59805Y231360D01*
X60030Y231222D01*
X60304Y231110D01*
X60630Y231022D01*
X61005Y230960D01*
X61430Y230923D01*
X61905Y230910D01*
Y228410D01*
X59405Y228440D01*
Y232160D01*
X59429Y231922D01*
D02*
G37*
G36*
X91482Y230296D02*
X91270Y230220D01*
X91082Y230093D01*
X90920Y229916D01*
X90782Y229688D01*
X90670Y229410D01*
X90583Y229081D01*
X90520Y228701D01*
X90483Y228271D01*
X90470Y227791D01*
X87970D01*
X87957Y228271D01*
X87920Y228701D01*
X87858Y229081D01*
X87770Y229410D01*
X87657Y229688D01*
X87520Y229916D01*
X87358Y230093D01*
X87170Y230220D01*
X86958Y230296D01*
X86720Y230321D01*
X91720D01*
X91482Y230296D01*
D02*
G37*
G36*
X50403Y207412D02*
X52070Y206006D01*
X52535Y205697D01*
X52954Y205469D01*
X53328Y205321D01*
X53656Y205254D01*
X53939Y205266D01*
X54176Y205359D01*
X49846Y202679D01*
X50021Y202834D01*
X50117Y203033D01*
X50135Y203276D01*
X50073Y203563D01*
X49933Y203895D01*
X49714Y204270D01*
X49415Y204690D01*
X49039Y205154D01*
X48048Y206215D01*
X49757Y208041D01*
X50403Y207412D01*
D02*
G37*
G36*
X95611Y204122D02*
X95988Y203821D01*
X96380Y203556D01*
X96788Y203326D01*
X97211Y203132D01*
X97649Y202973D01*
X98103Y202849D01*
X98573Y202761D01*
X98860Y202729D01*
X98990Y202741D01*
X99371Y202804D01*
X99701Y202893D01*
X99980Y203008D01*
X100209Y203147D01*
X100387Y203312D01*
X100514Y203503D01*
X100590Y203719D01*
X100616Y203960D01*
Y198880D01*
X100590Y199121D01*
X100514Y199337D01*
X100387Y199528D01*
X100209Y199693D01*
X99980Y199832D01*
X99701Y199947D01*
X99371Y200036D01*
X98990Y200099D01*
X98558Y200137D01*
X98076Y200150D01*
Y201451D01*
X96520Y200150D01*
X90942Y202690D01*
X91407Y202708D01*
X91786Y202761D01*
X92079Y202849D01*
X92285Y202973D01*
X92405Y203132D01*
X92439Y203326D01*
X92387Y203556D01*
X92249Y203821D01*
X92025Y204122D01*
X91714Y204458D01*
X95250D01*
X95611Y204122D01*
D02*
G37*
G36*
X84830Y203719D02*
X84906Y203503D01*
X85033Y203312D01*
X85211Y203147D01*
X85440Y203008D01*
X85719Y202893D01*
X86049Y202804D01*
X86430Y202741D01*
X86862Y202703D01*
X87345Y202690D01*
Y200150D01*
X86862Y200137D01*
X86430Y200099D01*
X86049Y200036D01*
X85719Y199947D01*
X85440Y199832D01*
X85211Y199693D01*
X85033Y199528D01*
X84906Y199337D01*
X84830Y199121D01*
X84804Y198880D01*
Y203960D01*
X84830Y203719D01*
D02*
G37*
G36*
X57150Y392113D02*
X49789Y384752D01*
X49193Y383859D01*
X49096Y383794D01*
X48610Y383476D01*
X48601Y383463D01*
X48587Y383454D01*
X48264Y382971D01*
X47936Y382491D01*
X47933Y382475D01*
X47924Y382462D01*
X47811Y381892D01*
X47691Y381323D01*
X47690Y381205D01*
X44750D01*
Y374630D01*
X51750D01*
Y373380D01*
X53000D01*
Y365555D01*
X57150D01*
Y343200D01*
X50780D01*
Y330200D01*
Y317200D01*
X57150D01*
Y315730D01*
X38030D01*
Y292917D01*
X38002Y292779D01*
X37971Y287779D01*
X37973Y287770D01*
X37971Y287761D01*
X38086Y287184D01*
X38197Y286607D01*
X38202Y286599D01*
X38204Y286590D01*
X38531Y286101D01*
X38636Y285941D01*
Y282225D01*
X39009Y280352D01*
X40069Y278764D01*
X40942Y277892D01*
X40972Y277739D01*
X41074Y277178D01*
X41089Y277155D01*
X41094Y277129D01*
X41411Y276654D01*
X41720Y276174D01*
X42250Y275626D01*
X43139Y274592D01*
X43450Y274174D01*
X43721Y273768D01*
X43932Y273402D01*
X44089Y273083D01*
X44195Y272813D01*
X44258Y272596D01*
X44320Y272266D01*
X44401Y272061D01*
X44491Y271382D01*
X45297Y269436D01*
X45714Y268892D01*
X45801Y268689D01*
X45992Y268412D01*
X46100Y268214D01*
X46215Y267948D01*
X46331Y267612D01*
X46440Y267203D01*
X46536Y266724D01*
X46611Y266209D01*
X46714Y264850D01*
X46727Y264087D01*
X46848Y263529D01*
X46959Y262969D01*
X46974Y262947D01*
X46980Y262921D01*
X47305Y262452D01*
X47391Y262323D01*
Y259198D01*
X47287Y259041D01*
X46959Y258550D01*
X46958Y258544D01*
X46954Y258538D01*
X46842Y257959D01*
X46726Y257379D01*
X46727Y257373D01*
X46726Y257367D01*
X46746Y252567D01*
X46755Y252521D01*
X46748Y252474D01*
X46753Y252324D01*
X46781Y252202D01*
X46771Y252078D01*
X46777Y252028D01*
X46785Y252003D01*
Y249866D01*
X46692Y249845D01*
X46145Y249736D01*
X46111Y249713D01*
X46072Y249704D01*
X45616Y249383D01*
X45153Y249073D01*
X45141Y249055D01*
X44885Y249004D01*
X43711Y248219D01*
X39741Y244249D01*
X38956Y243075D01*
X38681Y241690D01*
Y213730D01*
X38956Y212345D01*
X39741Y211171D01*
X45049Y205862D01*
X45104Y205630D01*
X45184Y205140D01*
X45239Y205052D01*
X45262Y204951D01*
X45551Y204548D01*
X45813Y204126D01*
X46731Y203143D01*
X46785Y203077D01*
Y194420D01*
X62435D01*
Y208420D01*
X53964D01*
X53908Y208457D01*
X52459Y209680D01*
X51890Y210233D01*
X51864Y210250D01*
X51846Y210275D01*
X51364Y210574D01*
X50889Y210883D01*
X50859Y210888D01*
X50833Y210905D01*
X50272Y210997D01*
X50125Y211024D01*
X45919Y215229D01*
Y224499D01*
X46785Y225410D01*
X47189Y225410D01*
X59235D01*
X59367Y225382D01*
X61186Y225360D01*
X61867Y225351D01*
X61891Y225354D01*
X61905Y225351D01*
X62435Y225410D01*
Y225457D01*
X62471Y225464D01*
X63040Y225570D01*
X63056Y225580D01*
X63075Y225584D01*
X63555Y225905D01*
X63787Y226056D01*
X65095Y226316D01*
X66269Y227101D01*
X67059Y227890D01*
X74896D01*
X75088Y227763D01*
X75580Y227434D01*
X75583Y227433D01*
X75586Y227432D01*
X76170Y227317D01*
X76220Y227307D01*
X76220Y227260D01*
X76750Y227201D01*
X76753Y227202D01*
X76757Y227201D01*
X78032Y227204D01*
X78052Y227208D01*
X78071Y227204D01*
X79196Y227221D01*
X79278Y227239D01*
X79361Y227228D01*
X79436Y227233D01*
X79535Y227260D01*
X85014D01*
X85035Y227167D01*
X85144Y226620D01*
X85167Y226586D01*
X85176Y226547D01*
X85497Y226092D01*
X85601Y225937D01*
Y208720D01*
X85354Y208420D01*
X72185D01*
Y194420D01*
X87835D01*
Y197185D01*
X87968Y197215D01*
X88515Y197324D01*
X88549Y197347D01*
X88589Y197356D01*
X89044Y197677D01*
X89198Y197780D01*
X94344D01*
X95252Y197366D01*
X95754Y197248D01*
X96248Y197103D01*
X96332Y197112D01*
X96414Y197093D01*
X97378Y196363D01*
X97585Y195994D01*
Y194420D01*
X113235D01*
Y208420D01*
X97585D01*
Y208034D01*
X97575Y208020D01*
X96576Y207383D01*
X96317Y207324D01*
X95781Y207411D01*
X95615Y207444D01*
X92840Y210219D01*
Y225937D01*
X92943Y226092D01*
X93265Y226547D01*
X93273Y226586D01*
X93296Y226620D01*
X93405Y227167D01*
X93426Y227260D01*
X102220D01*
Y250260D01*
X76220D01*
Y235716D01*
X76127Y235695D01*
X75580Y235586D01*
X75546Y235563D01*
X75507Y235554D01*
X75051Y235233D01*
X74897Y235130D01*
X65560D01*
X64175Y234854D01*
X63705Y234540D01*
X62435Y235219D01*
Y239410D01*
X46935Y239410D01*
X46143Y240414D01*
X47119Y241390D01*
X47316Y241351D01*
X47319Y241352D01*
X47322Y241351D01*
X48597Y241354D01*
X48616Y241358D01*
X48636Y241354D01*
X49761Y241371D01*
X49843Y241389D01*
X49926Y241378D01*
X50001Y241383D01*
X50100Y241410D01*
X62435D01*
Y255410D01*
X58018D01*
X58003Y255466D01*
X57922Y255956D01*
X57865Y256600D01*
X57843Y257460D01*
X57720Y258004D01*
X57611Y258550D01*
X57588Y258584D01*
X57579Y258624D01*
X57257Y259079D01*
X57179Y259196D01*
Y262323D01*
X57265Y262452D01*
X57590Y262921D01*
X57596Y262947D01*
X57611Y262969D01*
X57722Y263529D01*
X57843Y264087D01*
X57856Y264850D01*
X57959Y266209D01*
X58034Y266724D01*
X58130Y267204D01*
X58239Y267612D01*
X58355Y267948D01*
X58470Y268214D01*
X58578Y268412D01*
X58769Y268689D01*
X58856Y268892D01*
X59273Y269436D01*
X60079Y271382D01*
X60354Y273470D01*
X60249Y274268D01*
X61086Y275222D01*
X105410D01*
Y275222D01*
X106538Y274880D01*
X106870Y274636D01*
Y267970D01*
X107146Y266585D01*
X107931Y265411D01*
X109151Y264190D01*
X109158Y264172D01*
X108694Y262852D01*
X108366Y262816D01*
X107751Y263227D01*
X105410Y263692D01*
X103069Y263227D01*
X101084Y261901D01*
X99758Y259916D01*
X99292Y257575D01*
X99758Y255234D01*
X101084Y253249D01*
X103069Y251923D01*
X105045Y251530D01*
X104920Y250260D01*
X103690D01*
Y227260D01*
X121952D01*
X122031Y227206D01*
X122669Y226674D01*
X123040Y226318D01*
X123121Y226266D01*
X123181Y226190D01*
X123621Y225946D01*
X124045Y225674D01*
X124140Y225657D01*
X124224Y225611D01*
X124724Y225553D01*
X124790Y225541D01*
X130641Y219691D01*
X131815Y218906D01*
X133200Y218631D01*
X143900D01*
X145285Y218906D01*
X146459Y219691D01*
X154959Y228191D01*
X155744Y229365D01*
X156019Y230750D01*
Y259110D01*
X155744Y260495D01*
X154959Y261669D01*
X149538Y267091D01*
X149535Y267367D01*
X149434Y267602D01*
X149389Y267853D01*
X149202Y268145D01*
X149065Y268464D01*
X148883Y268643D01*
X148745Y268857D01*
X148346Y269272D01*
X148058Y269599D01*
X147864Y269845D01*
Y282460D01*
X147532Y284126D01*
X146588Y285539D01*
X145176Y286482D01*
X143510Y286814D01*
X141844Y286482D01*
X141010Y285925D01*
X140176Y286482D01*
X139760Y286565D01*
Y284534D01*
X139487Y284126D01*
X139156Y282460D01*
Y275230D01*
X137864D01*
Y282460D01*
X137533Y284126D01*
X137260Y284534D01*
Y286565D01*
X136844Y286482D01*
X136010Y285925D01*
X135176Y286482D01*
X133510Y286814D01*
X131844Y286482D01*
X131010Y285925D01*
X130176Y286482D01*
X128510Y286814D01*
X126844Y286482D01*
X126010Y285925D01*
X125176Y286482D01*
X123510Y286814D01*
X121844Y286482D01*
X120431Y285539D01*
X119488Y284126D01*
X119156Y282460D01*
Y268000D01*
X117916Y267780D01*
X115799D01*
X114109Y269469D01*
Y275629D01*
X114215Y275787D01*
X114537Y276246D01*
X114545Y276282D01*
X114566Y276312D01*
X114676Y276863D01*
X114798Y277411D01*
X114807Y277810D01*
X114829Y278109D01*
X114864Y278377D01*
X114909Y278614D01*
X114961Y278822D01*
X115020Y279002D01*
X115084Y279158D01*
X115150Y279292D01*
X115219Y279409D01*
X115364Y279613D01*
X115487Y279888D01*
X116142Y280869D01*
X116608Y283210D01*
X116142Y285551D01*
X114816Y287536D01*
X113687Y288290D01*
X114072Y289560D01*
X166001D01*
X166169Y289490D01*
X168910Y289129D01*
X171651Y289490D01*
X171819Y289560D01*
X181610D01*
Y3640D01*
X107913D01*
X107528Y4910D01*
X108911Y5834D01*
X110237Y7819D01*
X110454Y8910D01*
X98716D01*
X98933Y7819D01*
X100259Y5834D01*
X101643Y4910D01*
X101257Y3640D01*
X3810D01*
Y397680D01*
X57150D01*
Y392113D01*
D02*
G37*
%LPC*%
G36*
X74750Y381205D02*
X69000D01*
Y374630D01*
X74750D01*
Y381205D01*
D02*
G37*
G36*
Y372130D02*
X69000D01*
Y365555D01*
X74750D01*
Y372130D01*
D02*
G37*
G36*
X168910Y386511D02*
X166169Y386150D01*
X163615Y385092D01*
X161421Y383409D01*
X159738Y381215D01*
X158680Y378661D01*
X158319Y375920D01*
X158680Y373179D01*
X159738Y370625D01*
X161421Y368431D01*
X163615Y366748D01*
X166169Y365690D01*
X168910Y365329D01*
X171651Y365690D01*
X174205Y366748D01*
X176399Y368431D01*
X178082Y370625D01*
X179140Y373179D01*
X179501Y375920D01*
X179140Y378661D01*
X178082Y381215D01*
X176399Y383409D01*
X174205Y385092D01*
X171651Y386150D01*
X168910Y386511D01*
D02*
G37*
G36*
X68560Y361469D02*
Y356850D01*
X73179D01*
X72962Y357941D01*
X71636Y359926D01*
X69651Y361252D01*
X68560Y361469D01*
D02*
G37*
G36*
X73179Y354350D02*
X68560D01*
Y349731D01*
X69651Y349948D01*
X71636Y351274D01*
X72962Y353259D01*
X73179Y354350D01*
D02*
G37*
G36*
X129430Y350680D02*
X123680D01*
Y344150D01*
X129430D01*
Y350680D01*
D02*
G37*
G36*
X121180D02*
X115430D01*
Y344150D01*
X121180D01*
Y350680D01*
D02*
G37*
G36*
X168910Y361111D02*
X166169Y360750D01*
X163615Y359692D01*
X161421Y358009D01*
X159738Y355815D01*
X158680Y353261D01*
X158319Y350520D01*
X158680Y347779D01*
X159738Y345225D01*
X161421Y343031D01*
X163615Y341348D01*
X166169Y340290D01*
X168910Y339929D01*
X171651Y340290D01*
X174205Y341348D01*
X176399Y343031D01*
X178082Y345225D01*
X179140Y347779D01*
X179501Y350520D01*
X179140Y353261D01*
X178082Y355815D01*
X176399Y358009D01*
X174205Y359692D01*
X171651Y360750D01*
X168910Y361111D01*
D02*
G37*
G36*
Y335711D02*
X166169Y335350D01*
X163615Y334292D01*
X161421Y332609D01*
X159738Y330415D01*
X158680Y327861D01*
X158319Y325120D01*
X158680Y322379D01*
X159738Y319825D01*
X161421Y317631D01*
X163615Y315948D01*
X166169Y314890D01*
X168910Y314529D01*
X171651Y314890D01*
X174205Y315948D01*
X176399Y317631D01*
X178082Y319825D01*
X179140Y322379D01*
X179501Y325120D01*
X179140Y327861D01*
X178082Y330415D01*
X176399Y332609D01*
X174205Y334292D01*
X171651Y335350D01*
X168910Y335711D01*
D02*
G37*
G36*
X111360Y319570D02*
X101860D01*
X92360D01*
Y311820D01*
X96921D01*
X97174Y310550D01*
X95576Y309888D01*
X93904Y308606D01*
X92622Y306935D01*
X91816Y304988D01*
X91706Y304150D01*
X107514D01*
X107404Y304988D01*
X106598Y306935D01*
X105316Y308606D01*
X103645Y309888D01*
X102046Y310550D01*
X102299Y311820D01*
X111360D01*
Y319570D01*
D02*
G37*
G36*
X107514Y301650D02*
X100860D01*
Y294995D01*
X101698Y295106D01*
X103645Y295912D01*
X105316Y297194D01*
X106598Y298865D01*
X107404Y300812D01*
X107514Y301650D01*
D02*
G37*
G36*
X98360D02*
X91706D01*
X91816Y300812D01*
X92622Y298865D01*
X93904Y297194D01*
X95576Y295912D01*
X97521Y295106D01*
X98360Y294995D01*
Y301650D01*
D02*
G37*
G36*
X95610Y292260D02*
X89860D01*
Y285730D01*
X95610D01*
Y292260D01*
D02*
G37*
G36*
X50500Y372130D02*
X44750D01*
Y365555D01*
X50500D01*
Y372130D01*
D02*
G37*
G36*
X16510Y386511D02*
X13769Y386150D01*
X11215Y385092D01*
X9021Y383409D01*
X7338Y381215D01*
X6280Y378661D01*
X5919Y375920D01*
X6280Y373179D01*
X7338Y370625D01*
X9021Y368431D01*
X11215Y366748D01*
X13769Y365690D01*
X16510Y365329D01*
X19251Y365690D01*
X21805Y366748D01*
X23999Y368431D01*
X25682Y370625D01*
X26740Y373179D01*
X27101Y375920D01*
X26740Y378661D01*
X25682Y381215D01*
X23999Y383409D01*
X21805Y385092D01*
X19251Y386150D01*
X16510Y386511D01*
D02*
G37*
G36*
Y361111D02*
X13769Y360750D01*
X11215Y359692D01*
X9021Y358009D01*
X7338Y355815D01*
X6280Y353261D01*
X5919Y350520D01*
X6280Y347779D01*
X7338Y345225D01*
X9021Y343031D01*
X11215Y341348D01*
X13769Y340290D01*
X16510Y339929D01*
X19251Y340290D01*
X21805Y341348D01*
X23999Y343031D01*
X25682Y345225D01*
X26740Y347779D01*
X27101Y350520D01*
X26740Y353261D01*
X25682Y355815D01*
X23999Y358009D01*
X21805Y359692D01*
X19251Y360750D01*
X16510Y361111D01*
D02*
G37*
G36*
X48280Y343200D02*
X38030D01*
Y331450D01*
X48280D01*
Y343200D01*
D02*
G37*
G36*
Y328950D02*
X38030D01*
Y317200D01*
X48280D01*
Y328950D01*
D02*
G37*
G36*
X16510Y335711D02*
X13769Y335350D01*
X11215Y334292D01*
X9021Y332609D01*
X7338Y330415D01*
X6280Y327861D01*
X5919Y325120D01*
X6280Y322379D01*
X7338Y319825D01*
X9021Y317631D01*
X11215Y315948D01*
X13769Y314890D01*
X16510Y314529D01*
X19251Y314890D01*
X21805Y315948D01*
X23999Y317631D01*
X25682Y319825D01*
X26740Y322379D01*
X27101Y325120D01*
X26740Y327861D01*
X25682Y330415D01*
X23999Y332609D01*
X21805Y334292D01*
X19251Y335350D01*
X16510Y335711D01*
D02*
G37*
G36*
Y310311D02*
X13769Y309950D01*
X11215Y308892D01*
X9021Y307209D01*
X7338Y305015D01*
X6280Y302461D01*
X5919Y299720D01*
X6280Y296979D01*
X7338Y294425D01*
X9021Y292231D01*
X11215Y290548D01*
X13769Y289490D01*
X16510Y289129D01*
X19251Y289490D01*
X21805Y290548D01*
X23999Y292231D01*
X25682Y294425D01*
X26740Y296979D01*
X27101Y299720D01*
X26740Y302461D01*
X25682Y305015D01*
X23999Y307209D01*
X21805Y308892D01*
X19251Y309950D01*
X16510Y310311D01*
D02*
G37*
G36*
X168910Y284911D02*
X166169Y284550D01*
X163615Y283492D01*
X161421Y281809D01*
X159738Y279615D01*
X158680Y277061D01*
X158319Y274320D01*
X158680Y271579D01*
X159738Y269025D01*
X161421Y266831D01*
X163615Y265148D01*
X166169Y264090D01*
X168910Y263729D01*
X171651Y264090D01*
X174205Y265148D01*
X176399Y266831D01*
X178082Y269025D01*
X179140Y271579D01*
X179501Y274320D01*
X179140Y277061D01*
X178082Y279615D01*
X176399Y281809D01*
X174205Y283492D01*
X171651Y284550D01*
X168910Y284911D01*
D02*
G37*
G36*
X16510D02*
X13769Y284550D01*
X11215Y283492D01*
X9021Y281809D01*
X7338Y279615D01*
X6280Y277061D01*
X5919Y274320D01*
X6280Y271579D01*
X7338Y269025D01*
X9021Y266831D01*
X11215Y265148D01*
X13769Y264090D01*
X16510Y263729D01*
X19251Y264090D01*
X21805Y265148D01*
X23999Y266831D01*
X25682Y269025D01*
X26740Y271579D01*
X27101Y274320D01*
X26740Y277061D01*
X25682Y279615D01*
X23999Y281809D01*
X21805Y283492D01*
X19251Y284550D01*
X16510Y284911D01*
D02*
G37*
G36*
X168910Y259511D02*
X166169Y259150D01*
X163615Y258092D01*
X161421Y256409D01*
X159738Y254215D01*
X158680Y251661D01*
X158319Y248920D01*
X158680Y246179D01*
X159738Y243625D01*
X161421Y241431D01*
X163615Y239748D01*
X166169Y238690D01*
X168910Y238329D01*
X171651Y238690D01*
X174205Y239748D01*
X176399Y241431D01*
X178082Y243625D01*
X179140Y246179D01*
X179501Y248920D01*
X179140Y251661D01*
X178082Y254215D01*
X176399Y256409D01*
X174205Y258092D01*
X171651Y259150D01*
X168910Y259511D01*
D02*
G37*
G36*
X16510D02*
X13769Y259150D01*
X11215Y258092D01*
X9021Y256409D01*
X7338Y254215D01*
X6280Y251661D01*
X5919Y248920D01*
X6280Y246179D01*
X7338Y243625D01*
X9021Y241431D01*
X11215Y239748D01*
X13769Y238690D01*
X16510Y238329D01*
X19251Y238690D01*
X21805Y239748D01*
X23999Y241431D01*
X25682Y243625D01*
X26740Y246179D01*
X27101Y248920D01*
X26740Y251661D01*
X25682Y254215D01*
X23999Y256409D01*
X21805Y258092D01*
X19251Y259150D01*
X16510Y259511D01*
D02*
G37*
G36*
X168910Y234111D02*
X166169Y233750D01*
X163615Y232692D01*
X161421Y231009D01*
X159738Y228815D01*
X158680Y226261D01*
X158319Y223520D01*
X158680Y220779D01*
X159738Y218225D01*
X161421Y216031D01*
X163615Y214348D01*
X166169Y213290D01*
X168910Y212929D01*
X171651Y213290D01*
X174205Y214348D01*
X176399Y216031D01*
X178082Y218225D01*
X179140Y220779D01*
X179501Y223520D01*
X179140Y226261D01*
X178082Y228815D01*
X176399Y231009D01*
X174205Y232692D01*
X171651Y233750D01*
X168910Y234111D01*
D02*
G37*
G36*
X16510D02*
X13769Y233750D01*
X11215Y232692D01*
X9021Y231009D01*
X7338Y228815D01*
X6280Y226261D01*
X5919Y223520D01*
X6280Y220779D01*
X7338Y218225D01*
X9021Y216031D01*
X11215Y214348D01*
X13769Y213290D01*
X16510Y212929D01*
X19251Y213290D01*
X21805Y214348D01*
X23999Y216031D01*
X25682Y218225D01*
X26740Y220779D01*
X27101Y223520D01*
X26740Y226261D01*
X25682Y228815D01*
X23999Y231009D01*
X21805Y232692D01*
X19251Y233750D01*
X16510Y234111D01*
D02*
G37*
G36*
X138889Y208420D02*
X123239D01*
Y194420D01*
X138889D01*
Y195680D01*
X138890Y195682D01*
X138947Y195791D01*
X139016Y195891D01*
X139269Y196075D01*
X140159Y196436D01*
X140190Y196422D01*
X141169Y195768D01*
X143510Y195302D01*
X145851Y195768D01*
X147836Y197094D01*
X149162Y199079D01*
X149628Y201420D01*
X149162Y203761D01*
X147836Y205746D01*
X145851Y207072D01*
X143510Y207537D01*
X141169Y207072D01*
X140190Y206418D01*
X140159Y206404D01*
X139269Y206765D01*
X139016Y206948D01*
X138947Y207049D01*
X138890Y207158D01*
X138889Y207160D01*
Y208420D01*
D02*
G37*
G36*
Y192420D02*
X123239D01*
Y189655D01*
X123106Y189625D01*
X122559Y189516D01*
X122525Y189493D01*
X122486Y189485D01*
X122030Y189163D01*
X121876Y189060D01*
X114598D01*
X114443Y189163D01*
X113988Y189485D01*
X113949Y189493D01*
X113915Y189516D01*
X113368Y189625D01*
X113235Y189655D01*
Y192420D01*
X97585D01*
Y180746D01*
X96315Y180067D01*
X95051Y180912D01*
X93960Y181129D01*
Y176510D01*
X98579D01*
X98452Y177150D01*
X99226Y178420D01*
X113235D01*
Y181185D01*
X113368Y181215D01*
X113915Y181324D01*
X113949Y181347D01*
X113988Y181355D01*
X114444Y181677D01*
X114598Y181780D01*
X121876D01*
X122031Y181677D01*
X122486Y181355D01*
X122525Y181347D01*
X122559Y181324D01*
X123106Y181215D01*
X123239Y181185D01*
Y178420D01*
X126829D01*
X126859Y178287D01*
X126968Y177740D01*
X126991Y177706D01*
X127000Y177667D01*
X127321Y177211D01*
X127424Y177057D01*
Y158982D01*
X127321Y158828D01*
X127000Y158373D01*
X126991Y158334D01*
X126968Y158300D01*
X126859Y157753D01*
X126829Y157620D01*
X123284D01*
Y143620D01*
X138844D01*
Y157620D01*
X135299D01*
X135269Y157753D01*
X135160Y158300D01*
X135137Y158334D01*
X135128Y158373D01*
X134807Y158829D01*
X134704Y158982D01*
Y177057D01*
X134807Y177212D01*
X135128Y177667D01*
X135137Y177706D01*
X135160Y177740D01*
X135269Y178287D01*
X135299Y178420D01*
X138889D01*
Y192420D01*
D02*
G37*
G36*
X168910Y208711D02*
X166169Y208350D01*
X163615Y207292D01*
X161421Y205609D01*
X159738Y203415D01*
X158680Y200861D01*
X158319Y198120D01*
X158680Y195379D01*
X159738Y192825D01*
X161421Y190631D01*
X163615Y188948D01*
X166169Y187890D01*
X168910Y187529D01*
X171651Y187890D01*
X174205Y188948D01*
X176399Y190631D01*
X178082Y192825D01*
X179140Y195379D01*
X179501Y198120D01*
X179140Y200861D01*
X178082Y203415D01*
X176399Y205609D01*
X174205Y207292D01*
X171651Y208350D01*
X168910Y208711D01*
D02*
G37*
G36*
X16510D02*
X13769Y208350D01*
X11215Y207292D01*
X9021Y205609D01*
X7338Y203415D01*
X6280Y200861D01*
X5919Y198120D01*
X6280Y195379D01*
X7338Y192825D01*
X9021Y190631D01*
X11215Y188948D01*
X13769Y187890D01*
X16510Y187529D01*
X19251Y187890D01*
X21805Y188948D01*
X23999Y190631D01*
X25682Y192825D01*
X26740Y195379D01*
X27101Y198120D01*
X26740Y200861D01*
X25682Y203415D01*
X23999Y205609D01*
X21805Y207292D01*
X19251Y208350D01*
X16510Y208711D01*
D02*
G37*
G36*
X87835Y192420D02*
X81260D01*
Y186670D01*
X87835D01*
Y192420D01*
D02*
G37*
G36*
X78760D02*
X72185D01*
Y186670D01*
X78760D01*
Y192420D01*
D02*
G37*
G36*
Y184170D02*
X72185D01*
Y178420D01*
X78760D01*
Y184170D01*
D02*
G37*
G36*
X87835D02*
X81260D01*
Y178420D01*
X86194D01*
X86968Y177150D01*
X86841Y176510D01*
X91460D01*
Y181129D01*
X90369Y180912D01*
X89105Y180067D01*
X87835Y180746D01*
Y184170D01*
D02*
G37*
G36*
X168910Y183311D02*
X166169Y182950D01*
X163615Y181892D01*
X161421Y180209D01*
X159738Y178015D01*
X158680Y175461D01*
X158319Y172720D01*
X158680Y169979D01*
X159738Y167425D01*
X161421Y165231D01*
X163615Y163548D01*
X166169Y162490D01*
X168910Y162129D01*
X171651Y162490D01*
X174205Y163548D01*
X176399Y165231D01*
X178082Y167425D01*
X179140Y169979D01*
X179501Y172720D01*
X179140Y175461D01*
X178082Y178015D01*
X176399Y180209D01*
X174205Y181892D01*
X171651Y182950D01*
X168910Y183311D01*
D02*
G37*
G36*
X16510D02*
X13769Y182950D01*
X11215Y181892D01*
X9021Y180209D01*
X7338Y178015D01*
X6280Y175461D01*
X5919Y172720D01*
X6280Y169979D01*
X7338Y167425D01*
X9021Y165231D01*
X11215Y163548D01*
X13769Y162490D01*
X16510Y162129D01*
X19251Y162490D01*
X21805Y163548D01*
X23999Y165231D01*
X25682Y167425D01*
X26740Y169979D01*
X27101Y172720D01*
X26740Y175461D01*
X25682Y178015D01*
X23999Y180209D01*
X21805Y181892D01*
X19251Y182950D01*
X16510Y183311D01*
D02*
G37*
G36*
X87790Y157620D02*
X81260D01*
Y151870D01*
X87790D01*
Y157620D01*
D02*
G37*
G36*
X78760D02*
X72230D01*
Y151870D01*
X78760D01*
Y157620D01*
D02*
G37*
G36*
X87790Y149370D02*
X81260D01*
Y143620D01*
X87790D01*
Y149370D01*
D02*
G37*
G36*
X168910Y157911D02*
X166169Y157550D01*
X163615Y156492D01*
X161421Y154809D01*
X159738Y152615D01*
X158680Y150061D01*
X158319Y147320D01*
X158680Y144579D01*
X159738Y142025D01*
X161421Y139831D01*
X163615Y138148D01*
X166169Y137090D01*
X168910Y136729D01*
X171651Y137090D01*
X174205Y138148D01*
X176399Y139831D01*
X178082Y142025D01*
X179140Y144579D01*
X179501Y147320D01*
X179140Y150061D01*
X178082Y152615D01*
X176399Y154809D01*
X174205Y156492D01*
X171651Y157550D01*
X168910Y157911D01*
D02*
G37*
G36*
X16510D02*
X13769Y157550D01*
X11215Y156492D01*
X9021Y154809D01*
X7338Y152615D01*
X6280Y150061D01*
X5919Y147320D01*
X6280Y144579D01*
X7338Y142025D01*
X9021Y139831D01*
X11215Y138148D01*
X13769Y137090D01*
X16510Y136729D01*
X19251Y137090D01*
X21805Y138148D01*
X23999Y139831D01*
X25682Y142025D01*
X26740Y144579D01*
X27101Y147320D01*
X26740Y150061D01*
X25682Y152615D01*
X23999Y154809D01*
X21805Y156492D01*
X19251Y157550D01*
X16510Y157911D01*
D02*
G37*
G36*
X53360Y141620D02*
X46785D01*
Y135870D01*
X53360D01*
Y141620D01*
D02*
G37*
G36*
X62435Y133370D02*
X55860D01*
Y127620D01*
X62435D01*
Y133370D01*
D02*
G37*
G36*
X53360D02*
X46785D01*
Y127620D01*
X53360D01*
Y133370D01*
D02*
G37*
G36*
X62435Y192420D02*
X46785D01*
Y178420D01*
X50375D01*
X50405Y178287D01*
X50514Y177740D01*
X50537Y177706D01*
X50546Y177667D01*
X50867Y177211D01*
X50970Y177057D01*
Y162201D01*
X50554Y161282D01*
X50439Y160790D01*
X50295Y160306D01*
X50304Y160212D01*
X50283Y160120D01*
X50365Y159621D01*
X50417Y159119D01*
X50462Y159036D01*
X50477Y158942D01*
X50557Y158815D01*
X50034Y157620D01*
X46785D01*
Y143620D01*
X60466D01*
X61272Y142638D01*
X61192Y142240D01*
X60684Y141620D01*
X55860D01*
Y135870D01*
X62435D01*
Y136754D01*
X63705Y137433D01*
X64969Y136588D01*
X66060Y136371D01*
Y142240D01*
Y148109D01*
X64969Y147892D01*
X63705Y147047D01*
X62435Y147726D01*
Y157620D01*
X60321D01*
X60312Y157624D01*
X60102Y157764D01*
X59937Y157933D01*
X59784Y158205D01*
X59625Y158890D01*
X59652Y158923D01*
X59915Y159206D01*
X60200Y159668D01*
X60502Y160119D01*
X60513Y160174D01*
X60542Y160222D01*
X60629Y160758D01*
X60662Y160924D01*
X63738Y164000D01*
X86057D01*
X95833Y154224D01*
X95867Y154057D01*
X95953Y153522D01*
X95983Y153474D01*
X95993Y153419D01*
X96295Y152968D01*
X96580Y152506D01*
X97445Y151576D01*
X97585Y151402D01*
Y149850D01*
X97058Y149229D01*
X96620Y148776D01*
X96310Y148295D01*
X95993Y147821D01*
X95988Y147795D01*
X95974Y147772D01*
X95872Y147210D01*
X95833Y147016D01*
X90136Y141319D01*
X89347Y140138D01*
X89070Y138745D01*
Y121541D01*
X88960Y121377D01*
X88635Y120909D01*
X88630Y120882D01*
X88614Y120859D01*
X88503Y120300D01*
X88382Y119743D01*
X88370Y119107D01*
X88348Y118731D01*
X87752Y117839D01*
X87725Y117814D01*
X87701Y117764D01*
X87058Y116801D01*
X87007Y116546D01*
X85713D01*
X85662Y116801D01*
X85019Y117764D01*
X84995Y117814D01*
X84968Y117839D01*
X84447Y118619D01*
X84448Y118621D01*
X84500Y118829D01*
X84557Y119008D01*
X84619Y119160D01*
X84682Y119289D01*
X84746Y119398D01*
X84885Y119595D01*
X85008Y119870D01*
X85662Y120849D01*
X86128Y123190D01*
X85662Y125531D01*
X85115Y126350D01*
X85271Y126925D01*
X85540Y127352D01*
X85850Y127620D01*
X87790D01*
Y141620D01*
X73936D01*
X73428Y142240D01*
X73348Y142638D01*
X74154Y143620D01*
X78760D01*
Y149370D01*
X72230D01*
Y147696D01*
X70960Y147017D01*
X69651Y147892D01*
X68560Y148109D01*
Y142240D01*
Y136371D01*
X69651Y136588D01*
X70960Y137463D01*
X72230Y136784D01*
Y127620D01*
X74170D01*
X74480Y127352D01*
X74749Y126925D01*
X74905Y126350D01*
X74358Y125531D01*
X73892Y123190D01*
X74358Y120849D01*
X75012Y119870D01*
X75135Y119595D01*
X75274Y119398D01*
X75338Y119289D01*
X75402Y119160D01*
X75463Y119008D01*
X75520Y118829D01*
X75572Y118621D01*
X75573Y118619D01*
X75052Y117839D01*
X75025Y117814D01*
X75001Y117764D01*
X74358Y116801D01*
X74307Y116546D01*
X73013D01*
X72962Y116801D01*
X71636Y118786D01*
X69651Y120112D01*
X68560Y120329D01*
Y107960D01*
Y95591D01*
X69651Y95808D01*
X70640Y96469D01*
X71910Y95790D01*
Y85710D01*
X86360D01*
X100810D01*
Y95790D01*
X102080Y96469D01*
X103069Y95808D01*
X105410Y95343D01*
X107751Y95808D01*
X109736Y97134D01*
X111062Y99119D01*
X111528Y101460D01*
Y114460D01*
X111062Y116801D01*
X110419Y117764D01*
X110395Y117814D01*
X110368Y117839D01*
X109786Y118711D01*
X109749Y119146D01*
X109738Y119743D01*
X109617Y120300D01*
X109506Y120859D01*
X109490Y120882D01*
X109485Y120909D01*
X109160Y121377D01*
X109050Y121541D01*
Y126257D01*
X109153Y126412D01*
X109474Y126867D01*
X109483Y126906D01*
X109506Y126940D01*
X109615Y127487D01*
X109645Y127620D01*
X113235D01*
Y130385D01*
X113368Y130415D01*
X113915Y130524D01*
X113949Y130547D01*
X113989Y130556D01*
X114444Y130877D01*
X114598Y130980D01*
X121922D01*
X122075Y130877D01*
X122530Y130556D01*
X122570Y130547D01*
X122604Y130524D01*
X123151Y130415D01*
X123284Y130385D01*
Y127620D01*
X138844D01*
Y141620D01*
X123284D01*
Y138855D01*
X123151Y138825D01*
X122604Y138716D01*
X122570Y138693D01*
X122530Y138684D01*
X122075Y138363D01*
X121922Y138260D01*
X114598D01*
X114444Y138363D01*
X113989Y138684D01*
X113949Y138693D01*
X113915Y138716D01*
X113368Y138825D01*
X113235Y138855D01*
Y141620D01*
X103623D01*
X103187Y142790D01*
X103914Y143620D01*
X113235D01*
Y157620D01*
X103815D01*
X103194Y158147D01*
X102741Y158585D01*
X102260Y158895D01*
X101786Y159212D01*
X101760Y159217D01*
X101737Y159231D01*
X101175Y159333D01*
X100981Y159372D01*
X92331Y168022D01*
X92957Y169192D01*
X95051Y169608D01*
X97036Y170934D01*
X98362Y172919D01*
X98579Y174010D01*
X86841D01*
X87058Y172919D01*
X87305Y172550D01*
X86626Y171280D01*
X62230D01*
X60837Y171003D01*
X59656Y170214D01*
X59423Y169981D01*
X58250Y170467D01*
Y177057D01*
X58353Y177212D01*
X58675Y177667D01*
X58683Y177706D01*
X58706Y177740D01*
X58815Y178287D01*
X58845Y178420D01*
X62435D01*
Y192420D01*
D02*
G37*
G36*
X168910Y132511D02*
X166169Y132150D01*
X163615Y131092D01*
X161421Y129409D01*
X159738Y127215D01*
X158680Y124661D01*
X158319Y121920D01*
X158680Y119179D01*
X159738Y116625D01*
X161421Y114431D01*
X163615Y112748D01*
X166169Y111690D01*
X168910Y111329D01*
X171651Y111690D01*
X174205Y112748D01*
X176399Y114431D01*
X178082Y116625D01*
X179140Y119179D01*
X179501Y121920D01*
X179140Y124661D01*
X178082Y127215D01*
X176399Y129409D01*
X174205Y131092D01*
X171651Y132150D01*
X168910Y132511D01*
D02*
G37*
G36*
X16510D02*
X13769Y132150D01*
X11215Y131092D01*
X9021Y129409D01*
X7338Y127215D01*
X6280Y124661D01*
X5919Y121920D01*
X6280Y119179D01*
X7338Y116625D01*
X9021Y114431D01*
X11215Y112748D01*
X13769Y111690D01*
X16510Y111329D01*
X19251Y111690D01*
X21805Y112748D01*
X23999Y114431D01*
X25682Y116625D01*
X26740Y119179D01*
X27101Y121920D01*
X26740Y124661D01*
X25682Y127215D01*
X23999Y129409D01*
X21805Y131092D01*
X19251Y132150D01*
X16510Y132511D01*
D02*
G37*
G36*
X52285Y125964D02*
X50197Y125689D01*
X48250Y124883D01*
X46579Y123601D01*
X45297Y121930D01*
X44491Y119983D01*
X44216Y117895D01*
X44491Y115807D01*
X45297Y113861D01*
X45684Y113357D01*
X45767Y113161D01*
X45967Y112865D01*
X46086Y112648D01*
X46208Y112371D01*
X46327Y112030D01*
X46437Y111625D01*
X46535Y111155D01*
X46610Y110655D01*
X46714Y109337D01*
X46727Y108600D01*
X46848Y108043D01*
X46959Y107485D01*
X46975Y107461D01*
X46981Y107434D01*
X47306Y106966D01*
X47622Y106492D01*
X47645Y106477D01*
X47661Y106454D01*
X48141Y106145D01*
X48228Y106088D01*
X48824Y105194D01*
X49229Y104790D01*
X48703Y103520D01*
X37258D01*
X37115Y103548D01*
X36973Y103520D01*
X34085D01*
Y102177D01*
X32930Y102092D01*
X32068Y102078D01*
X31603Y101979D01*
X31177Y102077D01*
X30182Y102109D01*
X29308Y102193D01*
X28457Y102332D01*
X27628Y102526D01*
X26817Y102774D01*
X26021Y103079D01*
X25239Y103441D01*
X24467Y103862D01*
X23705Y104344D01*
X22877Y104942D01*
X22642Y105049D01*
X21805Y105692D01*
X19251Y106750D01*
X16510Y107111D01*
X13769Y106750D01*
X11215Y105692D01*
X9021Y104009D01*
X7338Y101815D01*
X6280Y99261D01*
X5919Y96520D01*
X6280Y93779D01*
X7338Y91225D01*
X9021Y89031D01*
X11215Y87348D01*
X13769Y86290D01*
X16510Y85929D01*
X19251Y86290D01*
X21805Y87348D01*
X22642Y87991D01*
X22877Y88098D01*
X23705Y88696D01*
X24467Y89178D01*
X25238Y89599D01*
X26021Y89961D01*
X26817Y90266D01*
X27628Y90514D01*
X28457Y90708D01*
X29308Y90847D01*
X30182Y90931D01*
X31177Y90963D01*
X31598Y91060D01*
X32016Y90963D01*
X33716Y90907D01*
X34085Y90871D01*
Y89520D01*
X36973D01*
X37115Y89492D01*
X37258Y89520D01*
X49498D01*
X50228Y88454D01*
X49346Y87572D01*
X46849Y87559D01*
X46792Y87547D01*
X46733Y87556D01*
X46613Y87551D01*
X46485Y87520D01*
X46358D01*
X46308Y87523D01*
X46289Y87520D01*
X34085D01*
Y73520D01*
X45115D01*
X45867Y72401D01*
X45510Y71520D01*
X34085D01*
Y57520D01*
X49735D01*
Y61351D01*
X50475Y61499D01*
X51457Y62155D01*
X51697Y62056D01*
X53785Y61781D01*
X55873Y62056D01*
X57819Y62862D01*
X59491Y64144D01*
X59922Y64707D01*
X61192Y64276D01*
Y54460D01*
X61658Y52119D01*
X62522Y50826D01*
X61583Y49946D01*
X59966Y51187D01*
X57382Y52257D01*
X55860Y52457D01*
Y43160D01*
X65157D01*
X64957Y44682D01*
X63887Y47266D01*
X62724Y48780D01*
X63604Y49720D01*
X64969Y48808D01*
X67310Y48342D01*
X69651Y48808D01*
X70823Y49591D01*
X71711Y48657D01*
X71511Y48388D01*
X71391Y48136D01*
X70723Y47266D01*
X69653Y44682D01*
X69288Y41910D01*
X69653Y39138D01*
X70723Y36554D01*
X71391Y35684D01*
X71511Y35432D01*
X72365Y34284D01*
X73785Y32122D01*
X74313Y31182D01*
X74348Y31111D01*
X74315Y31042D01*
X73788Y30102D01*
X72369Y27940D01*
X71516Y26792D01*
X71398Y26541D01*
X70733Y25676D01*
X69663Y23092D01*
X69298Y20320D01*
X69663Y17548D01*
X70733Y14964D01*
X72436Y12746D01*
X74654Y11043D01*
X77238Y9973D01*
X80010Y9608D01*
X82782Y9973D01*
X85366Y11043D01*
X87584Y12746D01*
X89287Y14964D01*
X90357Y17548D01*
X90722Y20320D01*
X90357Y23092D01*
X89287Y25676D01*
X88622Y26541D01*
X88504Y26792D01*
X87651Y27940D01*
X86232Y30102D01*
X85705Y31042D01*
X85667Y31119D01*
X85704Y31193D01*
X86230Y32134D01*
X87646Y34295D01*
X88498Y35444D01*
X88616Y35694D01*
X89277Y36554D01*
X90347Y39138D01*
X90712Y41910D01*
X90381Y44422D01*
X91043Y44918D01*
X91520Y45079D01*
X98149Y38449D01*
X99737Y37389D01*
X101610Y37016D01*
X122360D01*
X123404Y37223D01*
X123773Y37104D01*
X123924Y37116D01*
X124071Y37084D01*
X124514Y37164D01*
X124963Y37200D01*
X125097Y37268D01*
X125246Y37295D01*
X125625Y37538D01*
X126025Y37743D01*
X126123Y37858D01*
X126250Y37940D01*
X128166Y39786D01*
X128913Y40435D01*
X135510D01*
Y52912D01*
X135538Y53054D01*
X135510Y53197D01*
Y56085D01*
X135131D01*
X134172Y57355D01*
X134184Y57509D01*
X134259Y58024D01*
X134355Y58503D01*
X134464Y58912D01*
X134580Y59248D01*
X134695Y59514D01*
X134803Y59712D01*
X134994Y59989D01*
X135081Y60192D01*
X135498Y60736D01*
X136304Y62682D01*
X136579Y64770D01*
X136304Y66858D01*
X135498Y68804D01*
X135081Y69348D01*
X134994Y69551D01*
X134803Y69828D01*
X134695Y70026D01*
X134580Y70292D01*
X134464Y70628D01*
X134355Y71037D01*
X134259Y71516D01*
X134184Y72031D01*
X134107Y73057D01*
X134560Y74280D01*
X136290D01*
Y77168D01*
X136318Y77310D01*
X136290Y77453D01*
Y77571D01*
X136298Y77666D01*
X136290Y77689D01*
Y88280D01*
X120730D01*
Y77689D01*
X120722Y77666D01*
X120730Y77571D01*
Y77453D01*
X120702Y77310D01*
X120730Y77168D01*
Y74280D01*
X122460D01*
X122914Y73057D01*
X122836Y72031D01*
X122761Y71516D01*
X122665Y71037D01*
X122556Y70628D01*
X122440Y70292D01*
X122325Y70026D01*
X122217Y69828D01*
X122026Y69551D01*
X121939Y69348D01*
X121522Y68804D01*
X120716Y66858D01*
X120441Y64770D01*
X120716Y62682D01*
X121522Y60736D01*
X121939Y60192D01*
X122026Y59989D01*
X122217Y59712D01*
X122325Y59514D01*
X122440Y59248D01*
X122556Y58912D01*
X122665Y58503D01*
X122761Y58024D01*
X122836Y57509D01*
X122848Y57355D01*
X121861Y56085D01*
X121510D01*
Y53197D01*
X121482Y53054D01*
X121510Y52912D01*
Y49218D01*
X119503Y46921D01*
X119387Y46804D01*
X103836D01*
X103326Y47462D01*
X104024Y48618D01*
X105410Y48342D01*
X107751Y48808D01*
X109736Y50134D01*
X111062Y52119D01*
X111528Y54460D01*
Y67460D01*
X111062Y69801D01*
X109736Y71786D01*
X107751Y73112D01*
X105410Y73577D01*
X103069Y73112D01*
X102080Y72451D01*
X100810Y73130D01*
Y83210D01*
X86360D01*
X71910D01*
Y73130D01*
X70640Y72451D01*
X69651Y73112D01*
X67310Y73577D01*
X64969Y73112D01*
X62984Y71786D01*
X62829Y71553D01*
X61592Y71841D01*
X61579Y71938D01*
X60773Y73885D01*
X59491Y75556D01*
X57819Y76838D01*
X55873Y77644D01*
X55151Y77739D01*
X54696Y79080D01*
X59341Y83724D01*
X60402Y85312D01*
X60774Y87185D01*
Y98156D01*
X62044Y98541D01*
X62984Y97134D01*
X64969Y95808D01*
X66060Y95591D01*
Y107960D01*
Y120329D01*
X64969Y120112D01*
X62984Y118786D01*
X61658Y116801D01*
X61192Y114460D01*
Y108035D01*
X59922Y107650D01*
X59341Y108521D01*
X57905Y109956D01*
X57960Y110655D01*
X58035Y111155D01*
X58133Y111625D01*
X58243Y112030D01*
X58362Y112371D01*
X58484Y112648D01*
X58603Y112865D01*
X58804Y113161D01*
X58886Y113357D01*
X59273Y113861D01*
X60079Y115807D01*
X60354Y117895D01*
X60079Y119983D01*
X59273Y121930D01*
X57991Y123601D01*
X56319Y124883D01*
X54373Y125689D01*
X52285Y125964D01*
D02*
G37*
G36*
X136290Y104280D02*
X129760D01*
Y98530D01*
X136290D01*
Y104280D01*
D02*
G37*
G36*
X127260D02*
X120730D01*
Y98530D01*
X127260D01*
Y104280D01*
D02*
G37*
G36*
X136290Y96030D02*
X129760D01*
Y90280D01*
X136290D01*
Y96030D01*
D02*
G37*
G36*
X127260D02*
X120730D01*
Y90280D01*
X127260D01*
Y96030D01*
D02*
G37*
G36*
X168910Y107111D02*
X166169Y106750D01*
X163615Y105692D01*
X161421Y104009D01*
X159738Y101815D01*
X158680Y99261D01*
X158319Y96520D01*
X158680Y93779D01*
X159738Y91225D01*
X161421Y89031D01*
X163615Y87348D01*
X166169Y86290D01*
X168910Y85929D01*
X171651Y86290D01*
X174205Y87348D01*
X176399Y89031D01*
X178082Y91225D01*
X179140Y93779D01*
X179501Y96520D01*
X179140Y99261D01*
X178082Y101815D01*
X176399Y104009D01*
X174205Y105692D01*
X171651Y106750D01*
X168910Y107111D01*
D02*
G37*
G36*
Y81711D02*
X166169Y81350D01*
X163615Y80292D01*
X161421Y78609D01*
X159738Y76415D01*
X158680Y73861D01*
X158319Y71120D01*
X158680Y68379D01*
X159738Y65825D01*
X161421Y63631D01*
X163615Y61948D01*
X166169Y60890D01*
X168910Y60529D01*
X171651Y60890D01*
X174205Y61948D01*
X176399Y63631D01*
X178082Y65825D01*
X179140Y68379D01*
X179501Y71120D01*
X179140Y73861D01*
X178082Y76415D01*
X176399Y78609D01*
X174205Y80292D01*
X171651Y81350D01*
X168910Y81711D01*
D02*
G37*
G36*
X16510D02*
X13769Y81350D01*
X11215Y80292D01*
X9021Y78609D01*
X7338Y76415D01*
X6280Y73861D01*
X5919Y71120D01*
X6280Y68379D01*
X7338Y65825D01*
X9021Y63631D01*
X11215Y61948D01*
X13769Y60890D01*
X16510Y60529D01*
X19251Y60890D01*
X21805Y61948D01*
X23999Y63631D01*
X25682Y65825D01*
X26740Y68379D01*
X27101Y71120D01*
X26740Y73861D01*
X25682Y76415D01*
X23999Y78609D01*
X21805Y80292D01*
X19251Y81350D01*
X16510Y81711D01*
D02*
G37*
G36*
X15260Y56146D02*
X13769Y55950D01*
X11215Y54892D01*
X9021Y53209D01*
X7338Y51015D01*
X6280Y48461D01*
X6084Y46970D01*
X15260D01*
Y56146D01*
D02*
G37*
G36*
Y44470D02*
X6084D01*
X6280Y42979D01*
X7338Y40425D01*
X9021Y38231D01*
X11215Y36548D01*
X13769Y35490D01*
X15260Y35294D01*
Y44470D01*
D02*
G37*
G36*
X168910Y56311D02*
X166169Y55950D01*
X163615Y54892D01*
X161421Y53209D01*
X159738Y51015D01*
X158680Y48461D01*
X158319Y45720D01*
X158680Y42979D01*
X159738Y40425D01*
X161421Y38231D01*
X163615Y36548D01*
X166169Y35490D01*
X168910Y35129D01*
X171651Y35490D01*
X174205Y36548D01*
X176399Y38231D01*
X178082Y40425D01*
X179140Y42979D01*
X179501Y45720D01*
X179140Y48461D01*
X178082Y51015D01*
X176399Y53209D01*
X174205Y54892D01*
X171651Y55950D01*
X168910Y56311D01*
D02*
G37*
G36*
X17760Y56146D02*
Y45720D01*
Y35294D01*
X19251Y35490D01*
X21805Y36548D01*
X22642Y37191D01*
X22877Y37298D01*
X23705Y37896D01*
X24467Y38378D01*
X25238Y38799D01*
X26021Y39161D01*
X26817Y39465D01*
X27628Y39714D01*
X28457Y39908D01*
X29308Y40047D01*
X30182Y40131D01*
X31177Y40163D01*
X31713Y40287D01*
X32252Y40394D01*
X32292Y40421D01*
X32340Y40432D01*
X32787Y40752D01*
X32898Y40826D01*
X33163D01*
X35539Y38449D01*
X37127Y37389D01*
X37590Y37296D01*
X37601Y37288D01*
X37629Y37247D01*
X38085Y36942D01*
X38531Y36623D01*
X38580Y36612D01*
X38621Y36584D01*
X39160Y36477D01*
X39694Y36353D01*
X40699Y36321D01*
X41582Y36234D01*
X42445Y36091D01*
X43288Y35891D01*
X44116Y35635D01*
X44930Y35320D01*
X45734Y34946D01*
X46528Y34510D01*
X47316Y34011D01*
X48169Y33394D01*
X48404Y33286D01*
X49254Y32633D01*
X51261Y31802D01*
Y30428D01*
X49254Y29597D01*
X47036Y27894D01*
X45333Y25676D01*
X44263Y23092D01*
X44063Y21570D01*
X54610D01*
X65157D01*
X64957Y23092D01*
X63887Y25676D01*
X62184Y27894D01*
X59966Y29597D01*
X57959Y30428D01*
Y31802D01*
X59966Y32633D01*
X62184Y34336D01*
X63887Y36554D01*
X64957Y39138D01*
X65157Y40660D01*
X54610D01*
Y41910D01*
X53360D01*
Y52457D01*
X51838Y52257D01*
X49254Y51187D01*
X48404Y50534D01*
X48169Y50426D01*
X47316Y49809D01*
X46529Y49310D01*
X45734Y48874D01*
X44930Y48500D01*
X44116Y48185D01*
X43288Y47929D01*
X42445Y47729D01*
X41582Y47586D01*
X40699Y47499D01*
X40343Y47488D01*
X38651Y49181D01*
X37063Y50241D01*
X35190Y50614D01*
X32898D01*
X32787Y50688D01*
X32340Y51008D01*
X32292Y51019D01*
X32252Y51046D01*
X31712Y51153D01*
X31177Y51277D01*
X30182Y51309D01*
X29308Y51393D01*
X28457Y51532D01*
X27628Y51726D01*
X26817Y51975D01*
X26021Y52279D01*
X25239Y52641D01*
X24467Y53062D01*
X23705Y53544D01*
X22877Y54142D01*
X22642Y54249D01*
X21805Y54892D01*
X19251Y55950D01*
X17760Y56146D01*
D02*
G37*
G36*
X124479Y22620D02*
X116379D01*
Y16425D01*
X124479D01*
Y22620D01*
D02*
G37*
G36*
X105835Y16029D02*
Y11410D01*
X110454D01*
X110237Y12501D01*
X108911Y14486D01*
X106926Y15812D01*
X105835Y16029D01*
D02*
G37*
G36*
X103335D02*
X102244Y15812D01*
X100259Y14486D01*
X98933Y12501D01*
X98716Y11410D01*
X103335D01*
Y16029D01*
D02*
G37*
G36*
X65157Y19070D02*
X55860D01*
Y9773D01*
X57382Y9973D01*
X59966Y11043D01*
X62184Y12746D01*
X63887Y14964D01*
X64957Y17548D01*
X65157Y19070D01*
D02*
G37*
G36*
X53360D02*
X44063D01*
X44263Y17548D01*
X45333Y14964D01*
X47036Y12746D01*
X49254Y11043D01*
X51838Y9973D01*
X53360Y9773D01*
Y19070D01*
D02*
G37*
G36*
X168910Y30911D02*
X166169Y30550D01*
X163615Y29492D01*
X161421Y27809D01*
X159738Y25615D01*
X158680Y23061D01*
X158319Y20320D01*
X158680Y17579D01*
X159738Y15025D01*
X161421Y12831D01*
X163615Y11148D01*
X166169Y10090D01*
X168910Y9729D01*
X171651Y10090D01*
X174205Y11148D01*
X176399Y12831D01*
X178082Y15025D01*
X179140Y17579D01*
X179501Y20320D01*
X179140Y23061D01*
X178082Y25615D01*
X176399Y27809D01*
X174205Y29492D01*
X171651Y30550D01*
X168910Y30911D01*
D02*
G37*
G36*
X16510D02*
X13769Y30550D01*
X11215Y29492D01*
X9021Y27809D01*
X7338Y25615D01*
X6280Y23061D01*
X5919Y20320D01*
X6280Y17579D01*
X7338Y15025D01*
X9021Y12831D01*
X11215Y11148D01*
X13769Y10090D01*
X16510Y9729D01*
X19251Y10090D01*
X21805Y11148D01*
X23999Y12831D01*
X25682Y15025D01*
X26740Y17579D01*
X27101Y20320D01*
X26740Y23061D01*
X25682Y25615D01*
X23999Y27809D01*
X21805Y29492D01*
X19251Y30550D01*
X16510Y30911D01*
D02*
G37*
G36*
X151510Y56085D02*
X137510D01*
Y40435D01*
X140275D01*
X140305Y40302D01*
X140414Y39755D01*
X140436Y39721D01*
X140445Y39682D01*
X140767Y39226D01*
X140870Y39072D01*
Y23983D01*
X140767Y23829D01*
X140446Y23374D01*
X140437Y23334D01*
X140414Y23300D01*
X140305Y22753D01*
X140275Y22620D01*
X126979D01*
Y15175D01*
X125729D01*
D01*
X126979D01*
Y7730D01*
X152859D01*
Y22620D01*
X148745D01*
X148715Y22753D01*
X148606Y23300D01*
X148583Y23334D01*
X148574Y23374D01*
X148252Y23829D01*
X148150Y23983D01*
Y39072D01*
X148253Y39227D01*
X148574Y39682D01*
X148583Y39721D01*
X148606Y39755D01*
X148715Y40302D01*
X148745Y40435D01*
X151510D01*
Y56085D01*
D02*
G37*
G36*
X124479Y13925D02*
X116379D01*
Y7730D01*
X124479D01*
Y13925D01*
D02*
G37*
%LPD*%
G36*
X135884Y203719D02*
X135960Y203503D01*
X136087Y203312D01*
X136265Y203147D01*
X136494Y203008D01*
X136773Y202893D01*
X137103Y202804D01*
X137484Y202741D01*
X137916Y202703D01*
X138115Y202697D01*
X138272Y202701D01*
X139171Y202790D01*
X139590Y202867D01*
X139989Y202967D01*
X140368Y203089D01*
X140726Y203232D01*
X141064Y203399D01*
X141382Y203587D01*
X141680Y203797D01*
Y199043D01*
X141382Y199253D01*
X141064Y199441D01*
X140726Y199607D01*
X140368Y199751D01*
X139989Y199873D01*
X139590Y199973D01*
X139171Y200050D01*
X138731Y200106D01*
X138272Y200139D01*
X138115Y200142D01*
X137916Y200137D01*
X137484Y200099D01*
X137103Y200036D01*
X136773Y199947D01*
X136494Y199832D01*
X136265Y199693D01*
X136087Y199528D01*
X135960Y199337D01*
X135884Y199121D01*
X135858Y198880D01*
Y203960D01*
X135884Y203719D01*
D02*
G37*
G36*
X126300Y182880D02*
X126274Y183121D01*
X126197Y183337D01*
X126069Y183528D01*
X125889Y183693D01*
X125657Y183832D01*
X125375Y183947D01*
X125040Y184036D01*
X124655Y184099D01*
X124218Y184137D01*
X123729Y184150D01*
Y186690D01*
X124218Y186703D01*
X124655Y186741D01*
X125040Y186804D01*
X125375Y186893D01*
X125657Y187008D01*
X125889Y187147D01*
X126069Y187312D01*
X126197Y187503D01*
X126274Y187719D01*
X126300Y187960D01*
Y182880D01*
D02*
G37*
G36*
X110200Y187719D02*
X110277Y187503D01*
X110405Y187312D01*
X110585Y187147D01*
X110817Y187008D01*
X111099Y186893D01*
X111434Y186804D01*
X111819Y186741D01*
X112256Y186703D01*
X112745Y186690D01*
Y184150D01*
X112256Y184137D01*
X111819Y184099D01*
X111434Y184036D01*
X111099Y183947D01*
X110817Y183832D01*
X110585Y183693D01*
X110405Y183528D01*
X110277Y183337D01*
X110200Y183121D01*
X110174Y182880D01*
Y187960D01*
X110200Y187719D01*
D02*
G37*
G36*
X133363Y181455D02*
X133147Y181378D01*
X132956Y181250D01*
X132791Y181070D01*
X132652Y180838D01*
X132537Y180556D01*
X132448Y180221D01*
X132385Y179836D01*
X132347Y179399D01*
X132334Y178911D01*
X129794D01*
X129781Y179399D01*
X129743Y179836D01*
X129680Y180221D01*
X129591Y180556D01*
X129476Y180838D01*
X129337Y181070D01*
X129172Y181250D01*
X128981Y181378D01*
X128765Y181455D01*
X128524Y181481D01*
X133604D01*
X133363Y181455D01*
D02*
G37*
G36*
X132347Y156641D02*
X132385Y156204D01*
X132448Y155819D01*
X132537Y155484D01*
X132652Y155202D01*
X132791Y154970D01*
X132956Y154790D01*
X133147Y154662D01*
X133363Y154585D01*
X133604Y154559D01*
X128524D01*
X128765Y154585D01*
X128981Y154662D01*
X129172Y154790D01*
X129337Y154970D01*
X129476Y155202D01*
X129591Y155484D01*
X129680Y155819D01*
X129743Y156204D01*
X129781Y156641D01*
X129794Y157129D01*
X132334D01*
X132347Y156641D01*
D02*
G37*
G36*
X56909Y181455D02*
X56693Y181378D01*
X56502Y181250D01*
X56337Y181070D01*
X56198Y180838D01*
X56083Y180556D01*
X55994Y180221D01*
X55931Y179836D01*
X55893Y179399D01*
X55880Y178911D01*
X53340D01*
X53327Y179399D01*
X53289Y179836D01*
X53226Y180221D01*
X53137Y180556D01*
X53022Y180838D01*
X52883Y181070D01*
X52718Y181250D01*
X52527Y181378D01*
X52311Y181455D01*
X52070Y181481D01*
X57150D01*
X56909Y181455D01*
D02*
G37*
G36*
X55898Y165161D02*
X55952Y164783D01*
X56042Y164492D01*
X56167Y164288D01*
X56329Y164170D01*
X56527Y164139D01*
X56760Y164195D01*
X57030Y164337D01*
X57335Y164566D01*
X57676Y164882D01*
Y161290D01*
X57335Y160923D01*
X57030Y160542D01*
X56760Y160145D01*
X56527Y159734D01*
X56329Y159308D01*
X56167Y158867D01*
X56042Y158411D01*
X55952Y157940D01*
X55898Y157455D01*
X55883Y157028D01*
X55893Y156641D01*
X55931Y156204D01*
X55994Y155819D01*
X56083Y155484D01*
X56198Y155202D01*
X56337Y154970D01*
X56502Y154790D01*
X56693Y154662D01*
X56909Y154585D01*
X57150Y154559D01*
X52070D01*
X52311Y154585D01*
X52527Y154662D01*
X52718Y154790D01*
X52883Y154970D01*
X53022Y155202D01*
X53137Y155484D01*
X53226Y155819D01*
X53289Y156204D01*
X53327Y156641D01*
X53340Y157129D01*
X55735D01*
X53340Y160020D01*
X55880Y165626D01*
X55898Y165161D01*
D02*
G37*
G36*
X101139Y155880D02*
X102077Y155083D01*
X102491Y154793D01*
X102868Y154574D01*
X103209Y154427D01*
X103513Y154353D01*
X103781Y154350D01*
X104013Y154418D01*
X104208Y154559D01*
X100646Y150997D01*
X100787Y151192D01*
X100855Y151424D01*
X100852Y151691D01*
X100778Y151996D01*
X100631Y152337D01*
X100412Y152714D01*
X100122Y153128D01*
X99760Y153579D01*
X98819Y154590D01*
X100616Y156385D01*
X101139Y155880D01*
D02*
G37*
G36*
X104208Y146681D02*
X104013Y146822D01*
X103781Y146890D01*
X103513Y146887D01*
X103209Y146812D01*
X102868Y146666D01*
X102491Y146447D01*
X102077Y146157D01*
X101626Y145794D01*
X100616Y144854D01*
X98819Y146650D01*
X99325Y147174D01*
X100122Y148112D01*
X100412Y148526D01*
X100631Y148903D01*
X100778Y149244D01*
X100852Y149549D01*
X100855Y149816D01*
X100787Y150048D01*
X100646Y150243D01*
X104208Y146681D01*
D02*
G37*
G36*
X126314Y132080D02*
X126289Y132321D01*
X126213Y132537D01*
X126086Y132728D01*
X125908Y132893D01*
X125680Y133033D01*
X125400Y133147D01*
X125070Y133236D01*
X124689Y133299D01*
X124257Y133337D01*
X123774Y133350D01*
Y135890D01*
X124257Y135903D01*
X124689Y135941D01*
X125070Y136004D01*
X125400Y136093D01*
X125680Y136208D01*
X125908Y136347D01*
X126086Y136512D01*
X126213Y136703D01*
X126289Y136919D01*
X126314Y137160D01*
Y132080D01*
D02*
G37*
G36*
X110230Y136919D02*
X110306Y136703D01*
X110433Y136512D01*
X110611Y136347D01*
X110840Y136208D01*
X111119Y136093D01*
X111449Y136004D01*
X111830Y135941D01*
X112262Y135903D01*
X112745Y135890D01*
Y133350D01*
X112262Y133337D01*
X111830Y133299D01*
X111449Y133236D01*
X111119Y133147D01*
X110840Y133033D01*
X110611Y132893D01*
X110433Y132728D01*
X110306Y132537D01*
X110230Y132321D01*
X110204Y132080D01*
Y137160D01*
X110230Y136919D01*
D02*
G37*
G36*
X107709Y130655D02*
X107493Y130578D01*
X107302Y130450D01*
X107137Y130270D01*
X106997Y130038D01*
X106883Y129756D01*
X106794Y129421D01*
X106731Y129036D01*
X106693Y128599D01*
X106680Y128111D01*
X104140D01*
X104127Y128599D01*
X104089Y129036D01*
X104026Y129421D01*
X103937Y129756D01*
X103822Y130038D01*
X103683Y130270D01*
X103518Y130450D01*
X103327Y130578D01*
X103111Y130655D01*
X102870Y130681D01*
X107950D01*
X107709Y130655D01*
D02*
G37*
G36*
X82309Y130655D02*
X82093Y130578D01*
X81902Y130450D01*
X81737Y130270D01*
X81597Y130038D01*
X81483Y129755D01*
X81394Y129421D01*
X81331Y129036D01*
X81293Y128599D01*
X81290Y128485D01*
X81291Y128428D01*
X81380Y127529D01*
X81457Y127110D01*
X81557Y126711D01*
X81679Y126332D01*
X81823Y125974D01*
X81989Y125636D01*
X82177Y125318D01*
X82387Y125020D01*
X77633D01*
X77843Y125318D01*
X78031Y125636D01*
X78197Y125974D01*
X78341Y126332D01*
X78463Y126711D01*
X78563Y127110D01*
X78640Y127529D01*
X78696Y127969D01*
X78729Y128428D01*
X78730Y128485D01*
X78727Y128599D01*
X78689Y129036D01*
X78626Y129421D01*
X78537Y129755D01*
X78422Y130038D01*
X78283Y130270D01*
X78118Y130450D01*
X77927Y130578D01*
X77711Y130655D01*
X77470Y130681D01*
X82550D01*
X82309Y130655D01*
D02*
G37*
G36*
X106692Y118989D02*
X106792Y117812D01*
X106879Y117334D01*
X106992Y116929D01*
X107128Y116598D01*
X107290Y116340D01*
X107477Y116156D01*
X107689Y116046D01*
X107926Y116009D01*
X102894D01*
X103131Y116046D01*
X103343Y116156D01*
X103530Y116340D01*
X103692Y116598D01*
X103828Y116929D01*
X103941Y117334D01*
X104028Y117812D01*
X104090Y118364D01*
X104128Y118989D01*
X104140Y119688D01*
X106680D01*
X106692Y118989D01*
D02*
G37*
G36*
X93992D02*
X94092Y117812D01*
X94179Y117334D01*
X94291Y116929D01*
X94429Y116598D01*
X94591Y116340D01*
X94777Y116156D01*
X94989Y116046D01*
X95226Y116009D01*
X90194D01*
X90431Y116046D01*
X90643Y116156D01*
X90829Y116340D01*
X90991Y116598D01*
X91129Y116929D01*
X91241Y117334D01*
X91328Y117812D01*
X91390Y118364D01*
X91428Y118989D01*
X91440Y119688D01*
X93980D01*
X93992Y118989D01*
D02*
G37*
G36*
X82177Y121062D02*
X81989Y120744D01*
X81823Y120406D01*
X81679Y120048D01*
X81557Y119669D01*
X81457Y119270D01*
X81380Y118851D01*
X81334Y118492D01*
X81392Y117812D01*
X81479Y117334D01*
X81592Y116929D01*
X81728Y116598D01*
X81890Y116340D01*
X82077Y116156D01*
X82289Y116046D01*
X82526Y116009D01*
X77494D01*
X77731Y116046D01*
X77943Y116156D01*
X78130Y116340D01*
X78292Y116598D01*
X78429Y116929D01*
X78541Y117334D01*
X78628Y117812D01*
X78689Y118355D01*
X78640Y118851D01*
X78563Y119270D01*
X78463Y119669D01*
X78341Y120048D01*
X78197Y120406D01*
X78031Y120744D01*
X77843Y121062D01*
X77633Y121360D01*
X82387D01*
X82177Y121062D01*
D02*
G37*
G36*
X55990Y114463D02*
X55737Y114000D01*
X55514Y113492D01*
X55321Y112939D01*
X55157Y112339D01*
X55023Y111694D01*
X54919Y111003D01*
X54800Y109483D01*
X54785Y108655D01*
X49785D01*
X49770Y109483D01*
X49651Y111003D01*
X49547Y111694D01*
X49413Y112339D01*
X49249Y112939D01*
X49056Y113492D01*
X48833Y114000D01*
X48580Y114463D01*
X48297Y114879D01*
X56273D01*
X55990Y114463D01*
D02*
G37*
G36*
X37115Y92550D02*
X37065Y92830D01*
X36916Y93080D01*
X36665Y93300D01*
X36316Y93491D01*
X35865Y93653D01*
X35315Y93785D01*
X34666Y93888D01*
X33916Y93961D01*
X32115Y94020D01*
Y99020D01*
X33066Y99035D01*
X34666Y99152D01*
X35315Y99255D01*
X35865Y99387D01*
X36316Y99549D01*
X36665Y99740D01*
X36916Y99960D01*
X37065Y100210D01*
X37115Y100490D01*
Y92550D01*
D02*
G37*
G36*
X21990Y101809D02*
X22916Y101223D01*
X23863Y100707D01*
X24831Y100260D01*
X25820Y99881D01*
X26830Y99571D01*
X27861Y99330D01*
X28914Y99158D01*
X29987Y99054D01*
X31081Y99020D01*
Y94020D01*
X29987Y93986D01*
X28914Y93882D01*
X27861Y93710D01*
X26830Y93469D01*
X25820Y93159D01*
X24831Y92781D01*
X23863Y92333D01*
X22916Y91817D01*
X21990Y91231D01*
X21085Y90577D01*
Y102463D01*
X21990Y101809D01*
D02*
G37*
G36*
X50715Y79520D02*
X49949Y79505D01*
X48657Y79384D01*
X48132Y79278D01*
X47688Y79142D01*
X47324Y78976D01*
X47041Y78780D01*
X46838Y78553D01*
X46716Y78296D01*
X46674Y78010D01*
X46705Y84489D01*
X46745Y84495D01*
X46865Y84501D01*
X50715Y84520D01*
Y79520D01*
D02*
G37*
G36*
X132832Y77260D02*
X132450Y77110D01*
X132112Y76860D01*
X131820Y76510D01*
X131572Y76061D01*
X131370Y75510D01*
X131213Y74861D01*
X131100Y74110D01*
X131032Y73260D01*
X131030Y73172D01*
X131142Y71695D01*
X131244Y70992D01*
X131376Y70340D01*
X131536Y69736D01*
X131726Y69183D01*
X131946Y68679D01*
X132194Y68225D01*
X132472Y67820D01*
X124548D01*
X124826Y68225D01*
X125074Y68679D01*
X125294Y69183D01*
X125484Y69736D01*
X125645Y70340D01*
X125776Y70992D01*
X125878Y71695D01*
X125990Y73172D01*
X125988Y73260D01*
X125920Y74110D01*
X125808Y74861D01*
X125650Y75510D01*
X125448Y76061D01*
X125200Y76510D01*
X124908Y76860D01*
X124570Y77110D01*
X124188Y77260D01*
X123760Y77310D01*
X133259D01*
X132832Y77260D01*
D02*
G37*
G36*
X132194Y61315D02*
X131946Y60861D01*
X131726Y60357D01*
X131536Y59804D01*
X131376Y59200D01*
X131244Y58548D01*
X131142Y57845D01*
X131055Y56694D01*
X131142Y55504D01*
X131245Y54854D01*
X131377Y54304D01*
X131539Y53854D01*
X131730Y53505D01*
X131951Y53254D01*
X132200Y53105D01*
X132479Y53054D01*
X124541D01*
X124820Y53105D01*
X125070Y53254D01*
X125290Y53505D01*
X125481Y53854D01*
X125643Y54304D01*
X125775Y54854D01*
X125878Y55504D01*
X125951Y56255D01*
X125965Y56689D01*
X125878Y57845D01*
X125776Y58548D01*
X125645Y59200D01*
X125484Y59804D01*
X125294Y60357D01*
X125074Y60861D01*
X124826Y61315D01*
X124548Y61720D01*
X132472D01*
X132194Y61315D01*
D02*
G37*
G36*
X128277Y43496D02*
X128174Y43544D01*
X128002Y43507D01*
X127760Y43385D01*
X127449Y43178D01*
X127069Y42885D01*
X126101Y42044D01*
X124128Y40142D01*
X121005Y44090D01*
X121744Y44837D01*
X124393Y47868D01*
X124537Y48131D01*
X124597Y48326D01*
X124571Y48451D01*
X128277Y43496D01*
D02*
G37*
G36*
X81280Y57042D02*
X81328Y56164D01*
X81470Y55248D01*
X81708Y54294D01*
X82042Y53302D01*
X82205Y52911D01*
X82526D01*
X82289Y52874D01*
X82232Y52844D01*
X82470Y52273D01*
X82994Y51205D01*
X83613Y50099D01*
X85136Y47774D01*
X86041Y46554D01*
X80008Y41910D01*
X73965Y46562D01*
X74872Y47782D01*
X76400Y50107D01*
X77021Y51213D01*
X77546Y52280D01*
X77783Y52847D01*
X77731Y52874D01*
X77494Y52911D01*
X77810D01*
X77976Y53309D01*
X78310Y54300D01*
X78549Y55254D01*
X78692Y56168D01*
X78740Y57045D01*
X81280Y57042D01*
D02*
G37*
G36*
X86041Y37266D02*
X85136Y36046D01*
X83613Y33721D01*
X82994Y32615D01*
X82470Y31547D01*
X82292Y31119D01*
X82472Y30686D01*
X82997Y29619D01*
X83616Y28513D01*
X85142Y26188D01*
X86048Y24968D01*
X73972D01*
X74878Y26188D01*
X76404Y28513D01*
X77024Y29619D01*
X77548Y30686D01*
X77725Y31111D01*
X77546Y31540D01*
X77021Y32607D01*
X76400Y33713D01*
X74872Y36038D01*
X73965Y37258D01*
X80008Y41910D01*
X86041Y37266D01*
D02*
G37*
G36*
X21990Y51009D02*
X22916Y50423D01*
X23863Y49907D01*
X24831Y49460D01*
X25820Y49081D01*
X26830Y48771D01*
X27861Y48530D01*
X28914Y48358D01*
X29987Y48254D01*
X31081Y48220D01*
Y43220D01*
X29987Y43186D01*
X28914Y43082D01*
X27861Y42910D01*
X26830Y42669D01*
X25820Y42359D01*
X24831Y41981D01*
X23863Y41533D01*
X22916Y41017D01*
X21990Y40431D01*
X21085Y39777D01*
Y51663D01*
X21990Y51009D01*
D02*
G37*
G36*
X49962Y35872D02*
X49033Y36544D01*
X48084Y37146D01*
X47116Y37676D01*
X46129Y38136D01*
X45121Y38526D01*
X44095Y38844D01*
X43048Y39092D01*
X41982Y39269D01*
X40897Y39375D01*
X39792Y39410D01*
Y44410D01*
X40897Y44445D01*
X41982Y44552D01*
X43048Y44728D01*
X44095Y44976D01*
X45121Y45294D01*
X46129Y45684D01*
X47116Y46144D01*
X48084Y46674D01*
X49033Y47276D01*
X49962Y47948D01*
Y35872D01*
D02*
G37*
G36*
X146809Y43470D02*
X146593Y43393D01*
X146402Y43265D01*
X146237Y43085D01*
X146097Y42853D01*
X145983Y42571D01*
X145894Y42236D01*
X145831Y41851D01*
X145793Y41414D01*
X145780Y40925D01*
X143240D01*
X143227Y41414D01*
X143189Y41851D01*
X143126Y42236D01*
X143037Y42571D01*
X142922Y42853D01*
X142783Y43085D01*
X142618Y43265D01*
X142427Y43393D01*
X142211Y43470D01*
X141970Y43496D01*
X147050D01*
X146809Y43470D01*
D02*
G37*
G36*
X145793Y21647D02*
X145831Y21215D01*
X145894Y20834D01*
X145983Y20504D01*
X146097Y20224D01*
X146237Y19996D01*
X146402Y19818D01*
X146593Y19691D01*
X146809Y19615D01*
X147050Y19590D01*
X141970D01*
X142211Y19615D01*
X142427Y19691D01*
X142618Y19818D01*
X142783Y19996D01*
X142922Y20224D01*
X143037Y20504D01*
X143126Y20834D01*
X143189Y21215D01*
X143227Y21647D01*
X143240Y22129D01*
X145780D01*
X145793Y21647D01*
D02*
G37*
D11*
X144648Y354793D02*
X147532Y351908D01*
Y334592D02*
Y351908D01*
X146010Y333070D02*
X147532Y334592D01*
X143840Y333070D02*
X146010D01*
X138518Y327748D02*
X143840Y333070D01*
X149625Y369805D02*
X153162Y366268D01*
Y330837D02*
Y366268D01*
X149985Y327660D02*
X153162Y330837D01*
X147710Y327660D02*
X149985D01*
X89220Y208720D02*
X96520Y201420D01*
X89220Y208720D02*
Y238760D01*
X128502Y316222D02*
X128510Y316230D01*
X152400Y230750D02*
Y259110D01*
X143900Y222250D02*
X152400Y230750D01*
X133200Y222250D02*
X143900D01*
X116690Y238760D02*
X133200Y222250D01*
X123510Y267020D02*
Y275230D01*
X120650Y264160D02*
X123510Y267020D01*
X114300Y264160D02*
X120650D01*
X110490Y267970D02*
X114300Y264160D01*
X110490Y267970D02*
Y283210D01*
X128502Y261852D02*
Y275222D01*
X124225Y257575D02*
X128502Y261852D01*
X105410Y257575D02*
X124225D01*
X128502Y275222D02*
X128510Y275230D01*
X133510Y254000D02*
Y275230D01*
X143510Y268000D02*
X152400Y259110D01*
X143510Y268000D02*
Y275230D01*
X135680Y334130D02*
Y340150D01*
X133510Y331960D02*
X135680Y334130D01*
X133510Y316230D02*
Y331960D01*
X128502Y316238D02*
Y327428D01*
X125180Y330750D02*
X128502Y327428D01*
X125180Y330750D02*
Y340150D01*
X128502Y316238D02*
X128510Y316230D01*
X122430Y342900D02*
X125180Y340150D01*
X135680D02*
X138430Y342900D01*
X139397Y354793D02*
X144648D01*
X138518Y316238D02*
Y327748D01*
X114300Y328930D02*
X118110D01*
X110160Y333070D02*
X114300Y328930D01*
X106610Y333070D02*
X110160D01*
X118110Y328930D02*
X119967Y327073D01*
Y327014D02*
Y327073D01*
Y327014D02*
X123510Y323471D01*
Y316230D02*
Y323471D01*
X131260Y362930D02*
X139397Y354793D01*
X131260Y362930D02*
Y370630D01*
X128510Y373380D02*
X131260Y370630D01*
X138510Y316230D02*
X138518Y316238D01*
X143510Y323460D02*
X147710Y327660D01*
X147260Y369805D02*
X149625D01*
X143510Y316230D02*
Y323460D01*
X144510Y372555D02*
X147260Y369805D01*
X144510Y372555D02*
Y373380D01*
X101860Y337820D02*
X106610Y333070D01*
X63710Y229660D02*
X65560Y231510D01*
X81970D01*
X89220Y238760D01*
X57360Y229660D02*
X63710D01*
X54610Y232410D02*
X57360Y229660D01*
X46270Y245660D02*
X51860D01*
X42300Y241690D02*
X46270Y245660D01*
X42300Y213730D02*
Y241690D01*
Y213730D02*
X51035Y204995D01*
Y204170D02*
Y204995D01*
Y204170D02*
X53785Y201420D01*
X54610D01*
X51860Y245660D02*
X54610Y248410D01*
D12*
X80010Y20320D02*
Y60960D01*
X96520Y201420D02*
X105410D01*
X80010D02*
X96520D01*
X138510Y262810D02*
X144510Y256810D01*
Y237220D02*
Y256810D01*
X138670Y231380D02*
X144510Y237220D01*
X138510Y262810D02*
Y275230D01*
X80010Y123190D02*
Y134620D01*
Y107960D02*
Y123190D01*
X131064Y201420D02*
X143510D01*
X92710Y138745D02*
X104585Y150620D01*
X92710Y107960D02*
Y138745D01*
X104585Y150620D02*
X105410D01*
X92048Y175922D02*
X92710Y175260D01*
X80010Y185420D02*
X80835D01*
X49530Y328700D02*
Y330200D01*
X54610Y160020D02*
Y185420D01*
Y150620D02*
Y160020D01*
X62230Y167640D02*
X87565D01*
X54610Y160020D02*
X62230Y167640D01*
X87565D02*
X104585Y150620D01*
X78810Y89960D02*
X80860D01*
X105410Y185420D02*
X131064D01*
Y150620D02*
Y185420D01*
X105410Y134620D02*
X131064D01*
X105410Y107960D02*
Y134620D01*
X143509Y15175D02*
X144510Y16176D01*
Y48260D01*
D16*
X41910Y64520D02*
D03*
Y96520D02*
D03*
Y80520D02*
D03*
X54610Y248410D02*
D03*
Y232410D02*
D03*
X131064Y201420D02*
D03*
Y185420D02*
D03*
X105410D02*
D03*
Y201420D02*
D03*
X80010D02*
D03*
Y185420D02*
D03*
X54610Y201420D02*
D03*
Y185420D02*
D03*
Y150620D02*
D03*
Y134620D02*
D03*
X105410Y150620D02*
D03*
Y134620D02*
D03*
D17*
X67750Y373380D02*
D03*
X51750D02*
D03*
X128510Y48260D02*
D03*
X144510D02*
D03*
D18*
X96860Y284480D02*
D03*
X80860D02*
D03*
X128510Y373380D02*
D03*
X144510D02*
D03*
X91950D02*
D03*
X107950D02*
D03*
X122430Y342900D02*
D03*
X138430D02*
D03*
D19*
X128510Y97280D02*
D03*
Y81280D02*
D03*
X80010Y150620D02*
D03*
Y134620D02*
D03*
X131064Y150620D02*
D03*
Y134620D02*
D03*
D20*
X89220Y238760D02*
D03*
X116690D02*
D03*
D21*
X49530Y302730D02*
D03*
Y330200D02*
D03*
D22*
X80860Y320820D02*
D03*
X101860D02*
D03*
Y337820D02*
D03*
X80860D02*
D03*
D23*
X125729Y15175D02*
D03*
X143509D02*
D03*
D24*
X123510Y275230D02*
D03*
X128510D02*
D03*
X133510D02*
D03*
X138510D02*
D03*
X143510D02*
D03*
X123510Y316230D02*
D03*
X128510D02*
D03*
X133510D02*
D03*
X138510D02*
D03*
X143510D02*
D03*
D25*
X105410Y107960D02*
D03*
X92710D02*
D03*
X80010D02*
D03*
X67310D02*
D03*
X105410Y60960D02*
D03*
X92710D02*
D03*
X80010D02*
D03*
X67310D02*
D03*
D26*
X86360Y84460D02*
D03*
D40*
X101610Y41910D02*
X122360D01*
X92710Y50810D02*
X101610Y41910D01*
X92710Y50810D02*
Y60960D01*
X39000Y41910D02*
X54610D01*
X35190Y45720D02*
X39000Y41910D01*
X16510Y45720D02*
X35190D01*
X60959Y389000D02*
X83000D01*
X53250Y381291D02*
X60959Y389000D01*
X53250Y374880D02*
Y381291D01*
X51750Y373380D02*
X53250Y374880D01*
X90450Y374880D02*
Y381550D01*
X83000Y389000D02*
X90450Y381550D01*
Y374880D02*
X91950Y373380D01*
X52432Y69850D02*
X53785D01*
X48602Y66020D02*
X52432Y69850D01*
X43410Y66020D02*
X48602D01*
X41910Y64520D02*
X43410Y66020D01*
X55880Y87185D02*
Y105060D01*
X52285Y108655D02*
X55880Y105060D01*
X52285Y108655D02*
Y117895D01*
X50715Y82020D02*
X55880Y87185D01*
X43410Y82020D02*
X50715D01*
X41910Y80520D02*
X43410Y82020D01*
X16510Y96520D02*
X41910D01*
X109450Y375705D02*
X127010D01*
X128510Y374205D01*
Y373380D02*
Y374205D01*
X107950D02*
X109450Y375705D01*
X107950Y373380D02*
Y374205D01*
X90333Y354793D02*
X98252D01*
X106450Y362990D01*
Y371880D01*
X107950Y373380D01*
X84860Y349320D02*
X90333Y354793D01*
X84860Y341320D02*
Y349320D01*
X81360Y337820D02*
X84860Y341320D01*
X80860Y337820D02*
X81360D01*
X74340Y295230D02*
X76860Y292710D01*
X79360Y285980D02*
Y290210D01*
X76860Y292710D02*
X79360Y290210D01*
X76860Y292710D02*
Y317320D01*
X79360Y285980D02*
X80860Y284480D01*
X76860Y317320D02*
X80360Y320820D01*
X80860D01*
X76860Y324320D02*
X80360Y320820D01*
X76860Y324320D02*
Y334320D01*
X80360Y337820D01*
X80860D01*
X55530Y295230D02*
X74340D01*
X49530Y301230D02*
X55530Y295230D01*
X49530Y301230D02*
Y302730D01*
X128510Y64770D02*
Y81280D01*
Y48260D02*
Y64770D01*
X122360Y41910D02*
X128510Y48060D01*
Y48260D01*
X52285Y249910D02*
Y273470D01*
X43530Y282225D02*
X52285Y273470D01*
X43530Y282225D02*
Y296730D01*
X52285Y249910D02*
X53785Y248410D01*
X54610D01*
D41*
Y41910D02*
D03*
X80000D02*
D03*
X54610Y20320D02*
D03*
X80010D02*
D03*
D42*
X16510D02*
D03*
Y45720D02*
D03*
Y71120D02*
D03*
Y96520D02*
D03*
Y121920D02*
D03*
Y147320D02*
D03*
Y172720D02*
D03*
Y198120D02*
D03*
Y223520D02*
D03*
Y248920D02*
D03*
Y274320D02*
D03*
Y299720D02*
D03*
Y325120D02*
D03*
Y350520D02*
D03*
Y375920D02*
D03*
X168910Y20320D02*
D03*
Y45720D02*
D03*
Y71120D02*
D03*
Y96520D02*
D03*
Y121920D02*
D03*
Y147320D02*
D03*
Y172720D02*
D03*
Y198120D02*
D03*
Y223520D02*
D03*
Y248920D02*
D03*
Y274320D02*
D03*
Y299720D02*
D03*
Y325120D02*
D03*
Y350520D02*
D03*
Y375920D02*
D03*
D43*
X52285Y117895D02*
D03*
X53785Y69850D02*
D03*
X128510Y64770D02*
D03*
X52285Y273470D02*
D03*
X99610Y302900D02*
D03*
D44*
X67310Y355600D02*
D03*
X104585Y10160D02*
D03*
X138670Y231380D02*
D03*
X110490Y283210D02*
D03*
X143510Y201420D02*
D03*
X80010Y123190D02*
D03*
X105410Y257575D02*
D03*
X133510Y254000D02*
D03*
X92710Y175260D02*
D03*
X67310Y142240D02*
D03*
D45*
X91860Y89960D02*
D03*
Y78960D02*
D03*
X80860Y89960D02*
D03*
Y78960D02*
D03*
M02*
