M48
;Layer_Color=9474304
;FILE_FORMAT=4:4
METRIC,TZ
;TYPE=PLATED
T1F00S00C0.3200
T2F00S00C0.8128
T3F00S00C0.9000
%
T01
X58420Y7620
X48260Y33020
X55880Y53340
X58420Y87630
X71120
X91440Y81280
Y68580
X123190Y54610
X120650Y43180
Y31750
X129460Y13970
X91440Y22180
X127134Y87630
X110490Y113030
X137920Y135890
X71120Y130810
X62230Y116840
X44450Y127000
X151130Y115570
X152400Y63500
X144780Y39370
Y7220
X138430Y181610
X113030Y182880
X127134Y204470
X142748Y205740
X123324Y229870
X115570
X112134Y270510
X95250Y318770
X48260Y302770
Y271780
X35560Y237490
X53340Y204470
X72390Y196850
T02
X55880Y381000
X81280
T03
X17780Y25400
Y50800
Y76200
Y101600
Y127000
X170180
Y101600
Y76200
Y50800
Y25400
Y152400
Y177800
Y203200
Y228600
Y254000
Y279400
Y304800
Y330200
Y355600
Y381000
X17780
Y355600
Y330200
Y304800
Y279400
Y254000
Y228600
Y203200
Y177800
Y152400
M30
