G04*
G04 #@! TF.GenerationSoftware,Altium Limited,Altium Designer,19.0.10 (269)*
G04*
G04 Layer_Color=2752767*
%FSLAX44Y44*%
%MOMM*%
G71*
G01*
G75*
%ADD56C,0.0508*%
%ADD57C,0.0677*%
D56*
X168148Y23368D02*
Y27432D01*
X172212D01*
Y23368D01*
X168148D01*
Y48768D02*
Y52832D01*
X172212D01*
Y48768D01*
X168148D01*
Y74168D02*
Y78232D01*
X172212D01*
Y74168D01*
X168148D01*
Y99568D02*
Y103632D01*
X172212D01*
Y99568D01*
X168148D01*
Y124968D02*
Y129032D01*
X172212D01*
Y124968D01*
X168148D01*
Y150368D02*
Y154432D01*
X172212D01*
Y150368D01*
X168148D01*
Y175768D02*
Y179832D01*
X172212D01*
Y175768D01*
X168148D01*
Y201168D02*
Y205232D01*
X172212D01*
Y201168D01*
X168148D01*
Y226568D02*
Y230632D01*
X172212D01*
Y226568D01*
X168148D01*
Y251968D02*
Y256032D01*
X172212D01*
Y251968D01*
X168148D01*
Y277368D02*
Y281432D01*
X172212D01*
Y277368D01*
X168148D01*
Y302768D02*
Y306832D01*
X172212D01*
Y302768D01*
X168148D01*
Y328168D02*
Y332232D01*
X172212D01*
Y328168D01*
X168148D01*
Y353568D02*
Y357632D01*
X172212D01*
Y353568D01*
X168148D01*
Y378968D02*
Y383032D01*
X172212D01*
Y378968D01*
X168148D01*
X15748Y23368D02*
Y27432D01*
X19812D01*
Y23368D01*
X15748D01*
Y48768D02*
Y52832D01*
X19812D01*
Y48768D01*
X15748D01*
Y74168D02*
Y78232D01*
X19812D01*
Y74168D01*
X15748D01*
Y99568D02*
Y103632D01*
X19812D01*
Y99568D01*
X15748D01*
Y124968D02*
Y129032D01*
X19812D01*
Y124968D01*
X15748D01*
Y150368D02*
Y154432D01*
X19812D01*
Y150368D01*
X15748D01*
Y175768D02*
Y179832D01*
X19812D01*
Y175768D01*
X15748D01*
Y201168D02*
Y205232D01*
X19812D01*
Y201168D01*
X15748D01*
Y226568D02*
Y230632D01*
X19812D01*
Y226568D01*
X15748D01*
Y251968D02*
Y256032D01*
X19812D01*
Y251968D01*
X15748D01*
Y277368D02*
Y281432D01*
X19812D01*
Y277368D01*
X15748D01*
Y302768D02*
Y306832D01*
X19812D01*
Y302768D01*
X15748D01*
Y328168D02*
Y332232D01*
X19812D01*
Y328168D01*
X15748D01*
Y353568D02*
Y357632D01*
X19812D01*
Y353568D01*
X15748D01*
Y378968D02*
Y383032D01*
X19812D01*
Y378968D01*
X15748D01*
X137920Y133858D02*
X135888Y137922D01*
X139952D01*
X137920Y133858D01*
X72390Y194818D02*
X70358Y198882D01*
X74422D01*
X72390Y194818D01*
X112134Y268478D02*
X110102Y272542D01*
X114166D01*
X112134Y268478D01*
X113030Y180848D02*
X110998Y184912D01*
X115062D01*
X113030Y180848D01*
X53340Y202438D02*
X51308Y206502D01*
X55372D01*
X53340Y202438D01*
X142748Y203708D02*
X140716Y207772D01*
X144780D01*
X142748Y203708D01*
X138430Y179578D02*
X136398Y183642D01*
X140462D01*
X138430Y179578D01*
X127134Y202438D02*
X125102Y206502D01*
X129166D01*
X127134Y202438D01*
X151130Y113538D02*
X149098Y117602D01*
X153162D01*
X151130Y113538D01*
X48260Y300738D02*
X46228Y304802D01*
X50292D01*
X48260Y300738D01*
X95250Y316738D02*
X93218Y320802D01*
X97282D01*
X95250Y316738D01*
X110490Y110998D02*
X108458Y115062D01*
X112522D01*
X110490Y110998D01*
X44450Y124968D02*
X42418Y129032D01*
X46482D01*
X44450Y124968D01*
X62230Y114808D02*
X60198Y118872D01*
X64262D01*
X62230Y114808D01*
X115570Y227838D02*
X113538Y231902D01*
X117602D01*
X115570Y227838D01*
X123324D02*
X121292Y231902D01*
X125356D01*
X123324Y227838D01*
X127134Y85598D02*
X125102Y89662D01*
X129166D01*
X127134Y85598D01*
X71120Y85598D02*
X69088Y89662D01*
X73152D01*
X71120Y85598D01*
X58420D02*
X56388Y89662D01*
X60452D01*
X58420Y85598D01*
X48260Y30988D02*
X46228Y35052D01*
X50292D01*
X48260Y30988D01*
X91440Y20148D02*
X89408Y24212D01*
X93472D01*
X91440Y20148D01*
X58420Y5588D02*
X56388Y9652D01*
X60452D01*
X58420Y5588D01*
X120650Y29718D02*
X118618Y33782D01*
X122682D01*
X120650Y29718D01*
X129460Y11938D02*
X127428Y16002D01*
X131492D01*
X129460Y11938D01*
X144780Y5188D02*
X142748Y9252D01*
X146812D01*
X144780Y5188D01*
X152400Y61468D02*
X150368Y65532D01*
X154432D01*
X152400Y61468D01*
X120650Y41148D02*
X118618Y45212D01*
X122682D01*
X120650Y41148D01*
X144780Y37338D02*
X142748Y41402D01*
X146812D01*
X144780Y37338D01*
X91440Y66548D02*
X89408Y70612D01*
X93472D01*
X91440Y66548D01*
Y79248D02*
X89408Y83312D01*
X93472D01*
X91440Y79248D01*
X123190Y52578D02*
X121158Y56642D01*
X125222D01*
X123190Y52578D01*
X71120Y128778D02*
X69088Y132842D01*
X73152D01*
X71120Y128778D01*
X35560Y235458D02*
X33528Y239522D01*
X37592D01*
X35560Y235458D01*
X48260Y269748D02*
X46228Y273812D01*
X50292D01*
X48260Y269748D01*
X55880Y51308D02*
X53848Y55372D01*
X57912D01*
X55880Y51308D01*
D57*
X83312Y381000D02*
G03*
X83312Y381000I-2032J0D01*
G01*
X57912D02*
G03*
X57912Y381000I-2032J0D01*
G01*
M02*
